<?xml version="1.0" encoding="UTF-8" standalone="no"?><!DOCTYPE svg PUBLIC "-//W3C//DTD SVG 1.1//EN" "http://www.w3.org/Graphics/SVG/1.1/DTD/svg11.dtd"><svg width="100%" height="100%" viewBox="0 0 149 115" version="1.1" xmlns="http://www.w3.org/2000/svg" xmlns:xlink="http://www.w3.org/1999/xlink" xml:space="preserve" xmlns:serif="http://www.serif.com/" style="fill-rule:evenodd;clip-rule:evenodd;stroke-linecap:round;stroke-linejoin:round;stroke-miterlimit:10;"><rect id="diodes_in" x="0" y="0.483" width="149" height="113.866" style="fill:none;"/><clipPath id="_clip1"><rect x="0" y="0.483" width="149" height="113.866"/></clipPath><g clip-path="url(#_clip1)"><g id="IN"><g><clipPath id="_clip2"><rect x="0.336" y="-1" width="152.88" height="116.831"/></clipPath><g clip-path="url(#_clip2)"><g id="axes"><path d="M0.336,57.416l1.885,-0m0,-0l2.393,-0m0,-0l19.1,-0m0,-0l152.814,-0m0,-0l19.1,-0m0,-0l9.552,-0m0,-0l4.774,-0m0,-0l2.393,-0m0,-0l1.485,-0" style="fill:none;fill-rule:nonzero;stroke:#202020;stroke-opacity:0.7;stroke-width:1.85px;"/></g><g><g><clipPath id="_clip3"><rect x="0.336" y="-1" width="203.649" height="116.831"/></clipPath><g clip-path="url(#_clip3)"><path d="M0.336,335.789l0,-572.886" style="fill:none;fill-rule:nonzero;stroke:#a0a0a0;stroke-width:0.38px;"/><path d="M10.514,335.789l0,-572.886" style="fill:none;fill-rule:nonzero;stroke:#a0a0a0;stroke-width:0.38px;"/><path d="M30.882,335.789l0,-572.886" style="fill:none;fill-rule:nonzero;stroke:#a0a0a0;stroke-width:0.38px;"/><path d="M51.244,335.789l0,-572.886" style="fill:none;fill-rule:nonzero;stroke:#a0a0a0;stroke-width:0.38px;"/><path d="M71.612,335.789l0,-572.886" style="fill:none;fill-rule:nonzero;stroke:#a0a0a0;stroke-width:0.38px;"/><path d="M91.98,335.789l0,-572.886" style="fill:none;fill-rule:nonzero;stroke:#a0a0a0;stroke-width:0.38px;"/><path d="M112.341,335.789l0,-572.886" style="fill:none;fill-rule:nonzero;stroke:#a0a0a0;stroke-width:0.38px;"/><path d="M132.709,335.789l0,-572.886" style="fill:none;fill-rule:nonzero;stroke:#a0a0a0;stroke-width:0.38px;"/></g></g></g><g><path d="M0.336,55.997l1.798,-3.997m0,0l2.283,-5.001m0,0l2.276,-4.876l2.277,-4.686l2.277,-4.428l2.276,-4.121l2.277,-3.747l2.282,-3.323l2.277,-2.849l2.276,-2.343m0,0l2.277,-1.811l2.276,-1.246l2.283,-0.657l1.138,-0.108l1.139,0.033l2.276,0.523l1.138,0.474l1.139,0.631l2.276,1.671l2.277,2.218l2.283,2.733l2.276,3.215l2.277,3.647l2.276,4.03l2.277,4.362l2.276,4.635l2.283,4.836l2.276,4.977l2.277,5.043l2.277,5.05l2.276,4.985l2.277,4.843l2.282,4.644l2.277,4.379l2.276,4.062l2.277,3.672l2.277,3.241l2.276,2.767l2.283,2.259l2.276,1.704l2.277,1.146l2.276,0.556l1.139,0.058l1.138,-0.091l2.276,-0.623l2.283,-1.205l2.277,-1.77l2.276,-2.309l2.277,-2.825l2.276,-3.29l2.283,-3.722l2.277,-4.095l2.276,-4.412l2.277,-4.669l2.276,-4.868l2.277,-4.993l2.282,-5.052l2.277,-5.043l2.276,-4.959l2.277,-4.82l2.277,-4.602l2.276,-4.329l2.283,-3.987l2.276,-3.605l2.277,-3.166l2.276,-2.675l2.277,-2.16l2.277,-1.612l2.282,-1.047l1.138,-0.299l1.139,-0.15l2.276,0.134l1.139,0.291l1.138,0.432l2.276,1.312l2.277,1.861l2.283,2.409l2.276,2.908l2.277,3.373m0,-0l2.276,3.789l2.277,4.154l2.282,4.461l2.277,4.711l2.277,4.884l2.276,5.01l2.277,5.06l2.276,5.035m0,-0l2.283,4.943l2.276,4.777l2.277,4.56l2.276,4.28m0,-0l2.277,3.921l2.277,3.53m0,0l2.282,3.083m0,0l1.417,1.67" style="fill:none;fill-rule:nonzero;stroke:#f00;stroke-opacity:0.7;stroke-width:1.81px;"/><path d="M0.336,18.586l1.798,2.161m0,-0l2.283,3.157m0,-0l2.276,3.597l2.277,3.996l2.277,4.32l2.276,4.602l2.277,4.82l2.282,4.959l2.277,5.043l2.276,5.052m0,-0l2.277,4.992l2.276,4.869l2.283,4.669l2.277,4.42l2.276,4.096l2.277,3.722l2.276,3.29l2.277,2.824l2.283,2.318l2.276,1.778l2.277,1.205l2.276,0.631l1.138,0.091l1.139,-0.058l2.276,-0.548l2.283,-1.138l2.276,-1.712l2.277,-2.251l2.277,-2.758l2.276,-3.24l2.277,-3.672l2.282,-4.055l2.277,-4.377l2.276,-4.646l2.277,-4.843l2.277,-4.985l2.276,-5.05l2.283,-5.043l2.276,-4.977l2.277,-4.835l2.276,-4.636l2.277,-4.362l2.276,-4.037l2.283,-3.647l2.277,-3.217l2.276,-2.741l2.277,-2.218l2.276,-1.678l2.283,-1.114l1.138,-0.331l1.139,-0.192l2.276,0.067l1.138,0.257l1.139,0.408l2.276,1.237l2.277,1.804l2.282,2.342l2.277,2.849l2.276,3.316l2.277,3.747l2.277,4.112l2.276,4.428l2.283,4.686l2.276,4.876l2.277,4.994l2.276,5.059l2.277,5.034l2.277,4.961l2.282,4.801l2.277,4.595l2.276,4.303l2.277,3.971l2.276,3.581l2.277,3.133l2.283,2.649l2.276,2.136l2.277,1.579m0,-0l2.276,1.004l1.139,0.282l1.138,0.143l2.282,-0.176l1.139,-0.307l1.138,-0.456l2.277,-1.338l2.276,-1.902l2.277,-2.434l2.276,-2.933m0,-0l2.283,-3.398l2.276,-3.814l2.277,-4.171l2.276,-4.478m0,0l2.277,-4.719l2.277,-4.901m0,0l2.282,-5.018m0,-0l1.417,-3.149" style="fill:none;fill-rule:nonzero;stroke:#00f;stroke-opacity:0.7;stroke-width:1.81px;"/><path d="M0.336,93.408l1.798,1.844m0,-0l2.283,1.836m0,0l2.276,1.28l2.277,0.698l1.138,0.125l1.139,-0.026l2.276,-0.481l1.138,-0.466l1.139,-0.606l2.282,-1.636l2.277,-2.194l2.276,-2.701m0,0l2.277,-3.189l2.276,-3.623l2.283,-4.013l2.277,-4.344l2.276,-4.611l2.277,-4.827l2.276,-4.968l2.277,-5.043l2.283,-5.052l2.276,-4.993l2.277,-4.851l2.276,-4.661l2.277,-4.395l2.276,-4.08l2.283,-3.697l2.276,-3.273l2.277,-2.791l2.277,-2.285l2.276,-1.744l2.277,-1.18l2.282,-0.591l1.139,-0.074l1.138,0.074l2.276,0.591l2.277,1.171l2.277,1.736l2.276,2.284l2.283,2.792l2.276,3.265l2.277,3.698l2.276,4.071l2.277,4.394l2.276,4.661l2.283,4.852l2.277,4.984l4.553,10.103l2.276,4.969l2.283,4.827l2.277,4.618l2.276,4.346l2.277,4.013l2.276,3.621l2.277,3.191l2.282,2.708l2.277,2.193l2.276,1.645l2.277,1.072l1.138,0.324l1.139,0.166l2.276,-0.099l1.144,-0.274l1.139,-0.416l2.276,-1.271l2.277,-1.836l2.276,-2.376l2.277,-2.882l2.277,-3.341l2.282,-3.763l2.277,-4.138l2.276,-4.445l2.277,-4.701l2.276,-4.878l2.277,-5.009l2.283,-5.051l2.276,-5.035l2.277,-4.952m0,-0l2.276,-4.793l2.277,-4.578l2.282,-4.287l2.277,-3.954l2.277,-3.548l2.276,-3.115l2.277,-2.618l2.276,-2.101m0,-0l2.283,-1.546l2.276,-0.972l1.139,-0.265l1.138,-0.117l2.276,0.208m0,0l2.277,0.789l2.277,1.371m0,-0l2.282,1.936m0,-0l1.417,1.478" style="fill:none;fill-rule:nonzero;stroke:#006400;stroke-opacity:0.7;stroke-width:1.81px;"/></g></g></g></g></g></svg>