<?xml version="1.0" encoding="UTF-8" standalone="no"?>
<!DOCTYPE svg PUBLIC "-//W3C//DTD SVG 1.1//EN" "http://www.w3.org/Graphics/SVG/1.1/DTD/svg11.dtd">
<svg width="100%" height="100%" viewBox="0 0 101 100" version="1.1" xmlns="http://www.w3.org/2000/svg" xmlns:xlink="http://www.w3.org/1999/xlink" xml:space="preserve" xmlns:serif="http://www.serif.com/" style="fill-rule:evenodd;clip-rule:evenodd;stroke-linecap:square;stroke-linejoin:round;stroke-miterlimit:10;">
    <g transform="matrix(1,0,0,1,-4,-422)">
        <g id="cell" transform="matrix(1.0101,0,0,1.11111,-547.213,-831.333)">
            <rect x="546" y="1128" width="99" height="90" style="fill:none;"/>
            <g id="DC-cell" serif:id="DC cell" transform="matrix(0.99,0,0,0.9,8.04642,-383.458)">
                <g transform="matrix(1.13298,0,0,1,-81.6735,688)">
                    <path d="M554,1041L590.75,1041" style="fill:none;stroke:black;stroke-width:2.81px;"/>
                </g>
                <g transform="matrix(1.20965,0,0,1,-127.35,688)">
                    <path d="M600.579,1041L635,1041" style="fill:none;stroke:black;stroke-width:2.7px;"/>
                </g>
                <g transform="matrix(1,0,0,1,-1.36255,0)">
                    <path d="M589,1709L589,1749" style="fill:none;stroke:black;stroke-width:3px;"/>
                    <g transform="matrix(0.998618,0.0525588,-0.0525588,0.998618,91.6779,-28.6725)">
                        <path d="M600,1719L601,1738" style="fill:none;stroke:black;stroke-width:3px;"/>
                    </g>
                </g>
                <g transform="matrix(1,0,0,1,-0.5,9)">
                    <path d="M574,1700L574,1709" style="fill:none;stroke:black;stroke-width:2.71px;stroke-miterlimit:1.5;"/>
                    <g transform="matrix(6.12323e-17,-1,1,6.12323e-17,-1130.5,2278.5)">
                        <path d="M574,1700L574,1709" style="fill:none;stroke:black;stroke-width:2.71px;stroke-miterlimit:1.5;"/>
                    </g>
                </g>
            </g>
        </g>
    </g>
</svg>
