<?xml version="1.0" encoding="UTF-8" standalone="no"?>
<!DOCTYPE svg PUBLIC "-//W3C//DTD SVG 1.1//EN" "http://www.w3.org/Graphics/SVG/1.1/DTD/svg11.dtd">
<svg width="100%" height="100%" viewBox="0 0 100 101" version="1.1" xmlns="http://www.w3.org/2000/svg" xmlns:xlink="http://www.w3.org/1999/xlink" xml:space="preserve" xmlns:serif="http://www.serif.com/" style="fill-rule:evenodd;clip-rule:evenodd;stroke-linecap:round;stroke-linejoin:round;stroke-miterlimit:10;">
    <g transform="matrix(1,0,0,1,-578,-134)">
        <g id="crossing_under" transform="matrix(1.0101,0,0,1.11111,26.4848,-1118.73)">
            <rect x="546" y="1128" width="99" height="90" style="fill:none;"/>
            <g id="jump" transform="matrix(0.99,0,0,0.9,6.945,-65.7577)">
                <g transform="matrix(1,0,0,1,0,334)">
                    <path d="M554,1041L635,1041" style="fill:none;stroke:black;stroke-width:3px;"/>
                </g>
                <g transform="matrix(1,0,0,1,0.885059,-102.5)">
                    <g>
                        <g transform="matrix(1,0,0,0.730769,0,654.346)">
                            <path d="M594.5,1110L594.5,1071" style="fill:none;stroke:black;stroke-width:3.43px;"/>
                        </g>
                        <g transform="matrix(1,0,0,0.730769,0,706.846)">
                            <path d="M594.5,1110L594.5,1071" style="fill:none;stroke:black;stroke-width:3.43px;"/>
                        </g>
                    </g>
                </g>
            </g>
        </g>
    </g>
</svg>
