<?xml version="1.0" encoding="UTF-8" standalone="no"?>
<!DOCTYPE svg PUBLIC "-//W3C//DTD SVG 1.1//EN" "http://www.w3.org/Graphics/SVG/1.1/DTD/svg11.dtd">
<svg width="100%" height="100%" viewBox="0 0 121 120" version="1.1" xmlns="http://www.w3.org/2000/svg" xmlns:xlink="http://www.w3.org/1999/xlink" xml:space="preserve" xmlns:serif="http://www.serif.com/" style="fill-rule:evenodd;clip-rule:evenodd;stroke-linecap:round;stroke-linejoin:round;stroke-miterlimit:10;">
    <g transform="matrix(1,0,0,1,-1386,-431)">
        <g id="DPDT" transform="matrix(1.21212,0,0,1.33333,724.532,-1073)">
            <rect x="546" y="1128" width="99" height="90" style="fill:none;"/>
            <clipPath id="_clip1">
                <rect x="546" y="1128" width="99" height="90"/>
            </clipPath>
            <g clip-path="url(#_clip1)">
                <g id="DPDT1" serif:id="DPDT" transform="matrix(0.825,0,0,0.75,-780.083,36.75)">
                    <g transform="matrix(1,0,0,1.44026,-0.403152,-502.267)">
                        <path d="M1669.37,1377.92L1669.37,1417.19" style="fill:none;stroke:black;stroke-width:2.42px;"/>
                    </g>
                    <g id="SPDT" transform="matrix(1,0,0,1,-1.5413,377.608)">
                        <g transform="matrix(0.878143,-0.302219,0.325424,0.945568,-155.427,568.72)">
                            <path d="M1647,1101L1692,1101" style="fill:none;stroke:black;stroke-width:3.11px;"/>
                        </g>
                        <g transform="matrix(1,0,0,1,1073.69,-904.96)">
                            <g>
                                <g transform="matrix(1.66667,0,0,1.66667,-372.333,-1378)">
                                    <circle cx="569" cy="2037" r="3" style="fill:white;stroke:black;stroke-width:1.25px;stroke-linecap:square;stroke-linejoin:miter;stroke-miterlimit:1.5;"/>
                                </g>
                                <path d="M533,2017L571,2017" style="fill:none;stroke:black;stroke-width:3px;"/>
                            </g>
                            <g transform="matrix(-1,0,0,1,1190.99,-19.6477)">
                                <g transform="matrix(1.66667,0,0,1.66667,-372.333,-1378)">
                                    <circle cx="569" cy="2037" r="3" style="fill:white;stroke:black;stroke-width:1.25px;stroke-linecap:square;stroke-linejoin:miter;stroke-miterlimit:1.5;"/>
                                </g>
                                <path d="M533,2017L571,2017" style="fill:none;stroke:black;stroke-width:3px;"/>
                            </g>
                            <g transform="matrix(-1,0,0,1,1190.99,14.4502)">
                                <g transform="matrix(1.66667,0,0,1.66667,-372.333,-1378)">
                                    <circle cx="569" cy="2037" r="3" style="fill:white;stroke:black;stroke-width:1.25px;stroke-linecap:square;stroke-linejoin:miter;stroke-miterlimit:1.5;"/>
                                </g>
                                <path d="M533,2017L571,2017" style="fill:none;stroke:black;stroke-width:3px;"/>
                            </g>
                        </g>
                    </g>
                    <g id="SPDT1" serif:id="SPDT" transform="matrix(1,0,0,1,-2.08202,434.351)">
                        <g transform="matrix(0.878143,-0.302219,0.325424,0.945568,-155.427,568.72)">
                            <path d="M1647,1101L1692,1101" style="fill:none;stroke:black;stroke-width:3.11px;"/>
                        </g>
                        <g transform="matrix(1,0,0,1,1073.69,-904.96)">
                            <g>
                                <g transform="matrix(1.66667,0,0,1.66667,-372.333,-1378)">
                                    <circle cx="569" cy="2037" r="3" style="fill:white;stroke:black;stroke-width:1.25px;stroke-linecap:square;stroke-linejoin:miter;stroke-miterlimit:1.5;"/>
                                </g>
                                <path d="M533,2017L571,2017" style="fill:none;stroke:black;stroke-width:3px;"/>
                            </g>
                            <g transform="matrix(-1,0,0,1,1190.99,-19.6477)">
                                <g transform="matrix(1.66667,0,0,1.66667,-372.333,-1378)">
                                    <circle cx="569" cy="2037" r="3" style="fill:white;stroke:black;stroke-width:1.25px;stroke-linecap:square;stroke-linejoin:miter;stroke-miterlimit:1.5;"/>
                                </g>
                                <path d="M533,2017L571,2017" style="fill:none;stroke:black;stroke-width:3px;"/>
                            </g>
                            <g transform="matrix(-1,0,0,1,1190.99,14.4502)">
                                <g transform="matrix(1.66667,0,0,1.66667,-372.333,-1378)">
                                    <circle cx="569" cy="2037" r="3" style="fill:white;stroke:black;stroke-width:1.25px;stroke-linecap:square;stroke-linejoin:miter;stroke-miterlimit:1.5;"/>
                                </g>
                                <path d="M533,2017L571,2017" style="fill:none;stroke:black;stroke-width:3px;"/>
                            </g>
                        </g>
                    </g>
                </g>
            </g>
        </g>
    </g>
</svg>
