<?xml version="1.0" encoding="UTF-8" standalone="no"?>
<!DOCTYPE svg PUBLIC "-//W3C//DTD SVG 1.1//EN" "http://www.w3.org/Graphics/SVG/1.1/DTD/svg11.dtd">
<svg width="100%" height="100%" viewBox="0 0 101 100" version="1.1" xmlns="http://www.w3.org/2000/svg" xmlns:xlink="http://www.w3.org/1999/xlink" xml:space="preserve" xmlns:serif="http://www.serif.com/" style="fill-rule:evenodd;clip-rule:evenodd;stroke-linecap:square;stroke-linejoin:round;stroke-miterlimit:10;">
    <g transform="matrix(1,0,0,1,-128,-710)">
        <g id="polarized_capacitor" transform="matrix(1.0101,0,0,1.11111,-423.364,-543.333)">
            <rect x="546" y="1128" width="99" height="90" style="fill:none;"/>
            <clipPath id="_clip1">
                <rect x="546" y="1128" width="99" height="90"/>
            </clipPath>
            <g clip-path="url(#_clip1)">
                <g id="Electrolytic-Cap" serif:id="Electrolytic Cap" transform="matrix(0.99,0,0,0.9,-703.625,-340.258)">
                    <g transform="matrix(0.999445,-0.0399371,0.0333148,1.19811,-58.4907,-280.525)">
                        <path d="M1305,1669C1311.5,1679.11 1311.43,1689.11 1304,1699" style="fill:none;stroke:black;stroke-width:2.73px;"/>
                    </g>
                    <g transform="matrix(0.999445,-0.0399371,0.0333148,1.19811,-43.8781,-280.525)">
                        <path d="M1305,1669L1304,1699" style="fill:none;stroke:black;stroke-width:2.73px;"/>
                    </g>
                    <path d="M1316,1685L1369.51,1685" style="fill:none;stroke:black;stroke-width:3px;"/>
                    <path d="M1249,1685L1304,1685" style="fill:none;stroke:black;stroke-width:3px;"/>
                    <g transform="matrix(1,0,0,1,754.5,-32.9917)">
                        <path d="M574,1700L574,1709" style="fill:none;stroke:black;stroke-width:2.71px;stroke-miterlimit:1.5;"/>
                        <g transform="matrix(6.12323e-17,-1,1,6.12323e-17,-1130.5,2278.5)">
                            <path d="M574,1700L574,1709" style="fill:none;stroke:black;stroke-width:2.71px;stroke-miterlimit:1.5;"/>
                        </g>
                    </g>
                </g>
            </g>
        </g>
    </g>
</svg>
