<?xml version="1.0" encoding="UTF-8" standalone="no"?>
<!DOCTYPE svg PUBLIC "-//W3C//DTD SVG 1.1//EN" "http://www.w3.org/Graphics/SVG/1.1/DTD/svg11.dtd">
<svg width="100%" height="100%" viewBox="0 0 100 100" version="1.1" xmlns="http://www.w3.org/2000/svg" xmlns:xlink="http://www.w3.org/1999/xlink" xml:space="preserve" xmlns:serif="http://www.serif.com/" style="fill-rule:evenodd;clip-rule:evenodd;stroke-linecap:square;stroke-linejoin:round;stroke-miterlimit:10;">
    <g transform="matrix(1,0,0,1,-252,-710)">
        <g id="variable_capacitor" transform="matrix(1.0101,0,0,1.11111,-299.515,-543.333)">
            <rect x="546" y="1128" width="99" height="90" style="fill:none;"/>
            <clipPath id="_clip1">
                <rect x="546" y="1128" width="99" height="90"/>
            </clipPath>
            <g clip-path="url(#_clip1)">
                <g id="variable-cap" serif:id="variable cap" transform="matrix(0.99,0,0,0.9,-706.929,-528.401)">
                    <g id="CAPACITOR" transform="matrix(1,0,0,1,0,206.97)">
                        <g transform="matrix(0.999445,-0.0333148,0.0333148,0.999445,-55.8781,45.394)">
                            <path d="M1305,1669L1304,1699" style="fill:none;stroke:black;stroke-width:3px;"/>
                        </g>
                        <g transform="matrix(0.999445,-0.0333148,0.0333148,0.999445,-43.8781,45.394)">
                            <path d="M1305,1669L1304,1699" style="fill:none;stroke:black;stroke-width:3px;"/>
                        </g>
                        <path d="M1316,1685L1369.51,1685" style="fill:none;stroke:black;stroke-width:3px;"/>
                        <path d="M1249,1685L1304,1685" style="fill:none;stroke:black;stroke-width:3px;"/>
                    </g>
                    <g transform="matrix(1.25976,-0.239907,-0.239907,1.22158,112.355,-105.797)">
                        <g transform="matrix(0.824647,0.161954,0.161954,0.850421,1266.21,1841.9)">
                            <path d="M59.348,31.114L68.072,29.726L65.997,38.313" style="fill:none;stroke:black;stroke-width:3px;stroke-linecap:butt;stroke-linejoin:miter;"/>
                            <path d="M21.916,72.356C21.916,72.356 58.997,38.109 68.072,29.726" style="fill:none;stroke:black;stroke-width:3px;"/>
                        </g>
                    </g>
                </g>
            </g>
        </g>
    </g>
</svg>
