<?xml version="1.0" encoding="UTF-8" standalone="no"?>
<!DOCTYPE svg PUBLIC "-//W3C//DTD SVG 1.1//EN" "http://www.w3.org/Graphics/SVG/1.1/DTD/svg11.dtd">
<svg width="100%" height="100%" viewBox="0 0 565 480" version="1.1" xmlns="http://www.w3.org/2000/svg" xmlns:xlink="http://www.w3.org/1999/xlink" xml:space="preserve" xmlns:serif="http://www.serif.com/" style="fill-rule:evenodd;clip-rule:evenodd;stroke-miterlimit:10;">
    <g id="GM-LSA-V8-specs" transform="matrix(0.553155,0,0,1,-86.2922,-156)">
        <rect x="156" y="156" width="1020" height="480" style="fill:none;"/>
        <g transform="matrix(1.00966,0,0,1,-11.3637,0)">
            <g>
                <g transform="matrix(3.58102,0,0,2,319.978,505.84)">
                    <path d="M0,0L202.411,0" style="fill:none;fill-rule:nonzero;stroke:black;stroke-width:0.5px;"/>
                </g>
                <g transform="matrix(3.58102,0,0,2,319.978,446.415)">
                    <path d="M0,0L202.411,0" style="fill:none;fill-rule:nonzero;stroke:black;stroke-width:0.5px;"/>
                </g>
                <g transform="matrix(3.58102,0,0,2,319.978,386.256)">
                    <path d="M0,0L202.411,0" style="fill:none;fill-rule:nonzero;stroke:black;stroke-width:0.5px;"/>
                </g>
                <g transform="matrix(3.58102,0,0,2,319.978,326.098)">
                    <path d="M0,0L202.411,0" style="fill:none;fill-rule:nonzero;stroke:black;stroke-width:0.5px;"/>
                </g>
                <g transform="matrix(3.58102,0,0,2,319.978,266.673)">
                    <path d="M0,0L202.411,0" style="fill:none;fill-rule:nonzero;stroke:black;stroke-width:0.5px;"/>
                </g>
                <g transform="matrix(3.58102,0,0,2,319.978,206.515)">
                    <path d="M0,0L202.411,0" style="fill:none;fill-rule:nonzero;stroke:black;stroke-width:0.5px;"/>
                </g>
                <g transform="matrix(3.58102,0,0,2,319.978,566.145)">
                    <path d="M0,0L202.411,0" style="fill:none;fill-rule:nonzero;stroke:black;stroke-width:0.5px;stroke-linecap:round;stroke-linejoin:round;"/>
                </g>
                <g transform="matrix(0,2,3.58102,0,641.94,386.331)">
                    <path d="M-89.908,-89.908L89.908,-89.908" style="fill:none;fill-rule:nonzero;stroke:black;stroke-width:0.5px;stroke-linecap:round;stroke-linejoin:round;"/>
                </g>
                <g transform="matrix(0,2,3.58102,0,1366.78,386.331)">
                    <path d="M-89.908,-89.908L89.908,-89.908" style="fill:none;fill-rule:nonzero;stroke:black;stroke-width:0.5px;stroke-linecap:round;stroke-linejoin:round;"/>
                </g>
            </g>
            <g>
                <g transform="matrix(3.58102,0,0,2,310.521,566.146)">
                    <path d="M0,0L2.641,0" style="fill:none;fill-rule:nonzero;stroke:black;stroke-width:0.45px;stroke-linecap:round;stroke-linejoin:round;"/>
                </g>
                <g transform="matrix(3.58102,0,0,2,310.521,505.84)">
                    <path d="M0,0L2.641,0" style="fill:none;fill-rule:nonzero;stroke:black;stroke-width:0.45px;stroke-linecap:round;stroke-linejoin:round;"/>
                </g>
                <g transform="matrix(3.58102,0,0,2,310.521,446.415)">
                    <path d="M0,0L2.641,0" style="fill:none;fill-rule:nonzero;stroke:black;stroke-width:0.45px;stroke-linecap:round;stroke-linejoin:round;"/>
                </g>
                <g transform="matrix(3.58102,0,0,2,310.521,386.256)">
                    <path d="M0,0L2.641,0" style="fill:none;fill-rule:nonzero;stroke:black;stroke-width:0.45px;stroke-linecap:round;stroke-linejoin:round;"/>
                </g>
                <g transform="matrix(3.58102,0,0,2,310.521,326.098)">
                    <path d="M0,0L2.641,0" style="fill:none;fill-rule:nonzero;stroke:black;stroke-width:0.45px;stroke-linecap:round;stroke-linejoin:round;"/>
                </g>
                <g transform="matrix(3.58102,0,0,2,310.521,266.673)">
                    <path d="M0,0L2.641,0" style="fill:none;fill-rule:nonzero;stroke:black;stroke-width:0.45px;stroke-linecap:round;stroke-linejoin:round;"/>
                </g>
                <g transform="matrix(3.58102,0,0,2,310.521,206.515)">
                    <path d="M0,0L2.641,0" style="fill:none;fill-rule:nonzero;stroke:black;stroke-width:0.45px;stroke-linecap:round;stroke-linejoin:round;"/>
                </g>
            </g>
            <g>
                <g transform="matrix(0,-2,-3.58102,0,324.707,568.786)">
                    <path d="M-1.321,1.321L1.321,1.321" style="fill:none;fill-rule:nonzero;stroke:black;stroke-width:0.5px;stroke-linecap:round;stroke-linejoin:round;"/>
                </g>
                <g transform="matrix(0,-2,-3.58102,0,428.481,568.786)">
                    <path d="M-1.321,1.321L1.321,1.321" style="fill:none;fill-rule:nonzero;stroke:black;stroke-width:0.5px;stroke-linecap:round;stroke-linejoin:round;"/>
                </g>
                <g transform="matrix(0,-2,-3.58102,0,532.255,568.786)">
                    <path d="M-1.321,1.321L1.321,1.321" style="fill:none;fill-rule:nonzero;stroke:black;stroke-width:0.5px;stroke-linecap:round;stroke-linejoin:round;"/>
                </g>
                <g transform="matrix(0,-2,-3.58102,0,636.028,568.786)">
                    <path d="M-1.321,1.321L1.321,1.321" style="fill:none;fill-rule:nonzero;stroke:black;stroke-width:0.5px;stroke-linecap:round;stroke-linejoin:round;"/>
                </g>
                <g transform="matrix(0,-2,-3.58102,0,738.225,568.786)">
                    <path d="M-1.321,1.321L1.321,1.321" style="fill:none;fill-rule:nonzero;stroke:black;stroke-width:0.5px;stroke-linecap:round;stroke-linejoin:round;"/>
                </g>
                <g transform="matrix(0,-2,-3.58102,0,841.999,568.786)">
                    <path d="M-1.321,1.321L1.321,1.321" style="fill:none;fill-rule:nonzero;stroke:black;stroke-width:0.5px;stroke-linecap:round;stroke-linejoin:round;"/>
                </g>
                <g transform="matrix(0,-2,-3.58102,0,945.771,568.786)">
                    <path d="M-1.321,1.321L1.321,1.321" style="fill:none;fill-rule:nonzero;stroke:black;stroke-width:0.5px;stroke-linecap:round;stroke-linejoin:round;"/>
                </g>
                <g transform="matrix(0,-2,-3.58102,0,1049.55,568.786)">
                    <path d="M-1.321,1.321L1.321,1.321" style="fill:none;fill-rule:nonzero;stroke:black;stroke-width:0.5px;stroke-linecap:round;stroke-linejoin:round;"/>
                </g>
            </g>
            <g transform="matrix(3.58102,0,0,2,402.209,404.047)">
                <path d="M0,33.656L11.665,25.733L23.33,16.709L34.995,9.52L46.293,5.044L58.203,0.971L66.615,0.129L69.622,0.129L81.333,0.162L92.512,0.129L103.726,0L115.842,0.129L121.491,0.495L127.507,1.302L133.156,2.403L138.805,3.87L150.47,7.318L156.485,10.326" style="fill:none;fill-rule:nonzero;stroke:black;stroke-width:1.13px;stroke-linecap:round;stroke-linejoin:round;"/>
            </g>
            <g>
                <g transform="matrix(3.58102,0,0,2,1035.36,566.146)">
                    <path d="M0,0L5.283,0" style="fill:none;fill-rule:nonzero;stroke:black;stroke-width:0.5px;stroke-linecap:round;stroke-linejoin:round;"/>
                </g>
                <g transform="matrix(3.58102,0,0,2,1035.36,505.84)">
                    <path d="M0,0L5.283,0" style="fill:none;fill-rule:nonzero;stroke:black;stroke-width:0.5px;stroke-linecap:round;stroke-linejoin:round;"/>
                </g>
                <g transform="matrix(3.58102,0,0,2,1035.36,446.415)">
                    <path d="M0,0L5.283,0" style="fill:none;fill-rule:nonzero;stroke:black;stroke-width:0.5px;stroke-linecap:round;stroke-linejoin:round;"/>
                </g>
                <g transform="matrix(3.58102,0,0,2,1035.36,386.256)">
                    <path d="M0,0L5.283,0" style="fill:none;fill-rule:nonzero;stroke:black;stroke-width:0.5px;stroke-linecap:round;stroke-linejoin:round;"/>
                </g>
                <g transform="matrix(3.58102,0,0,2,1035.36,326.098)">
                    <path d="M0,0L5.283,0" style="fill:none;fill-rule:nonzero;stroke:black;stroke-width:0.5px;stroke-linecap:round;stroke-linejoin:round;"/>
                </g>
                <g transform="matrix(3.58102,0,0,2,1035.36,266.673)">
                    <path d="M0,0L5.283,0" style="fill:none;fill-rule:nonzero;stroke:black;stroke-width:0.5px;stroke-linecap:round;stroke-linejoin:round;"/>
                </g>
                <g transform="matrix(3.58102,0,0,2,1035.36,206.515)">
                    <path d="M0,0L5.283,0" style="fill:none;fill-rule:nonzero;stroke:black;stroke-width:0.5px;stroke-linecap:round;stroke-linejoin:round;"/>
                </g>
            </g>
            <g transform="matrix(3.58102,0,0,2,485.754,242.61)">
                <path d="M0,131.615L11.665,107.918L22.963,89.871L34.628,75.565L43.285,63.533L46.293,59.792L57.958,45.119L69.182,31.18L80.847,18.781L92.512,10.124L98.161,6.016L104.177,3.008L109.826,0" style="fill:none;fill-rule:nonzero;stroke:black;stroke-width:1.13px;stroke-linecap:round;stroke-linejoin:round;"/>
            </g>
            <g transform="matrix(3.58102,0,0,2,877.728,246.278)">
                <path d="M0,-4.475L3.008,0L-3.008,0" style="fill:white;fill-rule:nonzero;"/>
            </g>
            <g transform="matrix(3.58102,0,0,2,877.728,246.278)">
                <path d="M0,-4.475L3.008,0L-3.008,0L0,-4.475Z" style="fill:none;fill-rule:nonzero;stroke:black;stroke-width:0.38px;stroke-linecap:round;stroke-linejoin:round;"/>
            </g>
            <g transform="matrix(3.58102,0,0,2,735.074,406.653)">
                <path d="M0,-4.549L3.008,0L-3.009,0" style="fill:white;fill-rule:nonzero;"/>
            </g>
            <g transform="matrix(3.58102,0,0,2,735.074,406.653)">
                <path d="M0,-4.549L3.008,0L-3.009,0L0,-4.549Z" style="fill:none;fill-rule:nonzero;stroke:black;stroke-width:0.38px;stroke-linecap:round;stroke-linejoin:round;"/>
            </g>
            <g transform="matrix(1.79051,0,0,1,-324.393,280.14)">
                <g transform="matrix(16.5528,0,0,16.5528,347.236,292.013)">
                </g>
                <text x="338.03px" y="292.013px" style="font-family:'Helvetica';font-size:16.553px;">0</text>
            </g>
            <g transform="matrix(1.79051,0,0,1,-340.546,250.064)">
                <g transform="matrix(16.5528,0,0,16.5528,356.257,261.937)">
                </g>
                <text x="329.009px" y="261.937px" style="font-family:'Helvetica';font-size:16.553px;">2<tspan x="338.03px 347.051px " y="261.937px 261.937px ">00</tspan></text>
            </g>
            <g transform="matrix(1.79051,0,0,1,-340.546,220.352)">
                <g transform="matrix(16.5528,0,0,16.5528,356.257,232.225)">
                </g>
                <text x="329.009px" y="232.225px" style="font-family:'Helvetica';font-size:16.553px;">4<tspan x="338.03px 347.051px " y="232.225px 232.225px ">00</tspan></text>
            </g>
            <g transform="matrix(1.79051,0,0,1,-340.546,190.201)">
                <g transform="matrix(16.5528,0,0,16.5528,356.257,202.074)">
                </g>
                <text x="329.009px" y="202.074px" style="font-family:'Helvetica';font-size:16.553px;">6<tspan x="338.03px 347.051px " y="202.074px 202.074px ">00</tspan></text>
            </g>
            <g transform="matrix(1.79051,0,0,1,-340.546,160.124)">
                <g transform="matrix(16.5528,0,0,16.5528,356.257,171.997)">
                </g>
                <text x="329.009px" y="171.997px" style="font-family:'Helvetica';font-size:16.553px;">8<tspan x="338.03px 347.051px " y="171.997px 171.997px ">00</tspan></text>
            </g>
            <g transform="matrix(1.79051,0,0,1,-348.563,130.412)">
                <g transform="matrix(16.5528,0,0,16.5528,360.735,142.285)">
                </g>
                <text x="324.531px" y="142.285px" style="font-family:'Helvetica';font-size:16.553px;">1<tspan x="333.53px 342.53px 351.529px " y="142.285px 142.285px 142.285px ">000</tspan></text>
            </g>
            <g transform="matrix(1.79051,0,0,1,-348.563,100.335)">
                <g transform="matrix(16.5528,0,0,16.5528,360.735,112.209)">
                </g>
                <text x="324.531px" y="112.209px" style="font-family:'Helvetica';font-size:16.553px;">1<tspan x="333.53px 342.53px 351.529px " y="112.209px 112.209px 112.209px ">200</tspan></text>
            </g>
            <g transform="matrix(1.79051,0,0,1,-308.892,292.547)">
                <g transform="matrix(16.5528,0,0,16.5528,355.893,304.42)">
                </g>
                <text x="346.687px" y="304.42px" style="font-family:'Helvetica';font-size:16.553px;">0</text>
            </g>
            <g transform="matrix(1.79051,0,0,1,-261.086,292.547)">
                <g transform="matrix(16.5528,0,0,16.5528,391.68,304.42)">
                </g>
                <text x="373.387px" y="304.42px" style="font-family:'Helvetica';font-size:16.553px;">1<tspan x="382.474px " y="304.42px ">0</tspan></text>
            </g>
            <g transform="matrix(1.79051,0,0,1,-209.22,292.547)">
                <g transform="matrix(16.5528,0,0,16.5528,420.648,304.42)">
                </g>
                <text x="402.354px" y="304.42px" style="font-family:'Helvetica';font-size:16.553px;">2<tspan x="411.442px " y="304.42px ">0</tspan></text>
            </g>
            <g transform="matrix(1.79051,0,0,1,-157.354,292.547)">
                <g transform="matrix(16.5528,0,0,16.5528,449.615,304.42)">
                </g>
                <text x="431.322px" y="304.42px" style="font-family:'Helvetica';font-size:16.553px;">3<tspan x="440.409px " y="304.42px ">0</tspan></text>
            </g>
            <g transform="matrix(1.79051,0,0,1,-106.139,292.547)">
                <g transform="matrix(16.5528,0,0,16.5528,478.086,304.42)">
                </g>
                <text x="459.925px" y="304.42px" style="font-family:'Helvetica';font-size:16.553px;">4<tspan x="468.88px " y="304.42px ">0</tspan></text>
            </g>
            <g transform="matrix(1.79051,0,0,1,-54.258,292.547)">
                <g transform="matrix(16.5528,0,0,16.5528,507.061,304.42)">
                </g>
                <text x="488.9px" y="304.42px" style="font-family:'Helvetica';font-size:16.553px;">5<tspan x="497.856px " y="304.42px ">0</tspan></text>
            </g>
            <g transform="matrix(1.79051,0,0,1,-2.37674,292.547)">
                <g transform="matrix(16.5528,0,0,16.5528,536.037,304.42)">
                </g>
                <text x="517.876px" y="304.42px" style="font-family:'Helvetica';font-size:16.553px;">6<tspan x="526.831px " y="304.42px ">0</tspan></text>
            </g>
            <g transform="matrix(1.79051,0,0,1,49.5045,292.547)">
                <g transform="matrix(16.5528,0,0,16.5528,565.013,304.42)">
                </g>
                <text x="546.852px" y="304.42px" style="font-family:'Helvetica';font-size:16.553px;">7<tspan x="555.807px " y="304.42px ">0</tspan></text>
            </g>
            <g transform="matrix(1.79051,0,0,1,-216.54,306.848)">
                <g transform="matrix(16.5528,0,0,16.5528,608.333,318.721)">
                </g>
                <text x="398.266px" y="318.721px" style="font-family:'Helvetica';font-size:16.553px;">E<tspan x="409.163px 420.973px 433.705px 438.16px 449.971px 460.868px 465.336px 476.233px 487.13px 498.027px 508.924px 520.735px 523.868px 529.237px 534.606px 543.668px 557.313px 563.032px 571.165px 575.633px 584.696px 593.758px 602.82px " y="318.721px 318.721px 318.721px 318.721px 318.721px 318.721px 318.721px 318.721px 318.721px 318.721px 318.721px 318.721px 318.721px 318.721px 318.721px 318.721px 318.721px 318.721px 318.721px 318.721px 318.721px 318.721px 318.721px ">NGINE SPEED (rpm x 100)</tspan></text>
            </g>
            <g transform="matrix(0,-1,1.79051,0,-374.702,221.74)">
                <g transform="matrix(16.5528,0,0,16.5528,-109.461,321.805)">
                </g>
                <text x="-221.74px" y="321.805px" style="font-family:'Helvetica';font-size:16.553px;">T<tspan x="-212.032px -199.269px -187.427px -174.664px -162.822px -151.893px -147.407px -142.007px -138.441px -129.347px -123.947px -119.46px -114.974px " y="321.805px 321.805px 321.805px 321.805px 321.805px 321.805px 321.805px 321.805px 321.805px 321.805px 321.805px 321.805px 321.805px ">ORQUE (lb-ft)</tspan></text>
            </g>
            <g transform="matrix(1.79051,0,0,1,69.0179,280.144)">
                <g transform="matrix(16.5528,0,0,16.5528,566.956,292.017)">
                </g>
                <text x="557.75px" y="292.017px" style="font-family:'Helvetica';font-size:16.553px;">0</text>
            </g>
            <g transform="matrix(1.79051,0,0,1,69.0179,250.068)">
                <g transform="matrix(16.5528,0,0,16.5528,584.999,261.941)">
                </g>
                <text x="557.75px" y="261.941px" style="font-family:'Helvetica';font-size:16.553px;">1<tspan x="566.771px 575.793px " y="261.941px 261.941px ">00</tspan></text>
            </g>
            <g transform="matrix(1.79051,0,0,1,69.0179,220.355)">
                <g transform="matrix(16.5528,0,0,16.5528,584.999,232.229)">
                </g>
                <text x="557.75px" y="232.229px" style="font-family:'Helvetica';font-size:16.553px;">2<tspan x="566.771px 575.793px " y="232.229px 232.229px ">00</tspan></text>
            </g>
            <g transform="matrix(1.79051,0,0,1,69.0179,190.205)">
                <g transform="matrix(16.5528,0,0,16.5528,584.999,202.078)">
                </g>
                <text x="557.75px" y="202.078px" style="font-family:'Helvetica';font-size:16.553px;">3<tspan x="566.771px 575.793px " y="202.078px 202.078px ">00</tspan></text>
            </g>
            <g transform="matrix(1.79051,0,0,1,69.0179,160.128)">
                <g transform="matrix(16.5528,0,0,16.5528,584.999,172.001)">
                </g>
                <text x="557.75px" y="172.001px" style="font-family:'Helvetica';font-size:16.553px;">4<tspan x="566.771px 575.793px " y="172.001px 172.001px ">00</tspan></text>
            </g>
            <g transform="matrix(1.79051,0,0,1,69.0179,130.416)">
                <g transform="matrix(16.5528,0,0,16.5528,584.999,142.289)">
                </g>
                <text x="557.75px" y="142.289px" style="font-family:'Helvetica';font-size:16.553px;">5<tspan x="566.771px 575.793px " y="142.289px 142.289px ">00</tspan></text>
            </g>
            <g transform="matrix(1.79051,0,0,1,69.0179,100.339)">
                <g transform="matrix(16.5528,0,0,16.5528,584.999,112.212)">
                </g>
                <text x="557.75px" y="112.212px" style="font-family:'Helvetica';font-size:16.553px;">6<tspan x="566.771px 575.793px " y="112.212px 112.212px ">00</tspan></text>
            </g>
            <g transform="matrix(0,-1,1.79051,0,102.262,231.131)">
                <g transform="matrix(16.5528,0,0,16.5528,-80.5067,588.19)">
                </g>
                <text x="-231.131px" y="588.19px" style="font-family:'Helvetica';font-size:16.553px;">H<tspan x="-219.418px -206.784px -195.071px -184.272px -173.472px -162.673px -150.038px -134.656px -123.856px -112.144px -109.22px -103.949px -94.984px -86.019px " y="588.19px 588.19px 588.19px 588.19px 588.19px 588.19px 588.19px 588.19px 588.19px 588.19px 588.19px 588.19px 588.19px 588.19px ">ORSEPOWER (hp)</tspan></text>
            </g>
            <g transform="matrix(1.79051,0,0,1,-99.9332,112.071)">
                <text x="433.796px" y="112.564px" style="font-family:'Helvetica';font-size:12.038px;">540 <tspan x="457.826px " y="112.564px ">h</tspan>p <tspan x="475.136px " y="112.564px ">(</tspan>403<tspan x="499.33px 501.546px " y="112.564px 112.564px "> k</tspan>W)</text>
                <g transform="matrix(12.038,0,0,12.038,514.959,128.402)">
                </g>
                <text x="445.291px" y="128.402px" style="font-family:'Helvetica';font-size:12.038px;">@ <tspan x="461.07px 467.856px 474.642px 481.427px 488.213px 490.578px 494.677px 501.463px " y="128.402px 128.402px 128.402px 128.402px 128.402px 128.402px 128.402px 128.402px ">5400 rpm</tspan></text>
            </g>
            <g transform="matrix(1.79051,0,0,1,-127.694,176.593)">
                <text x="449.198px" y="188.569px" style="font-family:'Helvetica';font-size:12.038px;">54<tspan x="462.758px 469.538px 472.968px 475.727px 482.508px 486.601px 490.031px 493.46px 495.858px 499.951px 506.731px 513.511px 520.291px 523.721px 532.5px " y="188.569px 188.569px 188.569px 188.569px 188.569px 188.569px 188.569px 188.569px 188.569px 188.569px 188.569px 188.569px 188.569px 188.569px 188.569px ">0 lb-ft (732 Nm</tspan>)</text>
                <g transform="matrix(12.038,0,0,12.038,530.898,204.407)">
                </g>
                <text x="464.921px" y="204.407px" style="font-family:'Helvetica';font-size:12.038px;">@ <tspan x="480.869px 487.658px 494.446px 501.234px 508.023px 509.98px 514.082px 520.87px " y="204.407px 204.407px 204.407px 204.407px 204.407px 204.407px 204.407px 204.407px ">4000 rpm</tspan></text>
            </g>
        </g>
    </g>
</svg>
