<?xml version="1.0" encoding="UTF-8" standalone="no"?>
<!DOCTYPE svg PUBLIC "-//W3C//DTD SVG 1.1//EN" "http://www.w3.org/Graphics/SVG/1.1/DTD/svg11.dtd">
<svg width="100%" height="100%" viewBox="0 0 121 121" version="1.1" xmlns="http://www.w3.org/2000/svg" xmlns:xlink="http://www.w3.org/1999/xlink" xml:space="preserve" xmlns:serif="http://www.serif.com/" style="fill-rule:evenodd;clip-rule:evenodd;stroke-linecap:square;stroke-miterlimit:1.5;">
    <g transform="matrix(1,0,0,1,-990,-613)">
        <g transform="matrix(1.21212,0,0,1.33333,328.417,-890.579)">
            <rect id="relay" x="546" y="1128" width="99" height="90" style="fill:none;"/>
            <clipPath id="_clip1">
                <rect id="relay1" serif:id="relay" x="546" y="1128" width="99" height="90"/>
            </clipPath>
            <g clip-path="url(#_clip1)">
                <g transform="matrix(0.825,0,0,0.75,-1074.35,-279.673)">
                    <g>
                        <g transform="matrix(1,0,0,1,1509.74,-92.4581)">
                            <g id="SPST">
                                <g>
                                    <g transform="matrix(1,0,0,1,-13.7402,-6.54192)">
                                        <g transform="matrix(1.66667,0,0,1.66667,-372.333,-1378)">
                                            <circle cx="569" cy="2037" r="3" style="fill:white;stroke:black;stroke-width:1.25px;"/>
                                        </g>
                                        <path d="M526.055,2024.9L526.055,2016.9L571,2017" style="fill:none;stroke:black;stroke-width:3px;stroke-linecap:round;stroke-linejoin:round;stroke-miterlimit:10;"/>
                                    </g>
                                    <g transform="matrix(1,0,0,-1,-13.7402,4065.25)">
                                        <g transform="matrix(1.66667,0,0,1.66667,-372.333,-1378)">
                                            <circle cx="569" cy="2037" r="3" style="fill:white;stroke:black;stroke-width:1.25px;"/>
                                        </g>
                                        <path d="M526.055,2024.9L526.055,2016.9L571,2017" style="fill:none;stroke:black;stroke-width:3px;stroke-linecap:round;stroke-linejoin:round;stroke-miterlimit:10;"/>
                                    </g>
                                    <g transform="matrix(1,0,0,1,-13.7402,12.3559)">
                                        <g transform="matrix(1.66667,0,0,1.66667,-372.333,-1378)">
                                            <circle cx="569" cy="2037" r="3" style="fill:white;stroke:black;stroke-width:1.25px;"/>
                                        </g>
                                        <g transform="matrix(1.66667,0,0,1.66667,-392.054,-1378.66)">
                                            <circle cx="569" cy="2037" r="3" style="stroke:black;stroke-width:1.25px;"/>
                                        </g>
                                        <path d="M526.055,2009L556.055,2017L571,2017" style="fill:none;stroke:black;stroke-width:3px;stroke-linecap:round;stroke-linejoin:round;stroke-miterlimit:10;"/>
                                    </g>
                                </g>
                            </g>
                        </g>
                        <g transform="matrix(6.88864e-17,1.125,-1,6.12323e-17,4307.05,55.8978)">
                            <path d="M1640,2342L1640,2302C1640,2290 1654,2290 1656,2302C1658,2290 1670,2290 1672,2302C1674,2290 1686,2290 1688,2302C1690,2290 1704,2290 1704,2302L1704,2343" style="fill:none;stroke:black;stroke-width:2.82px;stroke-linecap:round;stroke-linejoin:round;stroke-miterlimit:10;"/>
                        </g>
                    </g>
                </g>
            </g>
        </g>
    </g>
</svg>
