<?xml version="1.0" encoding="UTF-8" standalone="no"?><!DOCTYPE svg PUBLIC "-//W3C//DTD SVG 1.1//EN" "http://www.w3.org/Graphics/SVG/1.1/DTD/svg11.dtd"><svg width="100%" height="100%" viewBox="0 0 1150 588" version="1.1" xmlns="http://www.w3.org/2000/svg" xmlns:xlink="http://www.w3.org/1999/xlink" xml:space="preserve" xmlns:serif="http://www.serif.com/" style="fill-rule:evenodd;clip-rule:evenodd;stroke-linecap:square;stroke-linejoin:round;stroke-miterlimit:1.5;"><rect id="excitation_system" x="0" y="0" width="1149.12" height="586.961" style="fill:none;"/><g id="excitation_system1" serif:id="excitation_system"><rect id="excitation_system2" serif:id="excitation_system" x="0" y="0" width="1146.81" height="584.646" style="fill:none;"/><g id="excitation_system3" serif:id="excitation_system"><g><g id="shaft"><path d="M1122.14,348.87l-982.065,-0c0,-0 -17.468,28.562 0,38.337c21.31,11.926 0,41.026 0,41.026l982.065,0c0,0 -11.543,-23.858 0,-39.216c12.773,-17 0,-40.147 0,-40.147Z" style="fill:#e6e6e6;stroke:#000;stroke-width:2.76px;"/><path d="M142.199,388.551c-13.988,15.807 -15.198,29.133 -2.128,39.682" style="fill:none;stroke:#000;stroke-width:2.76px;"/><path d="M1126.69,379.717c9.915,21.395 10.439,38.499 -4.555,48.516" style="fill:none;stroke:#000;stroke-width:2.76px;"/></g><rect id="exciter" x="686.827" y="315.801" width="206.346" height="145.5" style="fill:#fff;stroke:#000;stroke-width:2.76px;stroke-linecap:round;"/><rect id="AVR" x="685.526" y="81.348" width="207.007" height="107.802" style="fill:#e6e6e6;stroke:#000;stroke-width:2.76px;"/><g id="pilot-rotor" serif:id="pilot rotor"><g><rect x="967.576" y="315.801" width="64.814" height="145.5" style="fill:#fff;stroke:#000;stroke-width:2.76px;stroke-linecap:round;"/></g><text x="988.042px" y="348.531px" style="font-family:'Helvetica-Bold', 'Helvetica';font-weight:700;font-size:33.068px;">N</text><text x="988.954px" y="449.73px" style="font-family:'Helvetica-Bold', 'Helvetica';font-weight:700;font-size:33.068px;">S</text></g><rect x="495.136" y="257.05" width="122.909" height="267.852" style="fill:#fff;stroke:#000;stroke-width:2.76px;stroke-linecap:round;"/><g><g><g><g><path d="M592.566,292.579l-1.367,204.362" style="fill:none;stroke:#000;stroke-width:2.76px;"/><g><g><path d="M605.231,341.63l-25.146,0l11.712,-22.045l13.434,22.045Z"/><path d="M605.231,319.585l-25.146,-0" style="fill:none;stroke:#000;stroke-width:2.76px;"/></g><g><path d="M604.501,469.935l-25.146,-0l11.712,-22.046l13.434,22.046Z"/><path d="M604.501,447.889l-25.146,0" style="fill:none;stroke:#000;stroke-width:2.76px;"/></g></g></g></g><g><path d="M557.613,292.579l-1.367,204.362" style="fill:none;stroke:#000;stroke-width:2.76px;"/><g><g><path d="M570.28,341.63l-25.145,0l11.711,-22.045l13.434,22.045Z"/><path d="M570.28,319.585l-25.145,-0" style="fill:none;stroke:#000;stroke-width:2.76px;"/></g><g><path d="M569.55,469.935l-25.145,-0l11.711,-22.046l13.434,22.046Z"/><path d="M569.55,447.889l-25.145,0" style="fill:none;stroke:#000;stroke-width:2.76px;"/></g></g></g><g><path d="M522.896,292.579l-1.366,204.362" style="fill:none;stroke:#000;stroke-width:2.76px;"/><g><g><path d="M535.562,341.63l-25.146,0l11.712,-22.045l13.434,22.045Z"/><path d="M535.562,319.585l-25.146,-0" style="fill:none;stroke:#000;stroke-width:2.76px;"/></g><g><path d="M534.831,469.935l-25.145,-0l11.711,-22.046l13.434,22.046Z"/><path d="M534.831,447.889l-25.145,0" style="fill:none;stroke:#000;stroke-width:2.76px;"/></g></g></g></g><g><g><g><path d="M752.544,362.758c0,-7.118 5.737,-12.896 12.803,-12.896c7.063,-0 12.8,5.778 12.8,12.896" style="fill:#fff;stroke:#000;stroke-width:2.76px;stroke-linecap:round;"/><path d="M778.147,362.758c0,-7.118 5.735,-12.896 12.8,-12.896c7.066,-0 12.8,5.778 12.8,12.896" style="fill:#fff;stroke:#000;stroke-width:2.76px;stroke-linecap:round;"/><path d="M803.747,362.758c0,-7.118 5.738,-12.896 12.803,-12.896c7.066,-0 12.8,5.778 12.8,12.896" style="fill:#fff;stroke:#000;stroke-width:2.76px;stroke-linecap:round;"/></g><g><path d="M752.544,388.717c0,-7.118 5.737,-12.897 12.803,-12.897c7.063,0 12.8,5.779 12.8,12.897" style="fill:#fff;stroke:#000;stroke-width:2.76px;stroke-linecap:round;"/><path d="M778.147,388.717c0,-7.118 5.735,-12.897 12.8,-12.897c7.066,0 12.8,5.779 12.8,12.897" style="fill:#fff;stroke:#000;stroke-width:2.76px;stroke-linecap:round;"/><path d="M803.747,388.717c0,-7.118 5.738,-12.897 12.803,-12.897c7.066,0 12.8,5.779 12.8,12.897" style="fill:#fff;stroke:#000;stroke-width:2.76px;stroke-linecap:round;"/></g><g><path d="M752.544,414.675c0,-7.118 5.737,-12.896 12.803,-12.896c7.063,-0 12.8,5.778 12.8,12.896" style="fill:#fff;stroke:#000;stroke-width:2.76px;stroke-linecap:round;"/><path d="M778.147,414.675c0,-7.118 5.735,-12.896 12.8,-12.896c7.066,-0 12.8,5.778 12.8,12.896" style="fill:#fff;stroke:#000;stroke-width:2.76px;stroke-linecap:round;"/><path d="M803.747,414.675c0,-7.118 5.738,-12.896 12.803,-12.896c7.066,-0 12.8,5.778 12.8,12.896" style="fill:#fff;stroke:#000;stroke-width:2.76px;stroke-linecap:round;"/></g><path d="M752.544,364.111l-160.031,0" style="fill:none;stroke:#000;stroke-width:2.76px;"/><path d="M752.544,388.717l-194.92,-0" style="fill:none;stroke:#000;stroke-width:2.76px;"/><path d="M752.544,416.359l-229.102,-0" style="fill:none;stroke:#000;stroke-width:2.76px;"/><g><path d="M869.694,362.744l-0,51.614" style="fill:none;stroke:#000;stroke-width:2.76px;"/><path d="M829.35,362.744l40.344,0" style="fill:none;stroke:#000;stroke-width:2.76px;"/><path d="M829.35,389.888l40.344,-0" style="fill:none;stroke:#000;stroke-width:2.76px;"/><path d="M829.35,414.358l40.344,0" style="fill:none;stroke:#000;stroke-width:2.76px;"/></g></g></g><rect id="Main-Rotor" serif:id="Main Rotor" x="263.884" y="245.366" width="172.974" height="280.418" style="fill:#fff;stroke:#000;stroke-width:2.76px;stroke-linecap:round;"/><g><path d="M339.941,292.579l252.625,0" style="fill:none;stroke:#000;stroke-width:2.76px;"/><path d="M591.199,496.941l-251.258,-0" style="fill:none;stroke:#000;stroke-width:2.76px;"/><g><g><path d="M338.246,376.294c-7.118,0 -12.896,-5.779 -12.896,-12.897c-0,-7.117 5.778,-12.896 12.896,-12.896" style="fill:#fff;stroke:#000;stroke-width:2.76px;stroke-linecap:round;"/><path d="M338.246,350.501c-7.118,-0 -12.896,-5.779 -12.896,-12.897c-0,-7.118 5.778,-12.896 12.896,-12.896" style="fill:#fff;stroke:#000;stroke-width:2.76px;stroke-linecap:round;"/><path d="M338.246,453.056c-7.118,0 -12.896,-5.778 -12.896,-12.896c-0,-7.118 5.778,-12.897 12.896,-12.897" style="fill:#fff;stroke:#000;stroke-width:2.76px;stroke-linecap:round;"/><path d="M338.246,427.263c-7.118,0 -12.896,-5.778 -12.896,-12.896c-0,-7.118 5.778,-12.897 12.896,-12.897" style="fill:#fff;stroke:#000;stroke-width:2.76px;stroke-linecap:round;"/><path d="M338.246,401.47c-7.118,0 -12.896,-5.779 -12.896,-12.897c-0,-7.118 5.778,-12.896 12.896,-12.896" style="fill:#fff;stroke:#000;stroke-width:2.76px;stroke-linecap:round;"/></g><path d="M338.246,292.323l0,32.385" style="fill:none;stroke:#000;stroke-width:2.76px;"/><path d="M338.246,453.056l0,43.885" style="fill:none;stroke:#000;stroke-width:2.76px;"/></g></g></g></g><g><g><g><path d="M297.008,144.343c-0,-8.499 6.847,-15.396 15.28,-15.396c8.435,-0 15.283,6.897 15.283,15.396" style="fill:#fff;stroke:#000;stroke-width:2.76px;stroke-linecap:round;"/><path d="M327.571,144.343c-0,-8.499 6.848,-15.396 15.28,-15.396c8.435,-0 15.283,6.897 15.283,15.396" style="fill:#fff;stroke:#000;stroke-width:2.76px;stroke-linecap:round;"/><path d="M358.134,144.343c0,-8.499 6.848,-15.396 15.28,-15.396c8.436,-0 15.283,6.897 15.283,15.396" style="fill:#fff;stroke:#000;stroke-width:2.76px;stroke-linecap:round;"/></g><g><path d="M297.008,175.33c-0,-8.495 6.847,-15.396 15.28,-15.396c8.435,0 15.283,6.901 15.283,15.396" style="fill:#fff;stroke:#000;stroke-width:2.76px;stroke-linecap:round;"/><path d="M327.571,175.33c-0,-8.495 6.848,-15.396 15.28,-15.396c8.435,0 15.283,6.901 15.283,15.396" style="fill:#fff;stroke:#000;stroke-width:2.76px;stroke-linecap:round;"/><path d="M358.134,175.33c0,-8.495 6.848,-15.396 15.28,-15.396c8.436,0 15.283,6.901 15.283,15.396" style="fill:#fff;stroke:#000;stroke-width:2.76px;stroke-linecap:round;"/></g><g><path d="M297.008,206.321c-0,-8.499 6.847,-15.396 15.28,-15.396c8.435,-0 15.283,6.897 15.283,15.396" style="fill:#fff;stroke:#000;stroke-width:2.76px;stroke-linecap:round;"/><path d="M327.571,206.321c-0,-8.499 6.848,-15.396 15.28,-15.396c8.435,-0 15.283,6.897 15.283,15.396" style="fill:#fff;stroke:#000;stroke-width:2.76px;stroke-linecap:round;"/><path d="M358.134,206.321c0,-8.499 6.848,-15.396 15.28,-15.396c8.436,-0 15.283,6.897 15.283,15.396" style="fill:#fff;stroke:#000;stroke-width:2.76px;stroke-linecap:round;"/></g><path d="M297.008,145.958l-230.872,-0" style="fill:none;stroke:#000;stroke-width:2.76px;"/><path d="M297.008,175.33l-230.872,-1.391" style="fill:none;stroke:#000;stroke-width:2.76px;"/><path d="M297.008,208.33l-230.872,-0" style="fill:none;stroke:#000;stroke-width:2.76px;"/><g><path d="M436.858,144.323l0,61.62" style="fill:none;stroke:#000;stroke-width:2.76px;"/><path d="M388.697,144.323l48.161,0" style="fill:none;stroke:#000;stroke-width:2.76px;"/><path d="M388.697,176.73l48.161,0" style="fill:none;stroke:#000;stroke-width:2.76px;"/><path d="M388.697,205.943l48.161,0" style="fill:none;stroke:#000;stroke-width:2.76px;"/></g></g></g><path d="M660.725,95.567l24.801,8.267l-24.801,8.267l-0,-16.534Z"/><path d="M263.884,145.958l0,-42.124l401.801,0" style="fill:none;stroke:#000;stroke-width:2.76px;stroke-dasharray:13.78,13.78,13.78,13.78,0,0;"/><g><text x="919.552px" y="506.599px" style="font-family:'Helvetica-Bold', 'Helvetica';font-weight:700;font-size:24.801px;">Pi</text><text x="942.449px" y="506.599px" style="font-family:'Helvetica-Bold', 'Helvetica';font-weight:700;font-size:24.801px;">l<tspan x="949.074px 963.955px 971.946px 978.571px 997.593px 1011.12px 1026px 1039.53px 1048.91px 1062.44px 1070.43px 1085.31px " y="506.599px 506.599px 506.599px 506.599px 506.599px 506.599px 506.599px 506.599px 506.599px 506.599px 506.599px 506.599px ">ot Generator</tspan></text></g><g><text x="755.677px" y="506.599px" style="font-family:'Helvetica-Bold', 'Helvetica';font-weight:700;font-size:24.801px;">Ex</text><text x="785.477px" y="506.599px" style="font-family:'Helvetica-Bold', 'Helvetica';font-weight:700;font-size:24.801px;">c<tspan x="799.005px 805.627px 813.618px 827.146px " y="506.599px 506.599px 506.599px 506.599px ">iter</tspan></text></g><g><g><text x="683.217px" y="40.343px" style="font-family:'Helvetica-Bold', 'Helvetica';font-weight:700;font-size:24.801px;">A</text><text x="700.875px" y="40.343px" style="font-family:'Helvetica-Bold', 'Helvetica';font-weight:700;font-size:24.801px;">u<tspan x="715.756px 723.758px 738.639px 760.398px 773.956px 781.958px 788.572px 802.064px 808.677px 824.99px 839.871px 846.484px 854.487px 867.978px 882.859px " y="40.343px 40.343px 40.343px 40.343px 40.343px 40.343px 40.343px 40.343px 40.343px 40.343px 40.343px 40.343px 40.343px 40.343px 40.343px ">tomatic Voltage</tspan></text></g><g><text x="732.224px" y="65.144px" style="font-family:'Helvetica-Bold', 'Helvetica';font-weight:700;font-size:24.801px;">R</text><text x="749.882px" y="65.144px" style="font-family:'Helvetica-Bold', 'Helvetica';font-weight:700;font-size:24.801px;">e<tspan x="763.374px 778.255px 793.135px 799.815px 813.307px 821.309px 836.19px " y="65.144px 65.144px 65.144px 65.144px 65.144px 65.144px 65.144px ">gulator</tspan></text></g></g><g><g><text x="422.479px" y="61.507px" style="font-family:'Helvetica-Bold', 'Helvetica';font-weight:700;font-size:24.801px;">C</text><text x="440.072px" y="61.507px" style="font-family:'Helvetica-Bold', 'Helvetica';font-weight:700;font-size:24.801px;">u<tspan x="454.952px 464.344px 473.735px 487.293px 502.174px 510.176px 516.79px 530.282px 545.162px " y="61.507px 61.507px 61.507px 61.507px 61.507px 61.507px 61.507px 61.507px 61.507px ">rrent and</tspan></text></g><g><text x="392.784px" y="86.308px" style="font-family:'Helvetica-Bold', 'Helvetica';font-weight:700;font-size:24.801px;">v</text><text x="406.276px" y="86.308px" style="font-family:'Helvetica-Bold', 'Helvetica';font-weight:700;font-size:24.801px;">o<tspan x="421.157px 427.836px 435.773px 449.331px 464.211px 477.703px 484.383px 492.319px 505.877px 519.369px 534.25px 549.197px 562.689px 576.246px " y="86.308px 86.308px 86.308px 86.308px 86.308px 86.308px 86.308px 86.308px 86.308px 86.308px 86.308px 86.308px 86.308px 86.308px ">ltage feedback</tspan></text></g></g><g><text x="471.608px" y="561.493px" style="font-family:'Helvetica-Bold', 'Helvetica';font-weight:700;font-size:24.801px;">Ro</text><text x="504.133px" y="561.493px" style="font-family:'Helvetica-Bold', 'Helvetica';font-weight:700;font-size:24.801px;">t<tspan x="512.124px 525.649px 533.641px 540.266px 555.146px 570.03px 576.652px 594.296px 600.918px 615.802px 630.682px 644.21px " y="561.493px 561.493px 561.493px 561.493px 561.493px 561.493px 561.493px 561.493px 561.493px 561.493px 561.493px 561.493px ">ating Diodes</tspan></text></g><g><text x="281.049px" y="561.493px" style="font-family:'Helvetica-Bold', 'Helvetica';font-weight:700;font-size:24.801px;">Ma</text><text x="314.966px" y="561.493px" style="font-family:'Helvetica-Bold', 'Helvetica';font-weight:700;font-size:24.801px;">i<tspan x="321.591px 336.472px 343.096px 360.738px 375.622px 383.613px " y="561.493px 561.493px 561.493px 561.493px 561.493px 561.493px ">n Roto</tspan>r</text></g><g><g><path d="M763.426,284.552c0,7.118 5.738,12.896 12.8,12.896c7.066,0 12.803,-5.778 12.803,-12.896" style="fill:#fff;stroke:#000;stroke-width:2.76px;stroke-linecap:round;"/><path d="M737.823,285.048c0,7.118 5.738,12.896 12.803,12.896c7.066,0 12.8,-5.778 12.8,-12.896" style="fill:#fff;stroke:#000;stroke-width:2.76px;stroke-linecap:round;"/><path d="M789.029,284.552c0,7.118 5.735,12.896 12.8,12.896c7.066,0 12.801,-5.778 12.801,-12.896" style="fill:#fff;stroke:#000;stroke-width:2.76px;stroke-linecap:round;"/><path d="M814.63,284.552c-0,7.118 5.737,12.896 12.8,12.896c7.065,0 12.803,-5.778 12.803,-12.896" style="fill:#fff;stroke:#000;stroke-width:2.76px;stroke-linecap:round;"/></g><g><path d="M961.706,274.574c-0,7.117 5.737,12.896 12.803,12.896c7.063,0 12.8,-5.779 12.8,-12.896" style="fill:#fff;stroke:#000;stroke-width:2.76px;stroke-linecap:round;"/><path d="M987.309,274.574c0,7.117 5.735,12.896 12.8,12.896c7.066,0 12.8,-5.779 12.8,-12.896" style="fill:#fff;stroke:#000;stroke-width:2.76px;stroke-linecap:round;"/><path d="M1012.91,274.574c0,7.117 5.738,12.896 12.803,12.896c7.063,0 12.8,-5.779 12.8,-12.896" style="fill:#fff;stroke:#000;stroke-width:2.76px;stroke-linecap:round;"/></g><path d="M737.823,284.552l0,-163.522l14.148,-0" style="fill:none;stroke:#000;stroke-width:2.76px;"/><path d="M822.877,121.03l215.635,1.322l0,152.222" style="fill:none;stroke:#000;stroke-width:2.76px;"/><path d="M840.233,284.552l-0,-131.116l121.473,0l-0,121.138" style="fill:none;stroke:#000;stroke-width:2.76px;"/><g><path d="M879.173,108.458l0,25.146l-22.045,-11.712l22.045,-13.434Z"/><path d="M857.128,108.458l-0,25.146" style="fill:none;stroke:#000;stroke-width:2.76px;"/></g></g><g><g><text x="41.93px" y="103.173px" style="font-family:'Helvetica-Bold', 'Helvetica';font-weight:700;font-size:24.801px;">3</text><text x="55.422px" y="103.173px" style="font-family:'Helvetica-Bold', 'Helvetica';font-weight:700;font-size:24.801px;">p<tspan x="62.102px 76.983px 91.863px 105.355px 118.913px 133.313px 139.067px " y="103.173px 103.173px 103.173px 103.173px 103.173px 103.173px 103.173px ">hase AC</tspan></text></g><g><text x="69.906px" y="127.974px" style="font-family:'Helvetica-Bold', 'Helvetica';font-weight:700;font-size:24.801px;">o</text><text x="84.787px" y="127.974px" style="font-family:'Helvetica-Bold', 'Helvetica';font-weight:700;font-size:24.801px;">u<tspan x="99.668px 107.67px 122.551px 137.431px " y="127.974px 127.974px 127.974px 127.974px ">tput</tspan></text></g></g><g><g><path d="M822.877,121.03l-5.189,-10.252l-10.124,20.503l-10.378,-20.503l-10.251,20.503l-9.146,-20.503l-10.315,20.503l-10.314,-20.503l-5.189,10.252" style="fill:none;stroke:#000;stroke-width:2.76px;"/></g><path d="M782.27,105.43l12.028,-15.484l-0.333,19.603l-11.695,-4.119Z"/><path d="M773.796,148.146c-0,-0 9.49,-26.943 15.559,-44.166" style="fill:none;stroke:#000;stroke-width:4.13px;"/></g><path d="M172.222,313.996l-19.447,-2.494l14.062,13.663l5.385,-11.169Z"/><path d="M166.179,317.965c13.078,13.166 22.31,45.008 22.31,82.16c-0,48.914 -16.003,88.623 -35.714,88.623c-19.711,0 -35.714,-39.709 -35.714,-88.623" style="fill:none;stroke:#000;stroke-width:4.13px;"/></g></g></svg>