<?xml version="1.0" encoding="UTF-8" standalone="no"?><!DOCTYPE svg PUBLIC "-//W3C//DTD SVG 1.1//EN" "http://www.w3.org/Graphics/SVG/1.1/DTD/svg11.dtd"><svg width="100%" height="100%" viewBox="0 0 417 213" version="1.1" xmlns="http://www.w3.org/2000/svg" xmlns:xlink="http://www.w3.org/1999/xlink" xml:space="preserve" xmlns:serif="http://www.serif.com/" style="fill-rule:evenodd;clip-rule:evenodd;stroke-linecap:square;stroke-linejoin:round;stroke-miterlimit:1.5;"><rect id="excitation_system" x="0" y="-0" width="416.16" height="212.16" style="fill:none;"/><g id="excitation_system1" serif:id="excitation_system"><g><g id="shaft"><path d="M407.208,126.6l-356.378,0c0,0 -6.339,10.365 0,13.912c7.733,4.328 0,14.888 0,14.888l356.378,0c-0,0 -4.189,-8.658 -0,-14.231c4.635,-6.169 -0,-14.569 -0,-14.569Z" style="fill:#e6e6e6;stroke:#000;stroke-width:1px;"/><path d="M51.602,141c-5.076,5.736 -5.515,10.572 -0.772,14.4" style="fill:none;stroke:#000;stroke-width:1px;"/><path d="M408.861,137.794c3.598,7.764 3.788,13.971 -1.653,17.606" style="fill:none;stroke:#000;stroke-width:1px;"/></g><rect id="exciter" x="249.24" y="114.6" width="74.88" height="52.8" style="fill:#fff;stroke:#000;stroke-width:1px;stroke-linecap:round;"/><rect id="AVR" x="248.768" y="29.52" width="75.12" height="39.12" style="fill:#e6e6e6;stroke:#000;stroke-width:1px;"/><g id="pilot-rotor" serif:id="pilot rotor"><g><rect x="351.12" y="114.6" width="23.52" height="52.8" style="fill:#fff;stroke:#000;stroke-width:1px;stroke-linecap:round;"/></g><g transform="matrix(12,0,0,12,367.213,126.477)"></g><text x="358.547px" y="126.477px" style="font-family:'Helvetica-Bold', 'Helvetica';font-weight:700;font-size:12px;">N</text><g transform="matrix(12,0,0,12,366.882,163.201)"></g><text x="358.878px" y="163.201px" style="font-family:'Helvetica-Bold', 'Helvetica';font-weight:700;font-size:12px;">S</text></g><rect x="179.678" y="93.28" width="44.602" height="97.2" style="fill:#fff;stroke:#000;stroke-width:1px;stroke-linecap:round;"/><g><g><g><g><path d="M215.034,106.173l-0.496,74.16" style="fill:none;stroke:#000;stroke-width:1px;"/><g><g><path d="M219.63,123.973l-9.125,0l4.25,-8l4.875,8Z"/><path d="M219.63,115.973l-9.125,0" style="fill:none;stroke:#000;stroke-width:1px;"/></g><g><path d="M219.365,170.533l-9.125,0l4.25,-8l4.875,8Z"/><path d="M219.365,162.533l-9.125,0" style="fill:none;stroke:#000;stroke-width:1px;"/></g></g></g></g><g><path d="M202.35,106.173l-0.496,74.16" style="fill:none;stroke:#000;stroke-width:1px;"/><g><g><path d="M206.947,123.973l-9.125,0l4.25,-8l4.875,8Z"/><path d="M206.947,115.973l-9.125,0" style="fill:none;stroke:#000;stroke-width:1px;"/></g><g><path d="M206.682,170.533l-9.125,0l4.25,-8l4.875,8Z"/><path d="M206.682,162.533l-9.125,0" style="fill:none;stroke:#000;stroke-width:1px;"/></g></g></g><g><path d="M189.752,106.173l-0.496,74.16" style="fill:none;stroke:#000;stroke-width:1px;"/><g><g><path d="M194.348,123.973l-9.125,0l4.25,-8l4.875,8Z"/><path d="M194.348,115.973l-9.125,0" style="fill:none;stroke:#000;stroke-width:1px;"/></g><g><path d="M194.083,170.533l-9.125,0l4.25,-8l4.875,8Z"/><path d="M194.083,162.533l-9.125,0" style="fill:none;stroke:#000;stroke-width:1px;"/></g></g></g></g><g><g><g><path d="M273.088,131.64c0,-2.583 2.082,-4.68 4.646,-4.68c2.563,0 4.645,2.097 4.645,4.68" style="fill:#fff;stroke:#000;stroke-width:1px;stroke-linecap:round;"/><path d="M282.379,131.64c-0,-2.583 2.081,-4.68 4.645,-4.68c2.564,0 4.645,2.097 4.645,4.68" style="fill:#fff;stroke:#000;stroke-width:1px;stroke-linecap:round;"/><path d="M291.669,131.64c0,-2.583 2.082,-4.68 4.646,-4.68c2.564,0 4.645,2.097 4.645,4.68" style="fill:#fff;stroke:#000;stroke-width:1px;stroke-linecap:round;"/></g><g><path d="M273.088,141.06c0,-2.583 2.082,-4.68 4.646,-4.68c2.563,0 4.645,2.097 4.645,4.68" style="fill:#fff;stroke:#000;stroke-width:1px;stroke-linecap:round;"/><path d="M282.379,141.06c-0,-2.583 2.081,-4.68 4.645,-4.68c2.564,0 4.645,2.097 4.645,4.68" style="fill:#fff;stroke:#000;stroke-width:1px;stroke-linecap:round;"/><path d="M291.669,141.06c0,-2.583 2.082,-4.68 4.646,-4.68c2.564,0 4.645,2.097 4.645,4.68" style="fill:#fff;stroke:#000;stroke-width:1px;stroke-linecap:round;"/></g><g><path d="M273.088,150.48c0,-2.583 2.082,-4.68 4.646,-4.68c2.563,0 4.645,2.097 4.645,4.68" style="fill:#fff;stroke:#000;stroke-width:1px;stroke-linecap:round;"/><path d="M282.379,150.48c-0,-2.583 2.081,-4.68 4.645,-4.68c2.564,0 4.645,2.097 4.645,4.68" style="fill:#fff;stroke:#000;stroke-width:1px;stroke-linecap:round;"/><path d="M291.669,150.48c0,-2.583 2.082,-4.68 4.646,-4.68c2.564,0 4.645,2.097 4.645,4.68" style="fill:#fff;stroke:#000;stroke-width:1px;stroke-linecap:round;"/></g><path d="M273.088,132.131l-58.073,-0" style="fill:none;stroke:#000;stroke-width:1px;"/><path d="M273.088,141.06l-70.734,0" style="fill:none;stroke:#000;stroke-width:1px;"/><path d="M273.088,151.091l-83.138,-0" style="fill:none;stroke:#000;stroke-width:1px;"/><g><path d="M315.6,131.635l-0,18.73" style="fill:none;stroke:#000;stroke-width:1px;"/><path d="M300.96,131.635l14.64,-0" style="fill:none;stroke:#000;stroke-width:1px;"/><path d="M300.96,141.485l14.64,0" style="fill:none;stroke:#000;stroke-width:1px;"/><path d="M300.96,150.365l14.64,0" style="fill:none;stroke:#000;stroke-width:1px;"/></g></g></g><rect id="Main-Rotor" serif:id="Main Rotor" x="95.76" y="89.04" width="62.77" height="101.76" style="fill:#fff;stroke:#000;stroke-width:1px;stroke-linecap:round;"/><g><path d="M123.36,106.173l91.674,0" style="fill:none;stroke:#000;stroke-width:1px;"/><path d="M214.538,180.333l-91.178,0" style="fill:none;stroke:#000;stroke-width:1px;"/><g><g><path d="M122.745,136.552c-2.583,-0 -4.68,-2.097 -4.68,-4.68c0,-2.583 2.097,-4.68 4.68,-4.68" style="fill:#fff;stroke:#000;stroke-width:1px;stroke-linecap:round;"/><path d="M122.745,127.192c-2.583,-0 -4.68,-2.097 -4.68,-4.68c0,-2.583 2.097,-4.68 4.68,-4.68" style="fill:#fff;stroke:#000;stroke-width:1px;stroke-linecap:round;"/><path d="M122.745,164.408c-2.583,0 -4.68,-2.097 -4.68,-4.68c0,-2.583 2.097,-4.68 4.68,-4.68" style="fill:#fff;stroke:#000;stroke-width:1px;stroke-linecap:round;"/><path d="M122.745,155.048c-2.583,0 -4.68,-2.097 -4.68,-4.68c0,-2.583 2.097,-4.68 4.68,-4.68" style="fill:#fff;stroke:#000;stroke-width:1px;stroke-linecap:round;"/><path d="M122.745,145.688c-2.583,0 -4.68,-2.097 -4.68,-4.68c0,-2.583 2.097,-4.68 4.68,-4.68" style="fill:#fff;stroke:#000;stroke-width:1px;stroke-linecap:round;"/></g><path d="M122.745,106.08l0,11.752" style="fill:none;stroke:#000;stroke-width:1px;"/><path d="M122.745,164.408l0,15.925" style="fill:none;stroke:#000;stroke-width:1px;"/></g></g></g></g><g><g><g><path d="M107.78,52.38c-0,-3.084 2.485,-5.587 5.545,-5.587c3.061,-0 5.546,2.503 5.546,5.587" style="fill:#fff;stroke:#000;stroke-width:1px;stroke-linecap:round;"/><path d="M118.871,52.38c-0,-3.084 2.485,-5.587 5.545,-5.587c3.061,-0 5.546,2.503 5.546,5.587" style="fill:#fff;stroke:#000;stroke-width:1px;stroke-linecap:round;"/><path d="M129.962,52.38c-0,-3.084 2.485,-5.587 5.545,-5.587c3.061,-0 5.546,2.503 5.546,5.587" style="fill:#fff;stroke:#000;stroke-width:1px;stroke-linecap:round;"/></g><g><path d="M107.78,63.625c-0,-3.083 2.485,-5.587 5.545,-5.587c3.061,0 5.546,2.504 5.546,5.587" style="fill:#fff;stroke:#000;stroke-width:1px;stroke-linecap:round;"/><path d="M118.871,63.625c-0,-3.083 2.485,-5.587 5.545,-5.587c3.061,0 5.546,2.504 5.546,5.587" style="fill:#fff;stroke:#000;stroke-width:1px;stroke-linecap:round;"/><path d="M129.962,63.625c-0,-3.083 2.485,-5.587 5.545,-5.587c3.061,0 5.546,2.504 5.546,5.587" style="fill:#fff;stroke:#000;stroke-width:1px;stroke-linecap:round;"/></g><g><path d="M107.78,74.871c-0,-3.084 2.485,-5.587 5.545,-5.587c3.061,-0 5.546,2.503 5.546,5.587" style="fill:#fff;stroke:#000;stroke-width:1px;stroke-linecap:round;"/><path d="M118.871,74.871c-0,-3.084 2.485,-5.587 5.545,-5.587c3.061,-0 5.546,2.503 5.546,5.587" style="fill:#fff;stroke:#000;stroke-width:1px;stroke-linecap:round;"/><path d="M129.962,74.871c-0,-3.084 2.485,-5.587 5.545,-5.587c3.061,-0 5.546,2.503 5.546,5.587" style="fill:#fff;stroke:#000;stroke-width:1px;stroke-linecap:round;"/></g><path d="M107.78,52.966l-83.78,-0" style="fill:none;stroke:#000;stroke-width:1px;"/><path d="M107.78,63.625l-83.78,-0.505" style="fill:none;stroke:#000;stroke-width:1px;"/><path d="M107.78,75.6l-83.78,-0" style="fill:none;stroke:#000;stroke-width:1px;"/><g><path d="M158.53,52.373l-0,22.361" style="fill:none;stroke:#000;stroke-width:1px;"/><path d="M141.053,52.373l17.477,0" style="fill:none;stroke:#000;stroke-width:1px;"/><path d="M141.053,64.133l17.477,0" style="fill:none;stroke:#000;stroke-width:1px;"/><path d="M141.053,74.734l17.477,-0" style="fill:none;stroke:#000;stroke-width:1px;"/></g></g></g><path d="M239.768,34.68l9,3l-9,3l-0,-6Z"/><path d="M95.76,52.966l0,-15.286l145.808,0" style="fill:none;stroke:#000;stroke-width:1px;stroke-dasharray:5,5,5,5,0,0;"/><g transform="matrix(9,0,0,9,397.347,183.838)"></g><text x="333.693px" y="183.838px" style="font-family:'Helvetica-Bold', 'Helvetica';font-weight:700;font-size:9px;">Pi<tspan x="342.002px 344.406px 349.806px 352.706px 355.11px 362.013px 366.921px 372.322px 377.23px 380.636px 385.544px 388.444px 393.845px " y="183.838px 183.838px 183.838px 183.838px 183.838px 183.838px 183.838px 183.838px 183.838px 183.838px 183.838px 183.838px 183.838px ">lot Generator</tspan></text><g transform="matrix(9,0,0,9,303.662,183.838)"></g><text x="274.225px" y="183.838px" style="font-family:'Helvetica-Bold', 'Helvetica';font-weight:700;font-size:9px;">Ex<tspan x="285.039px 289.948px 292.351px 295.251px 300.16px " y="183.838px 183.838px 183.838px 183.838px 183.838px ">citer</tspan></text><g transform="matrix(0.24,0,0,0.24,-4106.75,-4574.64)"><text x="18144.5px" y="19122px" style="font-family:'Helvetica-Bold', 'Helvetica';font-weight:700;font-size:37.5px;">A<tspan x="18171.2px 18193.7px 18205.8px 18228.3px 18261.2px 18281.7px 18293.8px 18303.8px 18324.2px 18334.2px 18356.1px 18378.6px 18388.6px 18400.7px 18421.1px 18443.6px " y="19122px 19122px 19122px 19122px 19122px 19122px 19122px 19122px 19122px 19122px 19122px 19122px 19122px 19122px 19122px 19122px ">utomatic Voltage</tspan></text><g transform="matrix(37.5,0,0,37.5,18390.4,19159.5)"></g><text x="18218.6px" y="19159.5px" style="font-family:'Helvetica-Bold', 'Helvetica';font-weight:700;font-size:37.5px;">R<tspan x="18245.3px 18265.7px 18288.2px 18310.7px 18320.8px 18341.2px 18353.3px 18375.8px " y="19159.5px 19159.5px 19159.5px 19159.5px 19159.5px 19159.5px 19159.5px 19159.5px ">egulator</tspan></text></g><g transform="matrix(0.24,0,0,0.24,-4214.76,-4566.96)"><text x="18200.3px" y="19122px" style="font-family:'Helvetica-Bold', 'Helvetica';font-weight:700;font-size:37.5px;">C<tspan x="18226.9px 18249.4px 18263.6px 18277.8px 18298.3px 18320.8px 18332.9px 18342.9px 18363.3px 18385.8px " y="19122px 19122px 19122px 19122px 19122px 19122px 19122px 19122px 19122px 19122px ">urrent and</tspan></text><g transform="matrix(37.5,0,0,37.5,18453.6,19159.5)"></g><text x="18155.4px" y="19159.5px" style="font-family:'Helvetica-Bold', 'Helvetica';font-weight:700;font-size:37.5px;">v<tspan x="18175.8px 18198.3px 18208.4px 18220.4px 18240.9px 18263.4px 18283.8px 18293.9px 18305.9px 18326.4px 18346.8px 18369.3px 18391.9px 18412.3px 18432.8px " y="19159.5px 19159.5px 19159.5px 19159.5px 19159.5px 19159.5px 19159.5px 19159.5px 19159.5px 19159.5px 19159.5px 19159.5px 19159.5px 19159.5px 19159.5px ">oltage feedback</tspan></text></g><g transform="matrix(9,0,0,9,238.78,203.758)"></g><text x="171.14px" y="203.758px" style="font-family:'Helvetica-Bold', 'Helvetica';font-weight:700;font-size:9px;">Ro<tspan x="182.943px 185.843px 190.751px 193.651px 196.055px 201.455px 206.856px 209.259px 215.662px 218.065px 223.466px 228.866px 233.775px " y="203.758px 203.758px 203.758px 203.758px 203.758px 203.758px 203.758px 203.758px 203.758px 203.758px 203.758px 203.758px 203.758px ">tating Diodes</tspan></text><g transform="matrix(9,0,0,9,148.111,203.758)"></g><text x="101.989px" y="203.758px" style="font-family:'Helvetica-Bold', 'Helvetica';font-weight:700;font-size:9px;">Ma<tspan x="114.297px 116.701px 122.101px 124.505px 130.907px 136.308px 139.208px " y="203.758px 203.758px 203.758px 203.758px 203.758px 203.758px 203.758px ">in Roto</tspan>r</text><g><g><path d="M277.037,103.26c0,2.583 2.082,4.68 4.645,4.68c2.564,0 4.646,-2.097 4.646,-4.68" style="fill:#fff;stroke:#000;stroke-width:1px;stroke-linecap:round;"/><path d="M267.746,103.44c0,2.583 2.082,4.68 4.646,4.68c2.564,0 4.645,-2.097 4.645,-4.68" style="fill:#fff;stroke:#000;stroke-width:1px;stroke-linecap:round;"/><path d="M286.328,103.26c-0,2.583 2.081,4.68 4.645,4.68c2.564,0 4.645,-2.097 4.645,-4.68" style="fill:#fff;stroke:#000;stroke-width:1px;stroke-linecap:round;"/><path d="M295.618,103.26c0,2.583 2.082,4.68 4.645,4.68c2.564,0 4.646,-2.097 4.646,-4.68" style="fill:#fff;stroke:#000;stroke-width:1px;stroke-linecap:round;"/></g><g><path d="M348.99,99.639c0,2.583 2.082,4.68 4.646,4.68c2.563,-0 4.645,-2.097 4.645,-4.68" style="fill:#fff;stroke:#000;stroke-width:1px;stroke-linecap:round;"/><path d="M358.281,99.639c-0,2.583 2.081,4.68 4.645,4.68c2.564,-0 4.645,-2.097 4.645,-4.68" style="fill:#fff;stroke:#000;stroke-width:1px;stroke-linecap:round;"/><path d="M367.571,99.639c0,2.583 2.082,4.68 4.646,4.68c2.563,-0 4.645,-2.097 4.645,-4.68" style="fill:#fff;stroke:#000;stroke-width:1px;stroke-linecap:round;"/></g><path d="M267.746,103.26l0,-59.34l5.134,0" style="fill:none;stroke:#000;stroke-width:1px;"/><path d="M298.611,43.92l78.251,0.48l-0,55.239" style="fill:none;stroke:#000;stroke-width:1px;"/><path d="M304.909,103.26l-0,-47.58l44.081,0l0,43.959" style="fill:none;stroke:#000;stroke-width:1px;"/><g><path d="M319.04,39.358l0,9.125l-8,-4.25l8,-4.875Z"/><path d="M311.04,39.358l0,9.125" style="fill:none;stroke:#000;stroke-width:1px;"/></g></g><g transform="matrix(0.24,0,0,0.24,-3999.84,-4395.84)"><text x="16729.4px" y="18472px" style="font-family:'Helvetica-Bold', 'Helvetica';font-weight:700;font-size:37.5px;">3<tspan x="16749.8px 16759.9px 16782.4px 16804.9px 16825.3px 16845.8px 16866.2px 16874.9px 16901.5px " y="18472px 18472px 18472px 18472px 18472px 18472px 18472px 18472px 18472px "> phase AC</tspan></text><g transform="matrix(37.5,0,0,37.5,16886.3,18509.5)"></g><text x="16771.7px" y="18509.5px" style="font-family:'Helvetica-Bold', 'Helvetica';font-weight:700;font-size:37.5px;">o<tspan x="16794.2px 16816.7px 16828.8px 16851.3px 16873.8px " y="18509.5px 18509.5px 18509.5px 18509.5px 18509.5px ">utput</tspan></text></g><g><g><path d="M298.611,43.92l-1.883,-3.72l-3.674,7.44l-3.766,-7.44l-3.72,7.44l-3.319,-7.44l-3.743,7.44l-3.743,-7.44l-1.883,3.72" style="fill:none;stroke:#000;stroke-width:1px;"/></g><path d="M283.875,38.259l4.365,-5.619l-0.121,7.114l-4.244,-1.495Z"/><path d="M280.8,53.76c0,0 3.444,-9.777 5.646,-16.027" style="fill:none;stroke:#000;stroke-width:1.5px;"/></g><path d="M62.497,113.945l-7.057,-0.905l5.103,4.958l1.954,-4.053Z"/><path d="M60.304,115.385c4.746,4.778 8.096,16.333 8.096,29.815c-0,17.75 -5.807,32.16 -12.96,32.16c-7.153,0 -12.96,-14.41 -12.96,-32.16" style="fill:none;stroke:#000;stroke-width:1.5px;"/></g></svg>