<?xml version="1.0" encoding="UTF-8" standalone="no"?><!DOCTYPE svg PUBLIC "-//W3C//DTD SVG 1.1//EN" "http://www.w3.org/Graphics/SVG/1.1/DTD/svg11.dtd"><svg width="100%" height="100%" viewBox="0 0 877 419" version="1.1" xmlns="http://www.w3.org/2000/svg" xmlns:xlink="http://www.w3.org/1999/xlink" xml:space="preserve" xmlns:serif="http://www.serif.com/" style="fill-rule:evenodd;clip-rule:evenodd;"><rect id="propulsion_converter_schematic" x="0" y="0.091" width="876.96" height="417.84" style="fill:none;"/><g id="propulsion_converter_schematic1" serif:id="propulsion_converter_schematic"><g><path d="M151.56,358.635l645.382,-0l-0,-269.946l-283.124,-0l-0,-42.518l-354.295,-0l-0,63.779l-65.549,-0l-0,92.689l57.586,-0l-0,155.996Z" style="fill:#fff;fill-rule:nonzero;stroke:#231f20;stroke-width:0.5px;stroke-dasharray:12,2,1,2;"/><path d="M241.995,88.689l-0,269.582" style="fill:none;fill-rule:nonzero;stroke:#231f20;stroke-width:0.5px;stroke-dasharray:12,2,1,2;"/><path d="M320.684,88.689l0,269.582" style="fill:none;fill-rule:nonzero;stroke:#231f20;stroke-width:0.5px;stroke-dasharray:12,2,1,2;"/><path d="M482.944,88.689l0,269.582" style="fill:none;fill-rule:nonzero;stroke:#231f20;stroke-width:0.5px;stroke-dasharray:12,2,1,2;"/><path d="M521.674,88.689l-362.534,-0" style="fill:none;fill-rule:nonzero;stroke:#231f20;stroke-width:0.5px;stroke-dasharray:12,2,1,2;"/><path d="M713.974,88.689l0,269.582" style="fill:none;fill-rule:nonzero;stroke:#231f20;stroke-width:0.5px;stroke-dasharray:12,2,1,2;"/><path d="M522.212,106.449l-0,164.467" style="fill:none;fill-rule:nonzero;stroke:#231f20;stroke-width:1px;"/><path d="M613.981,213.179l0,-96.143" style="fill:none;fill-rule:nonzero;stroke:#231f20;stroke-width:1px;"/><rect x="711.217" y="213.979" width="5.669" height="5.67" style="fill:#fff;"/><rect x="795.051" y="298.263" width="5.669" height="5.67" style="fill:#fff;"/><rect x="736.089" y="86.018" width="17.157" height="5.67" style="fill:#fff;"/><rect x="711.217" y="199.843" width="5.669" height="5.67" style="fill:#fff;"/><rect x="711.217" y="227.937" width="5.669" height="5.67" style="fill:#fff;"/><path d="M854.896,220.583c0,10.293 -8.344,18.635 -18.633,18.635c-10.294,-0 -18.635,-8.342 -18.635,-18.635c0,-10.289 8.341,-18.634 18.635,-18.634c10.289,-0 18.633,8.345 18.633,18.634" style="fill:#a7a9ac;fill-rule:nonzero;"/><path d="M649.323,337.821l97.762,-0l0,-93.957" style="fill:none;fill-rule:nonzero;stroke:#231f20;stroke-width:1px;stroke-dasharray:6,2;"/><path d="M522.304,140.65l17.917,-0l-0,20.342l59.588,-0l-0,154.498" style="fill:none;fill-rule:nonzero;stroke:#231f20;stroke-width:1px;stroke-dasharray:6,2;"/><rect x="568.627" y="158.157" width="5.669" height="5.67" style="fill:#fff;"/><path d="M570.86,140.392l36.035,0l0,179.468" style="fill:none;fill-rule:nonzero;stroke:#231f20;stroke-width:1px;stroke-dasharray:6,2;"/><rect x="604.062" y="268.081" width="5.669" height="5.67" style="fill:#fff;"/><rect x="596.975" y="268.081" width="5.669" height="5.67" style="fill:#fff;"/><path d="M668.796,216.684l-0,-99.647l-97.334,0l-0,99.774" style="fill:none;fill-rule:nonzero;stroke:#231f20;stroke-width:1px;"/><path d="M522.304,241.949l70.418,-0l-0,74.322" style="fill:none;fill-rule:nonzero;stroke:#231f20;stroke-width:1px;stroke-dasharray:6,2;"/><rect x="494.282" y="85.863" width="5.669" height="5.669" style="fill:#fff;"/><rect x="589.888" y="268.081" width="5.669" height="5.67" style="fill:#fff;"/><rect x="603.932" y="298.569" width="5.669" height="5.67" style="fill:#fff;"/><rect x="744.251" y="298.57" width="5.669" height="5.67" style="fill:#fff;"/><rect x="793.057" y="298.57" width="5.669" height="5.67" style="fill:#fff;"/><rect x="518.841" y="362.525" width="5.669" height="5.67" style="fill:#fff;"/><rect x="596.845" y="298.569" width="5.669" height="5.67" style="fill:#fff;"/><rect x="589.758" y="298.569" width="5.669" height="5.67" style="fill:#fff;"/><path d="M238.583,74.516l-0,-21.259l258.534,0.2l-0,260.899l62.344,-0.199l-0,16.574l16.32,0" style="fill:none;fill-rule:nonzero;stroke:#231f20;stroke-width:1px;stroke-dasharray:6,2;"/><rect x="316.564" y="298.567" width="5.669" height="5.67" style="fill:#fff;"/><rect x="494.282" y="71.691" width="5.669" height="5.669" style="fill:#fff;"/><rect x="518.84" y="71.691" width="5.669" height="5.669" style="fill:#fff;"/><rect x="316.31" y="312.741" width="5.669" height="5.67" style="fill:#fff;"/><rect x="479.98" y="298.568" width="5.67" height="5.67" style="fill:#fff;"/><rect x="480.105" y="268.08" width="5.67" height="5.67" style="fill:#fff;"/><rect x="479.98" y="213.972" width="5.67" height="5.67" style="fill:#fff;"/><rect x="239.158" y="114.201" width="5.669" height="5.669" style="fill:#fff;"/><rect x="316.564" y="114.2" width="5.669" height="5.669" style="fill:#fff;"/><rect x="317.464" y="136.652" width="5.669" height="5.669" style="fill:#fff;"/><rect x="317.464" y="186.241" width="5.669" height="5.669" style="fill:#fff;"/><rect x="333.099" y="103.612" width="5.669" height="5.669" style="fill:#fff;"/><rect x="316.563" y="199.802" width="5.669" height="5.67" style="fill:#fff;"/><rect x="316.563" y="213.975" width="5.669" height="5.67" style="fill:#fff;"/><rect x="239.16" y="328.834" width="5.669" height="5.669" style="fill:#fff;"/><rect x="239.16" y="335.921" width="5.669" height="5.669" style="fill:#fff;"/><rect x="316.312" y="327.904" width="5.67" height="5.669" style="fill:#fff;"/><rect x="316.312" y="334.991" width="5.67" height="5.669" style="fill:#fff;"/><rect x="480.108" y="334.992" width="5.67" height="5.669" style="fill:#fff;"/><rect x="480.108" y="327.905" width="5.67" height="5.669" style="fill:#fff;"/><rect x="494.282" y="268.09" width="5.669" height="5.669" style="fill:#fff;"/><rect x="494.157" y="213.985" width="5.669" height="5.669" style="fill:#fff;"/><rect x="494.282" y="103.623" width="5.669" height="5.669" style="fill:#fff;"/><rect x="479.948" y="103.623" width="5.67" height="5.669" style="fill:#fff;"/><rect x="316.079" y="103.623" width="5.669" height="5.669" style="fill:#fff;"/><rect x="494.355" y="298.577" width="5.669" height="5.669" style="fill:#fff;"/><path d="M262.274,338.749l-93.106,-0l0,-143.196l-30.126,-0l0,-12.274" style="fill:none;fill-rule:nonzero;stroke:#231f20;stroke-width:1px;stroke-dasharray:6,2;"/><path d="M262.274,331.662l-86.02,-0l0,-179.193l-37.212,-0l0,-11.333" style="fill:none;fill-rule:nonzero;stroke:#231f20;stroke-width:1px;stroke-dasharray:6,2;"/><rect x="195.817" y="85.854" width="5.669" height="5.67" style="fill:#fff;"/><rect x="118.77" y="178.545" width="5.669" height="5.669" style="fill:#fff;"/><rect x="239.16" y="213.53" width="5.669" height="5.669" style="fill:#fff;"/><rect x="239.16" y="199.803" width="5.669" height="5.669" style="fill:#fff;"/><rect x="118.91" y="135.461" width="5.669" height="5.669" style="fill:#fff;"/><rect x="173.421" y="178.545" width="5.669" height="5.669" style="fill:#fff;"/><path d="M272.673,74.516l145.225,0l17.173,-7.509" style="fill:none;fill-rule:nonzero;stroke:#56a578;stroke-width:2px;"/><path d="M198.652,180.828l-0,-106.312l74.022,0" style="fill:none;fill-rule:nonzero;stroke:#231f20;stroke-width:1px;"/><path d="M639.002,229.439l-14.173,-0l-0,41.477" style="fill:none;fill-rule:nonzero;stroke:#ed1c24;stroke-width:2px;"/><rect x="265.628" y="124.122" width="37.25" height="170.194" style="fill:#b3ddc0;stroke:#231f20;stroke-width:0.75px;"/><path d="M216.78,192.684l0,-75.647l133.329,0l0,28.25l34.446,0" style="fill:none;fill-rule:nonzero;stroke:#ed1c24;stroke-width:2px;"/><rect x="239.103" y="298.568" width="5.669" height="5.669" style="fill:#fff;"/><path d="M216.78,195.551l0,105.852l147.501,0l0,-127.769l20.274,0" style="fill:none;fill-rule:nonzero;stroke:#ed1c24;stroke-width:2px;"/><rect x="361.445" y="213.975" width="5.669" height="5.67" style="fill:#fff;"/><rect x="195.817" y="135.461" width="5.67" height="5.669" style="fill:#fff;"/><rect x="89.982" y="139.265" width="5.67" height="5.669" style="fill:#fff;"/><rect x="89.982" y="172.306" width="5.67" height="5.669" style="fill:#fff;"/><path d="M284.25,291.071l-0,-163.761" style="fill:none;fill-rule:nonzero;stroke:#ed1c24;stroke-width:2px;"/><rect x="276.853" y="160.454" width="14.794" height="3.972" style="fill:#b3ddc0;"/><path d="M291.647,164.426l-14.794,-0" style="fill:none;fill-rule:nonzero;stroke:#231f20;stroke-width:2px;"/><path d="M291.647,160.454l-14.794,0" style="fill:none;fill-rule:nonzero;stroke:#231f20;stroke-width:2px;"/><rect x="276.853" y="250.749" width="14.794" height="3.972" style="fill:#b3ddc0;"/><path d="M291.647,254.72l-14.794,0" style="fill:none;fill-rule:nonzero;stroke:#231f20;stroke-width:2px;"/><path d="M291.647,250.749l-14.794,-0" style="fill:none;fill-rule:nonzero;stroke:#231f20;stroke-width:2px;"/><path d="M72.928,158.323c-0,8.831 -7.159,15.99 -15.99,15.99c-8.832,0 -15.991,-7.159 -15.991,-15.99c-0,-8.832 7.159,-15.99 15.991,-15.99c8.831,0 15.99,7.158 15.99,15.99" style="fill:#b3ddc0;fill-rule:nonzero;"/><path d="M56.937,153.544l-5.041,8.142l10.082,0l-5.041,-8.142Z" style="fill:none;fill-rule:nonzero;stroke:#231f20;stroke-width:0.5px;"/><path d="M86.2,167.072c0,5.075 -4.113,9.188 -9.186,9.188c-5.074,0 -9.187,-4.113 -9.187,-9.188c0,-5.072 4.113,-9.185 9.187,-9.185c5.073,0 9.186,4.113 9.186,9.185" style="fill:#b3ddc0;fill-rule:nonzero;"/><path d="M77.014,162.295l-5.041,8.141l10.082,0l-5.041,-8.141Z" style="fill:none;fill-rule:nonzero;stroke:#231f20;stroke-width:0.5px;"/><path d="M86.2,148.353c0,5.073 -4.113,9.188 -9.186,9.188c-5.074,-0 -9.187,-4.115 -9.187,-9.188c0,-5.074 4.113,-9.186 9.187,-9.186c5.073,-0 9.186,4.112 9.186,9.186" style="fill:#b3ddc0;fill-rule:nonzero;"/><path d="M72.928,158.323c-0,-8.825 -7.166,-15.99 -15.991,-15.99c-8.825,0 -15.99,7.165 -15.99,15.99c-0,8.825 7.165,15.99 15.99,15.99c8.825,0 15.991,-7.165 15.991,-15.99Z" style="fill:none;stroke:#ed1c24;stroke-width:1px;"/><path d="M86.2,167.074c0,-5.07 -4.116,-9.187 -9.186,-9.187c-5.071,0 -9.187,4.117 -9.187,9.187c0,5.07 4.116,9.186 9.187,9.186c5.07,0 9.186,-4.116 9.186,-9.186Z" style="fill:none;stroke:#ed1c24;stroke-width:1px;"/><path d="M86.2,148.354c0,-5.071 -4.116,-9.187 -9.186,-9.187c-5.071,-0 -9.187,4.116 -9.187,9.187c0,5.07 4.116,9.187 9.187,9.187c5.07,-0 9.186,-4.117 9.186,-9.187Z" style="fill:none;stroke:#ed1c24;stroke-width:1px;"/><path d="M72.884,152.423l4.154,-4.778l4.269,4.778" style="fill:none;fill-rule:nonzero;stroke:#231f20;stroke-width:0.5px;"/><path d="M77.038,147.645l-0,-5.319" style="fill:none;fill-rule:nonzero;stroke:#231f20;stroke-width:0.5px;"/><path d="M85.336,144.458l20.324,-6.164l100.078,0" style="fill:none;fill-rule:nonzero;stroke:#ed1c24;stroke-width:2px;"/><g transform="matrix(1,0,0,1,-131.387,-344.259)"><text x="260.033px" y="509.204px" style="font-family:'ArialMT', 'Arial', sans-serif;font-size:8px;fill:#231f20;">Sensors</text><text x="256.929px" y="518.804px" style="font-family:'ArialMT', 'Arial', sans-serif;font-size:8px;fill:#231f20;">x2 U1-W1</text></g><g transform="matrix(1,0,0,1,-131.387,-344.259)"><text x="259.241px" y="466.684px" style="font-family:'ArialMT', 'Arial', sans-serif;font-size:8px;fill:#231f20;">Sensors</text><text x="256.137px" y="476.284px" style="font-family:'ArialMT', 'Arial', sans-serif;font-size:8px;fill:#231f20;">x2 U2-W2</text></g><text x="218.734px" y="160.057px" style="font-family:'ArialMT', 'Arial', sans-serif;font-size:8px;fill:#231f20;">NB2</text><text x="219.302px" y="202.929px" style="font-family:'ArialMT', 'Arial', sans-serif;font-size:8px;fill:#231f20;">NB1</text><path d="M85.336,171.32l20.324,8.998l100.078,0" style="fill:none;fill-rule:nonzero;stroke:#ed1c24;stroke-width:2px;"/><path d="M107.541,142.043l3.896,-7.357" style="fill:none;fill-rule:nonzero;stroke:#231f20;stroke-width:0.5px;"/><path d="M109.666,142.043l3.896,-7.357" style="fill:none;fill-rule:nonzero;stroke:#231f20;stroke-width:0.5px;"/><path d="M111.792,142.043l3.895,-7.357" style="fill:none;fill-rule:nonzero;stroke:#231f20;stroke-width:0.5px;"/><path d="M107.541,185.055l3.896,-7.358" style="fill:none;fill-rule:nonzero;stroke:#231f20;stroke-width:0.5px;"/><path d="M109.666,185.055l3.896,-7.358" style="fill:none;fill-rule:nonzero;stroke:#231f20;stroke-width:0.5px;"/><path d="M111.792,185.055l3.895,-7.358" style="fill:none;fill-rule:nonzero;stroke:#231f20;stroke-width:0.5px;"/><rect x="48.943" y="116.864" width="28" height="12.078" style="fill:#fff799;stroke:#231f20;stroke-width:0.5px;"/><rect x="161.975" y="91.524" width="28" height="12.079" style="fill:#fff799;stroke:#231f20;stroke-width:0.5px;"/><rect x="244.829" y="91.524" width="28" height="12.079" style="fill:#fff799;stroke:#231f20;stroke-width:0.5px;"/><rect x="323.818" y="91.524" width="28" height="12.079" style="fill:#fff799;stroke:#231f20;stroke-width:0.5px;"/><rect x="503.173" y="91.524" width="28" height="12.079" style="fill:#fff799;stroke:#231f20;stroke-width:0.5px;"/><rect x="755.876" y="92.692" width="36.508" height="12.078" style="fill:#fff799;stroke:#231f20;stroke-width:0.5px;"/><rect x="776.992" y="52.434" width="28.338" height="12.078" style="fill:#fff799;stroke:#231f20;stroke-width:0.5px;"/><rect x="161.975" y="49.005" width="28" height="12.078" style="fill:#fff799;stroke:#231f20;stroke-width:0.5px;"/><path d="M142.201,138.295c-0,-1.743 -1.415,-3.159 -3.159,-3.159c-1.743,0 -3.158,1.416 -3.158,3.159c-0,1.743 1.415,3.158 3.158,3.158c1.744,0 3.159,-1.415 3.159,-3.158Z" style="fill:none;stroke:#231f20;stroke-width:1px;"/><path d="M142.201,180.229c0,-1.743 -1.415,-3.159 -3.158,-3.159c-1.744,0 -3.159,1.416 -3.159,3.159c0,1.744 1.415,3.159 3.159,3.159c1.743,0 3.158,-1.415 3.158,-3.159Z" style="fill:none;stroke:#231f20;stroke-width:1px;"/><path d="M284.25,127.508l-0,-10.472l14.794,-10.588l397.124,0l-0,96.19l24.25,0" style="fill:none;fill-rule:nonzero;stroke:#ed1c24;stroke-width:2px;"/><path d="M284.25,290.929l-0,10.646l14.795,14l79.285,0l-0,-44.66l326.999,0l-0,-39.931l15.089,0" style="fill:none;fill-rule:nonzero;stroke:#ed1c24;stroke-width:2px;"/><rect x="465.936" y="268.088" width="5.669" height="5.67" style="fill:#fff;"/><path d="M373.981,159.461l94.789,0l0,141.941l364.992,0l0,-64.881" style="fill:none;fill-rule:nonzero;stroke:#ed1c24;stroke-width:2px;"/><rect x="465.806" y="213.979" width="5.669" height="5.67" style="fill:#fff;"/><rect x="519.403" y="213.979" width="5.669" height="5.67" style="fill:#fff;"/><rect x="510.895" y="71.659" width="5.669" height="5.67" style="fill:#fff;"/><rect x="597.288" y="213.979" width="5.669" height="5.67" style="fill:#fff;"/><rect x="603.708" y="213.979" width="5.669" height="5.67" style="fill:#fff;"/><rect x="720.418" y="189.883" width="50.205" height="53.981" style="fill:#b3ddc0;stroke:#231f20;stroke-width:1px;"/><rect x="720.418" y="52.169" width="50.205" height="30.276" style="fill:#b3ddc0;stroke:#231f20;stroke-width:1px;"/><path d="M758.108,214.108l-7.219,11.018l14.438,-0l-7.219,-11.018Z" style="fill:none;fill-rule:nonzero;stroke:#231f20;stroke-width:1px;"/><path d="M765.505,214.108l-14.793,-0" style="fill:none;fill-rule:nonzero;stroke:#231f20;stroke-width:1px;"/><path d="M750.029,203.485l8.079,-0l0,30.687l-8.079,-0" style="fill:none;fill-rule:nonzero;stroke:#231f20;stroke-width:1px;"/><path d="M750.029,199.85l0,7.268l-21.938,7.404" style="fill:none;fill-rule:nonzero;stroke:#231f20;stroke-width:1px;"/><path d="M750.029,236.962l0,-7.268l-21.938,-7.403" style="fill:none;fill-rule:nonzero;stroke:#231f20;stroke-width:1px;"/><path d="M727.821,207.522l0,21.671" style="fill:none;fill-rule:nonzero;stroke:#231f20;stroke-width:2px;stroke-linecap:round;"/><path d="M748.28,226.231l1.749,3.464l-3.229,1.786" style="fill:none;fill-rule:nonzero;stroke:#231f20;stroke-width:1px;"/><path d="M852.396,218.083c0,10.293 -8.344,18.635 -18.633,18.635c-10.294,-0 -18.635,-8.342 -18.635,-18.635c0,-10.289 8.341,-18.634 18.635,-18.634c10.289,-0 18.633,8.345 18.633,18.634" style="fill:#b3ddc0;fill-rule:nonzero;"/><path d="M852.396,218.083c0,-10.285 -8.349,-18.634 -18.634,-18.634c-10.284,-0 -18.634,8.349 -18.634,18.634c0,10.285 8.35,18.635 18.634,18.635c10.285,-0 18.634,-8.35 18.634,-18.635Z" style="fill:none;stroke:#ed1c24;stroke-width:1px;"/><path d="M830.202,224.245c0,-1.499 1.215,-2.714 2.714,-2.714c0.803,-0 1.523,0.348 2.02,0.902l-0.001,-0l2.419,3.648l0,0.001c0.495,0.538 1.207,0.877 1.998,0.877c1.499,-0 2.714,-1.215 2.714,-2.714" style="fill:none;fill-rule:nonzero;stroke:#231f20;stroke-width:0.5px;"/><rect x="511.29" y="232.504" width="21.844" height="18.365" style="fill:#b3ddc0;stroke:#231f20;stroke-width:1px;"/><rect x="262.274" y="321.244" width="49.371" height="26.967" style="fill:#b3ddc0;stroke:#231f20;stroke-width:1px;"/><rect x="503.004" y="321.244" width="49.37" height="26.967" style="fill:#b3ddc0;stroke:#231f20;stroke-width:1px;"/><path d="M262.274,338.576l-8.504,1.417l0,-2.835l8.504,1.418Z" style="fill:#231f20;fill-rule:nonzero;"/><path d="M262.274,331.686l-8.504,1.417l0,-2.835l8.504,1.418Z" style="fill:#231f20;fill-rule:nonzero;"/><path d="M576.071,323.644l-9.523,0l0,-18.661" style="fill:none;fill-rule:nonzero;stroke:#231f20;stroke-width:1px;stroke-dasharray:6,2;"/><path d="M552.378,337.818l23.016,-0" style="fill:none;fill-rule:nonzero;stroke:#231f20;stroke-width:1px;stroke-dasharray:6,2;"/><path d="M552.378,344.905l23.693,-0" style="fill:none;fill-rule:nonzero;stroke:#231f20;stroke-width:1px;stroke-dasharray:6,2;"/><rect x="582.139" y="321.244" width="62.933" height="27.676" style="fill:#b3ddc0;stroke:#231f20;stroke-width:1px;"/><path d="M582.139,323.645l-8.504,1.417l-0,-2.835l8.504,1.418Z" style="fill:#231f20;fill-rule:nonzero;"/><path d="M599.808,321.244l-1.417,-8.504l2.835,-0l-1.418,8.504Z" style="fill:#231f20;fill-rule:nonzero;"/><path d="M606.894,321.244l-1.417,-8.504l2.835,-0l-1.418,8.504Z" style="fill:#231f20;fill-rule:nonzero;"/><path d="M592.724,321.244l1.416,-8.504l-2.834,-0l1.417,8.504Z" style="fill:#231f20;fill-rule:nonzero;"/><path d="M582.139,330.734l-8.504,1.417l-0,-2.835l8.504,1.418Z" style="fill:#231f20;fill-rule:nonzero;"/><path d="M582.139,337.822l-8.504,1.417l-0,-2.835l8.504,1.418Z" style="fill:#231f20;fill-rule:nonzero;"/><path d="M645.071,337.822l8.504,1.417l0,-2.835l-8.504,1.418Z" style="fill:#231f20;fill-rule:nonzero;"/><path d="M582.139,344.905l-8.504,1.417l-0,-2.835l8.504,1.418Z" style="fill:#231f20;fill-rule:nonzero;"/><path d="M311.645,330.731l191.359,-0" style="fill:none;fill-rule:nonzero;stroke:#231f20;stroke-width:1px;stroke-dasharray:6,2;"/><path d="M311.645,337.818l191.359,-0" style="fill:none;fill-rule:nonzero;stroke:#231f20;stroke-width:1px;stroke-dasharray:6,2;"/><path d="M503.004,330.731l-8.504,1.417l-0,-2.835l8.504,1.418Z" style="fill:#231f20;fill-rule:nonzero;"/><path d="M503.004,337.818l-8.504,1.417l-0,-2.835l8.504,1.418Z" style="fill:#231f20;fill-rule:nonzero;"/><path d="M372.087,64.894l20.166,-0l0,9.623" style="fill:none;fill-rule:nonzero;stroke:#56a578;stroke-width:2px;"/><path d="M375.974,56.878l-17.629,8.016l-14.091,-0l0,9.623" style="fill:none;fill-rule:nonzero;stroke:#56a578;stroke-width:2px;"/><path d="M431.616,74.516l42.688,0l14.765,-6.064" style="fill:none;fill-rule:nonzero;stroke:#56a578;stroke-width:2px;"/><path d="M548.504,74.516l8.758,2.465l-0,-4.93l-8.758,2.465l-59.349,0l-0,-2.685l-0,5.089" style="fill:none;fill-rule:nonzero;stroke:#56a578;stroke-width:2px;"/><rect x="621.995" y="114.202" width="5.669" height="5.67" style="fill:#fff;"/><rect x="621.995" y="247.584" width="5.669" height="5.67" style="fill:#fff;"/><path d="M304.341,74.375c-0,5.074 -4.113,9.188 -9.186,9.188c-5.074,-0 -9.187,-4.114 -9.187,-9.188c-0,-5.073 4.113,-9.186 9.187,-9.186c5.073,-0 9.186,4.113 9.186,9.186" style="fill:#b3ddc0;fill-rule:nonzero;"/><path d="M295.155,69.596l-5.042,8.141l10.083,0l-5.041,-8.141Z" style="fill:none;fill-rule:nonzero;stroke:#231f20;stroke-width:0.5px;"/><path d="M288.799,74.375c0,5.073 -4.113,9.187 -9.186,9.187c-5.074,-0 -9.187,-4.114 -9.187,-9.187c0,-5.074 4.113,-9.186 9.187,-9.186c5.073,-0 9.186,4.112 9.186,9.186" style="fill:#b3ddc0;fill-rule:nonzero;"/><path d="M304.341,74.376c-0,-5.071 -4.117,-9.187 -9.187,-9.187c-5.07,-0 -9.186,4.116 -9.186,9.187c-0,5.07 4.116,9.187 9.186,9.187c5.07,-0 9.187,-4.117 9.187,-9.187Z" style="fill:none;stroke:#231f20;stroke-width:1px;"/><path d="M288.799,74.375c0,-5.07 -4.116,-9.186 -9.186,-9.186c-5.07,-0 -9.187,4.116 -9.187,9.186c0,5.07 4.117,9.187 9.187,9.187c5.07,-0 9.186,-4.117 9.186,-9.187Z" style="fill:none;stroke:#231f20;stroke-width:1px;"/><path d="M275.483,78.445l4.154,-4.778l4.269,4.778" style="fill:none;fill-rule:nonzero;stroke:#231f20;stroke-width:0.5px;"/><path d="M279.637,73.667l0,-5.319" style="fill:none;fill-rule:nonzero;stroke:#231f20;stroke-width:0.5px;"/><path d="M432.036,73.298c0,-1.105 0.896,-2.003 2.003,-2.003c1.106,0 2.002,0.898 2.002,2.003l-4.005,0Z" style="fill:none;fill-rule:nonzero;stroke:#231f20;stroke-width:1px;"/><path d="M372.549,63.621c-0,-1.105 0.898,-2.003 2.006,-2.003c1.109,-0 2.007,0.898 2.007,2.003l-4.013,-0Z" style="fill:none;fill-rule:nonzero;stroke:#231f20;stroke-width:1px;"/><rect x="360.814" y="68.765" width="14.882" height="11.627" style="fill:#b3ddc0;stroke:#231f20;stroke-width:1px;"/><rect x="639.002" y="193.903" width="22.274" height="44.594" style="fill:#b3ddc0;stroke:#231f20;stroke-width:1px;"/><path d="M653.971,214.927l3.831,0" style="fill:none;fill-rule:nonzero;stroke:#231f20;stroke-width:1px;"/><path d="M646.397,218.848l7.573,-3.921" style="fill:none;fill-rule:nonzero;stroke:#231f20;stroke-width:1px;"/><path d="M642.744,214.927l3.653,0" style="fill:none;fill-rule:nonzero;stroke:#231f20;stroke-width:1px;"/><path d="M646.397,212.967l0,3.92" style="fill:none;fill-rule:nonzero;stroke:#231f20;stroke-width:1px;"/><path d="M638.802,202.289l-13.973,-0l-0,-95.84" style="fill:none;fill-rule:nonzero;stroke:#ed1c24;stroke-width:2px;"/><path d="M661.276,216.684l14.872,0" style="fill:none;fill-rule:nonzero;stroke:#231f20;stroke-width:2px;"/><path d="M676.148,209.248l0,14.872" style="fill:none;fill-rule:nonzero;stroke:#231f20;stroke-width:2px;"/><path d="M679.693,211.107l0,11.153" style="fill:none;fill-rule:nonzero;stroke:#231f20;stroke-width:2px;"/><path d="M683.238,213.547l0,6.273" style="fill:none;fill-rule:nonzero;stroke:#231f20;stroke-width:2px;"/><rect x="561.015" y="131.21" width="21.844" height="18.366" style="fill:#b3ddc0;stroke:#231f20;stroke-width:1px;"/><rect x="511.29" y="131.21" width="21.844" height="18.366" style="fill:#b3ddc0;stroke:#231f20;stroke-width:1px;"/><path d="M720.418,216.811l-25.683,0l-0,33.604l-80.753,0l-0,-30.344" style="fill:none;fill-rule:nonzero;stroke:#231f20;stroke-width:1px;"/><rect x="384.555" y="117.036" width="66.581" height="86.602" style="fill:#fff;stroke:#231f20;stroke-width:1px;"/><rect x="392.627" y="124.122" width="50.205" height="71.43" style="fill:#b3ddc0;stroke:#231f20;stroke-width:0.75px;"/><path d="M430.318,155.16l-7.219,13.069l14.438,-0l-7.219,-13.069Z" style="fill:none;fill-rule:nonzero;stroke:#231f20;stroke-width:1px;"/><path d="M437.714,155.16l-14.793,-0" style="fill:none;fill-rule:nonzero;stroke:#231f20;stroke-width:1px;"/><path d="M422.239,142.56l8.079,0l-0,36.399l-8.079,0" style="fill:none;fill-rule:nonzero;stroke:#231f20;stroke-width:1px;"/><path d="M422.239,138.251l-0,8.62l-21.94,8.779" style="fill:none;fill-rule:nonzero;stroke:#231f20;stroke-width:1px;"/><path d="M422.239,182.268l-0,-8.618l-21.94,-8.784" style="fill:none;fill-rule:nonzero;stroke:#231f20;stroke-width:1px;"/><path d="M400.03,147.349l0,25.705" style="fill:none;fill-rule:nonzero;stroke:#231f20;stroke-width:2px;stroke-linecap:round;"/><path d="M420.489,169.542l1.749,4.108l-3.229,2.119" style="fill:none;fill-rule:nonzero;stroke:#231f20;stroke-width:1px;"/><rect x="559.992" y="294.808" width="13.516" height="13.345" style="fill:#b3ddc0;stroke:#231f20;stroke-width:1px;"/><path d="M562.09,301.348l8.504,3.013l0,-6.193l-8.504,3.18Z" style="fill:#231f20;fill-rule:nonzero;"/><path d="M241.742,74.516c-0,1.745 -1.414,3.159 -3.159,3.159c-1.744,-0 -3.158,-1.414 -3.158,-3.159c-0,-1.744 1.414,-3.158 3.158,-3.158c1.745,-0 3.159,1.414 3.159,3.158" style="fill:#b3ddc0;fill-rule:nonzero;"/><path d="M241.742,74.516c-0,-1.743 -1.416,-3.158 -3.159,-3.158c-1.743,-0 -3.158,1.415 -3.158,3.158c-0,1.743 1.415,3.159 3.158,3.159c1.743,-0 3.159,-1.416 3.159,-3.159Z" style="fill:none;stroke:#231f20;stroke-width:1px;"/><rect x="205.739" y="124.122" width="22.083" height="28.347" style="fill:#b3ddc0;stroke:#231f20;stroke-width:0.75px;"/><path d="M216.78,132.268l-7.219,12.051l14.438,0l-7.219,-12.051Z" style="fill:none;fill-rule:nonzero;stroke:#231f20;stroke-width:1px;"/><path d="M224.177,132.268l-14.794,0" style="fill:none;fill-rule:nonzero;stroke:#231f20;stroke-width:1px;"/><path d="M216.78,148.522l0,-20.411" style="fill:none;fill-rule:nonzero;stroke:#231f20;stroke-width:1px;"/><rect x="205.739" y="167.206" width="22.083" height="28.346" style="fill:#b3ddc0;stroke:#231f20;stroke-width:0.75px;"/><path d="M216.78,175.351l-7.219,12.051l14.438,0l-7.219,-12.051Z" style="fill:none;fill-rule:nonzero;stroke:#231f20;stroke-width:1px;"/><path d="M224.177,175.351l-14.794,0" style="fill:none;fill-rule:nonzero;stroke:#231f20;stroke-width:1px;"/><path d="M216.78,191.605l0,-20.41" style="fill:none;fill-rule:nonzero;stroke:#231f20;stroke-width:1px;"/><path d="M637.926,305.009l3.896,-7.358" style="fill:none;fill-rule:nonzero;stroke:#231f20;stroke-width:0.5px;"/><path d="M640.052,305.009l3.896,-7.358" style="fill:none;fill-rule:nonzero;stroke:#231f20;stroke-width:0.5px;"/><path d="M642.178,305.009l3.894,-7.358" style="fill:none;fill-rule:nonzero;stroke:#231f20;stroke-width:0.5px;"/><path d="M562.773,311.254l7.358,3.896" style="fill:none;fill-rule:nonzero;stroke:#231f20;stroke-width:0.5px;"/><path d="M562.773,313.38l7.358,3.895" style="fill:none;fill-rule:nonzero;stroke:#231f20;stroke-width:0.5px;"/><text x="56.225px" y="125.56px" style="font-family:'ArialMT', 'Arial', sans-serif;font-size:8px;fill:#231f20;">PT2</text><text x="168.407px" y="100.504px" style="font-family:'ArialMT', 'Arial', sans-serif;font-size:8px;fill:#231f20;">DFE</text><text x="249.928px" y="100.503px" style="font-family:'ArialMT', 'Arial', sans-serif;font-size:8px;fill:#231f20;">DCC</text><text x="331.602px" y="100.769px" style="font-family:'ArialMT', 'Arial', sans-serif;font-size:8px;fill:#231f20;">INV</text><text x="511.157px" y="100.568px" style="font-family:'ArialMT', 'Arial', sans-serif;font-size:8px;fill:#231f20;">ILC</text><text x="759.312px" y="101.337px" style="font-family:'ArialMT', 'Arial', sans-serif;font-size:8px;fill:#231f20;">AC OUT</text><text x="783.441px" y="61.079px" style="font-family:'ArialMT', 'Arial', sans-serif;font-size:8px;fill:#231f20;">BR2</text><text x="168.923px" y="57.651px" style="font-family:'ArialMT', 'Arial', sans-serif;font-size:8px;fill:#231f20;">PRE</text><g transform="matrix(1,0,0,1,-131.387,-344.259)"><text x="957.752px" y="562.372px" style="font-family:'Arial-BoldMT', 'Arial', sans-serif;font-weight:700;font-size:18px;fill:#ed1c24;">M</text><text x="955.24px" y="571.212px" style="font-family:'ArialMT', 'Arial', sans-serif;font-size:8px;fill:#231f20;">3</text></g><text x="729.881px" y="197.627px" style="font-family:'ArialMT', 'Arial', sans-serif;font-size:8px;fill:#231f20;">Chopper</text><g transform="matrix(1,0,0,1,-131.387,-344.259)"><text x="410.828px" y="673.768px" style="font-family:'Arial-BoldMT', 'Arial', sans-serif;font-weight:700;font-size:8px;fill:#231f20;">DFE</text><text x="399.052px" y="681.768px" style="font-family:'Arial-BoldMT', 'Arial', sans-serif;font-weight:700;font-size:8px;fill:#231f20;">Protection</text><text x="413.268px" y="689.768px" style="font-family:'Arial-BoldMT', 'Arial', sans-serif;font-weight:700;font-size:8px;fill:#231f20;">1/2</text></g><g transform="matrix(1,0,0,1,-131.387,-344.259)"><text x="651.556px" y="673.768px" style="font-family:'Arial-BoldMT', 'Arial', sans-serif;font-weight:700;font-size:8px;fill:#231f20;">DFE</text><text x="639.78px" y="681.768px" style="font-family:'Arial-BoldMT', 'Arial', sans-serif;font-weight:700;font-size:8px;fill:#231f20;">Protection</text><text x="653.996px" y="689.768px" style="font-family:'Arial-BoldMT', 'Arial', sans-serif;font-weight:700;font-size:8px;fill:#231f20;">2.2</text></g><g transform="matrix(1,0,0,1,-131.387,-344.259)"><text x="736.068px" y="678.171px" style="font-family:'Arial-BoldMT', 'Arial', sans-serif;font-weight:700;font-size:8px;fill:#231f20;">PIBe</text><text x="734.956px" y="686.171px" style="font-family:'Arial-BoldMT', 'Arial', sans-serif;font-weight:700;font-size:8px;fill:#231f20;">Drive</text></g><text x="278.202px" y="61.48px" style="font-family:'ArialMT', 'Arial', sans-serif;font-size:8px;fill:#231f20;">Yd1<tspan x="291.842px " y="61.48px ">1</tspan></text><text x="248.538px" y="294.216px" style="font-family:'ArialMT', 'Arial', sans-serif;font-size:8px;fill:#231f20;">DC-</text><text x="247.538px" y="130.016px" style="font-family:'ArialMT', 'Arial', sans-serif;font-size:8px;fill:#231f20;">DC+</text><g transform="matrix(1,0,0,1,-131.387,-344.259)"><text x="693.658px" y="483.511px" style="font-family:'ArialMT', 'Arial', sans-serif;font-size:7px;fill:#231f20;">0 Seq.</text><text x="694.246px" y="490.511px" style="font-family:'ArialMT', 'Arial', sans-serif;font-size:7px;fill:#231f20;">Meas.</text></g><g transform="matrix(1,0,0,1,-131.387,-344.259)"><text x="644.218px" y="483.511px" style="font-family:'ArialMT', 'Arial', sans-serif;font-size:7px;fill:#231f20;">VDC+</text><text x="644.12px" y="490.511px" style="font-family:'ArialMT', 'Arial', sans-serif;font-size:7px;fill:#231f20;">Meas.</text></g><g transform="matrix(1,0,0,1,-131.387,-344.259)"><text x="645.093px" y="585.347px" style="font-family:'ArialMT', 'Arial', sans-serif;font-size:7px;fill:#231f20;">VDC-</text><text x="644.12px" y="592.347px" style="font-family:'ArialMT', 'Arial', sans-serif;font-size:7px;fill:#231f20;">Meas.</text></g><g transform="matrix(1,0,0,1,-131.387,-344.259)"><text x="685.991px" y="628.615px" style="font-family:'ArialMT', 'Arial', sans-serif;font-size:8px;fill:#231f20;">Sensor</text><text x="684.655px" y="636.615px" style="font-family:'ArialMT', 'Arial', sans-serif;font-size:8px;fill:#231f20;">x3 I Out</text></g><g transform="matrix(1,0,0,1,-131.387,-344.259)"><text x="339.071px" y="407.143px" style="font-family:'ArialMT', 'Arial', sans-serif;font-size:8px;fill:#231f20;">Sensor</text><text x="342.927px" y="415.143px" style="font-family:'ArialMT', 'Arial', sans-serif;font-size:8px;fill:#231f20;">x2 <tspan x="353.454px 358.341px " y="415.143px 415.143px ">TI</tspan></text></g><g transform="matrix(1,0,0,1,-131.387,-344.259)"><text x="692.999px" y="417.327px" style="font-family:'ArialMT', 'Arial', sans-serif;font-size:8px;fill:#231f20;">440V Pre-magnetisation Supply</text><text x="692.999px" y="425.327px" style="font-family:'ArialMT', 'Arial', sans-serif;font-size:8px;fill:#231f20;">from PM2 Group Starter LGSP8</text></g><text x="58.927px" y="301.049px" style="font-family:'Arial-BoldMT', 'Arial', sans-serif;font-weight:700;font-size:8px;fill:#231f20;">FC2 Shown</text><g transform="matrix(1,0,0,1,-131.387,-344.259)"><text x="152.082px" y="608.988px" style="font-family:'Arial-BoldMT', 'Arial', sans-serif;font-weight:700;font-size:8px;fill:#231f20;">Propulsion Converter</text><g transform="matrix(8,0,0,8,181.847,617.988)"></g><g transform="matrix(8,0,0,8,184.511,617.988)"></g><text x="157.842px" y="617.988px" style="font-family:'Arial-BoldMT', 'Arial', sans-serif;font-weight:700;font-size:8px;fill:#231f20;">Simpliﬁed Electrical</text><text x="184.082px" y="626.988px" style="font-family:'Arial-BoldMT', 'Arial', sans-serif;font-weight:700;font-size:8px;fill:#231f20;">Arrangement</text></g><g transform="matrix(1,0,0,1,-131.387,-344.259)"><text x="175.362px" y="532.052px" style="font-family:'Arial-BoldMT', 'Arial', sans-serif;font-weight:700;font-size:8px;fill:#231f20;">Propulsion</text><text x="172.906px" y="541.052px" style="font-family:'Arial-BoldMT', 'Arial', sans-serif;font-weight:700;font-size:8px;fill:#231f20;">T<tspan x="177.351px 180.464px " y="541.052px 541.052px ">ra</tspan>nsformer</text></g><g transform="matrix(1,0,0,1,-131.387,-344.259)"><text x="943.906px" y="523.988px" style="font-family:'Arial-BoldMT', 'Arial', sans-serif;font-weight:700;font-size:8px;fill:#231f20;">Propulsion</text><text x="944.354px" y="532.988px" style="font-family:'Arial-BoldMT', 'Arial', sans-serif;font-weight:700;font-size:8px;fill:#231f20;">Motor PM2</text></g><g transform="matrix(1,0,0,1,-131.387,-344.259)"><text x="912.834px" y="417.572px" style="font-family:'Arial-BoldMT', 'Arial', sans-serif;font-weight:700;font-size:8px;fill:#231f20;">Brake</text><text x="907.946px" y="426.572px" style="font-family:'Arial-BoldMT', 'Arial', sans-serif;font-weight:700;font-size:8px;fill:#231f20;">Resistor</text></g><path d="M41.917,157.258l-29.72,-0" style="fill:none;fill-rule:nonzero;stroke:#ed1c24;stroke-width:2px;"/><path d="M17.556,157.376l-12.756,3.619l0,-7.24l12.756,3.621Z" style="fill:#ed1c24;fill-rule:nonzero;"/><rect x="297.657" y="136.822" width="5.669" height="5.669" style="fill:#b3ddc0;"/><rect x="297.657" y="185.919" width="5.669" height="5.669" style="fill:#b3ddc0;"/><rect x="297.657" y="199.983" width="5.669" height="5.669" style="fill:#b3ddc0;"/><rect x="297.657" y="213.66" width="5.669" height="5.669" style="fill:#b3ddc0;"/><path d="M285.329,146.942l7.29,-7.484l42.581,0l0,49.355l-43.355,0l-6.516,-6.516" style="fill:none;fill-rule:nonzero;stroke:#231f20;stroke-width:0.75px;stroke-linecap:round;"/><rect x="317.464" y="227.051" width="5.669" height="5.669" style="fill:#fff;"/><rect x="317.464" y="276.641" width="5.669" height="5.669" style="fill:#fff;"/><rect x="297.657" y="227.221" width="5.669" height="5.669" style="fill:#b3ddc0;"/><rect x="297.657" y="276.318" width="5.669" height="5.669" style="fill:#b3ddc0;"/><path d="M285.329,237.342l7.29,-7.484l42.581,-0l0,49.355l-43.355,-0l-6.516,-6.516" style="fill:none;fill-rule:nonzero;stroke:#231f20;stroke-width:0.75px;stroke-linecap:round;"/><path d="M638.605,216.811l-338.457,0l-14.497,-14.173l64.458,0l0,-43.177l23.872,0" style="fill:none;fill-rule:nonzero;stroke:#ed1c24;stroke-width:2px;"/><path d="M739.136,82.168l-0,107.159" style="fill:none;fill-rule:nonzero;stroke:#231f20;stroke-width:1px;"/><path d="M744.942,82.168l0,107.159" style="fill:none;fill-rule:nonzero;stroke:#231f20;stroke-width:1px;"/><path d="M750.749,82.168l-0,107.159" style="fill:none;fill-rule:nonzero;stroke:#231f20;stroke-width:1px;"/><path d="M731.2,67.071l27.484,0" style="fill:none;fill-rule:nonzero;stroke:#231f20;stroke-width:1px;"/></g></g></svg>