<?xml version="1.0" encoding="UTF-8" standalone="no"?><!DOCTYPE svg PUBLIC "-//W3C//DTD SVG 1.1//EN" "http://www.w3.org/Graphics/SVG/1.1/DTD/svg11.dtd"><svg width="100%" height="100%" viewBox="0 0 430 168" version="1.1" xmlns="http://www.w3.org/2000/svg" xmlns:xlink="http://www.w3.org/1999/xlink" xml:space="preserve" xmlns:serif="http://www.serif.com/" style="fill-rule:evenodd;clip-rule:evenodd;stroke-linecap:round;stroke-linejoin:round;stroke-miterlimit:10;"><rect id="three-phase" x="0.968" y="-0" width="429" height="168" style="fill:none;"/><clipPath id="_clip1"><rect id="three-phase1" serif:id="three-phase" x="0.968" y="-0" width="429" height="168"/></clipPath><g clip-path="url(#_clip1)"><g><g id="layer2"><g><g><path d="M45.925,82.507l0.48,-1.082m-0,0l2.152,-4.856l2.152,-4.823l2.152,-4.76l2.153,-4.676l2.152,-4.553l2.152,-4.416l2.153,-4.243l2.152,-4.051l2.152,-3.842l2.153,-3.6l2.153,-3.341l2.152,-3.065l2.152,-2.766l2.152,-2.462l2.152,-2.135l2.153,-1.792m-0,0l2.152,-1.448l2.152,-1.092l2.152,-0.733l2.152,-0.36l2.152,0.005l2.152,0.372l2.152,0.738l2.153,1.104l2.152,1.459l2.152,1.803l2.152,2.147l2.152,2.467l2.152,2.778l2.152,3.07l2.153,3.353l2.157,3.605l2.152,3.843l2.153,4.062l2.152,4.247l2.152,4.417l2.152,4.558l2.152,4.676l2.152,4.761l2.152,4.828l2.153,4.857l2.152,4.862l2.152,4.839l2.152,4.789l2.152,4.715l2.152,4.603l2.152,4.479l2.153,4.316m-0,-0l2.152,4.141l2.152,3.926l2.152,3.702l2.152,3.453l2.152,3.184l2.152,2.895l2.153,2.592l2.152,2.27l2.152,1.938l2.152,1.595l2.152,1.239l2.152,0.885l2.152,0.518l2.152,0.147l2.153,-0.22l2.152,-0.586l2.158,-0.952l2.152,-1.313l2.152,-1.662l2.152,-2l2.152,-2.332l2.152,-2.654l2.152,-2.952l2.152,-3.234l2.153,-3.504l2.152,-3.747l2.152,-3.971l2.152,-4.175l2.152,-4.35l2.152,-4.501l2.152,-4.631l2.153,-4.727l2.152,-4.806l2.152,-4.845l2.152,-4.862l2.152,-4.856l2.152,-4.811l2.152,-4.75l2.153,-4.653l2.152,-4.536l2.152,-4.383l2.152,-4.219l2.152,-4.017l2.152,-3.803l2.152,-3.555l2.152,-3.302l2.153,-3.014l2.157,-2.721l2.153,-2.406l2.152,-2.079l2.152,-1.74l2.152,-1.392l2.152,-1.031l2.152,-0.67l2.152,-0.305l2.152,0.068l2.153,0.434l2.152,0.8l2.152,1.16l2.152,1.516l2.152,1.865l2.152,2.197l2.152,2.518l2.153,2.828m-0,0l2.152,3.116l2.152,3.397l2.152,3.645l2.152,3.882l2.152,4.09l2.152,4.282l2.153,4.439l2.152,4.581l2.152,4.693l2.152,4.772l2.152,4.834l2.152,4.862l2.152,4.856l2.152,4.834l2.153,4.783l2.152,4.693l2.158,4.592l2.152,4.45l2.152,4.288l2.152,4.107l2.152,3.893l2.152,3.662l2.152,3.408l2.152,3.138l2.153,2.845l2.152,2.541l2.152,2.214l2.152,1.882l2.152,1.538l2.152,1.183l2.152,0.823l2.153,0.456m-0,0l2.152,0.09l2.152,-0.281l2.152,-0.648l2.152,-1.009l2.152,-1.369l2.152,-1.718l2.153,-2.056l2.152,-2.389l2.152,-2.699l2.152,-3.003l2.152,-3.279l2.152,-3.543l2.152,-3.786l2.152,-4.006l2.153,-4.203l2.157,-4.377m0,-0l2.153,-4.53l2.152,-4.648l2.152,-4.744l2.152,-4.805m-0,-0l2.152,-4.857m0,0l0.963,-2.18" style="fill:none;fill-rule:nonzero;stroke:#4db358;stroke-width:3px;"/></g></g><g><g><path d="M45.925,26.957l0.48,0.552m-0,0l2.152,2.659l2.152,2.958l2.152,3.245l2.153,3.51l2.152,3.758l2.152,3.978l2.153,4.174l2.152,4.361l2.152,4.507l2.153,4.631l2.153,4.732l2.152,4.8l2.152,4.851l2.152,4.862l2.152,4.851l2.153,4.817m-0,-0l2.152,4.744l2.152,4.653l2.152,4.53l2.152,4.377l2.152,4.215l2.152,4.011l2.152,3.791l2.153,3.555l2.152,3.291l2.152,3.008l2.152,2.71l2.152,2.394l2.152,2.068l2.152,1.73l2.153,1.38l2.157,1.025l2.152,0.659l2.153,0.293l2.152,-0.079l2.152,-0.445l2.152,-0.811l2.152,-1.172l2.152,-1.526l2.152,-1.871l2.153,-2.208l2.152,-2.53l2.152,-2.834l2.152,-3.127l2.152,-3.403l2.152,-3.656l2.152,-3.887l2.153,-4.096m-0,-0l2.152,-4.287l2.152,-4.446l2.152,-4.586l2.152,-4.693l2.152,-4.777l2.152,-4.828l4.305,-9.724l2.152,-4.834l2.152,-4.778l2.152,-4.693l2.152,-4.58l2.152,-4.451l2.152,-4.282l2.153,-4.101l2.152,-3.887l2.158,-3.657l2.152,-3.397l2.152,-3.132l2.152,-2.834l2.152,-2.53l2.152,-2.208l2.152,-1.871l2.152,-1.527l2.153,-1.171l2.152,-0.812l2.152,-0.45l2.152,-0.074l2.152,0.288l2.152,0.659l2.152,1.025l2.153,1.375l2.152,1.73l2.152,2.067l2.152,2.4l2.152,2.71l2.152,3.009l2.152,3.284l2.153,3.555l2.152,3.792l2.152,4.011l2.152,4.208l2.152,4.384l2.152,4.529l2.152,4.654l2.152,4.744l2.153,4.811l2.157,4.856l2.153,4.862l2.152,4.845l2.152,4.806l2.152,4.733l2.152,4.631l2.152,4.507l2.152,4.355l2.152,4.18l2.153,3.977l2.152,3.758l2.152,3.51l2.152,3.245l2.152,2.958l2.152,2.665l2.152,2.344l2.153,2.011m-0,-0l2.152,1.673l2.152,1.318l2.152,0.964l2.152,0.603l2.152,0.231l2.152,-0.141l2.153,-0.502l2.152,-0.873l2.152,-1.228l2.152,-1.583l2.152,-1.933l2.152,-2.259l2.152,-2.58l2.152,-2.885l2.153,-3.172l2.152,-3.447l2.158,-3.691l2.152,-3.926l2.152,-4.13l2.152,-4.316l2.152,-4.467l2.152,-4.603l2.152,-4.71l2.152,-4.789l2.153,-4.839l2.152,-4.862l2.152,-4.857l2.152,-4.828l2.152,-4.766l2.152,-4.676l2.152,-4.564l2.153,-4.422m-0,-0l2.152,-4.254l2.152,-4.068l2.152,-3.847l2.152,-3.617l2.152,-3.358l2.152,-3.082l2.153,-2.789l2.152,-2.473l2.152,-2.158l2.152,-1.814l2.152,-1.47l2.152,-1.116l2.152,-0.749l2.152,-0.383l2.153,-0.017l2.157,0.349m0,0l2.153,0.721l2.152,1.082l2.152,1.437l2.152,1.786m-0,-0l2.152,2.118m0,-0l0.963,1.059" style="fill:none;fill-rule:nonzero;stroke:#c00;stroke-opacity:0.7;stroke-width:3.5px;"/></g></g><g><g><path d="M45.925,138.057l0.48,0.535m-0,0l2.152,2.197l2.152,1.86l2.152,1.521l2.153,1.16l2.152,0.8l2.152,0.434l2.153,0.068l2.152,-0.305l2.152,-0.67l2.153,-1.031l2.153,-1.386l2.152,-1.741l2.152,-2.079l2.152,-2.405l2.152,-2.721l2.153,-3.015m-0,0l2.152,-3.295l2.152,-3.561l2.152,-3.797l2.152,-4.023l2.152,-4.214l2.152,-4.389l2.152,-4.529l2.153,-4.654l2.152,-4.749l2.152,-4.817l2.152,-4.851l2.152,-4.862l2.152,-4.851l2.152,-4.8l2.153,-4.727l2.157,-4.631l2.152,-4.501l2.153,-4.355l2.152,-4.175l2.152,-3.972l2.152,-3.746l2.152,-3.504l2.152,-3.234l2.152,-2.952l2.153,-2.648l2.152,-2.338l2.152,-2l2.152,-1.662l2.152,-1.313l2.152,-0.952l2.152,-0.592l2.153,-0.22m-0,0l2.152,0.153l2.152,0.512l2.152,0.885l2.152,1.239l2.152,1.595l2.152,1.938l2.153,2.27l2.152,2.592l2.152,2.89l2.152,3.183l2.152,3.454l2.152,3.701l2.152,3.927l2.152,4.141l2.153,4.315l2.152,4.474l2.158,4.608l2.152,4.71l2.152,4.794l2.152,4.84l2.152,4.862l2.152,4.856l2.152,4.823l2.152,4.766l2.153,4.671l2.152,4.563l2.152,4.417l2.152,4.248l2.152,4.062l2.152,3.842l2.152,3.612l2.153,3.346l2.152,3.076l2.152,2.778l2.152,2.467l2.152,2.141l2.152,1.809l2.152,1.459l2.153,1.104l2.152,0.738l2.152,0.378l2.152,0.005l2.152,-0.366l2.152,-0.727l2.152,-1.093l2.152,-1.448l2.153,-1.797l2.157,-2.129l2.153,-2.457l2.152,-2.772l2.152,-3.065l2.152,-3.34l2.152,-3.6l2.152,-3.837l2.152,-4.051l2.152,-4.248l2.153,-4.411l2.152,-4.558l2.152,-4.67l2.152,-4.761l2.152,-4.823l2.152,-4.856l2.152,-4.862l2.153,-4.839m-0,-0l2.152,-4.795l2.152,-4.715l2.152,-4.609l2.152,-4.479l2.152,-4.327l2.152,-4.141l2.153,-3.938l2.152,-3.707l2.152,-3.459l2.152,-3.194l2.152,-2.902l2.152,-2.597l2.152,-2.282l2.152,-1.949l2.153,-1.606l2.152,-1.25l2.158,-0.896l2.152,-0.53l2.152,-0.158l2.152,0.209l2.152,0.575l2.152,0.94l2.152,1.302l2.152,1.651l2.153,1.994l2.152,2.327l2.152,2.636l2.152,2.947l2.152,3.228l2.152,3.493l2.152,3.741l2.153,3.966m-0,0l2.152,4.164l2.152,4.349l2.152,4.496l2.152,4.625l2.152,4.727l2.152,4.8l2.153,4.845l2.152,4.868l2.152,4.851l2.152,4.817l2.152,4.749l2.152,4.659l2.152,4.535l2.152,4.395l2.153,4.22l2.157,4.028m0,-0l2.153,3.803l2.152,3.566l2.152,3.307l2.152,3.025m-0,0l2.152,2.733m0,-0l0.963,1.121" style="fill:none;fill-rule:nonzero;stroke:#00f;stroke-opacity:0.7;stroke-width:3px;"/></g></g><g><g><g><path d="M45.925,178.722l0,-187.596" style="fill:none;fill-rule:nonzero;stroke:#000;stroke-opacity:0.7;stroke-width:0.45px;"/></g></g></g><g><g><path d="M38.968,82.507l363.533,0" style="fill:none;fill-rule:nonzero;stroke:#000;stroke-opacity:0.7;stroke-width:0.48px;"/></g></g></g><g transform="matrix(6.12323e-17,-1,1,6.12323e-17,-153.868,192.469)"><g transform="matrix(12,0,0,12,160.103,181.994)"></g><text x="74.029px" y="181.994px" style="font-family:'ArialMT', 'Arial', sans-serif;font-size:12px;">Induced V<tspan x="127.408px 134.082px " y="181.994px 181.994px ">ol</tspan>tage</text></g></g></g></svg>