<?xml version="1.0" encoding="UTF-8" standalone="no"?>
<!DOCTYPE svg PUBLIC "-//W3C//DTD SVG 1.1//EN" "http://www.w3.org/Graphics/SVG/1.1/DTD/svg11.dtd">
<svg width="100%" height="100%" viewBox="0 0 374 341" version="1.1" xmlns="http://www.w3.org/2000/svg" xmlns:xlink="http://www.w3.org/1999/xlink" xml:space="preserve" xmlns:serif="http://www.serif.com/" style="fill-rule:evenodd;clip-rule:evenodd;stroke-linecap:round;stroke-linejoin:round;stroke-miterlimit:1.5;">
    <g transform="matrix(1,0,0,1,-5955,-946)">
        <g id="bore-stroke" transform="matrix(0.466133,0,0,0.523032,6465.76,1051.26)">
            <rect x="-1094.95" y="-200" width="800" height="650" style="fill:none;"/>
            <g transform="matrix(2.14531,0,0,1.91193,934.285,-120.212)">
                <g transform="matrix(1,0,0,1,-1094.95,-190)">
                    <rect x="240" y="260" width="200" height="120" style="fill:url(#_Linear1);"/>
                    <path d="M440,260.597C440.158,260.597 440.31,260.63 440.447,260.689L441.133,260.006L441.133,260.577C441.133,260.788 441.076,260.985 440.976,261.154C441.076,261.323 441.133,261.52 441.133,261.731L441.133,262.885C441.133,263.095 441.076,263.292 440.976,263.462C441.076,263.631 441.133,263.828 441.133,264.038L441.133,265.192C441.133,265.403 441.076,265.6 440.976,265.769C441.076,265.938 441.133,266.136 441.133,266.346L441.133,267.5C441.133,267.711 441.076,267.908 440.976,268.077C441.076,268.246 441.133,268.443 441.133,268.654L441.133,269.808C441.133,270.018 441.076,270.216 440.975,270.385C441.076,270.554 441.133,270.751 441.133,270.962L441.133,272.115C441.133,272.326 441.076,272.523 440.976,272.692C441.076,272.861 441.133,273.059 441.133,273.269L441.133,274.423C441.133,274.634 441.076,274.831 440.975,275C441.076,275.169 441.133,275.366 441.133,275.577L441.133,276.731C441.133,276.941 441.076,277.139 440.976,277.308C441.076,277.477 441.133,277.674 441.133,277.885L441.133,279.038C441.133,279.249 441.076,279.446 440.976,279.615C441.076,279.784 441.133,279.982 441.133,280.192L441.133,281.346C441.133,281.557 441.076,281.754 440.975,281.923C441.076,282.092 441.133,282.289 441.133,282.5L441.133,283.654C441.133,283.864 441.076,284.062 440.976,284.231C441.076,284.4 441.133,284.597 441.133,284.808L441.133,285.961C441.133,286.172 441.076,286.369 440.975,286.538C441.076,286.708 441.133,286.905 441.133,287.116L441.133,288.269C441.133,288.48 441.076,288.677 440.976,288.846C441.076,289.015 441.133,289.212 441.133,289.423L441.133,290.577C441.133,290.787 441.076,290.985 440.975,291.154C441.076,291.323 441.133,291.52 441.133,291.731L441.133,292.885C441.133,293.095 441.076,293.293 440.976,293.462C441.076,293.631 441.133,293.828 441.133,294.038L441.133,295.192C441.133,295.403 441.076,295.6 440.976,295.769C441.076,295.938 441.133,296.135 441.133,296.346L441.133,297.5C441.133,297.711 441.076,297.908 440.976,298.077C441.076,298.246 441.133,298.443 441.133,298.654L441.133,299.808C441.133,300.018 441.076,300.215 440.976,300.385C441.076,300.554 441.133,300.751 441.133,300.961L441.133,302.115C441.133,302.326 441.076,302.523 440.975,302.692C441.076,302.861 441.133,303.059 441.133,303.269L441.133,304.423C441.133,304.634 441.076,304.831 440.976,305C441.076,305.169 441.133,305.366 441.133,305.577L441.133,306.731C441.133,306.941 441.076,307.139 440.975,307.308C441.076,307.477 441.133,307.674 441.133,307.885L441.133,309.038C441.133,309.249 441.076,309.446 440.976,309.615C441.076,309.784 441.133,309.982 441.133,310.192L441.133,311.346C441.133,311.557 441.076,311.754 440.976,311.923C441.076,312.092 441.133,312.289 441.133,312.5L441.133,313.654C441.133,313.864 441.076,314.062 440.975,314.231C441.076,314.4 441.133,314.597 441.133,314.808L441.133,315.962C441.133,316.172 441.076,316.369 440.975,316.539C441.076,316.708 441.133,316.905 441.133,317.116L441.133,318.269C441.133,318.48 441.076,318.677 440.976,318.846C441.076,319.015 441.133,319.212 441.133,319.423L441.133,320.577C441.133,320.787 441.076,320.985 440.976,321.154C441.076,321.323 441.133,321.52 441.133,321.731L441.133,322.885C441.133,323.095 441.076,323.292 440.976,323.461C441.076,323.63 441.133,323.828 441.133,324.038L441.133,325.192C441.133,325.403 441.076,325.6 440.975,325.769C441.076,325.938 441.133,326.136 441.133,326.346L441.133,327.5C441.133,327.711 441.076,327.908 440.976,328.077C441.076,328.246 441.133,328.443 441.133,328.654L441.133,329.808C441.133,330.018 441.076,330.216 440.975,330.385C441.076,330.554 441.133,330.751 441.133,330.962L441.133,332.115C441.133,332.326 441.076,332.523 440.976,332.692C441.076,332.861 441.133,333.059 441.133,333.269L441.133,334.423C441.133,334.634 441.076,334.831 440.975,335C441.076,335.169 441.133,335.366 441.133,335.577L441.133,336.731C441.133,336.941 441.076,337.139 440.975,337.308C441.076,337.477 441.133,337.674 441.133,337.885L441.133,339.039C441.133,339.249 441.076,339.446 440.976,339.615C441.076,339.784 441.133,339.982 441.133,340.192L441.133,341.346C441.133,341.557 441.076,341.754 440.976,341.923C441.076,342.092 441.133,342.289 441.133,342.5L441.133,343.654C441.133,343.864 441.076,344.062 440.976,344.231C441.076,344.4 441.133,344.597 441.133,344.808L441.133,345.962C441.133,346.172 441.076,346.369 440.975,346.538C441.076,346.708 441.133,346.905 441.133,347.115L441.133,348.269C441.133,348.48 441.076,348.677 440.975,348.846C441.076,349.015 441.133,349.213 441.133,349.423L441.133,350.577C441.133,350.788 441.076,350.985 440.976,351.154C441.076,351.323 441.133,351.52 441.133,351.731L441.133,352.885C441.133,353.095 441.076,353.292 440.975,353.461C441.076,353.631 441.133,353.828 441.133,354.038L441.133,355.192C441.133,355.403 441.076,355.6 440.975,355.769C441.076,355.938 441.133,356.136 441.133,356.346L441.133,357.5C441.133,357.711 441.076,357.908 440.976,358.077C441.076,358.246 441.133,358.443 441.133,358.654L441.133,359.808C441.133,360.018 441.076,360.216 440.976,360.385C441.076,360.554 441.133,360.751 441.133,360.961L441.133,362.115C441.133,362.326 441.076,362.523 440.975,362.692C441.076,362.861 441.133,363.059 441.133,363.269L441.133,364.423C441.133,364.634 441.076,364.831 440.976,365C441.076,365.169 441.133,365.366 441.133,365.577L441.133,366.731C441.133,366.941 441.076,367.139 440.975,367.308C441.076,367.477 441.133,367.674 441.133,367.885L441.133,369.038C441.133,369.249 441.076,369.446 440.975,369.615C441.076,369.784 441.133,369.982 441.133,370.192L441.133,371.346C441.133,371.557 441.076,371.754 440.976,371.923C441.076,372.092 441.133,372.289 441.133,372.5L441.133,373.654C441.133,373.864 441.076,374.062 440.975,374.231C441.076,374.4 441.133,374.597 441.133,374.808L441.133,375.962C441.133,376.172 441.076,376.369 440.976,376.538C441.076,376.707 441.133,376.905 441.133,377.115L441.133,378.269C441.133,378.48 441.076,378.677 440.976,378.846C441.076,379.015 441.133,379.212 441.133,379.423L441.133,379.994L440,381.133L439.432,381.133C439.225,381.133 439.031,381.078 438.864,380.981C438.697,381.078 438.502,381.133 438.295,381.133L437.159,381.133C436.952,381.133 436.758,381.078 436.591,380.981C436.424,381.078 436.23,381.133 436.023,381.133L434.886,381.133C434.679,381.133 434.485,381.078 434.318,380.981C434.151,381.078 433.957,381.133 433.75,381.133L432.614,381.133C432.407,381.133 432.213,381.078 432.046,380.981C431.878,381.078 431.684,381.133 431.477,381.133L430.341,381.133C430.134,381.133 429.94,381.078 429.773,380.981C429.606,381.078 429.412,381.133 429.205,381.133L428.068,381.133C427.861,381.133 427.667,381.078 427.5,380.981C427.333,381.078 427.139,381.133 426.932,381.133L425.796,381.133C425.589,381.133 425.395,381.078 425.227,380.981C425.06,381.078 424.866,381.133 424.659,381.133L423.523,381.133C423.316,381.133 423.122,381.078 422.955,380.981C422.788,381.078 422.593,381.133 422.386,381.133L421.25,381.133C421.043,381.133 420.849,381.078 420.682,380.981C420.515,381.078 420.321,381.133 420.114,381.133L418.977,381.133C418.77,381.133 418.576,381.078 418.409,380.981C418.242,381.078 418.048,381.133 417.841,381.133L416.705,381.133C416.498,381.133 416.303,381.078 416.136,380.981C415.969,381.078 415.775,381.133 415.568,381.133L414.432,381.133C414.225,381.133 414.031,381.078 413.864,380.981C413.697,381.078 413.503,381.133 413.296,381.133L412.159,381.133C411.952,381.133 411.758,381.078 411.591,380.981C411.424,381.078 411.23,381.133 411.023,381.133L409.887,381.133C409.68,381.133 409.485,381.078 409.318,380.981C409.151,381.078 408.957,381.133 408.75,381.133L407.614,381.133C407.407,381.133 407.212,381.078 407.045,380.981C406.878,381.078 406.684,381.133 406.477,381.133L405.341,381.133C405.134,381.133 404.94,381.078 404.773,380.981C404.606,381.078 404.412,381.133 404.205,381.133L403.068,381.133C402.861,381.133 402.667,381.078 402.5,380.981C402.333,381.078 402.139,381.133 401.932,381.133L400.795,381.133C400.588,381.133 400.394,381.078 400.227,380.981C400.06,381.078 399.866,381.133 399.659,381.133L398.523,381.133C398.316,381.133 398.122,381.078 397.954,380.981C397.787,381.078 397.593,381.133 397.386,381.133L396.25,381.133C396.043,381.133 395.849,381.078 395.682,380.981C395.515,381.078 395.32,381.133 395.113,381.133L393.977,381.133C393.77,381.133 393.576,381.078 393.409,380.981C393.242,381.078 393.048,381.133 392.841,381.133L391.705,381.133C391.498,381.133 391.303,381.078 391.136,380.981C390.969,381.078 390.775,381.133 390.568,381.133L389.432,381.133C389.225,381.133 389.031,381.078 388.864,380.981C388.697,381.078 388.503,381.133 388.296,381.133L387.159,381.133C386.952,381.133 386.758,381.078 386.591,380.98C386.424,381.078 386.23,381.133 386.023,381.133L384.886,381.133C384.679,381.133 384.485,381.078 384.318,380.981C384.151,381.078 383.957,381.133 383.75,381.133L382.614,381.133C382.407,381.133 382.212,381.078 382.045,380.981C381.878,381.078 381.684,381.133 381.477,381.133L380.341,381.133C380.134,381.133 379.94,381.078 379.773,380.981C379.606,381.078 379.412,381.133 379.205,381.133L378.068,381.133C377.861,381.133 377.667,381.078 377.5,380.981C377.333,381.078 377.139,381.133 376.932,381.133L375.796,381.133C375.589,381.133 375.395,381.078 375.227,380.981C375.06,381.078 374.866,381.133 374.659,381.133L373.523,381.133C373.316,381.133 373.122,381.078 372.955,380.981C372.788,381.078 372.593,381.133 372.386,381.133L371.25,381.133C371.043,381.133 370.849,381.078 370.682,380.981C370.515,381.078 370.321,381.133 370.114,381.133L368.977,381.133C368.77,381.133 368.576,381.078 368.409,380.981C368.242,381.078 368.048,381.133 367.841,381.133L366.705,381.133C366.498,381.133 366.304,381.078 366.136,380.981C365.969,381.078 365.775,381.133 365.568,381.133L364.432,381.133C364.225,381.133 364.031,381.078 363.864,380.981C363.697,381.078 363.503,381.133 363.296,381.133L362.159,381.133C361.952,381.133 361.758,381.078 361.591,380.981C361.424,381.078 361.23,381.133 361.023,381.133L359.887,381.133C359.68,381.133 359.485,381.078 359.318,380.981C359.151,381.078 358.957,381.133 358.75,381.133L357.614,381.133C357.407,381.133 357.213,381.078 357.046,380.981C356.878,381.078 356.684,381.133 356.477,381.133L355.341,381.133C355.134,381.133 354.94,381.078 354.773,380.981C354.606,381.078 354.412,381.133 354.205,381.133L353.068,381.133C352.861,381.133 352.667,381.078 352.5,380.981C352.333,381.078 352.139,381.133 351.932,381.133L350.796,381.133C350.588,381.133 350.394,381.078 350.227,380.981C350.06,381.078 349.866,381.133 349.659,381.133L348.522,381.133C348.315,381.133 348.122,381.078 347.954,380.981C347.787,381.078 347.593,381.133 347.387,381.133L346.25,381.133C346.043,381.133 345.849,381.078 345.682,380.981C345.515,381.078 345.321,381.133 345.114,381.133L343.977,381.133C343.77,381.133 343.576,381.078 343.409,380.981C343.242,381.078 343.048,381.133 342.841,381.133L341.705,381.133C341.498,381.133 341.303,381.078 341.136,380.981C340.969,381.078 340.775,381.133 340.568,381.133L339.432,381.133C339.225,381.133 339.031,381.078 338.863,380.981C338.696,381.078 338.502,381.133 338.295,381.133L337.159,381.133C336.952,381.133 336.758,381.078 336.591,380.981C336.424,381.078 336.23,381.133 336.023,381.133L334.886,381.133C334.679,381.133 334.485,381.078 334.318,380.981C334.151,381.078 333.957,381.133 333.75,381.133L332.614,381.133C332.407,381.133 332.213,381.078 332.045,380.981C331.878,381.078 331.684,381.133 331.477,381.133L330.341,381.133C330.134,381.133 329.94,381.078 329.773,380.981C329.606,381.078 329.411,381.133 329.204,381.133L328.068,381.133C327.861,381.133 327.667,381.078 327.5,380.981C327.333,381.078 327.139,381.133 326.932,381.133L325.795,381.133C325.588,381.133 325.394,381.078 325.227,380.981C325.06,381.078 324.866,381.133 324.659,381.133L323.523,381.133C323.316,381.133 323.122,381.078 322.955,380.981C322.788,381.078 322.593,381.133 322.386,381.133L321.25,381.133C321.043,381.133 320.849,381.078 320.682,380.981C320.515,381.078 320.321,381.133 320.113,381.133L318.977,381.133C318.77,381.133 318.576,381.078 318.409,380.981C318.242,381.078 318.048,381.133 317.841,381.133L316.705,381.133C316.498,381.133 316.304,381.078 316.137,380.981C315.969,381.078 315.775,381.133 315.568,381.133L314.432,381.133C314.225,381.133 314.031,381.078 313.864,380.981C313.697,381.078 313.503,381.133 313.296,381.133L312.159,381.133C311.952,381.133 311.758,381.078 311.591,380.981C311.424,381.078 311.23,381.133 311.023,381.133L309.886,381.133C309.679,381.133 309.485,381.078 309.318,380.981C309.151,381.078 308.957,381.133 308.75,381.133L307.614,381.133C307.407,381.133 307.213,381.078 307.046,380.981C306.879,381.078 306.684,381.133 306.477,381.133L305.341,381.133C305.134,381.133 304.94,381.078 304.773,380.981C304.606,381.078 304.412,381.133 304.205,381.133L303.068,381.133C302.861,381.133 302.667,381.078 302.5,380.981C302.333,381.078 302.139,381.133 301.932,381.133L300.795,381.133C300.588,381.133 300.394,381.078 300.227,380.981C300.06,381.078 299.866,381.133 299.659,381.133L298.523,381.133C298.316,381.133 298.122,381.078 297.955,380.981C297.788,381.078 297.594,381.133 297.387,381.133L296.25,381.133C296.043,381.133 295.849,381.078 295.682,380.981C295.515,381.078 295.321,381.133 295.114,381.133L293.977,381.133C293.77,381.133 293.576,381.078 293.409,380.981C293.242,381.078 293.048,381.133 292.841,381.133L291.704,381.133C291.497,381.133 291.303,381.078 291.136,380.981C290.969,381.078 290.775,381.133 290.568,381.133L289.432,381.133C289.225,381.133 289.031,381.078 288.864,380.981C288.697,381.078 288.503,381.133 288.296,381.133L287.159,381.133C286.952,381.133 286.758,381.078 286.591,380.981C286.424,381.078 286.23,381.133 286.023,381.133L284.886,381.133C284.679,381.133 284.485,381.078 284.318,380.981C284.151,381.078 283.957,381.133 283.75,381.133L282.614,381.133C282.407,381.133 282.213,381.078 282.046,380.981C281.878,381.078 281.684,381.133 281.477,381.133L280.341,381.133C280.134,381.133 279.94,381.078 279.773,380.981C279.606,381.078 279.411,381.133 279.204,381.133L278.068,381.133C277.861,381.133 277.667,381.078 277.5,380.981C277.333,381.078 277.139,381.133 276.932,381.133L275.796,381.133C275.589,381.133 275.394,381.078 275.227,380.981C275.06,381.078 274.866,381.133 274.659,381.133L273.523,381.133C273.316,381.133 273.122,381.078 272.955,380.981C272.788,381.078 272.593,381.133 272.386,381.133L271.25,381.133C271.043,381.133 270.849,381.078 270.682,380.981C270.515,381.078 270.321,381.133 270.113,381.133L268.977,381.133C268.77,381.133 268.576,381.078 268.409,380.981C268.242,381.078 268.048,381.133 267.841,381.133L266.705,381.133C266.498,381.133 266.303,381.078 266.136,380.981C265.969,381.078 265.775,381.133 265.568,381.133L264.432,381.133C264.225,381.133 264.031,381.078 263.864,380.981C263.696,381.078 263.502,381.133 263.295,381.133L262.159,381.133C261.952,381.133 261.758,381.078 261.591,380.981C261.424,381.078 261.23,381.133 261.023,381.133L259.886,381.133C259.679,381.133 259.485,381.078 259.318,380.981C259.151,381.078 258.957,381.133 258.75,381.133L257.614,381.133C257.407,381.133 257.213,381.078 257.045,380.981C256.878,381.078 256.684,381.133 256.477,381.133L255.341,381.133C255.134,381.133 254.94,381.078 254.773,380.981C254.606,381.078 254.412,381.133 254.205,381.133L253.068,381.133C252.861,381.133 252.667,381.078 252.5,380.981C252.333,381.078 252.139,381.133 251.932,381.133L250.795,381.133C250.588,381.133 250.394,381.078 250.227,380.981C250.06,381.078 249.866,381.133 249.659,381.133L248.523,381.133C248.316,381.133 248.122,381.078 247.955,380.981C247.787,381.078 247.593,381.133 247.386,381.133L246.25,381.133C246.043,381.133 245.849,381.078 245.682,380.981C245.515,381.078 245.321,381.133 245.114,381.133L243.977,381.133C243.77,381.133 243.576,381.078 243.409,380.981C243.242,381.078 243.048,381.133 242.841,381.133L241.705,381.133C241.498,381.133 241.303,381.078 241.136,380.981C240.969,381.078 240.775,381.133 240.568,381.133L240,381.133L238.867,379.994L238.867,379.423C238.867,379.212 238.924,379.015 239.024,378.846C238.924,378.677 238.867,378.48 238.867,378.269L238.867,377.115C238.867,376.905 238.924,376.708 239.024,376.538C238.924,376.369 238.867,376.172 238.867,375.962L238.867,374.808C238.867,374.597 238.924,374.4 239.024,374.231C238.924,374.062 238.867,373.864 238.867,373.654L238.867,372.5C238.867,372.289 238.924,372.092 239.024,371.923C238.924,371.754 238.867,371.557 238.867,371.346L238.867,370.192C238.867,369.982 238.924,369.784 239.025,369.615C238.924,369.446 238.867,369.249 238.867,369.038L238.867,367.885C238.867,367.674 238.924,367.477 239.024,367.308C238.924,367.139 238.867,366.941 238.867,366.731L238.867,365.577C238.867,365.366 238.924,365.169 239.025,365C238.924,364.831 238.867,364.634 238.867,364.423L238.867,363.269C238.867,363.059 238.924,362.861 239.024,362.692C238.924,362.523 238.867,362.326 238.867,362.115L238.867,360.962C238.867,360.751 238.924,360.554 239.024,360.385C238.924,360.216 238.867,360.018 238.867,359.808L238.867,358.654C238.867,358.443 238.924,358.246 239.025,358.077C238.924,357.908 238.867,357.711 238.867,357.5L238.867,356.346C238.867,356.136 238.924,355.938 239.024,355.769C238.924,355.6 238.867,355.403 238.867,355.192L238.867,354.039C238.867,353.828 238.924,353.631 239.025,353.462C238.924,353.292 238.867,353.095 238.867,352.884L238.867,351.731C238.867,351.52 238.924,351.323 239.024,351.154C238.924,350.985 238.867,350.788 238.867,350.577L238.867,349.423C238.867,349.213 238.924,349.015 239.025,348.846C238.924,348.677 238.867,348.48 238.867,348.269L238.867,347.115C238.867,346.905 238.924,346.707 239.024,346.538C238.924,346.369 238.867,346.172 238.867,345.962L238.867,344.808C238.867,344.597 238.924,344.4 239.024,344.231C238.924,344.062 238.867,343.865 238.867,343.654L238.867,342.5C238.867,342.289 238.924,342.092 239.024,341.923C238.924,341.754 238.867,341.557 238.867,341.346L238.867,340.192C238.867,339.982 238.924,339.785 239.024,339.615C238.924,339.446 238.867,339.249 238.867,339.039L238.867,337.885C238.867,337.674 238.924,337.477 239.025,337.308C238.924,337.139 238.867,336.941 238.867,336.731L238.867,335.577C238.867,335.366 238.924,335.169 239.024,335C238.924,334.831 238.867,334.634 238.867,334.423L238.867,333.269C238.867,333.059 238.924,332.861 239.025,332.692C238.924,332.523 238.867,332.326 238.867,332.115L238.867,330.962C238.867,330.751 238.924,330.554 239.024,330.385C238.924,330.216 238.867,330.018 238.867,329.808L238.867,328.654C238.867,328.443 238.924,328.246 239.024,328.077C238.924,327.908 238.867,327.711 238.867,327.5L238.867,326.346C238.867,326.136 238.924,325.938 239.025,325.769C238.924,325.6 238.867,325.403 238.867,325.192L238.867,324.038C238.867,323.828 238.924,323.631 239.025,323.461C238.924,323.292 238.867,323.095 238.867,322.884L238.867,321.731C238.867,321.52 238.924,321.323 239.024,321.154C238.924,320.985 238.867,320.788 238.867,320.577L238.867,319.423C238.867,319.213 238.924,319.015 239.024,318.846C238.924,318.677 238.867,318.48 238.867,318.269L238.867,317.115C238.867,316.905 238.924,316.708 239.024,316.539C238.924,316.37 238.867,316.172 238.867,315.962L238.867,314.808C238.867,314.597 238.924,314.4 239.025,314.231C238.924,314.062 238.867,313.864 238.867,313.654L238.867,312.5C238.867,312.289 238.924,312.092 239.024,311.923C238.924,311.754 238.867,311.557 238.867,311.346L238.867,310.192C238.867,309.982 238.924,309.784 239.025,309.615C238.924,309.446 238.867,309.249 238.867,309.038L238.867,307.885C238.867,307.674 238.924,307.477 239.024,307.308C238.924,307.139 238.867,306.941 238.867,306.731L238.867,305.577C238.867,305.366 238.924,305.169 239.025,305C238.924,304.831 238.867,304.634 238.867,304.423L238.867,303.269C238.867,303.059 238.924,302.861 239.025,302.692C238.924,302.523 238.867,302.326 238.867,302.115L238.867,300.961C238.867,300.751 238.924,300.554 239.024,300.385C238.924,300.216 238.867,300.018 238.867,299.808L238.867,298.654C238.867,298.443 238.924,298.246 239.024,298.077C238.924,297.908 238.867,297.711 238.867,297.5L238.867,296.346C238.867,296.136 238.924,295.938 239.024,295.769C238.924,295.6 238.867,295.403 238.867,295.192L238.867,294.038C238.867,293.828 238.924,293.631 239.025,293.462C238.924,293.292 238.867,293.095 238.867,292.885L238.867,291.731C238.867,291.52 238.924,291.323 239.025,291.154C238.924,290.985 238.867,290.787 238.867,290.577L238.867,289.423C238.867,289.212 238.924,289.015 239.024,288.846C238.924,288.677 238.867,288.48 238.867,288.269L238.867,287.115C238.867,286.905 238.924,286.708 239.025,286.539C238.924,286.369 238.867,286.172 238.867,285.962L238.867,284.808C238.867,284.597 238.924,284.4 239.025,284.231C238.924,284.062 238.867,283.864 238.867,283.654L238.867,282.5C238.867,282.289 238.924,282.092 239.024,281.923C238.924,281.754 238.867,281.557 238.867,281.346L238.867,280.192C238.867,279.982 238.924,279.784 239.024,279.615C238.924,279.446 238.867,279.249 238.867,279.039L238.867,277.885C238.867,277.674 238.924,277.477 239.025,277.308C238.924,277.139 238.867,276.941 238.867,276.731L238.867,275.577C238.867,275.366 238.924,275.169 239.024,275C238.924,274.831 238.867,274.634 238.867,274.423L238.867,273.269C238.867,273.059 238.924,272.861 239.025,272.692C238.924,272.523 238.867,272.326 238.867,272.115L238.867,270.962C238.867,270.751 238.924,270.554 239.025,270.385C238.924,270.216 238.867,270.018 238.867,269.808L238.867,268.654C238.867,268.443 238.924,268.246 239.024,268.077C238.924,267.908 238.867,267.711 238.867,267.5L238.867,266.346C238.867,266.136 238.924,265.938 239.025,265.769C238.924,265.6 238.867,265.403 238.867,265.192L238.867,264.038C238.867,263.828 238.924,263.631 239.024,263.462C238.924,263.293 238.867,263.095 238.867,262.885L238.867,261.731C238.867,261.52 238.924,261.323 239.024,261.154C238.924,260.985 238.867,260.788 238.867,260.577L238.867,260.006L239.553,260.689C239.69,260.63 239.842,260.597 240,260.597L240,380L440,380L440,260.597ZM240.002,260L240.006,258.867L240.568,258.867C240.775,258.867 240.969,258.922 241.136,259.019C241.303,258.922 241.498,258.867 241.705,258.867L242.841,258.867C243.048,258.867 243.242,258.922 243.409,259.019C243.576,258.922 243.77,258.867 243.977,258.867L245.114,258.867C245.321,258.867 245.515,258.922 245.682,259.019C245.849,258.922 246.043,258.867 246.25,258.867L247.386,258.867C247.593,258.867 247.787,258.922 247.954,259.019C248.122,258.922 248.316,258.867 248.523,258.867L249.659,258.867C249.866,258.867 250.06,258.922 250.227,259.019C250.394,258.922 250.588,258.867 250.795,258.867L251.932,258.867C252.139,258.867 252.333,258.922 252.5,259.019C252.667,258.922 252.861,258.867 253.068,258.867L254.204,258.867C254.411,258.867 254.605,258.922 254.773,259.019C254.94,258.922 255.134,258.867 255.341,258.867L256.477,258.867C256.684,258.867 256.878,258.922 257.045,259.019C257.212,258.922 257.407,258.867 257.614,258.867L258.75,258.867C258.957,258.867 259.151,258.922 259.318,259.019C259.485,258.922 259.679,258.867 259.886,258.867L261.023,258.867C261.23,258.867 261.424,258.922 261.591,259.019C261.758,258.922 261.952,258.867 262.159,258.867L263.295,258.867C263.502,258.867 263.697,258.922 263.864,259.019C264.031,258.922 264.225,258.867 264.432,258.867L265.568,258.867C265.775,258.867 265.969,258.922 266.136,259.019C266.303,258.922 266.497,258.867 266.704,258.867L267.841,258.867C268.048,258.867 268.242,258.922 268.409,259.019C268.576,258.922 268.77,258.867 268.977,258.867L270.113,258.867C270.32,258.867 270.515,258.922 270.682,259.019C270.849,258.922 271.043,258.867 271.25,258.867L272.386,258.867C272.593,258.867 272.788,258.922 272.955,259.019C273.122,258.922 273.316,258.867 273.523,258.867L274.659,258.867C274.866,258.867 275.06,258.922 275.227,259.019C275.394,258.922 275.588,258.867 275.795,258.867L276.932,258.867C277.139,258.867 277.333,258.922 277.5,259.019C277.667,258.922 277.861,258.867 278.068,258.867L279.205,258.867C279.412,258.867 279.606,258.922 279.773,259.019C279.94,258.922 280.134,258.867 280.341,258.867L281.477,258.867C281.684,258.867 281.878,258.922 282.046,259.019C282.213,258.922 282.407,258.867 282.614,258.867L283.75,258.867C283.957,258.867 284.151,258.922 284.318,259.019C284.485,258.922 284.68,258.867 284.887,258.867L286.023,258.867C286.23,258.867 286.424,258.922 286.591,259.019C286.758,258.922 286.952,258.867 287.159,258.867L288.295,258.867C288.502,258.867 288.697,258.922 288.864,259.019C289.031,258.922 289.225,258.867 289.432,258.867L290.568,258.867C290.775,258.867 290.969,258.922 291.136,259.019C291.303,258.922 291.497,258.867 291.704,258.867L292.841,258.867C293.048,258.867 293.242,258.922 293.409,259.02C293.576,258.922 293.77,258.867 293.977,258.867L295.114,258.867C295.321,258.867 295.515,258.922 295.682,259.019C295.849,258.922 296.043,258.867 296.25,258.867L297.386,258.867C297.593,258.867 297.788,258.922 297.955,259.019C298.122,258.922 298.316,258.867 298.523,258.867L299.659,258.867C299.866,258.867 300.06,258.922 300.227,259.019C300.394,258.922 300.588,258.867 300.795,258.867L301.932,258.867C302.139,258.867 302.333,258.922 302.5,259.019C302.667,258.922 302.861,258.867 303.068,258.867L304.204,258.867C304.411,258.867 304.605,258.922 304.773,259.019C304.94,258.922 305.134,258.867 305.341,258.867L306.477,258.867C306.684,258.867 306.878,258.922 307.045,259.019C307.212,258.922 307.407,258.867 307.614,258.867L308.75,258.867C308.957,258.867 309.151,258.922 309.318,259.019C309.485,258.922 309.679,258.867 309.886,258.867L311.023,258.867C311.23,258.867 311.424,258.922 311.591,259.019C311.758,258.922 311.952,258.867 312.159,258.867L313.295,258.867C313.502,258.867 313.696,258.922 313.864,259.019C314.031,258.922 314.225,258.867 314.432,258.867L315.568,258.867C315.775,258.867 315.969,258.922 316.136,259.019C316.303,258.922 316.497,258.867 316.704,258.867L317.841,258.867C318.048,258.867 318.242,258.922 318.409,259.019C318.576,258.922 318.77,258.867 318.977,258.867L320.113,258.867C320.32,258.867 320.515,258.922 320.682,259.019C320.849,258.922 321.043,258.867 321.25,258.867L322.386,258.867C322.593,258.867 322.787,258.922 322.954,259.019C323.122,258.922 323.316,258.867 323.523,258.867L324.659,258.867C324.866,258.867 325.06,258.922 325.227,259.019C325.394,258.922 325.588,258.867 325.795,258.867L326.932,258.867C327.139,258.867 327.333,258.922 327.5,259.019C327.667,258.922 327.861,258.867 328.068,258.867L329.204,258.867C329.412,258.867 329.606,258.922 329.773,259.019C329.94,258.922 330.134,258.867 330.341,258.867L331.478,258.867C331.685,258.867 331.878,258.922 332.046,259.019C332.213,258.922 332.407,258.867 332.613,258.867L333.75,258.867C333.957,258.867 334.151,258.922 334.318,259.019C334.485,258.922 334.679,258.867 334.886,258.867L336.023,258.867C336.23,258.867 336.424,258.922 336.591,259.019C336.758,258.922 336.952,258.867 337.159,258.867L338.295,258.867C338.502,258.867 338.697,258.922 338.864,259.019C339.031,258.922 339.225,258.867 339.432,258.867L340.568,258.867C340.775,258.867 340.969,258.922 341.137,259.019C341.304,258.922 341.498,258.867 341.705,258.867L342.841,258.867C343.048,258.867 343.242,258.922 343.409,259.019C343.576,258.922 343.77,258.867 343.977,258.867L345.114,258.867C345.321,258.867 345.515,258.922 345.682,259.019C345.849,258.922 346.043,258.867 346.25,258.867L347.386,258.867C347.593,258.867 347.787,258.922 347.955,259.019C348.122,258.922 348.316,258.867 348.523,258.867L349.659,258.867C349.866,258.867 350.06,258.922 350.227,259.019C350.394,258.922 350.589,258.867 350.796,258.867L351.932,258.867C352.139,258.867 352.333,258.922 352.5,259.019C352.667,258.922 352.861,258.867 353.068,258.867L354.205,258.867C354.412,258.867 354.606,258.922 354.773,259.019C354.94,258.922 355.134,258.867 355.341,258.867L356.477,258.867C356.684,258.867 356.878,258.922 357.045,259.019C357.212,258.922 357.407,258.867 357.614,258.867L358.75,258.867C358.957,258.867 359.151,258.922 359.318,259.019C359.485,258.922 359.679,258.867 359.887,258.867L361.023,258.867C361.23,258.867 361.424,258.922 361.591,259.019C361.758,258.922 361.952,258.867 362.159,258.867L363.295,258.867C363.502,258.867 363.696,258.922 363.863,259.019C364.031,258.922 364.225,258.867 364.432,258.867L365.568,258.867C365.775,258.867 365.969,258.922 366.136,259.019C366.303,258.922 366.497,258.867 366.704,258.867L367.841,258.867C368.048,258.867 368.242,258.922 368.409,259.019C368.576,258.922 368.77,258.867 368.977,258.867L370.114,258.867C370.321,258.867 370.515,258.922 370.682,259.019C370.849,258.922 371.043,258.867 371.25,258.867L372.386,258.867C372.593,258.867 372.787,258.922 372.954,259.019C373.121,258.922 373.316,258.867 373.523,258.867L374.659,258.867C374.866,258.867 375.06,258.922 375.227,259.019C375.394,258.922 375.588,258.867 375.795,258.867L376.932,258.867C377.139,258.867 377.333,258.922 377.5,259.019C377.667,258.922 377.861,258.867 378.068,258.867L379.205,258.867C379.412,258.867 379.606,258.922 379.773,259.019C379.94,258.922 380.134,258.867 380.341,258.867L381.477,258.867C381.684,258.867 381.878,258.922 382.045,259.019C382.212,258.922 382.406,258.867 382.613,258.867L383.75,258.867C383.957,258.867 384.151,258.922 384.318,259.019C384.485,258.922 384.679,258.867 384.886,258.867L386.023,258.867C386.23,258.867 386.424,258.922 386.591,259.019C386.758,258.922 386.952,258.867 387.159,258.867L388.296,258.867C388.503,258.867 388.697,258.922 388.864,259.019C389.031,258.922 389.225,258.867 389.432,258.867L390.568,258.867C390.775,258.867 390.969,258.922 391.136,259.019C391.303,258.922 391.497,258.867 391.704,258.867L392.841,258.867C393.048,258.867 393.242,258.922 393.409,259.019C393.576,258.922 393.77,258.867 393.977,258.867L395.114,258.867C395.321,258.867 395.515,258.922 395.682,259.019C395.849,258.922 396.043,258.867 396.25,258.867L397.386,258.867C397.593,258.867 397.787,258.922 397.954,259.019C398.122,258.922 398.316,258.867 398.523,258.867L399.659,258.867C399.866,258.867 400.06,258.922 400.227,259.019C400.394,258.922 400.589,258.867 400.796,258.867L401.932,258.867C402.139,258.867 402.333,258.922 402.5,259.019C402.667,258.922 402.861,258.867 403.068,258.867L404.204,258.867C404.411,258.867 404.606,258.922 404.773,259.019C404.94,258.922 405.134,258.867 405.341,258.867L406.477,258.867C406.684,258.867 406.878,258.922 407.045,259.019C407.212,258.922 407.407,258.867 407.614,258.867L408.75,258.867C408.957,258.867 409.151,258.922 409.318,259.019C409.485,258.922 409.679,258.867 409.887,258.867L411.023,258.867C411.23,258.867 411.424,258.922 411.591,259.019C411.758,258.922 411.952,258.867 412.159,258.867L413.295,258.867C413.502,258.867 413.697,258.922 413.864,259.019C414.031,258.922 414.225,258.867 414.432,258.867L415.568,258.867C415.775,258.867 415.969,258.922 416.136,259.019C416.304,258.922 416.498,258.867 416.705,258.867L417.841,258.867C418.048,258.867 418.242,258.922 418.409,259.019C418.576,258.922 418.77,258.867 418.977,258.867L420.114,258.867C420.321,258.867 420.515,258.922 420.682,259.019C420.849,258.922 421.043,258.867 421.25,258.867L422.386,258.867C422.593,258.867 422.787,258.922 422.955,259.019C423.122,258.922 423.316,258.867 423.523,258.867L424.659,258.867C424.866,258.867 425.06,258.922 425.227,259.019C425.394,258.922 425.588,258.867 425.795,258.867L426.932,258.867C427.139,258.867 427.333,258.922 427.5,259.019C427.667,258.922 427.861,258.867 428.068,258.867L429.205,258.867C429.412,258.867 429.606,258.922 429.773,259.019C429.94,258.922 430.134,258.867 430.341,258.867L431.477,258.867C431.684,258.867 431.878,258.922 432.045,259.019C432.213,258.922 432.407,258.867 432.614,258.867L433.75,258.867C433.957,258.867 434.151,258.922 434.318,259.019C434.485,258.922 434.679,258.867 434.886,258.867L436.023,258.867C436.23,258.867 436.424,258.922 436.591,259.019C436.758,258.922 436.952,258.867 437.159,258.867L438.295,258.867C438.502,258.867 438.697,258.922 438.864,259.019C439.031,258.922 439.225,258.867 439.432,258.867L439.994,258.867L439.998,260L240.002,260Z"/>
                </g>
                <g transform="matrix(1,0,0,1,-1094.95,-190)">
                    <path d="M310.274,324.066C310.267,324.067 310.26,324.068 310.253,324.069C309.63,324.129 309.075,323.673 309.015,323.051C308.917,322.047 308.867,321.029 308.867,320C308.867,318.971 308.917,317.953 309.015,316.949C309.075,316.327 309.63,315.871 310.253,315.931C310.26,315.932 310.267,315.933 310.274,315.933C310.093,317.263 310,318.621 310,320C310,321.379 310.093,322.737 310.274,324.066ZM310.978,312.381C310.971,312.379 310.964,312.377 310.957,312.375C310.358,312.193 310.02,311.56 310.201,310.961C310.799,308.993 311.586,307.106 312.541,305.323C312.837,304.772 313.524,304.564 314.076,304.86C314.082,304.863 314.088,304.866 314.095,304.87C312.734,307.193 311.677,309.715 310.978,312.381ZM316.11,301.861C316.104,301.856 316.099,301.852 316.093,301.847C315.61,301.45 315.54,300.735 315.937,300.252C317.232,298.677 318.677,297.232 320.252,295.937C320.735,295.54 321.45,295.61 321.847,296.093C321.852,296.099 321.856,296.104 321.861,296.11C319.694,297.758 317.758,299.694 316.11,301.861ZM324.87,294.095C324.866,294.088 324.863,294.082 324.86,294.076C324.564,293.524 324.772,292.837 325.323,292.541C327.106,291.586 328.993,290.799 330.961,290.201C331.56,290.02 332.193,290.358 332.375,290.957C332.377,290.964 332.379,290.971 332.381,290.978C329.715,291.677 327.193,292.734 324.87,294.095ZM335.934,290.274C335.933,290.267 335.932,290.26 335.931,290.253C335.871,289.63 336.327,289.075 336.949,289.015C337.953,288.917 338.971,288.867 340,288.867C341.029,288.867 342.047,288.917 343.051,289.015C343.673,289.075 344.129,289.63 344.069,290.253C344.068,290.26 344.067,290.267 344.066,290.274C342.737,290.093 341.379,290 340,290C338.621,290 337.263,290.093 335.934,290.274ZM347.619,290.978C347.621,290.971 347.623,290.964 347.625,290.957C347.807,290.358 348.44,290.02 349.039,290.201C351.007,290.799 352.894,291.586 354.677,292.541C355.228,292.837 355.436,293.524 355.14,294.076C355.137,294.082 355.134,294.088 355.13,294.095C352.807,292.734 350.285,291.677 347.619,290.978ZM358.139,296.11C358.144,296.104 358.148,296.099 358.153,296.093C358.55,295.61 359.265,295.54 359.748,295.937C361.323,297.232 362.768,298.677 364.063,300.252C364.46,300.735 364.39,301.45 363.907,301.847C363.901,301.852 363.896,301.856 363.89,301.861C362.242,299.694 360.306,297.758 358.139,296.11ZM365.905,304.87C365.912,304.866 365.918,304.863 365.924,304.86C366.476,304.564 367.163,304.772 367.459,305.323C368.414,307.106 369.201,308.993 369.799,310.961C369.98,311.56 369.642,312.193 369.043,312.375C369.036,312.377 369.029,312.379 369.022,312.381C368.323,309.715 367.266,307.193 365.905,304.87ZM369.726,315.934C369.733,315.933 369.74,315.932 369.747,315.931C370.37,315.871 370.925,316.327 370.985,316.949C371.083,317.953 371.133,318.971 371.133,320C371.133,321.029 371.083,322.047 370.985,323.051C370.925,323.673 370.37,324.129 369.747,324.069C369.74,324.068 369.733,324.067 369.726,324.067C369.907,322.737 370,321.379 370,320C370,318.621 369.907,317.263 369.726,315.934ZM369.022,327.619C369.029,327.621 369.036,327.623 369.043,327.625C369.642,327.807 369.98,328.44 369.799,329.039C369.201,331.007 368.414,332.894 367.459,334.677C367.163,335.228 366.476,335.436 365.924,335.14C365.918,335.137 365.912,335.134 365.905,335.13C367.266,332.807 368.323,330.285 369.022,327.619ZM363.89,338.139C363.896,338.144 363.901,338.148 363.907,338.153C364.39,338.55 364.46,339.265 364.063,339.748C362.768,341.323 361.323,342.768 359.748,344.063C359.265,344.46 358.55,344.39 358.153,343.907C358.148,343.901 358.144,343.896 358.139,343.89C360.306,342.242 362.242,340.306 363.89,338.139ZM355.13,345.905C355.134,345.912 355.137,345.918 355.14,345.924C355.436,346.476 355.228,347.163 354.677,347.459C352.894,348.414 351.007,349.201 349.039,349.799C348.44,349.98 347.807,349.642 347.625,349.043C347.623,349.036 347.621,349.029 347.619,349.022C350.285,348.323 352.807,347.266 355.13,345.905ZM344.066,349.726C344.067,349.733 344.068,349.74 344.069,349.747C344.129,350.37 343.673,350.925 343.051,350.985C342.047,351.083 341.029,351.133 340,351.133C338.971,351.133 337.953,351.083 336.949,350.985C336.327,350.925 335.871,350.37 335.931,349.747C335.932,349.74 335.933,349.733 335.933,349.726C337.263,349.907 338.621,350 340,350C341.379,350 342.737,349.907 344.066,349.726ZM332.381,349.022C332.379,349.029 332.377,349.036 332.375,349.043C332.193,349.642 331.56,349.98 330.961,349.799C328.993,349.201 327.106,348.414 325.323,347.459C324.772,347.163 324.564,346.476 324.86,345.924C324.863,345.918 324.866,345.912 324.87,345.905C327.193,347.266 329.715,348.323 332.381,349.022ZM321.861,343.89C321.856,343.896 321.852,343.901 321.847,343.907C321.45,344.39 320.735,344.46 320.252,344.063C318.677,342.768 317.232,341.323 315.937,339.748C315.54,339.265 315.61,338.55 316.093,338.153C316.099,338.148 316.104,338.144 316.11,338.139C317.758,340.306 319.694,342.242 321.861,343.89ZM314.095,335.13C314.088,335.134 314.082,335.137 314.076,335.14C313.524,335.436 312.837,335.228 312.541,334.677C311.586,332.894 310.799,331.007 310.201,329.039C310.02,328.44 310.358,327.807 310.957,327.625C310.964,327.623 310.971,327.621 310.978,327.619C311.677,330.285 312.734,332.807 314.095,335.13Z"/>
                </g>
            </g>
            <g transform="matrix(2.14531,0,0,1.91193,-1414.73,-502.598)">
                <rect x="240" y="240" width="200" height="20" style="fill:white;"/>
            </g>
            <g transform="matrix(2.14531,0,0,1.91193,-1414.73,-502.598)">
                <path d="M220,480L220,200L460,200L460,480L440,480L440,240L240,240L240,480L220,480Z" style="fill-opacity:0.2;"/>
                <path d="M220,480L220,200L460,200L460,480L440,480L440,240L240,240L240,480L220,480ZM221.333,478.667C221.333,478.667 238.667,478.667 238.667,478.667L238.667,238.667L441.333,238.667L441.333,478.667C441.333,478.667 458.667,478.667 458.667,478.667L458.667,201.333C458.667,201.333 221.333,201.333 221.333,201.333L221.333,478.667Z"/>
            </g>
            <g transform="matrix(2.01123,0,0,1.91193,-1347.69,-502.598)">
                <path d="M180,440L500,440" style="fill:none;stroke:black;stroke-width:0.97px;stroke-dasharray:4.87,4.87,0,0,0,0;"/>
            </g>
            <g transform="matrix(2.01123,0,0,1.91193,-1347.69,-502.598)">
                <path d="M180,260.472C179.722,260.472 179.496,260.261 179.496,260C179.496,259.739 179.722,259.528 180,259.528L182.581,259.528C182.859,259.528 183.085,259.739 183.085,260C183.085,260.261 182.859,260.472 182.581,260.472L180,260.472ZM187.742,260.472C187.464,260.472 187.238,260.261 187.238,260C187.238,259.739 187.464,259.528 187.742,259.528L192.903,259.528C193.181,259.528 193.407,259.739 193.407,260C193.407,260.261 193.181,260.472 192.903,260.472L187.742,260.472ZM198.065,260.472C197.787,260.472 197.561,260.261 197.561,260C197.561,259.739 197.787,259.528 198.065,259.528L203.226,259.528C203.504,259.528 203.73,259.739 203.73,260C203.73,260.261 203.504,260.472 203.226,260.472L198.065,260.472ZM208.387,260.472C208.109,260.472 207.883,260.261 207.883,260C207.883,259.739 208.109,259.528 208.387,259.528L213.548,259.528C213.827,259.528 214.052,259.739 214.052,260C214.052,260.261 213.827,260.472 213.548,260.472L208.387,260.472ZM218.71,260.472C218.432,260.472 218.206,260.261 218.206,260C218.206,259.739 218.432,259.528 218.71,259.528L223.871,259.528C224.149,259.528 224.375,259.739 224.375,260C224.375,260.261 224.149,260.472 223.871,260.472L218.71,260.472ZM229.032,260.472C228.754,260.472 228.528,260.261 228.528,260C228.528,259.739 228.754,259.528 229.032,259.528L234.193,259.528C234.472,259.528 234.697,259.739 234.697,260C234.697,260.261 234.472,260.472 234.193,260.472L229.032,260.472ZM239.354,260.472C239.076,260.472 238.851,260.261 238.851,260C238.851,259.739 239.076,259.528 239.354,259.528L244.516,259.528C244.794,259.528 245.02,259.739 245.02,260C245.02,260.261 244.794,260.472 244.516,260.472L239.354,260.472ZM249.678,260.472C249.399,260.472 249.174,260.261 249.174,260C249.174,259.739 249.399,259.528 249.678,259.528L254.839,259.528C255.117,259.528 255.343,259.739 255.343,260C255.343,260.261 255.117,260.472 254.839,260.472L249.678,260.472ZM260,260.472C259.722,260.472 259.496,260.261 259.496,260C259.496,259.739 259.722,259.528 260,259.528L265.162,259.528C265.44,259.528 265.665,259.739 265.665,260C265.665,260.261 265.44,260.472 265.162,260.472L260,260.472ZM270.322,260.472C270.044,260.472 269.818,260.261 269.818,260C269.818,259.739 270.044,259.528 270.322,259.528L275.483,259.528C275.762,259.528 275.987,259.739 275.987,260C275.987,260.261 275.762,260.472 275.483,260.472L270.322,260.472ZM280.645,260.472C280.367,260.472 280.141,260.261 280.141,260C280.141,259.739 280.367,259.528 280.645,259.528L285.806,259.528C286.084,259.528 286.31,259.739 286.31,260C286.31,260.261 286.084,260.472 285.806,260.472L280.645,260.472ZM290.968,260.472C290.69,260.472 290.464,260.261 290.464,260C290.464,259.739 290.69,259.528 290.968,259.528L296.129,259.528C296.407,259.528 296.633,259.739 296.633,260C296.633,260.261 296.407,260.472 296.129,260.472L290.968,260.472ZM301.291,260.472C301.012,260.472 300.787,260.261 300.787,260C300.787,259.739 301.012,259.528 301.291,259.528L306.452,259.528C306.73,259.528 306.956,259.739 306.956,260C306.956,260.261 306.73,260.472 306.452,260.472L301.291,260.472ZM311.613,260.472C311.335,260.472 311.109,260.261 311.109,260C311.109,259.739 311.335,259.528 311.613,259.528L316.774,259.528C317.053,259.528 317.278,259.739 317.278,260C317.278,260.261 317.053,260.472 316.774,260.472L311.613,260.472ZM321.936,260.472C321.658,260.472 321.432,260.261 321.432,260C321.432,259.739 321.658,259.528 321.936,259.528L327.097,259.528C327.375,259.528 327.601,259.739 327.601,260C327.601,260.261 327.375,260.472 327.097,260.472L321.936,260.472ZM332.258,260.472C331.98,260.472 331.754,260.261 331.754,260C331.754,259.739 331.98,259.528 332.258,259.528L337.419,259.528C337.697,259.528 337.923,259.739 337.923,260C337.923,260.261 337.697,260.472 337.419,260.472L332.258,260.472ZM342.58,260.472C342.302,260.472 342.076,260.261 342.076,260C342.076,259.739 342.302,259.528 342.58,259.528L347.742,259.528C348.02,259.528 348.246,259.739 348.246,260C348.246,260.261 348.02,260.472 347.742,260.472L342.58,260.472ZM352.903,260.472C352.625,260.472 352.399,260.261 352.399,260C352.399,259.739 352.625,259.528 352.903,259.528L358.065,259.528C358.343,259.528 358.568,259.739 358.568,260C358.568,260.261 358.343,260.472 358.065,260.472L352.903,260.472ZM363.226,260.472C362.947,260.472 362.722,260.261 362.722,260C362.722,259.739 362.947,259.528 363.226,259.528L368.387,259.528C368.665,259.528 368.891,259.739 368.891,260C368.891,260.261 368.665,260.472 368.387,260.472L363.226,260.472ZM373.549,260.472C373.27,260.472 373.045,260.261 373.045,260C373.045,259.739 373.27,259.528 373.549,259.528L378.71,259.528C378.988,259.528 379.214,259.739 379.214,260C379.214,260.261 378.988,260.472 378.71,260.472L373.549,260.472ZM383.871,260.472C383.593,260.472 383.367,260.261 383.367,260C383.367,259.739 383.593,259.528 383.871,259.528L389.033,259.528C389.311,259.528 389.536,259.739 389.536,260C389.536,260.261 389.311,260.472 389.033,260.472L383.871,260.472ZM394.193,260.472C393.915,260.472 393.689,260.261 393.689,260C393.689,259.739 393.915,259.528 394.193,259.528L399.354,259.528C399.633,259.528 399.858,259.739 399.858,260C399.858,260.261 399.633,260.472 399.354,260.472L394.193,260.472ZM404.516,260.472C404.238,260.472 404.012,260.261 404.012,260C404.012,259.739 404.238,259.528 404.516,259.528L409.678,259.528C409.956,259.528 410.182,259.739 410.182,260C410.182,260.261 409.956,260.472 409.678,260.472L404.516,260.472ZM414.839,260.472C414.561,260.472 414.335,260.261 414.335,260C414.335,259.739 414.561,259.528 414.839,259.528L420,259.528C420.278,259.528 420.504,259.739 420.504,260C420.504,260.261 420.278,260.472 420,260.472L414.839,260.472ZM425.162,260.472C424.884,260.472 424.658,260.261 424.658,260C424.658,259.739 424.884,259.528 425.162,259.528L430.323,259.528C430.601,259.528 430.827,259.739 430.827,260C430.827,260.261 430.601,260.472 430.323,260.472L425.162,260.472ZM435.484,260.472C435.205,260.472 434.98,260.261 434.98,260C434.98,259.739 435.205,259.528 435.484,259.528L440.645,259.528C440.923,259.528 441.149,259.739 441.149,260C441.149,260.261 440.923,260.472 440.645,260.472L435.484,260.472ZM445.807,260.472C445.528,260.472 445.303,260.261 445.303,260C445.303,259.739 445.528,259.528 445.807,259.528L450.968,259.528C451.246,259.528 451.472,259.739 451.472,260C451.472,260.261 451.246,260.472 450.968,260.472L445.807,260.472ZM456.129,260.472C455.851,260.472 455.625,260.261 455.625,260C455.625,259.739 455.851,259.528 456.129,259.528L461.29,259.528C461.568,259.528 461.794,259.739 461.794,260C461.794,260.261 461.568,260.472 461.29,260.472L456.129,260.472ZM466.452,260.472C466.174,260.472 465.948,260.261 465.948,260C465.948,259.739 466.174,259.528 466.452,259.528L471.613,259.528C471.891,259.528 472.117,259.739 472.117,260C472.117,260.261 471.891,260.472 471.613,260.472L466.452,260.472ZM476.774,260.472C476.496,260.472 476.27,260.261 476.27,260C476.27,259.739 476.496,259.528 476.774,259.528L481.936,259.528C482.214,259.528 482.439,259.739 482.439,260C482.439,260.261 482.214,260.472 481.936,260.472L476.774,260.472ZM487.097,260.472C486.819,260.472 486.593,260.261 486.593,260C486.593,259.739 486.819,259.528 487.097,259.528L492.258,259.528C492.536,259.528 492.762,259.739 492.762,260C492.762,260.261 492.536,260.472 492.258,260.472L487.097,260.472ZM497.419,260.472C497.141,260.472 496.915,260.261 496.915,260C496.915,259.739 497.141,259.528 497.419,259.528L500,259.528C500.278,259.528 500.504,259.739 500.504,260C500.504,260.261 500.278,260.472 500,260.472L497.419,260.472Z"/>
            </g>
            <g transform="matrix(2.14531,0,0,1.91193,-1414.73,-502.598)">
                <g transform="matrix(1,-0,-0,1,148.689,157.619)">
                    <path d="M344.988,113.413L341.311,102.381L337.633,113.413L344.988,113.413Z"/>
                    <path d="M344.988,271.349L341.311,282.381L337.633,271.349L344.988,271.349Z"/>
                    <path d="M341.311,111.207L341.311,273.556" style="fill:none;stroke:black;stroke-width:2px;"/>
                </g>
            </g>
            <g transform="matrix(1.45958e-16,-1.91193,2.38368,1.17072e-16,-1519.61,1275.49)">
                <g transform="matrix(5.51091e-17,0.9,-1,6.12323e-17,772.381,177.82)">
                    <path d="M102.343,278.704L91.311,282.381L102.343,286.059L102.343,278.704Z"/>
                    <path d="M280.279,278.704L291.311,282.381L280.279,286.059L280.279,278.704Z"/>
                    <path d="M100.136,282.381L282.485,282.381" style="fill:none;stroke:black;stroke-width:2px;"/>
                </g>
            </g>
            <g transform="matrix(2.14531,0,0,1.91193,-1209.43,-674.058)">
                <g transform="matrix(16,0,0,16,93.0882,355.789)">
                </g>
                <text x="61.213px" y="355.789px" style="font-family:'Geneva', sans-serif;font-size:16px;">TDC</text>
            </g>
            <g transform="matrix(2.14531,0,0,1.91193,-1209.43,-330.639)">
                <g transform="matrix(16,0,0,16,93.0569,355.789)">
                </g>
                <text x="61.244px" y="355.789px" style="font-family:'Geneva', sans-serif;font-size:16px;">BDC</text>
            </g>
            <g transform="matrix(2.14531,0,0,1.91193,-876.461,-447.938)">
                <g transform="matrix(16,0,0,16,112.76,355.789)">
                </g>
                <text x="65.393px" y="355.789px" style="font-family:'Geneva', sans-serif;font-size:16px;">Piston</text>
            </g>
            <g transform="matrix(2.52089,0,0,1.91193,1221.63,-116.866)">
                <g transform="matrix(1,0,0,1,-1094.95,-199.81)">
                    <rect x="316.955" y="430" width="43.045" height="16.119" style="fill:white;"/>
                </g>
                <g transform="matrix(0.851013,0,0,1,-824.687,-111.43)">
                    <g transform="matrix(16,0,0,16,97.7861,355.789)">
                    </g>
                    <text x="62.52px" y="355.789px" style="font-family:'Geneva', sans-serif;font-size:16px;">Bore</text>
                </g>
            </g>
            <g transform="matrix(2.42142,0,0,1.91193,1455.93,-295.96)">
                <g transform="matrix(1,0,0,1,-1094.95,-199.81)">
                    <rect x="316.955" y="430" width="43.045" height="16.119" style="fill:white;"/>
                </g>
                <g transform="matrix(0.885972,0,0,1,-826.784,-111.43)">
                    <g transform="matrix(16,0,0,16,111.852,355.789)">
                    </g>
                    <text x="61.367px" y="355.789px" style="font-family:'Geneva', sans-serif;font-size:16px;">Stroke</text>
                </g>
            </g>
            <g transform="matrix(1,0,0,1,-10.7266,1.13687e-13)">
                <g transform="matrix(2.14531,0,0,1.91193,927.654,-120.212)">
                    <g transform="matrix(1,0,0,1,-1094.95,-200)">
                        <path d="M300.591,200L300.591,230L308.091,240L278.091,240L285.591,230L285.591,200L300.591,200Z" style="fill:white;"/>
                    </g>
                    <g transform="matrix(1,0,0,1,-1094.95,-200)">
                        <path d="M285.591,200L285.591,230L278.091,240" style="fill:none;stroke:black;stroke-width:1.33px;stroke-linecap:butt;"/>
                    </g>
                    <g transform="matrix(1,0,0,1,-1094.95,-200)">
                        <path d="M300.591,200L300,230L308.091,240" style="fill:none;stroke:black;stroke-width:1.33px;stroke-linecap:butt;"/>
                    </g>
                </g>
                <g transform="matrix(2.14531,0,0,1.91193,1163.64,-120.212)">
                    <g transform="matrix(1,0,0,1,-1094.95,-200)">
                        <path d="M300.591,200L300.591,230L308.091,240L278.091,240L285.591,230L285.591,200L300.591,200Z" style="fill:white;"/>
                    </g>
                    <g transform="matrix(1,0,0,1,-1094.95,-200)">
                        <path d="M285.591,200L285.591,230L278.091,240" style="fill:none;stroke:black;stroke-width:1.33px;stroke-linecap:butt;"/>
                    </g>
                    <g transform="matrix(1,0,0,1,-1094.95,-200)">
                        <path d="M300.591,200L300,230L308.091,240" style="fill:none;stroke:black;stroke-width:1.33px;stroke-linecap:butt;"/>
                    </g>
                </g>
            </g>
            <g transform="matrix(2.14531,0,0,2.38991,-932.034,-636.433)">
                <path d="M100,200L100,250L115,260L130,250L130,200L100,200Z" style="fill:rgb(128,128,128);"/>
                <path d="M100,200L130,200L130,250L115,260L100,250L100,200ZM101.333,201.067C101.333,201.067 101.333,249.5 101.333,249.5C101.333,249.5 115,258.612 115,258.612L128.667,249.5L128.667,201.067L101.333,201.067Z"/>
            </g>
        </g>
    </g>
    <defs>
        <linearGradient id="_Linear1" x1="0" y1="0" x2="1" y2="0" gradientUnits="userSpaceOnUse" gradientTransform="matrix(200,0,0,120,240,320)"><stop offset="0" style="stop-color:rgb(128,128,128);stop-opacity:1"/><stop offset="0.5" style="stop-color:white;stop-opacity:1"/><stop offset="1" style="stop-color:rgb(128,128,128);stop-opacity:1"/></linearGradient>
    </defs>
</svg>
