<?xml version="1.0" encoding="UTF-8" standalone="no"?>
<!DOCTYPE svg PUBLIC "-//W3C//DTD SVG 1.1//EN" "http://www.w3.org/Graphics/SVG/1.1/DTD/svg11.dtd">
<svg width="100%" height="100%" viewBox="0 0 2000 2090" version="1.1" xmlns="http://www.w3.org/2000/svg" xmlns:xlink="http://www.w3.org/1999/xlink" xml:space="preserve" xmlns:serif="http://www.serif.com/" style="fill-rule:evenodd;clip-rule:evenodd;stroke-miterlimit:10;">
    <g transform="matrix(1,0,0,1,0,-2728)">
        <g id="two-stroke-timing" transform="matrix(1.00301,0,0,0.786569,-3219.66,349.908)">
            <rect x="3210" y="3024" width="1994" height="2656" style="fill:none;"/>
            <clipPath id="_clip1">
                <rect x="3210" y="3024" width="1994" height="2656"/>
            </clipPath>
            <g clip-path="url(#_clip1)">
                <g transform="matrix(1.00732,3.15704e-32,0,1.2845,3213.16,-1287.51)">
                    <g transform="matrix(0.989758,-2.43262e-32,-0,0.989758,-3.13816,3356.08)">
                        <path d="M948.802,98.532L989.184,125.118L949.111,152.168" style="fill:none;stroke:black;stroke-width:12px;"/>
                        <path d="M1000,1965.06C492.238,1965.06 80,1552.82 80,1045.06C80,540.904 486.397,130.923 989.184,125.118" style="fill:none;stroke:black;stroke-width:12px;stroke-linecap:square;stroke-miterlimit:5;"/>
                    </g>
                </g>
                <g transform="matrix(1.00732,3.15704e-32,0,1.2845,3213.16,-1287.51)">
                    <g transform="matrix(0.989758,-2.43262e-32,-0,0.989758,-3.13816,3356.08)">
                        <path d="M1051.2,1991.58L1010.82,1964.99L1050.89,1937.94" style="fill:none;stroke:black;stroke-width:12px;"/>
                        <path d="M1000,125.056C1507.76,125.056 1920,537.294 1920,1045.06C1920,1549.21 1513.6,1959.19 1010.82,1964.99" style="fill:none;stroke:black;stroke-width:12px;stroke-linecap:square;stroke-miterlimit:5;"/>
                    </g>
                </g>
                <g id="angles" transform="matrix(0.997,0,0,1.27134,2505.99,-1307.12)">
                    <g transform="matrix(1,0,0,1,706.125,60.8593)">
                        <path d="M998,4377.03L1002,4382.36L982,4397.36L978,4392.03L998,4377.03ZM960.857,4404.89L964.857,4410.22L924.857,4440.22L920.857,4434.89L960.857,4404.89ZM903.715,4447.74L907.715,4453.08L867.716,4483.08L863.716,4477.74L903.715,4447.74ZM846.572,4490.6L850.572,4495.93L810.571,4525.93L806.571,4520.6L846.572,4490.6ZM789.428,4533.46L793.428,4538.79L753.428,4568.79L749.428,4563.46L789.428,4533.46ZM732.286,4576.32L736.286,4581.65L696.286,4611.65L692.286,4606.32L732.286,4576.32ZM675.144,4619.17L679.144,4624.51L639.144,4654.51L635.144,4649.17L675.144,4619.17ZM618,4662.03L622,4667.36L582,4697.36L578,4692.03L618,4662.03ZM560.858,4704.89L564.858,4710.22L524.858,4740.22L520.858,4734.89L560.858,4704.89ZM503.715,4747.74L507.715,4753.08L467.715,4783.08L463.715,4777.74L503.715,4747.74ZM446.572,4790.6L450.572,4795.93L410.572,4825.93L406.572,4820.6L446.572,4790.6ZM389.428,4833.46L393.428,4838.79L353.428,4868.79L349.428,4863.46L389.428,4833.46ZM332.285,4876.32L336.285,4881.65L296.285,4911.65L292.285,4906.32L332.285,4876.32ZM275.142,4919.17L279.142,4924.51L239.142,4954.51L235.142,4949.17L275.142,4919.17ZM218,4962.03L222,4967.36L202,4982.36L198,4977.03L218,4962.03Z"/>
                    </g>
                    <g transform="matrix(1,0,0,1,706.125,60.8593)">
                        <path d="M997.423,4377.58L1002.58,4381.81L987.644,4400.01L982.49,4395.78L997.423,4377.58ZM969.69,4411.38L974.844,4415.61L944.977,4452.01L939.824,4447.78L969.69,4411.38ZM927.023,4463.38L932.176,4467.61L902.31,4504.01L897.156,4499.78L927.023,4463.38ZM884.356,4515.38L889.51,4519.61L859.643,4556.01L854.489,4551.78L884.356,4515.38ZM841.69,4567.38L846.844,4571.61L816.978,4608.01L811.824,4603.78L841.69,4567.38ZM799.023,4619.38L804.177,4623.61L774.311,4660.01L769.157,4655.78L799.023,4619.38ZM756.356,4671.38L761.51,4675.61L731.643,4712.01L726.489,4707.78L756.356,4671.38ZM713.69,4723.38L718.844,4727.61L688.977,4764.01L683.824,4759.78L713.69,4723.38ZM671.023,4775.38L676.177,4779.61L646.31,4816.01L641.156,4811.78L671.023,4775.38ZM628.356,4827.38L633.51,4831.61L603.643,4868.01L598.489,4863.78L628.356,4827.38ZM585.691,4879.38L590.844,4883.61L560.978,4920.01L555.824,4915.78L585.691,4879.38ZM543.024,4931.38L548.177,4935.61L518.311,4972.01L513.157,4967.78L543.024,4931.38ZM500.357,4983.38L505.511,4987.61L475.644,5024.01L470.49,5019.78L500.357,4983.38ZM457.69,5035.38L462.844,5039.61L432.977,5076.01L427.824,5071.78L457.69,5035.38ZM415.023,5087.38L420.177,5091.61L390.31,5128.01L385.157,5123.78L415.023,5087.38ZM372.356,5139.38L377.51,5143.61L362.577,5161.81L357.423,5157.58L372.356,5139.38Z"/>
                    </g>
                    <g transform="matrix(1,0,0,1,706.125,60.8593)">
                        <path d="M998.21,4382.51L1001.79,4376.88L1022.32,4389.95L1018.74,4395.57L998.21,4382.51ZM1036.34,4406.78L1039.92,4401.15L1080.99,4427.28L1077.41,4432.91L1036.34,4406.78ZM1095.01,4444.11L1098.59,4438.48L1139.66,4464.62L1136.08,4470.24L1095.01,4444.11ZM1153.68,4481.44L1157.26,4475.82L1198.32,4501.95L1194.75,4507.58L1153.68,4481.44ZM1212.34,4518.78L1215.92,4513.15L1256.99,4539.28L1253.41,4544.91L1212.34,4518.78ZM1271.01,4556.11L1274.59,4550.48L1315.65,4576.62L1312.08,4582.24L1271.01,4556.11ZM1329.68,4593.44L1333.26,4587.82L1374.32,4613.95L1370.74,4619.58L1329.68,4593.44ZM1388.34,4630.78L1391.92,4625.15L1432.99,4651.28L1429.41,4656.91L1388.34,4630.78ZM1447.01,4668.11L1450.59,4662.48L1491.66,4688.62L1488.08,4694.24L1447.01,4668.11ZM1505.68,4705.44L1509.26,4699.82L1550.32,4725.95L1546.74,4731.57L1505.68,4705.44ZM1564.34,4742.77L1567.92,4737.15L1608.99,4763.28L1605.41,4768.91L1564.34,4742.77ZM1623.01,4780.11L1626.59,4774.48L1667.65,4800.62L1664.08,4806.24L1623.01,4780.11ZM1681.68,4817.44L1685.26,4811.82L1726.32,4837.95L1722.74,4843.57L1681.68,4817.44ZM1740.34,4854.78L1743.92,4849.15L1784.99,4875.28L1781.41,4880.91L1740.34,4854.78ZM1799.01,4892.11L1802.59,4886.48L1843.66,4912.62L1840.08,4918.24L1799.01,4892.11ZM1857.68,4929.44L1861.26,4923.82L1881.79,4936.88L1878.21,4942.51L1857.68,4929.44Z"/>
                    </g>
                    <g transform="matrix(1,0,0,1,706.125,60.8593)">
                        <path d="M999.222,4382.94L1000.78,4376.45L1024.11,4382.06L1022.56,4388.54L999.222,4382.94ZM1042.56,4393.34L1044.11,4386.86L1090.78,4398.06L1089.22,4404.54L1042.56,4393.34ZM1109.22,4409.34L1110.78,4402.86L1157.44,4414.06L1155.89,4420.54L1109.22,4409.34ZM1175.89,4425.34L1177.44,4418.86L1224.11,4430.06L1222.56,4436.54L1175.89,4425.34ZM1242.56,4441.34L1244.11,4434.86L1290.78,4446.06L1289.22,4452.54L1242.56,4441.34ZM1309.22,4457.34L1310.78,4450.86L1357.44,4462.06L1355.89,4468.54L1309.22,4457.34ZM1375.89,4473.34L1377.44,4466.86L1424.11,4478.06L1422.56,4484.54L1375.89,4473.34ZM1442.56,4489.34L1444.11,4482.86L1490.78,4494.06L1489.22,4500.54L1442.56,4489.34ZM1509.22,4505.34L1510.78,4498.86L1557.44,4510.06L1555.89,4516.54L1509.22,4505.34ZM1575.89,4521.34L1577.44,4514.86L1624.11,4526.06L1622.56,4532.54L1575.89,4521.34ZM1642.55,4537.34L1644.11,4530.86L1690.78,4542.06L1689.22,4548.54L1642.55,4537.34ZM1709.22,4553.34L1710.78,4546.86L1757.44,4558.06L1755.89,4564.54L1709.22,4553.34ZM1775.89,4569.34L1777.44,4562.86L1824.11,4574.06L1822.56,4580.54L1775.89,4569.34ZM1842.56,4585.34L1844.11,4578.86L1890.78,4590.06L1889.22,4596.54L1842.56,4585.34ZM1909.22,4601.34L1910.78,4594.86L1957.44,4606.06L1955.89,4612.54L1909.22,4601.34ZM1975.89,4617.34L1977.44,4610.86L2000.78,4616.45L1999.22,4622.94L1975.89,4617.34Z"/>
                    </g>
                    <g transform="matrix(1,0,0,1,706.125,60.8593)">
                        <path d="M1004.55,4380.94L998.76,4384.24L983.452,4357.45L989.24,4354.15L1004.55,4380.94ZM982.262,4341.94L976.474,4345.24L949.166,4297.46L954.955,4294.15L982.262,4341.94ZM947.977,4281.94L942.189,4285.24L914.881,4237.46L920.67,4234.15L947.977,4281.94ZM913.691,4221.94L907.903,4225.24L880.595,4177.46L886.383,4174.15L913.691,4221.94ZM879.405,4161.94L873.617,4165.24L846.309,4117.45L852.097,4114.15L879.405,4161.94ZM845.119,4101.94L839.331,4105.24L812.024,4057.46L817.812,4054.15L845.119,4101.94ZM810.834,4041.94L805.046,4045.24L777.738,3997.46L783.527,3994.15L810.834,4041.94ZM776.548,3981.94L770.76,3985.24L743.452,3937.46L749.24,3934.15L776.548,3981.94ZM742.263,3921.94L736.474,3925.24L709.167,3877.46L714.955,3874.15L742.263,3921.94ZM707.977,3861.94L702.189,3865.24L674.881,3817.46L680.669,3814.15L707.977,3861.94ZM673.691,3801.94L667.903,3805.24L640.595,3757.46L646.384,3754.15L673.691,3801.94ZM639.405,3741.94L633.617,3745.24L606.309,3697.45L612.097,3694.15L639.405,3741.94ZM605.119,3681.94L599.331,3685.24L572.023,3637.45L577.811,3634.15L605.119,3681.94ZM570.833,3621.94L565.045,3625.24L537.737,3577.45L543.526,3574.15L570.833,3621.94ZM536.548,3561.94L530.76,3565.24L515.452,3538.46L521.24,3535.15L536.548,3561.94Z"/>
                    </g>
                    <g transform="matrix(1,0,0,1,724.75,46.078)">
                        <g transform="matrix(64,0,0,64,1051.53,3439.7)">
                        </g>
                        <text x="920px" y="3439.7px" style="font-family:'Arial-BoldMT', 'Arial', sans-serif;font-weight:700;font-size:64px;">TDC</text>
                    </g>
                    <g transform="matrix(1,0,0,1,724.75,2028.71)">
                        <g transform="matrix(64,0,0,64,1058.66,3439.7)">
                        </g>
                        <text x="920px" y="3439.7px" style="font-family:'Arial-BoldMT', 'Arial', sans-serif;font-weight:700;font-size:64px;">BDC</text>
                    </g>
                    <g transform="matrix(1,0,0,0.808511,-1266.3,775.832)">
                        <path d="M2972.42,3469L2972.42,5349" style="fill:none;stroke:black;stroke-width:5.87px;stroke-miterlimit:1.5;"/>
                    </g>
                </g>
                <g id="arrows">
                    <g id="Igntioin--combustion--expansion" serif:id="Igntioin, combustion, expansion">
                        <g id="Combustion-and-expansion" serif:id="Combustion and expansion" transform="matrix(0.997,0,0,1.27134,3210,-1229.75)">
                            <path d="M1516.52,4436.81C1517.88,4421.53 1518.57,4406.06 1518.57,4390.43C1518.57,4104.22 1286.21,3871.86 1000,3871.86C908.297,3871.86 822.122,3895.71 747.346,3937.55L706.943,3866.85C793.629,3818.19 893.599,3790.43 1000,3790.43C1331.15,3790.43 1600,4059.28 1600,4390.43C1600,4412.02 1598.86,4433.34 1596.63,4454.35L1618.36,4459.1L1544.59,4508.95L1498.39,4432.84L1516.52,4436.81Z" style="fill:rgb(225,246,255);stroke:black;stroke-width:6.67px;stroke-linecap:round;stroke-miterlimit:5;"/>
                        </g>
                        <g transform="matrix(0.997,0,0,1.27134,3223.34,-1227.93)">
                            <g transform="matrix(0.913517,-0.406802,0.406802,0.913517,-1520.32,645.892)">
                                <text x="758.915px" y="3898.6px" style="font-family:'Arial-BoldMT', 'Arial', sans-serif;font-weight:700;font-size:64px;">I</text>
                            </g>
                            <g transform="matrix(0.93395,-0.357405,0.357405,0.93395,-1339.29,534.366)">
                                <text x="776.106px" y="3890.69px" style="font-family:'Arial-BoldMT', 'Arial', sans-serif;font-weight:700;font-size:64px;">g</text>
                            </g>
                            <g transform="matrix(0.958858,-0.283885,0.283885,0.958858,-1066.89,390.631)">
                                <text x="814.266px" y="3876.18px" style="font-family:'Arial-BoldMT', 'Arial', sans-serif;font-weight:700;font-size:64px;">n</text>
                            </g>
                            <g transform="matrix(0.973079,-0.230473,0.230473,0.973079,-867.824,300.649)">
                                <text x="853.018px" y="3865.04px" style="font-family:'Arial-BoldMT', 'Arial', sans-serif;font-weight:700;font-size:64px;">i</text>
                            </g>
                            <g transform="matrix(0.981123,-0.193387,0.193387,0.981123,-730.17,241.345)">
                                <text x="871.129px" y="3860.73px" style="font-family:'Arial-BoldMT', 'Arial', sans-serif;font-weight:700;font-size:64px;">t</text>
                            </g>
                            <g transform="matrix(0.987745,-0.156079,0.156079,0.987745,-590.975,186.622)">
                                <text x="892.875px" y="3856.49px" style="font-family:'Arial-BoldMT', 'Arial', sans-serif;font-weight:700;font-size:64px;">i</text>
                            </g>
                            <g transform="matrix(0.99483,-0.101558,0.101558,0.99483,-386.616,112.504)">
                                <text x="911.608px" y="3853.26px" style="font-family:'Arial-BoldMT', 'Arial', sans-serif;font-weight:700;font-size:64px;">o</text>
                            </g>
                            <g transform="matrix(0.999637,-0.026948,0.026948,0.999637,-103.382,27.057)">
                                <text x="952.169px" y="3849.18px" style="font-family:'Arial-BoldMT', 'Arial', sans-serif;font-weight:700;font-size:64px;">n</text>
                            </g>
                            <g transform="matrix(0.999663,0.0259578,-0.0259578,0.999663,100.231,-24.4657)">
                                <text x="992.475px" y="3848.42px" style="font-family:'Arial-BoldMT', 'Arial', sans-serif;font-weight:700;font-size:64px;">,</text>
                            </g>
                            <g transform="matrix(0.992584,0.12156,-0.12156,0.992584,475.606,-96.6641)">
                                <text x="1030.05px" y="3849.69px" style="font-family:'Arial-BoldMT', 'Arial', sans-serif;font-weight:700;font-size:64px;">C</text>
                            </g>
                            <g transform="matrix(0.979062,0.203562,-0.203562,0.979062,807.453,-138.659)">
                                <text x="1077.76px" y="3855.75px" style="font-family:'Arial-BoldMT', 'Arial', sans-serif;font-weight:700;font-size:64px;">o</text>
                            </g>
                            <g transform="matrix(0.955947,0.29354,-0.29354,0.955947,1183.45,-158.024)">
                                <text x="1118.21px" y="3863.84px" style="font-family:'Arial-BoldMT', 'Arial', sans-serif;font-weight:700;font-size:64px;">m</text>
                            </g>
                            <g transform="matrix(0.923717,0.383076,-0.383076,0.923717,1576.56,-153.814)">
                                <text x="1174.49px" y="3881.63px" style="font-family:'Arial-BoldMT', 'Arial', sans-serif;font-weight:700;font-size:64px;">b</text>
                            </g>
                            <g transform="matrix(0.892861,0.450333,-0.450333,0.892861,1884.94,-128.309)">
                                <text x="1212.13px" y="3897.28px" style="font-family:'Arial-BoldMT', 'Arial', sans-serif;font-weight:700;font-size:64px;">u</text>
                            </g>
                            <g transform="matrix(0.858881,0.512176,-0.512176,0.858881,2181.69,-86.778)">
                                <text x="1248.32px" y="3915.7px" style="font-family:'Arial-BoldMT', 'Arial', sans-serif;font-weight:700;font-size:64px;">s</text>
                            </g>
                            <g transform="matrix(0.828636,0.559787,-0.559787,0.828636,2421.94,-42.1337)">
                                <text x="1279.79px" y="3934.76px" style="font-family:'Arial-BoldMT', 'Arial', sans-serif;font-weight:700;font-size:64px;">t</text>
                            </g>
                            <g transform="matrix(0.806977,0.590583,-0.590583,0.806977,2581.74,-4.76035)">
                                <text x="1298.15px" y="3947.22px" style="font-family:'Arial-BoldMT', 'Arial', sans-serif;font-weight:700;font-size:64px;">i</text>
                            </g>
                            <g transform="matrix(0.773584,0.633694,-0.633694,0.773584,2805.7,63.7836)">
                                <text x="1313.59px" y="3958.19px" style="font-family:'Arial-BoldMT', 'Arial', sans-serif;font-weight:700;font-size:64px;">o</text>
                            </g>
                            <g transform="matrix(0.724006,0.689794,-0.689794,0.724006,3119.44,171.731)">
                                <text x="1345.12px" y="3984.09px" style="font-family:'Arial-BoldMT', 'Arial', sans-serif;font-weight:700;font-size:64px;">n</text>
                            </g>
                            <g transform="matrix(0.647438,0.762118,-0.762118,0.647438,3557.12,362.14)">
                                <text x="1387.15px" y="4025.71px" style="font-family:'Arial-BoldMT', 'Arial', sans-serif;font-weight:700;font-size:64px;">a</text>
                            </g>
                            <g transform="matrix(0.591187,0.806535,-0.806535,0.591187,3846.65,519.136)">
                                <text x="1411.23px" y="4054.04px" style="font-family:'Arial-BoldMT', 'Arial', sans-serif;font-weight:700;font-size:64px;">n</text>
                            </g>
                            <g transform="matrix(0.530337,0.847787,-0.847787,0.530337,4138.9,702.702)">
                                <text x="1435.23px" y="4086.91px" style="font-family:'Arial-BoldMT', 'Arial', sans-serif;font-weight:700;font-size:64px;">d</text>
                            </g>
                            <g transform="matrix(0.428464,0.903559,-0.903559,0.428464,4576.64,1040.47)">
                                <text x="1465.86px" y="4137.91px" style="font-family:'Arial-BoldMT', 'Arial', sans-serif;font-weight:700;font-size:64px;">E</text>
                            </g>
                            <g transform="matrix(0.360275,0.932846,-0.932846,0.360275,4847.24,1287.79)">
                                <text x="1484.69px" y="4178.02px" style="font-family:'Arial-BoldMT', 'Arial', sans-serif;font-weight:700;font-size:64px;">x</text>
                            </g>
                            <g transform="matrix(0.28946,0.95719,-0.95719,0.28946,5097.02,1559.35)">
                                <text x="1498.18px" y="4212.85px" style="font-family:'Arial-BoldMT', 'Arial', sans-serif;font-weight:700;font-size:64px;">p</text>
                            </g>
                            <g transform="matrix(0.221149,0.97524,-0.97524,0.221149,5322.41,1838.99)">
                                <text x="1509.86px" y="4251.73px" style="font-family:'Arial-BoldMT', 'Arial', sans-serif;font-weight:700;font-size:64px;">a</text>
                            </g>
                            <g transform="matrix(0.149858,0.988708,-0.988708,0.149858,5530.23,2144.49)">
                                <text x="1518.1px" y="4288.05px" style="font-family:'Arial-BoldMT', 'Arial', sans-serif;font-weight:700;font-size:64px;">n</text>
                            </g>
                            <g transform="matrix(0.0801102,0.996786,-0.996786,0.0801102,5716.31,2462.37)">
                                <text x="1524.05px" y="4328.26px" style="font-family:'Arial-BoldMT', 'Arial', sans-serif;font-weight:700;font-size:64px;">s</text>
                            </g>
                            <g transform="matrix(0.0275422,0.999621,-0.999621,0.0275422,5847.9,2718.54)">
                                <text x="1526.71px" y="4364.89px" style="font-family:'Arial-BoldMT', 'Arial', sans-serif;font-weight:700;font-size:64px;">i</text>
                            </g>
                            <g transform="matrix(-0.026552,0.999647,-0.999647,-0.026552,5950.41,2973.35)">
                                <text x="1527.5px" y="4383.9px" style="font-family:'Arial-BoldMT', 'Arial', sans-serif;font-weight:700;font-size:64px;">o</text>
                            </g>
                            <g transform="matrix(-0.101165,0.99487,-0.99487,-0.101165,6082.74,3353.74)">
                                <text x="1526.36px" y="4424.66px" style="font-family:'Arial-BoldMT', 'Arial', sans-serif;font-weight:700;font-size:64px;">n</text>
                            </g>
                        </g>
                    </g>
                    <g id="COmpression-and-injection" serif:id="COmpression and injection">
                        <g id="Compresson" transform="matrix(0.997,0,0,1.27134,3210,-1229.75)">
                            <path d="M706.943,3866.85C523.838,3969.63 400,4165.68 400,4390.43C400,4522.36 442.67,4644.39 514.95,4743.48L450.952,4791.48C368.625,4679.02 320,4540.36 320,4390.43C320,4135.97 460.071,3913.97 667.25,3797.38C747.921,3751.99 838.768,3722.58 935.481,3713.46L935.443,3687.12L1000,3748.43L935.621,3809.93L935.597,3793.85C853.272,3802.65 775.904,3828.14 706.943,3866.85Z" style="fill:rgb(225,246,255);stroke:black;stroke-width:6.67px;stroke-linecap:round;stroke-miterlimit:5;"/>
                        </g>
                        <g transform="matrix(0.997,0,0,1.27134,3210,-1229.75)">
                            <path d="M667.25,3797.38C747.921,3751.99 838.768,3722.58 935.481,3713.46L935.443,3687.12L1000,3748.43L935.621,3809.93L935.597,3793.85C853.272,3802.65 775.904,3828.14 706.943,3866.85L667.25,3797.38Z" style="fill:rgb(147,196,247);stroke:black;stroke-width:6.67px;stroke-linecap:round;stroke-miterlimit:5;"/>
                        </g>
                        <g transform="matrix(0.997,0,0,1.27134,3210,-1229.75)">
                            <g transform="matrix(0.88059,-0.473879,0.473879,0.88059,-1737.78,791.874)">
                                <text x="702.389px" y="3844.12px" style="font-family:'Arial-BoldMT', 'Arial', sans-serif;font-weight:700;font-size:64px;">I</text>
                            </g>
                            <g transform="matrix(0.902085,-0.431559,0.431559,0.902085,-1584.77,685.571)">
                                <text x="718.432px" y="3835.21px" style="font-family:'Arial-BoldMT', 'Arial', sans-serif;font-weight:700;font-size:64px;">n</text>
                            </g>
                            <g transform="matrix(0.919104,-0.394014,0.394014,0.919104,-1443.47,606.11)">
                                <text x="754.341px" y="3818.37px" style="font-family:'Arial-BoldMT', 'Arial', sans-serif;font-weight:700;font-size:64px;">j</text>
                            </g>
                            <g transform="matrix(0.937879,-0.346962,0.346962,0.937879,-1274.36,504.334)">
                                <text x="771.241px" y="3811.01px" style="font-family:'Arial-BoldMT', 'Arial', sans-serif;font-weight:700;font-size:64px;">e</text>
                            </g>
                            <g transform="matrix(0.957302,-0.289089,0.289089,0.957302,-1063.69,394.996)">
                                <text x="805.332px" y="3798.41px" style="font-family:'Arial-BoldMT', 'Arial', sans-serif;font-weight:700;font-size:64px;">c</text>
                            </g>
                            <g transform="matrix(0.969841,-0.24374,0.24374,0.969841,-897.983,318.988)">
                                <text x="839.994px" y="3788.12px" style="font-family:'Arial-BoldMT', 'Arial', sans-serif;font-weight:700;font-size:64px;">t</text>
                            </g>
                            <g transform="matrix(0.977314,-0.211795,0.211795,0.977314,-781.654,268.187)">
                                <text x="861.067px" y="3782.86px" style="font-family:'Arial-BoldMT', 'Arial', sans-serif;font-weight:700;font-size:64px;">i</text>
                            </g>
                            <g transform="matrix(0.986325,-0.164811,0.164811,0.986325,-610.751,196.551)">
                                <text x="879.053px" y="3778.71px" style="font-family:'Arial-BoldMT', 'Arial', sans-serif;font-weight:700;font-size:64px;">o</text>
                            </g>
                            <g transform="matrix(0.994969,-0.100183,0.100183,0.994969,-373.283,110.991)">
                                <text x="918.459px" y="3772.14px" style="font-family:'Arial-BoldMT', 'Arial', sans-serif;font-weight:700;font-size:64px;">n</text>
                            </g>
                        </g>
                        <g transform="matrix(0.997,0,0,1.27134,3223.34,-1229.75)">
                            <g transform="matrix(-0.280161,-0.959953,0.959953,-0.280161,-3891.58,6253.7)">
                                <text x="398.94px" y="4585.94px" style="font-family:'Arial-BoldMT', 'Arial', sans-serif;font-weight:700;font-size:64px;">C</text>
                            </g>
                            <g transform="matrix(-0.210265,-0.977644,0.977644,-0.210265,-3971.81,5871.99)">
                                <text x="385.777px" y="4540.2px" style="font-family:'Arial-BoldMT', 'Arial', sans-serif;font-weight:700;font-size:64px;">o</text>
                            </g>
                            <g transform="matrix(-0.131533,-0.991312,0.991312,-0.131533,-4034.91,5466.17)">
                                <text x="376.946px" y="4500.54px" style="font-family:'Arial-BoldMT', 'Arial', sans-serif;font-weight:700;font-size:64px;">m</text>
                            </g>
                            <g transform="matrix(-0.0503,-0.998734,0.998734,-0.0503,-4048.64,5035.13)">
                                <text x="369.645px" y="4442.5px" style="font-family:'Arial-BoldMT', 'Arial', sans-serif;font-weight:700;font-size:64px;">p</text>
                            </g>
                            <g transform="matrix(0.00475693,-0.999989,0.999989,0.00475693,-4036.34,4749.21)">
                                <text x="367.755px" y="4402.4px" style="font-family:'Arial-BoldMT', 'Arial', sans-serif;font-weight:700;font-size:64px;">r</text>
                            </g>
                            <g transform="matrix(0.0499045,-0.998754,0.998754,0.0499045,-4021.8,4525.48)">
                                <text x="367.725px" y="4376.63px" style="font-family:'Arial-BoldMT', 'Arial', sans-serif;font-weight:700;font-size:64px;">e</text>
                            </g>
                            <g transform="matrix(0.107841,-0.994168,0.994168,0.107841,-3984.91,4239.42)">
                                <text x="369.617px" y="4339.98px" style="font-family:'Arial-BoldMT', 'Arial', sans-serif;font-weight:700;font-size:64px;">s</text>
                            </g>
                            <g transform="matrix(0.166749,-0.985999,0.985999,0.166749,-3931.85,3954.29)">
                                <text x="373.661px" y="4303.45px" style="font-family:'Arial-BoldMT', 'Arial', sans-serif;font-weight:700;font-size:64px;">s</text>
                            </g>
                            <g transform="matrix(0.211986,-0.977273,0.977273,0.211986,-3871.23,3734.28)">
                                <text x="379.961px" y="4267.63px" style="font-family:'Arial-BoldMT', 'Arial', sans-serif;font-weight:700;font-size:64px;">i</text>
                            </g>
                            <g transform="matrix(0.258635,-0.965975,0.965975,0.258635,-3820.17,3520.88)">
                                <text x="383.713px" y="4249.22px" style="font-family:'Arial-BoldMT', 'Arial', sans-serif;font-weight:700;font-size:64px;">o</text>
                            </g>
                            <g transform="matrix(0.321338,-0.946964,0.946964,0.321338,-3719.53,3230.64)">
                                <text x="394.158px" y="4210.32px" style="font-family:'Arial-BoldMT', 'Arial', sans-serif;font-weight:700;font-size:64px;">n</text>
                            </g>
                        </g>
                    </g>
                    <g id="Scavenging">
                        <g id="scavenging" transform="matrix(0.997,0,0,1.27134,3210,-1229.75)">
                            <path d="M354.24,4867.78L442.544,4879.12L428.149,4890.81C454.167,4920.51 482.46,4948.18 512.756,4973.53C644.714,5083.94 814.653,5150.43 1000,5150.43C1272.59,5150.43 1511.85,5006.61 1645.98,4790.78L1713.48,4833.73C1565.13,5071.83 1300.94,5230.43 1000,5230.43C795.4,5230.43 607.787,5157.12 462.017,5035.36C427.57,5006.59 395.46,4975.11 366.014,4941.26L347.207,4956.53L354.24,4867.78Z" style="fill:rgb(225,246,255);stroke:black;stroke-width:6.67px;stroke-linecap:round;stroke-miterlimit:5;"/>
                        </g>
                        <g transform="matrix(0.997,0,0,1.27134,3204.83,-1251.54)">
                            <g transform="matrix(0.978702,0.205287,-0.205287,0.978702,1085.66,-56.7327)">
                                <text x="816.244px" y="5203.8px" style="font-family:'Arial-BoldMT', 'Arial', sans-serif;font-weight:700;font-size:64px;">S</text>
                            </g>
                            <g transform="matrix(0.988201,0.153164,-0.153164,0.988201,808.608,-70.3754)">
                                <text x="861.071px" y="5213.03px" style="font-family:'Arial-BoldMT', 'Arial', sans-serif;font-weight:700;font-size:64px;">c</text>
                            </g>
                            <g transform="matrix(0.994232,0.107252,-0.107252,0.994232,564.916,-66.3086)">
                                <text x="898.926px" y="5218.85px" style="font-family:'Arial-BoldMT', 'Arial', sans-serif;font-weight:700;font-size:64px;">a</text>
                            </g>
                            <g transform="matrix(0.998127,0.0611692,-0.0611692,0.998127,321.234,-47.5344)">
                                <text x="936.986px" y="5222.89px" style="font-family:'Arial-BoldMT', 'Arial', sans-serif;font-weight:700;font-size:64px;">v</text>
                            </g>
                            <g transform="matrix(0.999887,0.015062,-0.015062,0.999887,78.8121,-14.0947)">
                                <text x="975.13px" y="5225.15px" style="font-family:'Arial-BoldMT', 'Arial', sans-serif;font-weight:700;font-size:64px;">e</text>
                            </g>
                            <g transform="matrix(0.999426,-0.0338783,0.0338783,0.999426,-176.456,37.3412)">
                                <text x="1013.67px" y="5225.7px" style="font-family:'Arial-BoldMT', 'Arial', sans-serif;font-weight:700;font-size:64px;">n</text>
                            </g>
                            <g transform="matrix(0.996495,-0.0836566,0.0836566,0.996495,-433.338,106.621)">
                                <text x="1055.6px" y="5224.19px" style="font-family:'Arial-BoldMT', 'Arial', sans-serif;font-weight:700;font-size:64px;">g</text>
                            </g>
                            <g transform="matrix(0.992548,-0.121853,0.121853,0.992548,-627.961,172.543)">
                                <text x="1096.73px" y="5220.48px" style="font-family:'Arial-BoldMT', 'Arial', sans-serif;font-weight:700;font-size:64px;">i</text>
                            </g>
                            <g transform="matrix(0.98728,-0.158992,0.158992,0.98728,-815.449,243.899)">
                                <text x="1116.56px" y="5218.21px" style="font-family:'Arial-BoldMT', 'Arial', sans-serif;font-weight:700;font-size:64px;">n</text>
                            </g>
                            <g transform="matrix(0.977972,-0.208734,0.208734,0.977972,-1062.3,356.519)">
                                <text x="1158.05px" y="5211.44px" style="font-family:'Arial-BoldMT', 'Arial', sans-serif;font-weight:700;font-size:64px;">g</text>
                            </g>
                        </g>
                    </g>
                    <g id="Exhaust">
                        <g id="exhaust" transform="matrix(0.997,0,0,1.27134,3210,-1229.75)">
                            <path d="M540,4940.67L629.025,4939.7L617.201,4952.39C726.267,5026.86 858.086,5070.43 1000,5070.43C1244.24,5070.43 1458.57,4941.39 1578.49,4747.82C1617.79,4684.39 1646.95,4614.01 1663.7,4538.98L1741.51,4557.66C1722.67,4641.42 1689.98,4719.98 1645.98,4790.78C1511.85,5006.61 1272.59,5150.43 1000,5150.43C837.002,5150.43 685.92,5099.01 562.107,5011.51L545.305,5029.54L540,4940.67Z" style="fill:rgb(225,246,255);stroke:black;stroke-width:6.67px;stroke-linecap:round;stroke-miterlimit:5;"/>
                        </g>
                        <g transform="matrix(0.997,0,0,1.27134,3223.93,-1227.18)">
                            <g transform="matrix(0.98994,0.141484,-0.141484,0.98994,731.857,-70.2115)">
                                <text x="859.681px" y="5111.58px" style="font-family:'Arial-BoldMT', 'Arial', sans-serif;font-weight:700;font-size:64px;">E</text>
                            </g>
                            <g transform="matrix(0.996327,0.0856261,-0.0856261,0.996327,441.547,-58.6891)">
                                <text x="904.926px" y="5117.88px" style="font-family:'Arial-BoldMT', 'Arial', sans-serif;font-weight:700;font-size:64px;">x</text>
                            </g>
                            <g transform="matrix(0.999522,0.0309085,-0.0309085,0.999522,158.738,-26.7107)">
                                <text x="943.347px" y="5121.15px" style="font-family:'Arial-BoldMT', 'Arial', sans-serif;font-weight:700;font-size:64px;">h</text>
                            </g>
                            <g transform="matrix(0.999736,-0.0229867,0.0229867,0.999736,-117.485,24.0026)">
                                <text x="985.311px" y="5122.32px" style="font-family:'Arial-BoldMT', 'Arial', sans-serif;font-weight:700;font-size:64px;">a</text>
                            </g>
                            <g transform="matrix(0.997019,-0.0771535,0.0771535,0.997019,-392.083,94.2578)">
                                <text x="1023.83px" y="5121.41px" style="font-family:'Arial-BoldMT', 'Arial', sans-serif;font-weight:700;font-size:64px;">u</text>
                            </g>
                            <g transform="matrix(0.991441,-0.130556,0.130556,0.991441,-659.066,182.934)">
                                <text x="1065.67px" y="5118.02px" style="font-family:'Arial-BoldMT', 'Arial', sans-serif;font-weight:700;font-size:64px;">s</text>
                            </g>
                            <g transform="matrix(0.984864,-0.17333,0.17333,0.984864,-869.512,268.611)">
                                <text x="1103.23px" y="5112.86px" style="font-family:'Arial-BoldMT', 'Arial', sans-serif;font-weight:700;font-size:64px;">t</text>
                            </g>
                        </g>
                    </g>
                </g>
                <g id="strokes">
                    <g transform="matrix(0.997,0,0,1.27134,3210,-1229.75)">
                        <path d="M141.276,4809.06C76.479,4679.83 40,4533.99 40,4379.7C40,4225.4 76.479,4079.56 141.276,3950.33L200,3930.79L212.836,3986.11C153.439,4104.57 120,4238.26 120,4379.7C120,4521.13 153.439,4654.82 212.836,4773.28L160,4755.53L141.276,4809.06Z" style="fill:white;stroke:black;stroke-width:4px;stroke-linecap:round;stroke-miterlimit:1.5;"/>
                    </g>
                    <g transform="matrix(0.995936,-0.0587075,0.046039,1.26999,3008.93,-1165.09)">
                        <path d="M1858.72,3950.33C1923.52,4079.56 1960,4225.4 1960,4379.7C1960,4533.99 1923.52,4679.83 1858.72,4809.06L1807.5,4831.36L1787.16,4773.28C1846.56,4654.82 1880,4521.13 1880,4379.7C1880,4238.26 1846.56,4104.57 1787.16,3986.11L1840,3999.7L1858.72,3950.33Z" style="fill:white;stroke:black;stroke-width:4px;stroke-linecap:round;stroke-miterlimit:1.5;"/>
                    </g>
                    <g transform="matrix(0.997,0,0,1.27134,3210,-1229.75)">
                        <g transform="matrix(0.191463,0.9815,-0.9815,0.191463,5623.1,1541.67)">
                            <text x="1875.82px" y="4183.84px" style="font-family:'Arial-BoldMT', 'Arial', sans-serif;font-weight:700;font-size:64px;">D</text>
                        </g>
                        <g transform="matrix(0.146257,0.989247,-0.989247,0.146257,5791.45,1745.57)">
                            <text x="1884.41px" y="4228.11px" style="font-family:'Arial-BoldMT', 'Arial', sans-serif;font-weight:700;font-size:64px;">o</text>
                        </g>
                        <g transform="matrix(0.0983157,0.995155,-0.995155,0.0983157,5949.32,1965.33)">
                            <text x="1890.13px" y="4265.69px" style="font-family:'Arial-BoldMT', 'Arial', sans-serif;font-weight:700;font-size:64px;">w</text>
                        </g>
                        <g transform="matrix(0.0504977,0.998724,-0.998724,0.0504977,6107.73,2203.85)">
                            <text x="1894.82px" y="4314.1px" style="font-family:'Arial-BoldMT', 'Arial', sans-serif;font-weight:700;font-size:64px;">n</text>
                        </g>
                        <g transform="matrix(0.0113961,0.999935,-0.999935,0.0113961,6227.1,2406.09)">
                            <text x="1896.72px" y="4352.28px" style="font-family:'Arial-BoldMT', 'Arial', sans-serif;font-weight:700;font-size:64px;">s</text>
                        </g>
                        <g transform="matrix(-0.0199674,0.999801,-0.999801,-0.0199674,6321.19,2578.16)">
                            <text x="1897px" y="4387.18px" style="font-family:'Arial-BoldMT', 'Arial', sans-serif;font-weight:700;font-size:64px;">t</text>
                        </g>
                        <g transform="matrix(-0.0472926,0.998881,-0.998881,-0.0472926,6389.23,2721.73)">
                            <text x="1896.66px" y="4407.81px" style="font-family:'Arial-BoldMT', 'Arial', sans-serif;font-weight:700;font-size:64px;">r</text>
                        </g>
                        <g transform="matrix(-0.0792637,0.996854,-0.996854,-0.0792637,6464.03,2893.62)">
                            <text x="1895.68px" y="4432.03px" style="font-family:'Arial-BoldMT', 'Arial', sans-serif;font-weight:700;font-size:64px;">o</text>
                        </g>
                        <g transform="matrix(-0.121371,0.992607,-0.992607,-0.121371,6559.39,3133.88)">
                            <text x="1892.68px" y="4470.04px" style="font-family:'Arial-BoldMT', 'Arial', sans-serif;font-weight:700;font-size:64px;">k</text>
                        </g>
                        <g transform="matrix(-0.157486,0.987521,-0.987521,-0.157486,6634.24,3348.98)">
                            <text x="1888.51px" y="4504.53px" style="font-family:'Arial-BoldMT', 'Arial', sans-serif;font-weight:700;font-size:64px;">e</text>
                        </g>
                    </g>
                    <g transform="matrix(0.997,0,0,1.27134,3210,-1229.75)">
                        <g transform="matrix(-0.141014,-0.990008,0.990008,-0.141014,-4355.27,5281.12)">
                            <text x="113.462px" y="4530px" style="font-family:'Arial-BoldMT', 'Arial', sans-serif;font-weight:700;font-size:64px;">U</text>
                        </g>
                        <g transform="matrix(-0.093626,-0.995607,0.995607,-0.093626,-4348.35,5011.79)">
                            <text x="107.127px" y="4485.2px" style="font-family:'Arial-BoldMT', 'Arial', sans-serif;font-weight:700;font-size:64px;">p</text>
                        </g>
                        <g transform="matrix(-0.0553227,-0.998469,0.998469,-0.0553227,-4331.01,4796.53)">
                            <text x="103.559px" y="4447.11px" style="font-family:'Arial-BoldMT', 'Arial', sans-serif;font-weight:700;font-size:64px;">s</text>
                        </g>
                        <g transform="matrix(-0.0238971,-0.999714,0.999714,-0.0238971,-4306.86,4619.45)">
                            <text x="101.743px" y="4412.3px" style="font-family:'Arial-BoldMT', 'Arial', sans-serif;font-weight:700;font-size:64px;">t</text>
                        </g>
                        <g transform="matrix(0.00336953,-0.999994,0.999994,0.00336953,-4290.71,4477.96)">
                            <text x="101.18px" y="4391.58px" style="font-family:'Arial-BoldMT', 'Arial', sans-serif;font-weight:700;font-size:64px;">r</text>
                        </g>
                        <g transform="matrix(0.0350661,-0.999385,0.999385,0.0350661,-4267.1,4315.23)">
                            <text x="101.096px" y="4367.34px" style="font-family:'Arial-BoldMT', 'Arial', sans-serif;font-weight:700;font-size:64px;">o</text>
                        </g>
                        <g transform="matrix(0.0771535,-0.997019,0.997019,0.0771535,-4221.65,4097.17)">
                            <text x="102.417px" y="4329.06px" style="font-family:'Arial-BoldMT', 'Arial', sans-serif;font-weight:700;font-size:64px;">k</text>
                        </g>
                        <g transform="matrix(0.113234,-0.993568,0.993568,0.113234,-4173.61,3912.5)">
                            <text x="105.056px" y="4294.39px" style="font-family:'Arial-BoldMT', 'Arial', sans-serif;font-weight:700;font-size:64px;">e</text>
                        </g>
                    </g>
                </g>
            </g>
        </g>
    </g>
</svg>
