<?xml version="1.0" encoding="UTF-8" standalone="no"?><!DOCTYPE svg PUBLIC "-//W3C//DTD SVG 1.1//EN" "http://www.w3.org/Graphics/SVG/1.1/DTD/svg11.dtd"><svg width="100%" height="100%" viewBox="0 0 568 139" version="1.1" xmlns="http://www.w3.org/2000/svg" xmlns:xlink="http://www.w3.org/1999/xlink" xml:space="preserve" xmlns:serif="http://www.serif.com/" style="fill-rule:evenodd;clip-rule:evenodd;stroke-linecap:round;stroke-linejoin:round;stroke-miterlimit:1.5;"><rect id="_3phase_rectifier" serif:id="3phase_rectifier" x="0" y="0" width="568" height="139" style="fill:none;"/><clipPath id="_clip1"><rect id="_3phase_rectifier1" serif:id="3phase_rectifier" x="0" y="0" width="568" height="139"/></clipPath><g clip-path="url(#_clip1)"><g id="_3phase_rectifier2" serif:id="3phase_rectifier"><g id="diodes"><path d="M366.41,42.605c1.053,0 1.907,-0.854 1.907,-1.907c0,-1.053 -0.854,-1.907 -1.907,-1.907c-1.053,-0 -1.907,0.854 -1.907,1.907c-0,1.053 0.854,1.907 1.907,1.907Z"/><circle cx="366.14" cy="68.751" r="1.907"/><path d="M365.266,40.698l-36.87,0l0,-40.461l-106.685,0l0,113.017l106.685,-0l0,-44.503l36.6,-0" style="fill:none;stroke:#000;stroke-width:1.27px;"/><path d="M221.711,42.605c1.053,0 1.907,-0.854 1.907,-1.907c0,-1.053 -0.854,-1.907 -1.907,-1.907c-1.053,-0 -1.907,0.854 -1.907,1.907c-0,1.053 0.854,1.907 1.907,1.907Z"/><path d="M187.454,42.605c-1.053,0 -1.907,-0.854 -1.907,-1.907c-0,-1.053 0.854,-1.907 1.907,-1.907c1.053,-0 1.908,0.854 1.908,1.907c-0,1.053 -0.855,1.907 -1.908,1.907Z"/><path d="M221.711,40.698l-34.257,0" style="fill:none;stroke:#000;stroke-width:1.27px;"/><path d="M258.615,56.632c1.053,0 1.908,-0.855 1.908,-1.907c-0,-1.053 -0.855,-1.907 -1.908,-1.907c-1.053,-0 -1.907,0.854 -1.907,1.907c-0,1.052 0.854,1.907 1.907,1.907Z"/><path d="M187.454,56.632c-1.053,0 -1.907,-0.855 -1.907,-1.907c-0,-1.053 0.854,-1.907 1.907,-1.907c1.053,-0 1.908,0.854 1.908,1.907c-0,1.052 -0.855,1.907 -1.908,1.907Z"/><path d="M258.615,54.725l-71.161,-0" style="fill:none;stroke:#000;stroke-width:1.27px;"/><path d="M295.619,70.658c1.052,0 1.908,-0.854 1.908,-1.907c-0,-1.053 -0.856,-1.908 -1.908,-1.908c-1.052,0 -1.907,0.855 -1.907,1.908c0,1.053 0.855,1.907 1.907,1.907Z"/><path d="M187.454,70.658c-1.053,0 -1.907,-0.854 -1.907,-1.907c-0,-1.053 0.854,-1.908 1.907,-1.908c1.053,0 1.908,0.855 1.908,1.908c-0,1.053 -0.855,1.907 -1.908,1.907Z"/><path d="M295.619,68.751l-108.165,-0" style="fill:none;stroke:#000;stroke-width:1.27px;"/><path d="M256.708,113.254c-0,1.052 0.854,1.907 1.907,1.907c1.053,-0 1.908,-0.855 1.908,-1.907c-0,-1.053 -0.855,-1.908 -1.908,-1.908c-1.053,0 -1.907,0.855 -1.907,1.908Z"/><path d="M256.708,0.237c-0,-1.052 0.854,-1.907 1.907,-1.907c1.053,-0 1.908,0.855 1.908,1.907c-0,1.053 -0.855,1.907 -1.908,1.907c-1.053,0 -1.907,-0.854 -1.907,-1.907Z"/><path d="M258.615,113.254l0,-113.017" style="fill:none;stroke:#000;stroke-width:1.27px;"/><path d="M293.712,113.254c0,1.052 0.855,1.907 1.907,1.907c1.052,-0 1.908,-0.855 1.908,-1.907c-0,-1.053 -0.856,-1.908 -1.908,-1.908c-1.052,0 -1.907,0.855 -1.907,1.908Z"/><path d="M293.712,0.237c0,-1.052 0.855,-1.907 1.907,-1.907c1.052,-0 1.908,0.855 1.908,1.907c-0,1.053 -0.856,1.907 -1.908,1.907c-1.052,0 -1.907,-0.854 -1.907,-1.907Z"/><path d="M295.619,113.254l0,-113.017" style="fill:none;stroke:#000;stroke-width:1.27px;"/><g><g><g><path d="M221.711,12.646l8.092,14.025l-16.184,0l8.092,-14.025Z" style="stroke:#000;stroke-width:0.51px;"/><path d="M213.619,12.646l16.184,-0" style="fill:none;stroke:#000;stroke-width:0.85px;"/></g><g><path d="M295.52,12.646l8.092,14.025l-16.185,0l8.093,-14.025Z" style="stroke:#000;stroke-width:0.51px;"/><path d="M287.427,12.646l16.185,-0" style="fill:none;stroke:#000;stroke-width:0.85px;"/></g><g><path d="M258.615,12.646l8.092,14.025l-16.184,0l8.092,-14.025Z" style="stroke:#000;stroke-width:0.51px;"/><path d="M250.523,12.646l16.184,-0" style="fill:none;stroke:#000;stroke-width:0.85px;"/></g></g><g><g><path d="M221.711,83.586l8.092,14.027l-16.184,-0l8.092,-14.027Z" style="stroke:#000;stroke-width:0.51px;"/><path d="M213.619,83.586l16.184,0" style="fill:none;stroke:#000;stroke-width:0.85px;"/></g><g><path d="M295.52,83.586l8.092,14.027l-16.185,-0l8.093,-14.027Z" style="stroke:#000;stroke-width:0.51px;"/><path d="M287.427,83.586l16.185,0" style="fill:none;stroke:#000;stroke-width:0.85px;"/></g><g><path d="M258.615,83.586l8.092,14.027l-16.184,-0l8.092,-14.027Z" style="stroke:#000;stroke-width:0.51px;"/><path d="M250.523,83.586l16.184,0" style="fill:none;stroke:#000;stroke-width:0.85px;"/></g></g></g><text x="174.098px" y="43.636px" style="font-family:'HelveticaNeue-Medium', 'Helvetica Neue', sans-serif;font-weight:500;font-size:14px;">A</text><text x="173.717px" y="57.551px" style="font-family:'HelveticaNeue-Medium', 'Helvetica Neue', sans-serif;font-weight:500;font-size:14px;">B</text><text x="372.061px" y="42.741px" style="font-family:'HelveticaNeue-Medium', 'Helvetica Neue', sans-serif;font-weight:500;font-size:14px;">+</text><text x="372.569px" y="71.64px" style="font-family:'HelveticaNeue-Medium', 'Helvetica Neue', sans-serif;font-weight:500;font-size:14px;">–</text><text x="173.823px" y="71.64px" style="font-family:'HelveticaNeue-Medium', 'Helvetica Neue', sans-serif;font-weight:500;font-size:14px;">C</text></g><g id="IN"><g><clipPath id="_clip2"><rect x="5" y="-1.67" width="152.88" height="116.831"/></clipPath><g clip-path="url(#_clip2)"><g id="axes"><path d="M5,56.745l1.885,0m0,0l2.393,0m0,0l19.1,0m0,0l152.814,0m0,0l19.1,0m0,0l9.552,0m0,0l4.774,0m0,0l2.393,0m0,0l1.485,0" style="fill:none;fill-rule:nonzero;stroke:#202020;stroke-opacity:0.7;stroke-width:1.85px;stroke-miterlimit:10;"/></g><g><g><clipPath id="_clip3"><rect x="5" y="-1.67" width="203.649" height="116.831"/></clipPath><g clip-path="url(#_clip3)"><path d="M5,335.118l0,-572.886" style="fill:none;fill-rule:nonzero;stroke:#a0a0a0;stroke-width:0.38px;stroke-miterlimit:10;"/><path d="M15.178,335.118l0,-572.886" style="fill:none;fill-rule:nonzero;stroke:#a0a0a0;stroke-width:0.38px;stroke-miterlimit:10;"/><path d="M35.546,335.118l0,-572.886" style="fill:none;fill-rule:nonzero;stroke:#a0a0a0;stroke-width:0.38px;stroke-miterlimit:10;"/><path d="M55.908,335.118l0,-572.886" style="fill:none;fill-rule:nonzero;stroke:#a0a0a0;stroke-width:0.38px;stroke-miterlimit:10;"/><path d="M76.276,335.118l0,-572.886" style="fill:none;fill-rule:nonzero;stroke:#a0a0a0;stroke-width:0.38px;stroke-miterlimit:10;"/><path d="M96.644,335.118l0,-572.886" style="fill:none;fill-rule:nonzero;stroke:#a0a0a0;stroke-width:0.38px;stroke-miterlimit:10;"/><path d="M117.005,335.118l0,-572.886" style="fill:none;fill-rule:nonzero;stroke:#a0a0a0;stroke-width:0.38px;stroke-miterlimit:10;"/><path d="M137.373,335.118l0,-572.886" style="fill:none;fill-rule:nonzero;stroke:#a0a0a0;stroke-width:0.38px;stroke-miterlimit:10;"/><path d="M157.735,335.118l0,-572.886" style="fill:none;fill-rule:nonzero;stroke:#a0a0a0;stroke-width:0.38px;stroke-miterlimit:10;"/><path d="M178.103,335.118l0,-572.886" style="fill:none;fill-rule:nonzero;stroke:#a0a0a0;stroke-width:0.38px;stroke-miterlimit:10;"/><path d="M198.465,335.118l0,-572.886" style="fill:none;fill-rule:nonzero;stroke:#a0a0a0;stroke-width:0.38px;stroke-miterlimit:10;"/><path d="M208.649,335.118l0,-572.886" style="fill:none;fill-rule:nonzero;stroke:#a0a0a0;stroke-width:0.38px;stroke-miterlimit:10;"/></g></g></g><g><path d="M5,55.326l1.798,-3.996m0,0l2.283,-5.001m0,0l2.276,-4.876l2.277,-4.686l2.277,-4.428l2.276,-4.121l2.277,-3.748l2.282,-3.323l2.277,-2.849l2.276,-2.342m0,-0l2.277,-1.811l2.276,-1.247l2.283,-0.656l1.138,-0.108l1.139,0.033l2.276,0.523l1.138,0.474l1.139,0.631l2.276,1.671l2.277,2.217l2.283,2.734l2.276,3.215l2.277,3.647l2.276,4.029l2.277,4.362l2.276,4.636l2.283,4.835l2.276,4.977l2.277,5.043l2.277,5.051l2.276,4.984l2.277,4.844l2.282,4.644l2.277,4.379l2.276,4.062l2.277,3.672l2.277,3.241l2.276,2.766l2.283,2.26l2.276,1.704l2.277,1.145l2.276,0.557l1.139,0.058l1.138,-0.091l2.276,-0.623l2.283,-1.205l2.277,-1.77l2.276,-2.309l2.277,-2.825l2.276,-3.29l2.283,-3.722l2.277,-4.095l2.276,-4.412l2.277,-4.669l2.276,-4.868l2.277,-4.993l2.282,-5.052l2.277,-5.043l2.276,-4.959l2.277,-4.82l2.277,-4.602l2.276,-4.329l2.283,-3.987l2.276,-3.605l2.277,-3.166l2.276,-2.675l2.277,-2.161l2.277,-1.612l2.282,-1.046l1.138,-0.299l1.139,-0.15l2.276,0.134l1.139,0.29l1.138,0.432l2.276,1.313l2.277,1.86l2.283,2.41l2.276,2.908l2.277,3.372m-0,0l2.276,3.79l2.277,4.153l2.282,4.461l2.277,4.712l2.277,4.884l2.276,5.01l2.277,5.059l2.276,5.036m-0,-0l2.283,4.942l2.276,4.778l2.277,4.56l2.276,4.28m-0,-0l2.277,3.921l2.277,3.53m-0,-0l2.282,3.083m-0,-0l1.417,1.67" style="fill:none;fill-rule:nonzero;stroke:#f00;stroke-opacity:0.7;stroke-width:1.81px;stroke-miterlimit:10;"/><path d="M5,17.916l1.798,2.161m0,-0l2.283,3.156m0,0l2.276,3.598l2.277,3.996l2.277,4.32l2.276,4.602l2.277,4.82l2.282,4.959l2.277,5.043l2.276,5.051m0,0l2.277,4.993l2.276,4.869l2.283,4.669l2.277,4.419l2.276,4.097l2.277,3.722l2.276,3.29l2.277,2.824l2.283,2.318l2.276,1.778l2.277,1.204l2.276,0.632l1.138,0.091l1.139,-0.058l2.276,-0.548l2.283,-1.138l2.276,-1.712l2.277,-2.251l2.277,-2.758l2.276,-3.24l2.277,-3.673l2.282,-4.054l2.277,-4.378l2.276,-4.645l2.277,-4.844l2.277,-4.984l2.276,-5.051l2.283,-5.043l2.276,-4.976l2.277,-4.835l2.276,-4.637l2.277,-4.362l2.276,-4.037l2.283,-3.646l2.277,-3.217l2.276,-2.741l2.277,-2.218l2.276,-1.678l2.283,-1.114l1.138,-0.331l1.139,-0.192l2.276,0.067l1.138,0.257l1.139,0.407l2.276,1.238l2.277,1.803l2.282,2.343l2.277,2.849l2.276,3.315l2.277,3.748l2.277,4.111l2.276,4.429l2.283,4.686l2.276,4.876l2.277,4.994l2.276,5.059l2.277,5.034l2.277,4.96l2.282,4.802l2.277,4.595l2.276,4.303l2.277,3.971l2.276,3.581l2.277,3.132l2.283,2.65l2.276,2.135l2.277,1.579m-0,0l2.276,1.005l1.139,0.282l1.138,0.142l2.282,-0.175l1.139,-0.307l1.138,-0.456l2.277,-1.338l2.276,-1.903l2.277,-2.434l2.276,-2.933m-0,0l2.283,-3.398l2.276,-3.813l2.277,-4.171l2.276,-4.478m-0,-0l2.277,-4.719l2.277,-4.901m-0,0l2.282,-5.019m-0,0l1.417,-3.149" style="fill:none;fill-rule:nonzero;stroke:#00f;stroke-opacity:0.7;stroke-width:1.81px;stroke-miterlimit:10;"/><path d="M5,92.738l1.798,1.843m0,0l2.283,1.837m0,0l2.276,1.279l2.277,0.699l1.138,0.124l1.139,-0.025l2.276,-0.481l1.138,-0.467l1.139,-0.605l2.282,-1.637l2.277,-2.193l2.276,-2.701m0,0l2.277,-3.19l2.276,-3.622l2.283,-4.013l2.277,-4.344l2.276,-4.611l2.277,-4.827l2.276,-4.968l2.277,-5.043l2.283,-5.052l2.276,-4.994l2.277,-4.851l2.276,-4.66l2.277,-4.395l2.276,-4.081l2.283,-3.696l2.276,-3.273l2.277,-2.791l2.277,-2.285l2.276,-1.744l2.277,-1.181l2.282,-0.59l1.139,-0.074l1.138,0.074l2.276,0.59l2.277,1.172l2.277,1.736l2.276,2.284l2.283,2.792l2.276,3.265l2.277,3.697l2.276,4.072l2.277,4.393l2.276,4.662l2.283,4.851l2.277,4.985l4.553,10.102l2.276,4.97l2.283,4.827l2.277,4.618l2.276,4.346l2.277,4.013l2.276,3.621l2.277,3.191l2.282,2.708l2.277,2.193l2.276,1.645l2.277,1.072l1.138,0.324l1.139,0.166l2.276,-0.099l1.144,-0.274l1.139,-0.416l2.276,-1.271l2.277,-1.836l2.276,-2.376l2.277,-2.883l2.277,-3.341l2.282,-3.762l2.277,-4.139l2.276,-4.444l2.277,-4.701l2.276,-4.878l2.277,-5.009l2.283,-5.052l2.276,-5.034l2.277,-4.953m-0,0l2.276,-4.792l2.277,-4.578l2.282,-4.287l2.277,-3.955l2.277,-3.548l2.276,-3.114l2.277,-2.618l2.276,-2.101m-0,-0l2.283,-1.546l2.276,-0.972l1.139,-0.265l1.138,-0.117l2.276,0.208m-0,0l2.277,0.789l2.277,1.37m-0,0l2.282,1.936m-0,0l1.417,1.479" style="fill:none;fill-rule:nonzero;stroke:#006400;stroke-opacity:0.7;stroke-width:1.81px;stroke-miterlimit:10;"/></g></g></g></g><g id="OUT"><g><clipPath id="_clip4"><rect x="405" y="-1.67" width="160.349" height="116.831"/></clipPath><g clip-path="url(#_clip4)"><g><g><clipPath id="_clip5"><rect x="405" y="-1.67" width="213.496" height="116.831"/></clipPath><g clip-path="url(#_clip5)"><path d="M405,122.272l0,-181.284" style="fill:none;fill-rule:nonzero;stroke:#a0a0a0;stroke-width:0.27px;stroke-miterlimit:10;"/><path d="M415.67,122.272l0,-181.284" style="fill:none;fill-rule:nonzero;stroke:#a0a0a0;stroke-width:0.27px;stroke-miterlimit:10;"/><path d="M437.022,122.272l0,-181.284" style="fill:none;fill-rule:nonzero;stroke:#a0a0a0;stroke-width:0.27px;stroke-miterlimit:10;"/><path d="M458.369,122.272l0,-181.284" style="fill:none;fill-rule:nonzero;stroke:#a0a0a0;stroke-width:0.27px;stroke-miterlimit:10;"/><path d="M479.722,122.272l0,-181.284" style="fill:none;fill-rule:nonzero;stroke:#a0a0a0;stroke-width:0.27px;stroke-miterlimit:10;"/><path d="M501.074,122.272l0,-181.284" style="fill:none;fill-rule:nonzero;stroke:#a0a0a0;stroke-width:0.27px;stroke-miterlimit:10;"/><path d="M522.421,122.272l0,-181.284" style="fill:none;fill-rule:nonzero;stroke:#a0a0a0;stroke-width:0.27px;stroke-miterlimit:10;"/><path d="M543.774,122.272l0,-181.284" style="fill:none;fill-rule:nonzero;stroke:#a0a0a0;stroke-width:0.27px;stroke-miterlimit:10;"/><path d="M565.12,122.272l0,-181.284" style="fill:none;fill-rule:nonzero;stroke:#a0a0a0;stroke-width:0.27px;stroke-miterlimit:10;"/></g></g></g><g><path d="M405,53.897l1.885,6.164m0,0l2.393,8.159m0,-0l1.193,4.204l1.193,4.27l1.194,4.32l1.193,4.354l1.193,4.377l0.299,1.089l0.895,-2.334l1.193,-4.37l1.193,-4.354l1.194,-4.303l1.193,-4.253l2.393,-8.284l2.387,-7.901l2.386,-7.394m0,0l2.387,-6.804l2.386,-6.107l2.393,-5.333l2.387,-4.487l2.387,-3.58l2.386,-2.617l1.194,-0.939l1.193,-0.681l1.193,-0.432l1.194,-0.175l1.193,0.083l1.2,0.333l1.193,0.598l1.193,0.847l2.387,2.435l2.386,3.406l2.387,4.32l2.387,5.184l2.393,5.974l2.386,6.687l2.387,7.295l2.387,7.81l2.386,8.225l1.194,4.227l1.193,4.296l1.2,4.329l1.193,4.361l1.193,4.386l0.146,-0.49l0.153,-0.548l0.298,-1.096l1.79,-6.555l1.193,-4.329l1.193,-4.294l1.194,-4.23l2.386,-8.224l2.387,-7.818l2.393,-7.294l2.387,-6.688l2.386,-5.983l2.387,-5.192l2.387,-4.328l2.386,-3.406l2.393,-2.451l1.194,-0.848l1.193,-0.599l1.193,-0.34l1.193,-0.083l1.194,0.175l1.193,0.423l1.193,0.681l1.194,0.939l2.393,2.609l2.386,3.565l2.387,4.485l2.387,5.326l2.386,6.107l2.387,6.795l2.393,7.394l2.387,7.893l2.386,8.283l1.193,4.254l1.194,4.303l1.193,4.345l1.193,4.37l0.597,2.193l0.152,0.548l0.445,-1.37l1.193,-4.378l1.2,-4.354l1.193,-4.32l1.193,-4.271l1.194,-4.202l2.386,-8.167l2.387,-7.735l2.387,-7.195l2.386,-6.572l2.393,-5.848l2.387,-5.044l2.386,-4.17l2.387,-3.249l1.193,-1.254l1.194,-1.013l1.193,-0.764l1.193,-0.508l1.2,-0.249l1.193,0.009l1.194,0.258l1.193,0.514l1.193,0.773l1.194,1.021m-0,0l2.386,2.784l2.387,3.73l2.393,4.636l2.387,5.467l2.386,6.239l2.387,6.904l2.386,7.494l2.387,7.967m-0,0l1.193,4.129l1.2,4.213l1.193,4.269l1.194,4.321l1.193,4.361l1.193,4.37l0.299,1.096l0.298,-0.614l1.79,-6.555m-0,0l1.193,-4.345l1.194,-4.303l1.193,-4.254l1.193,-4.179m-0,-0l2.393,-8.092m-0,0l1.486,-4.827" style="fill:none;fill-rule:nonzero;stroke:#f00;stroke-opacity:0.7;stroke-width:0.74px;stroke-linecap:butt;stroke-miterlimit:10;stroke-dasharray:7.5,6.67;"/><path d="M405,16.486l1.885,0.315m0,0l2.393,1.321m0,0l2.386,2.327l2.387,3.29l2.387,4.221l2.386,5.083l2.387,5.891l2.393,6.605l2.387,7.228l2.386,7.76m0,-0l2.387,8.175l1.193,4.212l1.193,4.278l1.194,4.329l1.199,4.353l1.194,4.379l0.298,1.013l0.146,-0.54l0.152,-0.548l0.597,-2.194l1.193,-4.37l1.194,-4.344l1.193,-4.296l1.193,-4.245l2.387,-8.267l2.387,-7.875l2.393,-7.362l2.386,-6.763l2.387,-6.064l2.386,-5.292l2.387,-4.428l2.387,-3.523l2.393,-2.559l1.193,-0.914l1.193,-0.656l1.194,-0.398l1.193,-0.142l1.193,0.108l1.194,0.366l1.193,0.623l1.193,0.88l2.387,2.493l2.393,3.455l2.387,4.379l2.386,5.234l2.387,6.015l2.386,6.721l2.387,7.328l2.393,7.842l2.387,8.243l1.193,4.236l1.193,4.295l1.194,4.337l1.193,4.37l1.193,3.415l0.153,-0.548l0.146,-0.549l0.298,-1.088l0.597,-2.194l1.193,-4.361l1.193,-4.328l1.2,-4.287l1.193,-4.221l2.387,-8.199l2.386,-7.794l2.387,-7.27l2.387,-6.646l2.393,-5.932l2.386,-5.142l2.387,-4.279l2.387,-3.356l2.386,-2.384l1.194,-0.823l1.193,-0.565l1.193,-0.316l1.2,-0.049l1.193,0.198l1.194,0.458l1.193,0.715l1.193,0.963l2.387,2.667l2.386,3.622l2.387,4.528l2.393,5.376l2.387,6.147l2.386,6.838l2.387,7.427l2.387,7.918l2.386,8.299l1.2,4.262l1.193,4.312l1.194,4.353l1.193,4.37l0.597,2.194l0.298,-0.757l0.298,-1.096l1.193,-4.37l1.194,-4.354l1.193,-4.319l1.193,-4.262l1.194,-4.196l2.386,-8.141l2.393,-7.702l2.387,-7.17l2.387,-6.531m-0,0l2.386,-5.798l2.387,-4.993l2.393,-4.121l2.387,-3.19l1.193,-1.23l1.193,-0.981l1.193,-0.73l1.194,-0.483l1.193,-0.216l1.193,0.034l1.194,0.291l1.193,0.549m-0,-0l2.393,1.844l1.193,1.304l1.194,1.537l2.386,3.788l2.387,4.686m-0,-0l2.387,5.516l2.386,6.273m-0,-0l2.393,6.945m-0,0l1.486,4.628" style="fill:none;fill-rule:nonzero;stroke:#00f;stroke-opacity:0.7;stroke-width:0.74px;stroke-linecap:butt;stroke-miterlimit:10;stroke-dasharray:7.5,6.67;"/><path d="M405,53.897l1.885,-5.841m0,0l2.393,-6.837m0,0l2.386,-6.156l2.387,-5.375l2.387,-4.545l2.386,-3.631l2.387,-2.675l1.2,-0.964l1.193,-0.713l1.193,-0.458l1.194,-0.207l1.193,0.049l1.193,0.308m0,-0l2.387,1.378l0.596,0.508l0.597,0.564l1.193,1.314l2.393,3.347l2.387,4.271l2.387,5.134l2.386,5.932l2.387,6.638l2.387,7.27l2.393,7.784l2.386,8.2l1.194,4.221l1.193,4.287l1.193,4.328l1.193,4.362l1.194,4.378l0.152,0.54l0.146,-0.548l0.895,-3.291l1.193,-4.361l1.194,-4.337l1.193,-4.304l1.2,-4.237l2.386,-8.241l2.387,-7.842l2.387,-7.336l2.386,-6.722l2.387,-6.023l2.393,-5.243l2.387,-4.378l2.386,-3.472l2.387,-2.501l1.193,-0.881l1.193,-0.622l1.194,-0.375l1.193,-0.108l1.2,0.142l1.193,0.39l1.193,0.656l1.194,0.906l2.386,2.55l2.387,3.514l2.387,4.429l2.386,5.284l2.393,6.056l2.387,6.763l2.386,7.36l2.387,7.868l2.387,8.266l1.193,4.238l1.2,4.304l1.193,4.345l1.79,6.554l0.298,1.097l0.299,-0.888l1.193,-4.379l1.193,-4.361l1.194,-4.329l1.193,-4.271l1.193,-4.22l2.387,-8.183l2.393,-7.76l2.387,-7.237l2.386,-6.604l2.387,-5.89l2.386,-5.094l2.387,-4.228l2.393,-3.298l2.387,-2.326l1.193,-0.789l1.193,-0.541l1.194,-0.283l1.193,-0.025l1.193,0.234l1.194,0.49l1.193,0.739l1.193,0.988l2.393,2.726l2.387,3.68l2.386,4.586l2.387,5.417l2.387,6.189l2.386,6.871l2.393,7.461l2.387,7.941l1.193,4.122l1.194,4.204m-0,-0l1.193,4.262l1.193,4.319l1.194,4.354l1.193,4.379l0.597,1.503l0.152,-0.548l0.146,-0.548l0.298,-1.088l1.2,-4.379l1.193,-4.345l1.194,-4.312l1.193,-4.253l1.193,-4.196l2.387,-8.118l2.386,-7.676l2.387,-7.128m-0,0l2.393,-6.489l2.387,-5.757l2.386,-4.943l2.387,-4.071m-0,-0l2.387,-3.132l1.193,-1.197l1.193,-0.955m-0,-0l2.393,-1.146m-0,-0l1.486,-0.2" style="fill:none;fill-rule:nonzero;stroke:#006400;stroke-opacity:0.7;stroke-width:0.74px;stroke-linecap:butt;stroke-miterlimit:10;stroke-dasharray:7.5,6.67;"/></g><path d="M405,16.486l1.885,0.315m0,0l2.393,1.321m0,0l2.386,2.327l2.387,3.29l1.193,2.002l0.299,0.532l0.895,-1.13l2.386,-3.631l2.387,-2.675l1.2,-0.964l1.193,-0.713l1.193,-0.458l1.194,-0.207l1.193,0.049l1.193,0.308m0,-0l2.387,1.378l0.596,0.508l0.597,0.564l1.193,1.314l2.393,3.347l1.194,2.02l0.298,0.506l0.298,-0.54l0.597,-1.039l2.387,-3.58l2.386,-2.617l1.194,-0.939l1.193,-0.681l1.193,-0.432l1.194,-0.175l1.193,0.083l1.2,0.333l1.193,0.598l1.193,0.847l2.387,2.435l2.386,3.406l1.194,2.052l0.596,-0.54l0.597,-1.022l2.387,-3.523l2.393,-2.559l1.193,-0.914l1.193,-0.656l1.194,-0.398l1.193,-0.142l1.193,0.108l1.194,0.366l1.193,0.623l1.193,0.88l2.387,2.493l2.393,3.455l1.193,2.078l0.299,-0.506l0.298,-0.532l0.597,-1.006l2.386,-3.472l2.387,-2.501l1.193,-0.881l1.193,-0.622l1.194,-0.375l1.193,-0.108l1.2,0.142l1.193,0.39l1.193,0.656l1.194,0.906l2.386,2.55l2.387,3.514l1.193,1.62l0.299,-0.532l0.298,-0.522l0.597,-0.997l2.386,-3.406l2.393,-2.451l1.194,-0.848l1.193,-0.599l1.193,-0.34l1.193,-0.083l1.194,0.175l1.193,0.423l1.193,0.681l1.194,0.939l2.393,2.609l2.386,3.565l0.597,1.038l0.298,0.54l0.299,-0.441l1.193,-2.027l2.387,-3.356l2.386,-2.384l1.194,-0.823l1.193,-0.565l1.193,-0.316l1.2,-0.049l1.193,0.198l1.194,0.458l1.193,0.715l1.193,0.963l2.387,2.667l2.386,3.622l0.597,1.047l0.597,-0.399l1.193,-2.002l2.393,-3.298l2.387,-2.326l1.193,-0.789l1.193,-0.541l1.194,-0.283l1.193,-0.025l1.193,0.234l1.194,0.49l1.193,0.739l1.193,0.988l2.393,2.726l2.387,3.68l0.597,1.063l0.596,-0.904l1.193,-1.97l2.387,-3.249l1.193,-1.254l1.194,-1.013l1.193,-0.764l1.193,-0.508l1.2,-0.249l1.193,0.009l1.194,0.258l1.193,0.514l1.193,0.773l1.194,1.021m-0,0l2.386,2.784l2.387,3.73l0.597,0.739l0.298,-0.54l0.298,-0.523l1.2,-1.944l2.387,-3.19l1.193,-1.23l1.193,-0.981l1.193,-0.73l1.194,-0.483l1.193,-0.216l1.193,0.034l1.194,0.291l1.193,0.549m-0,-0l2.393,1.844l1.193,1.304l1.194,1.537l2.386,3.788l0.299,0.541l0.895,-1.355l1.193,-1.919m-0,-0l2.387,-3.132l1.193,-1.197l1.193,-0.955m-0,-0l2.393,-1.146m-0,-0l1.486,-0.2" style="fill:none;fill-rule:nonzero;stroke:#000;stroke-opacity:0.7;stroke-width:1.84px;stroke-miterlimit:10;"/><g id="axes1" serif:id="axes"><path d="M405,91.308l1.885,-0m0,-0l2.393,-0m0,-0l19.099,-0m0,-0l152.815,-0m0,-0l19.099,-0m-0,-0l9.553,-0m0,-0l4.773,-0m-0,-0l2.393,-0m-0,-0l1.486,-0" style="fill:none;fill-rule:nonzero;stroke:#202020;stroke-opacity:0.7;stroke-width:1.84px;stroke-miterlimit:10;"/></g></g></g></g><g><text x="25.088px" y="133.976px" style="font-family:'HelveticaNeue-Medium', 'Helvetica Neue', sans-serif;font-weight:500;font-size:12px;">Input: 3-Phase AC</text><g transform="matrix(12,0,0,12,547.114,133.976)"></g><text x="424.642px" y="133.976px" style="font-family:'HelveticaNeue-Medium', 'Helvetica Neue', sans-serif;font-weight:500;font-size:12px;">Output: Dir<tspan x="485.098px 491.77px " y="133.976px 133.976px ">ec</tspan>t Curr<tspan x="529.558px 536.23px " y="133.976px 133.976px ">en</tspan>t</text><text x="226.76px" y="133.772px" style="font-family:'HelveticaNeue-Medium', 'Helvetica Neue', sans-serif;font-weight:500;font-size:12px;">Rotating Diodes</text></g></g></g></svg>