<?xml version="1.0" encoding="UTF-8" standalone="no"?><!DOCTYPE svg PUBLIC "-//W3C//DTD SVG 1.1//EN" "http://www.w3.org/Graphics/SVG/1.1/DTD/svg11.dtd"><svg width="100%" height="100%" viewBox="0 0 602 161" version="1.1" xmlns="http://www.w3.org/2000/svg" xmlns:xlink="http://www.w3.org/1999/xlink" xml:space="preserve" xmlns:serif="http://www.serif.com/" style="fill-rule:evenodd;clip-rule:evenodd;stroke-linecap:round;stroke-linejoin:round;stroke-miterlimit:1.5;"><rect id="_3phase_rectifier" serif:id="3phase_rectifier" x="0" y="0" width="602" height="160.271" style="fill:none;"/><clipPath id="_clip1"><rect id="_3phase_rectifier1" serif:id="3phase_rectifier" x="0" y="0" width="602" height="160.271"/></clipPath><g clip-path="url(#_clip1)"><g id="_3phase_rectifier2" serif:id="3phase_rectifier"><g id="diodes"><path d="M401.87,53.231c1.242,-0 2.25,-1.008 2.25,-2.25c-0,-1.242 -1.008,-2.25 -2.25,-2.25c-1.242,-0 -2.25,1.008 -2.25,2.25c-0,1.242 1.008,2.25 2.25,2.25Z"/><circle cx="401.552" cy="84.074" r="2.25"/><path d="M400.52,50.981l-43.494,-0l0,-47.731l-125.854,-0l0,133.323l125.854,-0l0,-52.499l43.176,-0" style="fill:none;stroke:#000;stroke-width:1.5px;"/><path d="M231.172,53.231c1.242,-0 2.25,-1.008 2.25,-2.25c-0,-1.242 -1.008,-2.25 -2.25,-2.25c-1.242,-0 -2.25,1.008 -2.25,2.25c-0,1.242 1.008,2.25 2.25,2.25Z"/><path d="M190.76,53.231c-1.242,-0 -2.25,-1.008 -2.25,-2.25c-0,-1.242 1.008,-2.25 2.25,-2.25c1.242,-0 2.25,1.008 2.25,2.25c-0,1.242 -1.008,2.25 -2.25,2.25Z"/><path d="M231.172,50.981l-40.412,-0" style="fill:none;stroke:#000;stroke-width:1.5px;"/><path d="M274.707,69.778c1.242,-0 2.25,-1.009 2.25,-2.25c0,-1.242 -1.008,-2.25 -2.25,-2.25c-1.242,-0 -2.25,1.008 -2.25,2.25c0,1.241 1.008,2.25 2.25,2.25Z"/><path d="M190.76,69.778c-1.242,-0 -2.25,-1.009 -2.25,-2.25c-0,-1.242 1.008,-2.25 2.25,-2.25c1.242,-0 2.25,1.008 2.25,2.25c-0,1.241 -1.008,2.25 -2.25,2.25Z"/><path d="M274.707,67.528l-83.947,-0" style="fill:none;stroke:#000;stroke-width:1.5px;"/><path d="M318.36,86.324c1.241,-0 2.25,-1.008 2.25,-2.25c-0,-1.242 -1.009,-2.25 -2.25,-2.25c-1.242,-0 -2.25,1.008 -2.25,2.25c-0,1.242 1.008,2.25 2.25,2.25Z"/><path d="M190.76,86.324c-1.242,-0 -2.25,-1.008 -2.25,-2.25c-0,-1.242 1.008,-2.25 2.25,-2.25c1.242,-0 2.25,1.008 2.25,2.25c-0,1.242 -1.008,2.25 -2.25,2.25Z"/><path d="M318.36,84.074l-127.6,-0" style="fill:none;stroke:#000;stroke-width:1.5px;"/><path d="M272.457,136.573c0,1.242 1.008,2.25 2.25,2.25c1.242,-0 2.25,-1.008 2.25,-2.25c0,-1.242 -1.008,-2.25 -2.25,-2.25c-1.242,-0 -2.25,1.008 -2.25,2.25Z"/><path d="M272.457,3.25c0,-1.241 1.008,-2.25 2.25,-2.25c1.242,-0 2.25,1.009 2.25,2.25c0,1.242 -1.008,2.25 -2.25,2.25c-1.242,-0 -2.25,-1.008 -2.25,-2.25Z"/><path d="M274.707,136.573l0,-133.323" style="fill:none;stroke:#000;stroke-width:1.5px;"/><path d="M316.11,136.573c-0,1.242 1.008,2.25 2.25,2.25c1.241,-0 2.25,-1.008 2.25,-2.25c-0,-1.242 -1.009,-2.25 -2.25,-2.25c-1.242,-0 -2.25,1.008 -2.25,2.25Z"/><path d="M316.11,3.25c-0,-1.241 1.008,-2.25 2.25,-2.25c1.241,-0 2.25,1.009 2.25,2.25c-0,1.242 -1.009,2.25 -2.25,2.25c-1.242,-0 -2.25,-1.008 -2.25,-2.25Z"/><path d="M318.36,136.573l-0,-133.323" style="fill:none;stroke:#000;stroke-width:1.5px;"/><g><g><g><path d="M231.172,17.888l9.546,16.546l-19.092,-0l9.546,-16.546Z" style="stroke:#000;stroke-width:0.6px;"/><path d="M221.626,17.888l19.092,-0" style="fill:none;stroke:#000;stroke-width:1px;"/></g><g><path d="M318.243,17.888l9.546,16.546l-19.093,-0l9.547,-16.546Z" style="stroke:#000;stroke-width:0.6px;"/><path d="M308.696,17.888l19.093,-0" style="fill:none;stroke:#000;stroke-width:1px;"/></g><g><path d="M274.707,17.888l9.546,16.546l-19.092,-0l9.546,-16.546Z" style="stroke:#000;stroke-width:0.6px;"/><path d="M265.161,17.888l19.092,-0" style="fill:none;stroke:#000;stroke-width:1px;"/></g></g><g><g><path d="M231.172,101.575l9.546,16.547l-19.092,-0l9.546,-16.547Z" style="stroke:#000;stroke-width:0.6px;"/><path d="M221.626,101.575l19.092,-0" style="fill:none;stroke:#000;stroke-width:1px;"/></g><g><path d="M318.243,101.575l9.546,16.547l-19.093,-0l9.547,-16.547Z" style="stroke:#000;stroke-width:0.6px;"/><path d="M308.696,101.575l19.093,-0" style="fill:none;stroke:#000;stroke-width:1px;"/></g><g><path d="M274.707,101.575l9.546,16.547l-19.092,-0l9.546,-16.547Z" style="stroke:#000;stroke-width:0.6px;"/><path d="M265.161,101.575l19.092,-0" style="fill:none;stroke:#000;stroke-width:1px;"/></g></g></g><text x="175.004px" y="54.447px" style="font-family:'HelveticaNeue-Medium', 'Helvetica Neue', sans-serif;font-weight:500;font-size:12px;">A</text><text x="174.554px" y="70.862px" style="font-family:'HelveticaNeue-Medium', 'Helvetica Neue', sans-serif;font-weight:500;font-size:12px;">B</text><text x="408.536px" y="53.391px" style="font-family:'HelveticaNeue-Medium', 'Helvetica Neue', sans-serif;font-weight:500;font-size:12px;">+</text><text x="409.136px" y="87.482px" style="font-family:'HelveticaNeue-Medium', 'Helvetica Neue', sans-serif;font-weight:500;font-size:12px;">–</text><text x="174.68px" y="87.482px" style="font-family:'HelveticaNeue-Medium', 'Helvetica Neue', sans-serif;font-weight:500;font-size:12px;">C</text></g><g id="IN"><g><clipPath id="_clip2"><rect x="5" y="23.925" width="152.88" height="91.974"/></clipPath><g clip-path="url(#_clip2)"><g id="axes"><path d="M5,69.912l1.885,-0m-0,-0l2.393,-0m-0,-0l19.1,-0m-0,-0l152.814,-0m-0,-0l19.1,-0m-0,-0l9.552,-0m-0,-0l4.774,-0m-0,-0l2.393,-0m-0,-0l1.485,-0" style="fill:none;fill-rule:nonzero;stroke:#202020;stroke-opacity:0.7;stroke-width:1.62px;stroke-miterlimit:10;"/></g><g><g><clipPath id="_clip3"><rect x="5" y="23.925" width="203.649" height="91.974"/></clipPath><g clip-path="url(#_clip3)"><path d="M5,289.058l-0,-450.998" style="fill:none;fill-rule:nonzero;stroke:#a0a0a0;stroke-width:0.33px;stroke-miterlimit:10;"/><path d="M15.178,289.058l-0,-450.998" style="fill:none;fill-rule:nonzero;stroke:#a0a0a0;stroke-width:0.33px;stroke-miterlimit:10;"/><path d="M35.546,289.058l-0,-450.998" style="fill:none;fill-rule:nonzero;stroke:#a0a0a0;stroke-width:0.33px;stroke-miterlimit:10;"/><path d="M55.908,289.058l-0,-450.998" style="fill:none;fill-rule:nonzero;stroke:#a0a0a0;stroke-width:0.33px;stroke-miterlimit:10;"/><path d="M76.276,289.058l-0,-450.998" style="fill:none;fill-rule:nonzero;stroke:#a0a0a0;stroke-width:0.33px;stroke-miterlimit:10;"/><path d="M96.644,289.058l-0,-450.998" style="fill:none;fill-rule:nonzero;stroke:#a0a0a0;stroke-width:0.33px;stroke-miterlimit:10;"/><path d="M117.005,289.058l-0,-450.998" style="fill:none;fill-rule:nonzero;stroke:#a0a0a0;stroke-width:0.33px;stroke-miterlimit:10;"/><path d="M137.373,289.058l-0,-450.998" style="fill:none;fill-rule:nonzero;stroke:#a0a0a0;stroke-width:0.33px;stroke-miterlimit:10;"/><path d="M157.735,289.058l-0,-450.998" style="fill:none;fill-rule:nonzero;stroke:#a0a0a0;stroke-width:0.33px;stroke-miterlimit:10;"/><path d="M178.103,289.058l-0,-450.998" style="fill:none;fill-rule:nonzero;stroke:#a0a0a0;stroke-width:0.33px;stroke-miterlimit:10;"/><path d="M198.465,289.058l-0,-450.998" style="fill:none;fill-rule:nonzero;stroke:#a0a0a0;stroke-width:0.33px;stroke-miterlimit:10;"/><path d="M208.649,289.058l-0,-450.998" style="fill:none;fill-rule:nonzero;stroke:#a0a0a0;stroke-width:0.33px;stroke-miterlimit:10;"/></g></g></g><g><path d="M5,68.795l1.798,-3.146m-0,-0l2.283,-3.937m-0,-0l2.276,-3.839l2.277,-3.689l2.277,-3.486l2.276,-3.244l2.277,-2.95l2.282,-2.616l2.277,-2.243l2.276,-1.844m-0,-0l2.277,-1.426l2.276,-0.981l2.283,-0.517l1.138,-0.085l1.139,0.026l2.276,0.412l1.138,0.373l1.139,0.497l2.276,1.315l2.277,1.746l2.283,2.152l2.276,2.531l2.277,2.871l2.276,3.172l2.277,3.434l2.276,3.649l2.283,3.807l2.276,3.918l2.277,3.97l2.277,3.976l2.276,3.924l2.277,3.813l2.282,3.656l2.277,3.447l2.276,3.198l2.277,2.891l2.277,2.551l2.276,2.178l2.283,1.779l2.276,1.341l2.277,0.902l2.276,0.438l1.139,0.046l1.138,-0.072l2.276,-0.49l2.283,-0.949l2.277,-1.393l2.276,-1.818l2.277,-2.224l2.276,-2.59l2.283,-2.93l2.277,-3.224l2.276,-3.473l2.277,-3.676l2.276,-3.832l2.277,-3.931l2.282,-3.977l2.277,-3.97l2.276,-3.904l2.277,-3.794l2.277,-3.623l2.276,-3.408l2.283,-3.139l2.276,-2.838l2.277,-2.492l2.276,-2.106l2.277,-1.701l2.277,-1.269l2.282,-0.824l1.138,-0.235l1.139,-0.118l2.276,0.105l1.139,0.229l1.138,0.34l2.276,1.033l2.277,1.465l2.283,1.897l2.276,2.289l2.277,2.655m-0,-0l2.276,2.983l2.277,3.27l2.282,3.512l2.277,3.709l2.277,3.845l2.276,3.944l2.277,3.983l2.276,3.964m-0,-0l2.283,3.891l2.276,3.761l2.277,3.59l2.276,3.369m-0,-0l2.277,3.087l2.277,2.779m-0,-0l2.282,2.427m-0,-0l1.417,1.315" style="fill:none;fill-rule:nonzero;stroke:#f00;stroke-opacity:0.7;stroke-width:1.58px;stroke-miterlimit:10;"/><path d="M5,39.344l1.798,1.701m-0,-0l2.283,2.485m-0,-0l2.276,2.832l2.277,3.146l2.277,3.401l2.276,3.623l2.277,3.794l2.282,3.904l2.277,3.97l2.276,3.977m-0,-0l2.277,3.93l2.276,3.833l2.283,3.676l2.277,3.479l2.276,3.225l2.277,2.93l2.276,2.59l2.277,2.223l2.283,1.825l2.276,1.4l2.277,0.948l2.276,0.497l1.138,0.072l1.139,-0.046l2.276,-0.431l2.283,-0.896l2.276,-1.348l2.277,-1.772l2.277,-2.171l2.276,-2.551l2.277,-2.891l2.282,-3.192l2.277,-3.446l2.276,-3.657l2.277,-3.813l2.277,-3.924l2.276,-3.976l2.283,-3.97l2.276,-3.918l2.277,-3.806l2.276,-3.65l2.277,-3.434l2.276,-3.178l2.283,-2.871l2.277,-2.532l2.276,-2.158l2.277,-1.746l2.276,-1.321l2.283,-0.877l1.138,-0.261l1.139,-0.151l2.276,0.053l1.138,0.202l1.139,0.321l2.276,0.974l2.277,1.42l2.282,1.844l2.277,2.243l2.276,2.61l2.277,2.95l2.277,3.237l2.276,3.486l2.283,3.689l2.276,3.839l2.277,3.931l2.276,3.983l2.277,3.963l2.277,3.905l2.282,3.78l2.277,3.617l2.276,3.388l2.277,3.126l2.276,2.819l2.277,2.466l2.283,2.086l2.276,1.681l2.277,1.243m-0,-0l2.276,0.791l1.139,0.222l1.138,0.112l2.282,-0.138l1.139,-0.242l1.138,-0.359l2.277,-1.053l2.276,-1.498l2.277,-1.916l2.276,-2.309m-0,-0l2.283,-2.675l2.276,-3.002l2.277,-3.284l2.276,-3.525m-0,-0l2.277,-3.715l2.277,-3.858m-0,-0l2.282,-3.951m-0,-0l1.417,-2.479" style="fill:none;fill-rule:nonzero;stroke:#00f;stroke-opacity:0.7;stroke-width:1.58px;stroke-miterlimit:10;"/><path d="M5,98.247l1.798,1.451m-0,-0l2.283,1.446m-0,-0l2.276,1.007l2.277,0.55l1.138,0.098l1.139,-0.02l2.276,-0.379l1.138,-0.367l1.139,-0.477l2.282,-1.288l2.277,-1.727l2.276,-2.126m-0,-0l2.277,-2.511l2.276,-2.852l2.283,-3.159l2.277,-3.42l2.276,-3.63l2.277,-3.8l2.276,-3.911l2.277,-3.97l2.283,-3.977l2.276,-3.931l2.277,-3.819l2.276,-3.669l2.277,-3.46l2.276,-3.212l2.283,-2.91l2.276,-2.577l2.277,-2.197l2.277,-1.799l2.276,-1.373l2.277,-0.929l2.282,-0.465l1.139,-0.058l1.138,0.058l2.276,0.465l2.277,0.922l2.277,1.367l2.276,1.798l2.283,2.198l2.276,2.57l2.277,2.911l2.276,3.205l2.277,3.459l2.276,3.67l2.283,3.819l2.277,3.924l4.553,7.953l2.276,3.912l2.283,3.8l2.277,3.636l2.276,3.421l2.277,3.159l2.276,2.851l2.277,2.512l2.282,2.132l2.277,1.726l2.276,1.295l2.277,0.844l1.138,0.255l1.139,0.131l2.276,-0.078l1.144,-0.216l1.139,-0.327l2.276,-1.001l2.277,-1.445l2.276,-1.871l2.277,-2.269l2.277,-2.63l2.282,-2.962l2.277,-3.258l2.276,-3.499l2.277,-3.701l2.276,-3.84l2.277,-3.943l2.283,-3.977l2.276,-3.963l2.277,-3.899m-0,-0l2.276,-3.773l2.277,-3.604l2.282,-3.375l2.277,-3.113l2.277,-2.793l2.276,-2.452l2.277,-2.061l2.276,-1.654m-0,-0l2.283,-1.217l2.276,-0.765l1.139,-0.209l1.138,-0.092l2.276,0.164m-0,-0l2.277,0.621l2.277,1.079m-0,-0l2.282,1.524m-0,-0l1.417,1.164" style="fill:none;fill-rule:nonzero;stroke:#006400;stroke-opacity:0.7;stroke-width:1.58px;stroke-miterlimit:10;"/></g></g></g></g><g id="OUT"><g><clipPath id="_clip4"><rect x="436.011" y="17.08" width="160.349" height="92.957"/></clipPath><g clip-path="url(#_clip4)"><g><g><clipPath id="_clip5"><rect x="436.011" y="17.08" width="213.496" height="92.957"/></clipPath><g clip-path="url(#_clip5)"><path d="M436.011,115.695l-0,-144.239" style="fill:none;fill-rule:nonzero;stroke:#a0a0a0;stroke-width:0.24px;stroke-miterlimit:10;"/><path d="M446.681,115.695l0,-144.239" style="fill:none;fill-rule:nonzero;stroke:#a0a0a0;stroke-width:0.24px;stroke-miterlimit:10;"/><path d="M468.033,115.695l-0,-144.239" style="fill:none;fill-rule:nonzero;stroke:#a0a0a0;stroke-width:0.24px;stroke-miterlimit:10;"/><path d="M489.38,115.695l0,-144.239" style="fill:none;fill-rule:nonzero;stroke:#a0a0a0;stroke-width:0.24px;stroke-miterlimit:10;"/><path d="M510.733,115.695l-0,-144.239" style="fill:none;fill-rule:nonzero;stroke:#a0a0a0;stroke-width:0.24px;stroke-miterlimit:10;"/><path d="M532.085,115.695l-0,-144.239" style="fill:none;fill-rule:nonzero;stroke:#a0a0a0;stroke-width:0.24px;stroke-miterlimit:10;"/><path d="M553.432,115.695l0,-144.239" style="fill:none;fill-rule:nonzero;stroke:#a0a0a0;stroke-width:0.24px;stroke-miterlimit:10;"/><path d="M574.785,115.695l0,-144.239" style="fill:none;fill-rule:nonzero;stroke:#a0a0a0;stroke-width:0.24px;stroke-miterlimit:10;"/><path d="M596.131,115.695l0,-144.239" style="fill:none;fill-rule:nonzero;stroke:#a0a0a0;stroke-width:0.24px;stroke-miterlimit:10;"/></g></g></g><g><path d="M436.011,61.292l1.885,4.905m-0,-0l2.393,6.491m-0,-0l1.193,3.345l1.193,3.398l1.194,3.437l1.193,3.464l1.193,3.483l0.299,0.866l0.895,-1.857l1.193,-3.477l1.193,-3.464l1.194,-3.424l1.193,-3.384l2.393,-6.591l2.387,-6.286l2.386,-5.883m-0,-0l2.387,-5.414l2.386,-4.859l2.393,-4.243l2.387,-3.57l2.387,-2.849l2.386,-2.082l1.194,-0.747l1.193,-0.542l1.193,-0.344l1.194,-0.139l1.193,0.066l1.2,0.265l1.193,0.476l1.193,0.674l2.387,1.937l2.386,2.71l2.387,3.437l2.387,4.125l2.393,4.753l2.386,5.321l2.387,5.804l2.387,6.214l2.386,6.544l1.194,3.364l1.193,3.418l1.2,3.444l1.193,3.47l1.193,3.49l0.146,-0.39l0.153,-0.436l0.298,-0.872l1.79,-5.216l1.193,-3.444l1.193,-3.417l1.194,-3.365l2.386,-6.544l2.387,-6.22l2.393,-5.804l2.387,-5.321l2.386,-4.76l2.387,-4.131l2.387,-3.444l2.386,-2.71l2.393,-1.95l1.194,-0.675l1.193,-0.476l1.193,-0.271l1.193,-0.066l1.194,0.139l1.193,0.337l1.193,0.542l1.194,0.747l2.393,2.076l2.386,2.836l2.387,3.569l2.387,4.237l2.386,4.859l2.387,5.407l2.393,5.883l2.387,6.28l2.386,6.59l1.193,3.385l1.194,3.424l1.193,3.457l1.193,3.477l0.597,1.745l0.152,0.436l0.445,-1.09l1.193,-3.484l1.2,-3.464l1.193,-3.437l1.193,-3.398l1.194,-3.344l2.386,-6.498l2.387,-6.154l2.387,-5.725l2.386,-5.229l2.393,-4.653l2.387,-4.013l2.386,-3.318l2.387,-2.585l1.193,-0.998l1.194,-0.806l1.193,-0.608l1.193,-0.404l1.2,-0.198l1.193,0.007l1.194,0.205l1.193,0.409l1.193,0.615l1.194,0.813m0,-0l2.386,2.215l2.387,2.968l2.393,3.688l2.387,4.35l2.386,4.964l2.387,5.493l2.386,5.963l2.387,6.339m0,-0l1.193,3.285l1.2,3.352l1.193,3.397l1.194,3.438l1.193,3.47l1.193,3.477l0.299,0.872l0.298,-0.489l1.79,-5.215m0,-0l1.193,-3.457l1.194,-3.424l1.193,-3.385l1.193,-3.325m0,-0l2.393,-6.438m0,-0l1.486,-3.841" style="fill:none;fill-rule:nonzero;stroke:#f00;stroke-opacity:0.7;stroke-width:0.65px;stroke-linecap:butt;stroke-miterlimit:10;stroke-dasharray:6.6,5.87;"/><path d="M436.011,31.526l1.885,0.251m-0,-0l2.393,1.051m-0,-0l2.386,1.851l2.387,2.618l2.387,3.358l2.386,4.045l2.387,4.687l2.393,5.255l2.387,5.751l2.386,6.174m-0,-0l2.387,6.505l1.193,3.351l1.193,3.404l1.194,3.444l1.199,3.464l1.194,3.484l0.298,0.806l0.146,-0.43l0.152,-0.436l0.597,-1.745l1.193,-3.477l1.194,-3.457l1.193,-3.418l1.193,-3.377l2.387,-6.578l2.387,-6.266l2.393,-5.857l2.386,-5.381l2.387,-4.825l2.386,-4.211l2.387,-3.523l2.387,-2.803l2.393,-2.036l1.193,-0.727l1.193,-0.522l1.194,-0.317l1.193,-0.113l1.193,0.086l1.194,0.291l1.193,0.496l1.193,0.7l2.387,1.984l2.393,2.749l2.387,3.484l2.386,4.164l2.387,4.786l2.386,5.348l2.387,5.83l2.393,6.24l2.387,6.558l1.193,3.371l1.193,3.417l1.194,3.451l1.193,3.477l1.193,2.717l0.153,-0.436l0.146,-0.437l0.298,-0.866l0.597,-1.745l1.193,-3.47l1.193,-3.444l1.2,-3.411l1.193,-3.358l2.387,-6.524l2.386,-6.201l2.387,-5.784l2.387,-5.288l2.393,-4.72l2.386,-4.091l2.387,-3.405l2.387,-2.67l2.386,-1.897l1.194,-0.655l1.193,-0.449l1.193,-0.252l1.2,-0.039l1.193,0.158l1.194,0.364l1.193,0.569l1.193,0.766l2.387,2.122l2.386,2.882l2.387,3.603l2.393,4.277l2.387,4.891l2.386,5.441l2.387,5.909l2.387,6.3l2.386,6.603l1.2,3.391l1.193,3.431l1.194,3.464l1.193,3.477l0.597,1.745l0.298,-0.602l0.298,-0.872l1.193,-3.477l1.194,-3.464l1.193,-3.437l1.193,-3.391l1.194,-3.338l2.386,-6.478l2.393,-6.128l2.387,-5.705l2.387,-5.196m-0,-0l2.386,-4.613l2.387,-3.973l2.393,-3.279l2.387,-2.538l1.193,-0.979l1.193,-0.78l1.193,-0.581l1.194,-0.384l1.193,-0.172l1.193,0.027l1.194,0.231l1.193,0.437m-0,-0l2.393,1.467l1.193,1.038l1.194,1.223l2.386,3.014l2.387,3.728m-0,-0l2.387,4.389l2.386,4.991m-0,-0l2.393,5.526m-0,-0l1.486,3.682" style="fill:none;fill-rule:nonzero;stroke:#00f;stroke-opacity:0.7;stroke-width:0.65px;stroke-linecap:butt;stroke-miterlimit:10;stroke-dasharray:6.6,5.87;"/><path d="M436.011,61.292l1.885,-4.647m-0,-0l2.393,-5.44m-0,-0l2.386,-4.898l2.387,-4.277l2.387,-3.616l2.386,-2.889l2.387,-2.128l1.2,-0.767l1.193,-0.568l1.193,-0.364l1.194,-0.165l1.193,0.039l1.193,0.245m-0,-0l2.387,1.097l0.596,0.404l0.597,0.449l1.193,1.045l2.393,2.663l2.387,3.398l2.387,4.085l2.386,4.72l2.387,5.282l2.387,5.784l2.393,6.193l2.386,6.525l1.194,3.358l1.193,3.411l1.193,3.444l1.193,3.47l1.194,3.484l0.152,0.429l0.146,-0.436l0.895,-2.618l1.193,-3.47l1.194,-3.451l1.193,-3.424l1.2,-3.371l2.386,-6.557l2.387,-6.24l2.387,-5.837l2.386,-5.348l2.387,-4.792l2.393,-4.172l2.387,-3.483l2.386,-2.763l2.387,-1.99l1.193,-0.701l1.193,-0.495l1.194,-0.298l1.193,-0.086l1.2,0.113l1.193,0.31l1.193,0.522l1.194,0.721l2.386,2.029l2.387,2.796l2.387,3.524l2.386,4.204l2.393,4.819l2.387,5.381l2.386,5.856l2.387,6.26l2.387,6.577l1.193,3.372l1.2,3.424l1.193,3.457l1.79,5.215l0.298,0.873l0.299,-0.707l1.193,-3.484l1.193,-3.47l1.194,-3.444l1.193,-3.398l1.193,-3.358l2.387,-6.511l2.393,-6.174l2.387,-5.758l2.386,-5.255l2.387,-4.686l2.386,-4.053l2.387,-3.364l2.393,-2.624l2.387,-1.851l1.193,-0.628l1.193,-0.43l1.194,-0.225l1.193,-0.02l1.193,0.186l1.194,0.39l1.193,0.588l1.193,0.786l2.393,2.169l2.387,2.928l2.386,3.649l2.387,4.31l2.387,4.924l2.386,5.467l2.393,5.936l2.387,6.319l1.193,3.279l1.194,3.345m-0,-0l1.193,3.391l1.193,3.437l1.194,3.464l1.193,3.484l0.597,1.196l0.152,-0.436l0.146,-0.436l0.298,-0.866l1.2,-3.484l1.193,-3.457l1.194,-3.431l1.193,-3.384l1.193,-3.338l2.387,-6.459l2.386,-6.108l2.387,-5.671m-0,-0l2.393,-5.163l2.387,-4.581l2.386,-3.933l2.387,-3.239m-0,-0l2.387,-2.492l1.193,-0.952l1.193,-0.76m-0,-0l2.393,-0.912m-0,-0l1.486,-0.159" style="fill:none;fill-rule:nonzero;stroke:#006400;stroke-opacity:0.7;stroke-width:0.65px;stroke-linecap:butt;stroke-miterlimit:10;stroke-dasharray:6.6,5.87;"/></g><path d="M436.011,31.526l1.885,0.251m-0,-0l2.393,1.051m-0,-0l2.386,1.851l2.387,2.618l1.193,1.593l0.299,0.423l0.895,-0.899l2.386,-2.889l2.387,-2.128l1.2,-0.767l1.193,-0.568l1.193,-0.364l1.194,-0.165l1.193,0.039l1.193,0.245m-0,-0l2.387,1.097l0.596,0.404l0.597,0.449l1.193,1.045l2.393,2.663l1.194,1.607l0.298,0.403l0.298,-0.43l0.597,-0.826l2.387,-2.849l2.386,-2.082l1.194,-0.747l1.193,-0.542l1.193,-0.344l1.194,-0.139l1.193,0.066l1.2,0.265l1.193,0.476l1.193,0.674l2.387,1.937l2.386,2.71l1.194,1.633l0.596,-0.43l0.597,-0.813l2.387,-2.803l2.393,-2.036l1.193,-0.727l1.193,-0.522l1.194,-0.317l1.193,-0.113l1.193,0.086l1.194,0.291l1.193,0.496l1.193,0.7l2.387,1.984l2.393,2.749l1.193,1.653l0.299,-0.403l0.298,-0.423l0.597,-0.8l2.386,-2.763l2.387,-1.99l1.193,-0.701l1.193,-0.495l1.194,-0.298l1.193,-0.086l1.2,0.113l1.193,0.31l1.193,0.522l1.194,0.721l2.386,2.029l2.387,2.796l1.193,1.289l0.299,-0.423l0.298,-0.416l0.597,-0.793l2.386,-2.71l2.393,-1.95l1.194,-0.675l1.193,-0.476l1.193,-0.271l1.193,-0.066l1.194,0.139l1.193,0.337l1.193,0.542l1.194,0.747l2.393,2.076l2.386,2.836l0.597,0.826l0.298,0.43l0.299,-0.351l1.193,-1.613l2.387,-2.67l2.386,-1.897l1.194,-0.655l1.193,-0.449l1.193,-0.252l1.2,-0.039l1.193,0.158l1.194,0.364l1.193,0.569l1.193,0.766l2.387,2.122l2.386,2.882l0.597,0.833l0.597,-0.317l1.193,-1.593l2.393,-2.624l2.387,-1.851l1.193,-0.628l1.193,-0.43l1.194,-0.225l1.193,-0.02l1.193,0.186l1.194,0.39l1.193,0.588l1.193,0.786l2.393,2.169l2.387,2.928l0.597,0.846l0.596,-0.72l1.193,-1.567l2.387,-2.585l1.193,-0.998l1.194,-0.806l1.193,-0.608l1.193,-0.404l1.2,-0.198l1.193,0.007l1.194,0.205l1.193,0.409l1.193,0.615l1.194,0.813m-0,-0l2.386,2.215l2.387,2.968l0.597,0.588l0.298,-0.43l0.298,-0.416l1.2,-1.547l2.387,-2.538l1.193,-0.979l1.193,-0.78l1.193,-0.581l1.194,-0.384l1.193,-0.172l1.193,0.027l1.194,0.231l1.193,0.437m-0,-0l2.393,1.467l1.193,1.038l1.194,1.223l2.386,3.014l0.299,0.43l0.895,-1.078l1.193,-1.527m-0,-0l2.387,-2.492l1.193,-0.952l1.193,-0.76m-0,-0l2.393,-0.912m-0,-0l1.486,-0.159" style="fill:none;fill-rule:nonzero;stroke:#000;stroke-opacity:0.7;stroke-width:1.62px;stroke-miterlimit:10;"/><g id="axes1" serif:id="axes"><path d="M436.011,91.058l1.885,-0m-0,-0l2.393,-0m-0,-0l19.099,-0m-0,-0l152.815,-0m-0,-0l19.099,-0m-0,-0l9.553,-0m-0,-0l4.773,-0m-0,-0l2.393,-0m-0,-0l1.486,-0" style="fill:none;fill-rule:nonzero;stroke:#202020;stroke-opacity:0.7;stroke-width:1.62px;stroke-miterlimit:10;"/></g></g></g></g><g><text x="31.928px" y="158.811px" style="font-family:'HelveticaNeue-Medium', 'Helvetica Neue', sans-serif;font-weight:500;font-size:12px;">Input: 3-Phase AC</text><g transform="matrix(12,0,0,12,573.016,159.015)"></g><text x="450.544px" y="159.015px" style="font-family:'HelveticaNeue-Medium', 'Helvetica Neue', sans-serif;font-weight:500;font-size:12px;">Output: Dir<tspan x="511px 517.672px " y="159.015px 159.015px ">ec</tspan>t Curr<tspan x="555.46px 562.132px " y="159.015px 159.015px ">en</tspan>t</text><text x="252.662px" y="158.811px" style="font-family:'HelveticaNeue-Medium', 'Helvetica Neue', sans-serif;font-weight:500;font-size:12px;">Rotating Diodes</text></g></g></g></svg>