<?xml version="1.0" encoding="UTF-8" standalone="no"?><!DOCTYPE svg PUBLIC "-//W3C//DTD SVG 1.1//EN" "http://www.w3.org/Graphics/SVG/1.1/DTD/svg11.dtd"><svg width="100%" height="100%" viewBox="0 0 600 312" version="1.1" xmlns="http://www.w3.org/2000/svg" xmlns:xlink="http://www.w3.org/1999/xlink" xml:space="preserve" xmlns:serif="http://www.serif.com/" style="fill-rule:evenodd;clip-rule:evenodd;stroke-linecap:square;stroke-linejoin:round;stroke-miterlimit:10;"><rect id="AVR_block_diagram" x="0" y="0" width="600" height="311.76" style="fill:none;"/><clipPath id="_clip1"><rect id="AVR_block_diagram1" serif:id="AVR_block_diagram" x="0" y="0" width="600" height="311.76"/></clipPath><g clip-path="url(#_clip1)"><rect id="AVR_block_diagram2" serif:id="AVR_block_diagram" x="0.239" y="0.122" width="600" height="339.12" style="fill:none;"/><g id="AVR_block_diagram3" serif:id="AVR_block_diagram"><g><rect x="189.864" y="200.442" width="100" height="100" style="fill:none;stroke:#000;stroke-width:2px;"/><rect x="389.864" y="200.442" width="100" height="100" style="fill:none;stroke:#000;stroke-width:2px;"/><rect x="239.624" y="14.522" width="150" height="150" style="fill:none;"/><g><g><text x="291.632px" y="84.746px" style="font-family:'HelveticaNeue', 'Helvetica Neue';font-size:16px;">Digital</text><text x="291.928px" y="100.746px" style="font-family:'HelveticaNeue', 'Helvetica Neue';font-size:16px;">Signal</text><g><text x="277.856px" y="116.746px" style="font-family:'HelveticaNeue', 'Helvetica Neue';font-size:16px;">Pr</text><text x="293.264px" y="116.746px" style="font-family:'HelveticaNeue', 'Helvetica Neue';font-size:16px;">ocessor</text></g></g></g><rect x="239.624" y="14.522" width="150" height="150" style="fill:none;stroke:#000;stroke-width:2px;"/><g><path d="M147.316,64.19l85.524,0.31" style="fill:none;fill-rule:nonzero;stroke:#000;stroke-width:1px;stroke-linecap:round;"/><path d="M237.724,64.512l-4.879,-2.012l-0.009,4l4.888,-1.988Z" style="fill-rule:nonzero;stroke:#000;stroke-width:1px;stroke-linecap:butt;stroke-linejoin:miter;"/></g><g><path d="M147.316,39.19l85.524,-0.31" style="fill:none;fill-rule:nonzero;stroke:#000;stroke-width:1px;stroke-linecap:round;"/><path d="M237.724,38.868l-4.888,-1.988l0.009,4l4.879,-2.012Z" style="fill-rule:nonzero;stroke:#000;stroke-width:1px;stroke-linecap:butt;stroke-linejoin:miter;"/></g><g><path d="M153.36,139.212l79.48,0.288" style="fill:none;fill-rule:nonzero;stroke:#000;stroke-width:1px;stroke-linecap:round;"/><path d="M237.724,139.512l-4.879,-2.012l-0.009,4l4.888,-1.988Z" style="fill-rule:nonzero;stroke:#000;stroke-width:1px;stroke-linecap:butt;stroke-linejoin:miter;"/><path d="M148.476,139.2l4.879,2.012l0.009,-4l-4.888,1.988Z" style="fill-rule:nonzero;stroke:#000;stroke-width:1px;stroke-linecap:butt;stroke-linejoin:miter;"/></g><g><path d="M153.36,114.992l79.48,0.288" style="fill:none;fill-rule:nonzero;stroke:#000;stroke-width:1px;stroke-linecap:round;"/><path d="M237.724,115.292l-4.879,-2.012l-0.009,4l4.888,-1.988Z" style="fill-rule:nonzero;stroke:#000;stroke-width:1px;stroke-linecap:butt;stroke-linejoin:miter;"/><path d="M148.476,114.98l4.879,2.012l0.009,-4l-4.888,1.988Z" style="fill-rule:nonzero;stroke:#000;stroke-width:1px;stroke-linecap:butt;stroke-linejoin:miter;"/></g><g><g><g transform="matrix(1,0,0,0.996684,0,0.474335)"><text x="80.521px" y="143.044px" style="font-family:'HelveticaNeue', 'Helvetica Neue';font-size:14px;">Network</text></g></g><g><g transform="matrix(1,0,0,0.996684,0,0.392618)"><text x="48.973px" y="118.401px" style="font-family:'HelveticaNeue', 'Helvetica Neue';font-size:14px;">User Interface</text></g></g><g><g><g transform="matrix(1,0,0,0.996684,0,0.225173)"><text x="23.815px" y="67.905px" style="font-family:'HelveticaNeue', 'Helvetica Neue';font-size:14px;">Generator V</text></g><g transform="matrix(1,0,0,0.996684,0,0.225173)"><text x="98.225px" y="67.905px" style="font-family:'HelveticaNeue', 'Helvetica Neue';font-size:14px;">oltage</text></g></g></g><g><g><g transform="matrix(1,0,0,0.996684,0,0.142548)"><text x="23.637px" y="42.988px" style="font-family:'HelveticaNeue', 'Helvetica Neue';font-size:14px;">Generator Curr</text></g><g transform="matrix(1,0,0,0.996684,0,0.142548)"><text x="117.227px" y="42.988px" style="font-family:'HelveticaNeue', 'Helvetica Neue';font-size:14px;">ent</text></g></g></g></g></g><g><path d="M102.364,250.442l71.6,-0" style="fill:none;fill-rule:nonzero;stroke:#3d3d3d;stroke-width:3px;stroke-linejoin:miter;"/><path d="M185.164,250.442l-11.2,-4.2l-0,8.4l11.2,-4.2Z" style="fill:#3d3d3d;fill-rule:nonzero;stroke:#3d3d3d;stroke-width:3px;stroke-linecap:butt;stroke-linejoin:miter;"/></g><g><path d="M289.864,250.442l84.1,-0" style="fill:none;fill-rule:nonzero;stroke:#3d3d3d;stroke-width:3px;stroke-linejoin:miter;"/><path d="M385.164,250.442l-11.2,-4.2l-0,8.4l11.2,-4.2Z" style="fill:#3d3d3d;fill-rule:nonzero;stroke:#3d3d3d;stroke-width:3px;stroke-linecap:butt;stroke-linejoin:miter;"/></g><g><path d="M489.864,250.442l84.1,-0.558" style="fill:none;fill-rule:nonzero;stroke:#3d3d3d;stroke-width:3px;stroke-linejoin:miter;"/><path d="M585.164,249.809l-11.227,-4.125l0.055,8.399l11.172,-4.274Z" style="fill:#3d3d3d;fill-rule:nonzero;stroke:#3d3d3d;stroke-width:3px;stroke-linecap:butt;stroke-linejoin:miter;"/></g><g><path d="M389.864,206.362l-75.24,-0l-0,-41.84" style="fill:none;fill-rule:nonzero;stroke:#000;stroke-width:1px;stroke-linecap:round;"/><path d="M389.549,206.374l-6.416,-2.012l-0.011,4l6.427,-1.988Z" style="fill-rule:nonzero;stroke:#000;stroke-width:1px;stroke-linecap:butt;stroke-linejoin:miter;"/></g><text x="210.392px" y="256.218px" style="font-family:'HelveticaNeue', 'Helvetica Neue';font-size:16px;">Rectiï¬er</text><g><text x="416.614px" y="246.842px" style="font-family:'HelveticaNeue', 'Helvetica Neue';font-size:16px;">Power</text><text x="412.59px" y="265.29px" style="font-family:'HelveticaNeue', 'Helvetica Neue';font-size:16px;">Module</text></g><g><text x="506.664px" y="271.913px" style="font-family:'HelveticaNeue', 'Helvetica Neue';font-size:14px;">Regulated</text><g><text x="503.29px" y="283.913px" style="font-family:'HelveticaNeue', 'Helvetica Neue';font-size:14px;">DC Curr</text><text x="554.11px" y="283.913px" style="font-family:'HelveticaNeue', 'Helvetica Neue';font-size:14px;">ent</text></g></g><g><text x="81.571px" y="276.758px" style="font-family:'HelveticaNeue', 'Helvetica Neue';font-size:14px;">Thr</text><text x="101.801px" y="276.758px" style="font-family:'HelveticaNeue', 'Helvetica Neue';font-size:14px;">ee-phase AC</text></g><path d="M401.374,21.565l-11.63,3.877l11.63,3.877l-0,-7.754Z" style="fill-rule:nonzero;"/><path d="M399.048,25.442l140.816,-0l-1.08,221.675" style="fill:none;fill-rule:nonzero;stroke:#000;stroke-width:1px;stroke-linecap:round;"/><path d="M536.73,247.986c1.177,-1.166 3.077,-1.158 4.243,0.019c1.166,1.177 1.158,3.077 -0.019,4.243c-1.177,1.166 -3.077,1.157 -4.243,-0.02c-1.166,-1.176 -1.158,-3.076 0.019,-4.242" style="fill-rule:nonzero;stroke:#000;stroke-width:1px;stroke-linecap:butt;stroke-linejoin:miter;"/><text x="317.496px" y="196.676px" style="font-family:'HelveticaNeue', 'Helvetica Neue';font-size:14px;">Command</text><text x="331.308px" y="278.032px" style="font-family:'HelveticaNeue', 'Helvetica Neue';font-size:14px;">DC</text></g></g></svg>