<?xml version="1.0" encoding="UTF-8" standalone="no"?><!DOCTYPE svg PUBLIC "-//W3C//DTD SVG 1.1//EN" "http://www.w3.org/Graphics/SVG/1.1/DTD/svg11.dtd"><svg width="100%" height="100%" viewBox="0 0 600 340" version="1.1" xmlns="http://www.w3.org/2000/svg" xmlns:xlink="http://www.w3.org/1999/xlink" xml:space="preserve" xmlns:serif="http://www.serif.com/" style="fill-rule:evenodd;clip-rule:evenodd;stroke-linecap:square;stroke-linejoin:round;stroke-miterlimit:10;"><rect id="AVR_block_diagram" x="-0" y="0" width="600" height="339.12" style="fill:none;"/><g id="AVR_block_diagram1" serif:id="AVR_block_diagram"><g><rect x="189.625" y="200.32" width="100" height="100" style="fill:none;stroke:#000;stroke-width:2px;"/><rect x="389.625" y="200.32" width="100" height="100" style="fill:none;stroke:#000;stroke-width:2px;"/><rect x="239.385" y="14.4" width="150" height="150" style="fill:none;"/><g><g transform="matrix(1,0,0,1,-32.7909,-6.376)"><text x="324.184px" y="91px" style="font-family:'HelveticaNeue', 'Helvetica Neue';font-size:16px;">Digital</text><text x="324.48px" y="107px" style="font-family:'HelveticaNeue', 'Helvetica Neue';font-size:16px;">Signal</text><text x="310.408px" y="123px" style="font-family:'HelveticaNeue', 'Helvetica Neue';font-size:16px;">Pr<tspan x="325.816px 335px " y="123px 123px ">oc</tspan>essor</text></g></g><rect x="239.385" y="14.4" width="150" height="150" style="fill:none;stroke:#000;stroke-width:2px;"/><g><path d="M147.077,64.068l85.524,0.31" style="fill:none;fill-rule:nonzero;stroke:#000;stroke-width:1px;stroke-linecap:round;"/><path d="M237.485,64.39l-4.879,-2.012l-0.009,4l4.888,-1.988Z" style="fill-rule:nonzero;stroke:#000;stroke-width:1px;stroke-linecap:butt;stroke-linejoin:miter;"/></g><g><path d="M147.077,39.068l85.524,-0.31" style="fill:none;fill-rule:nonzero;stroke:#000;stroke-width:1px;stroke-linecap:round;"/><path d="M237.485,38.746l-4.888,-1.988l0.009,4l4.879,-2.012Z" style="fill-rule:nonzero;stroke:#000;stroke-width:1px;stroke-linecap:butt;stroke-linejoin:miter;"/></g><g><path d="M153.121,139.09l79.48,0.288" style="fill:none;fill-rule:nonzero;stroke:#000;stroke-width:1px;stroke-linecap:round;"/><path d="M237.485,139.39l-4.879,-2.012l-0.009,4l4.888,-1.988Z" style="fill-rule:nonzero;stroke:#000;stroke-width:1px;stroke-linecap:butt;stroke-linejoin:miter;"/><path d="M148.237,139.078l4.879,2.012l0.009,-4l-4.888,1.988Z" style="fill-rule:nonzero;stroke:#000;stroke-width:1px;stroke-linecap:butt;stroke-linejoin:miter;"/></g><g><path d="M153.121,114.87l79.48,0.288" style="fill:none;fill-rule:nonzero;stroke:#000;stroke-width:1px;stroke-linecap:round;"/><path d="M237.485,115.17l-4.879,-2.012l-0.009,4l4.888,-1.988Z" style="fill-rule:nonzero;stroke:#000;stroke-width:1px;stroke-linecap:butt;stroke-linejoin:miter;"/><path d="M148.237,114.858l4.879,2.012l0.009,-4l-4.888,1.988Z" style="fill-rule:nonzero;stroke:#000;stroke-width:1px;stroke-linecap:butt;stroke-linejoin:miter;"/></g><g><g transform="matrix(1,0,0,0.996684,0,0.0459376)"><text x="80.282px" y="143.352px" style="font-family:'HelveticaNeue', 'Helvetica Neue';font-size:14px;">Network</text></g><g transform="matrix(1,0,0,0.996684,0,0.0446496)"><text x="48.734px" y="118.628px" style="font-family:'HelveticaNeue', 'Helvetica Neue';font-size:14px;">User Interface</text></g><g transform="matrix(1,0,0,0.996684,0,0.0446496)"><text x="23.576px" y="67.964px" style="font-family:'HelveticaNeue', 'Helvetica Neue';font-size:14px;">Generator V<tspan x="97.986px 106.022px " y="67.964px 67.964px ">ol</tspan>tage</text></g><g transform="matrix(1,0,0,0.996684,0,0.0446496)"><text x="23.398px" y="42.964px" style="font-family:'HelveticaNeue', 'Helvetica Neue';font-size:14px;">Generator Curr<tspan x="116.988px 124.506px " y="42.964px 42.964px ">en</tspan>t</text></g></g></g><g><path d="M102.125,250.32l71.6,-0" style="fill:none;fill-rule:nonzero;stroke:#3d3d3d;stroke-width:3px;stroke-linejoin:miter;"/><path d="M184.925,250.32l-11.2,-4.2l0,8.4l11.2,-4.2Z" style="fill:#3d3d3d;fill-rule:nonzero;stroke:#3d3d3d;stroke-width:3px;stroke-linecap:butt;stroke-linejoin:miter;"/></g><g><path d="M289.625,250.32l84.1,-0" style="fill:none;fill-rule:nonzero;stroke:#3d3d3d;stroke-width:3px;stroke-linejoin:miter;"/><path d="M384.925,250.32l-11.2,-4.2l0,8.4l11.2,-4.2Z" style="fill:#3d3d3d;fill-rule:nonzero;stroke:#3d3d3d;stroke-width:3px;stroke-linecap:butt;stroke-linejoin:miter;"/></g><g><path d="M489.625,250.32l84.1,-0.558" style="fill:none;fill-rule:nonzero;stroke:#3d3d3d;stroke-width:3px;stroke-linejoin:miter;"/><path d="M584.925,249.687l-11.227,-4.125l0.055,8.399l11.172,-4.274Z" style="fill:#3d3d3d;fill-rule:nonzero;stroke:#3d3d3d;stroke-width:3px;stroke-linecap:butt;stroke-linejoin:miter;"/></g><g><path d="M389.625,206.24l-75.24,-0l0,-41.84" style="fill:none;fill-rule:nonzero;stroke:#000;stroke-width:1px;stroke-linecap:round;"/><path d="M389.31,206.252l-6.416,-2.012l-0.011,4l6.427,-1.988Z" style="fill-rule:nonzero;stroke:#000;stroke-width:1px;stroke-linecap:butt;stroke-linejoin:miter;"/></g><g transform="matrix(16,0,0,16,246.889,256.096)"></g><g transform="matrix(16,0,0,16,251.625,256.096)"></g><g transform="matrix(16,0,0,16,269.097,256.096)"></g><text x="210.153px" y="256.096px" style="font-family:'HelveticaNeue', 'Helvetica Neue';font-size:16px;">Rectiﬁer</text><g><text x="416.375px" y="246.72px" style="font-family:'HelveticaNeue', 'Helvetica Neue';font-size:16px;">Power</text><text x="412.351px" y="265.168px" style="font-family:'HelveticaNeue', 'Helvetica Neue';font-size:16px;">Module</text></g><g transform="matrix(1,0,0,1,-47.532,-57.709)"><text x="553.957px" y="329.5px" style="font-family:'HelveticaNeue', 'Helvetica Neue';font-size:14px;">Regulated</text><text x="550.583px" y="341.5px" style="font-family:'HelveticaNeue', 'Helvetica Neue';font-size:14px;">DC Curr<tspan x="601.403px 608.921px " y="341.5px 341.5px ">en</tspan>t</text></g><text x="81.332px" y="276.636px" style="font-family:'HelveticaNeue', 'Helvetica Neue';font-size:14px;">Thr<tspan x="101.562px 109.08px " y="276.636px 276.636px ">ee</tspan>-phase AC</text><path d="M401.135,21.443l-11.63,3.877l11.63,3.877l0,-7.754Z" style="fill-rule:nonzero;"/><path d="M398.809,25.32l140.816,0l-1.08,221.675" style="fill:none;fill-rule:nonzero;stroke:#000;stroke-width:1px;stroke-linecap:round;"/><path d="M536.491,247.864c1.177,-1.166 3.077,-1.158 4.243,0.019c1.166,1.177 1.158,3.077 -0.019,4.243c-1.177,1.166 -3.077,1.157 -4.243,-0.02c-1.166,-1.176 -1.158,-3.076 0.019,-4.242" style="fill-rule:nonzero;stroke:#000;stroke-width:1px;stroke-linecap:butt;stroke-linejoin:miter;"/><g transform="matrix(14,0,0,14,382.889,196.554)"></g><text x="317.257px" y="196.554px" style="font-family:'HelveticaNeue', 'Helvetica Neue';font-size:14px;">Command</text><text x="331.069px" y="277.91px" style="font-family:'HelveticaNeue', 'Helvetica Neue';font-size:14px;">DC</text></g></svg>