<?xml version="1.0" encoding="UTF-8" standalone="no"?><!DOCTYPE svg PUBLIC "-//W3C//DTD SVG 1.1//EN" "http://www.w3.org/Graphics/SVG/1.1/DTD/svg11.dtd"><svg width="100%" height="100%" viewBox="0 0 600 352" version="1.1" xmlns="http://www.w3.org/2000/svg" xmlns:xlink="http://www.w3.org/1999/xlink" xml:space="preserve" xmlns:serif="http://www.serif.com/" style="fill-rule:evenodd;clip-rule:evenodd;"><rect id="MV7000_topology" x="0" y="-0" width="600" height="351.754" style="fill:none;"/><g id="MV7000_topology1" serif:id="MV7000_topology"><g><rect x="11.414" y="5.302" width="573.248" height="270.184" style="fill:#4191d9;fill-opacity:0.5;stroke:#231f20;stroke-width:0.5px;"/><rect x="17.192" y="11.001" width="77.225" height="24.775" style="fill:#fff;stroke:#231f20;stroke-width:0.6px;"/><rect x="17.192" y="38.412" width="77.225" height="231.091" style="fill:#fff;stroke:#231f20;stroke-width:0.6px;"/><rect x="100.083" y="38.412" width="82.496" height="231.091" style="fill:#fff;stroke:#231f20;stroke-width:0.6px;"/><rect x="187.85" y="38.412" width="66.155" height="231.091" style="fill:#fff;stroke:#231f20;stroke-width:0.6px;"/><rect x="529.166" y="38.412" width="49.286" height="231.091" style="fill:#fff;stroke:#231f20;stroke-width:0.6px;"/><rect x="259.274" y="38.412" width="264.092" height="231.091" style="fill:#fff;stroke:#231f20;stroke-width:0.6px;"/><rect x="100.083" y="11.001" width="82.496" height="24.775" style="fill:#fff;stroke:#231f20;stroke-width:0.6px;"/><rect x="187.85" y="11.001" width="66.155" height="24.775" style="fill:#fff;stroke:#231f20;stroke-width:0.6px;"/><rect x="529.166" y="11.001" width="49.286" height="24.775" style="fill:#fff;stroke:#231f20;stroke-width:0.6px;"/><rect x="259.274" y="11.001" width="264.092" height="24.775" style="fill:#fff;stroke:#231f20;stroke-width:0.6px;"/></g><rect x="28.021" y="225.465" width="50.09" height="16.444" style="fill:#f3f0f0;"/><path d="M28.021,225.465l50.09,-0l0,16.444l-50.09,0l-0,-16.444Zm-5.268,-164.992l22.296,0l4.912,-5.29m0,5.668l66.885,0l0,4.912" style="fill:none;fill-rule:nonzero;stroke:#231f20;stroke-width:1px;"/><path d="M115.712,99.396l0,21.54m17.005,0.754l-21.917,0l0,175.715l-27.964,-0" style="fill:none;fill-rule:nonzero;stroke:#231f20;stroke-width:1px;"/><path d="M82.08,296.65c0,9.182 -7.443,16.627 -16.626,16.627c-9.182,-0 -16.627,-7.445 -16.627,-16.627c0,-9.183 7.445,-16.626 16.627,-16.626c9.183,0 16.626,7.443 16.626,16.626" style="fill:#fff;fill-rule:nonzero;"/><path d="M82.08,296.65c0,-9.176 -7.45,-16.626 -16.626,-16.626c-9.177,0 -16.627,7.45 -16.627,16.626c0,9.177 7.45,16.627 16.627,16.627c9.176,-0 16.626,-7.45 16.626,-16.627Z" style="fill:none;stroke:#231f20;stroke-width:1px;"/><path d="M82.08,329.527c0,9.181 -7.443,16.624 -16.626,16.624c-9.182,0 -16.627,-7.443 -16.627,-16.624c0,-9.184 7.445,-16.627 16.627,-16.627c9.183,0 16.626,7.443 16.626,16.627" style="fill:#fff;fill-rule:nonzero;"/><clipPath id="_clip1"><rect x="0" y="4.844" width="585.12" height="342.067" clip-rule="nonzero"/></clipPath><g clip-path="url(#_clip1)"><path d="M82.08,329.527c0,9.181 -7.443,16.624 -16.626,16.624c-9.182,0 -16.627,-7.443 -16.627,-16.624c0,-9.184 7.445,-16.627 16.627,-16.627c9.183,0 16.626,7.443 16.626,16.627Zm-15.492,-16.628c-0,9.181 -7.445,16.626 -16.627,16.626c-9.183,-0 -16.626,-7.445 -16.626,-16.626c0,-9.182 7.443,-16.627 16.626,-16.627c9.182,0 16.627,7.445 16.627,16.627Zm-66.129,-26.831l-0,50.259m-0.378,-22.672l11.714,-0l10.58,-10.581m0,10.581l10.96,-0m99.382,-126.59l-10.959,-0l0,143.216l-39.678,-0m11.716,-38.165l-4.914,10.58m10.393,-10.58l-4.914,10.58m10.393,-10.58l-4.912,10.58m-5.403,22.487l-4.914,10.58m10.393,-10.58l-4.912,10.58m10.391,-10.58l-4.912,10.58" style="fill:none;fill-rule:nonzero;stroke:#231f20;stroke-width:1px;"/></g><g><rect x="131.796" y="164.64" width="43.833" height="44.006" style="fill:#4191d9;fill-opacity:0.15;fill-rule:nonzero;stroke:#231f20;stroke-width:1px;stroke-dasharray:4,4,4,4,4,4;"/><g><path d="M153.924,182.346l5.739,8.107l-11.478,-0l5.739,-8.107Z" style="fill-rule:nonzero;stroke:#231f20;stroke-width:1px;"/><path d="M148.185,182.346l11.478,0" style="fill:none;stroke:#000;stroke-width:1px;stroke-linecap:round;stroke-linejoin:round;stroke-miterlimit:1.5;"/></g><path d="M153.713,172.555l-0,29.04" style="fill:none;stroke:#000;stroke-width:1px;stroke-linecap:round;stroke-linejoin:round;stroke-miterlimit:1.5;"/></g><g><rect x="131.796" y="99.36" width="43.833" height="44.006" style="fill:#4191d9;fill-opacity:0.15;fill-rule:nonzero;stroke:#231f20;stroke-width:1px;stroke-dasharray:4,4,4,4,4,4;"/><path d="M153.713,114.876l9.543,12.974l-19.087,-0l9.544,-12.974Z" style="fill-rule:nonzero;stroke:#231f20;stroke-width:1px;"/><path d="M145.313,114.389l16.8,0" style="fill:none;stroke:#000;stroke-width:1px;stroke-linecap:round;stroke-linejoin:round;stroke-miterlimit:1.5;"/><path d="M153.713,107.275l-0,29.04" style="fill:none;stroke:#000;stroke-width:1px;stroke-linecap:round;stroke-linejoin:round;stroke-miterlimit:1.5;"/></g><path d="M154.695,142.979l-0,22.443m0.175,43.655l0,55.23m0,-0l335.578,-0l-0,-17.213m-335.753,-148.647l-0,-54.177l335.753,-0l-0,15.604m-264.042,-15.604l0,49.267m0,5.962l0,103.97m0,5.784l0,55.054m-11.046,-170.77l21.917,-0m-21.917,5.611l21.917,0m-21.917,104.495l21.917,-0m-21.917,5.61l21.917,-0" style="fill:none;fill-rule:nonzero;stroke:#231f20;stroke-width:1px;"/><path d="M229.738,148.591c-0,1.84 -1.492,3.331 -3.332,3.331c-1.84,0 -3.331,-1.491 -3.331,-3.331c-0,-1.84 1.491,-3.332 3.331,-3.332c1.84,0 3.332,1.492 3.332,3.332" style="fill:#231f20;fill-rule:nonzero;"/><path d="M279.178,148.591c0,1.84 -1.489,3.331 -3.329,3.331c-1.84,0 -3.334,-1.491 -3.334,-3.331c0,-1.84 1.494,-3.332 3.334,-3.332c1.84,0 3.329,1.492 3.329,3.332" style="fill:#231f20;fill-rule:nonzero;"/><path d="M367.37,148.591c-0,1.84 -1.492,3.331 -3.332,3.331c-1.84,0 -3.331,-1.491 -3.331,-3.331c-0,-1.84 1.491,-3.332 3.331,-3.332c1.84,0 3.332,1.492 3.332,3.332" style="fill:#231f20;fill-rule:nonzero;"/><path d="M406.141,154.202c0,1.839 -1.491,3.332 -3.331,3.332c-1.841,-0 -3.334,-1.493 -3.334,-3.332c0,-1.842 1.493,-3.333 3.334,-3.333c1.84,0 3.331,1.491 3.331,3.333" style="fill:#231f20;fill-rule:nonzero;"/><path d="M317.58,159.461c0,1.84 -1.493,3.332 -3.331,3.332c-1.84,-0 -3.333,-1.492 -3.333,-3.332c-0,-1.84 1.493,-3.331 3.333,-3.331c1.838,-0 3.331,1.491 3.331,3.331" style="fill:#231f20;fill-rule:nonzero;"/><path d="M455.386,148.591c-0,1.84 -1.493,3.331 -3.333,3.331c-1.84,0 -3.332,-1.491 -3.332,-3.331c0,-1.84 1.492,-3.332 3.332,-3.332c1.84,0 3.333,1.492 3.333,3.332" style="fill:#231f20;fill-rule:nonzero;"/><path d="M493.956,148.591c0,1.84 -1.491,3.331 -3.331,3.331c-1.84,0 -3.333,-1.491 -3.333,-3.331c-0,-1.84 1.493,-3.332 3.333,-3.332c1.84,0 3.331,1.492 3.331,3.332" style="fill:#231f20;fill-rule:nonzero;"/><path d="M66.222,192.324c-0,6.007 -4.871,10.877 -10.879,10.877c-6.007,0 -10.878,-4.87 -10.878,-10.877c0,-6.008 4.871,-10.879 10.878,-10.879c6.008,-0 10.879,4.871 10.879,10.879" style="fill:#fff;fill-rule:nonzero;"/><path d="M66.222,192.324c-0,6.007 -4.871,10.877 -10.879,10.877c-6.007,0 -10.878,-4.87 -10.878,-10.877c0,-6.008 4.871,-10.879 10.878,-10.879c6.008,-0 10.879,4.871 10.879,10.879Zm-0,-0l22.767,-0" style="fill:none;fill-rule:nonzero;stroke:#231f20;stroke-width:1px;"/><path d="M71.847,208.766l17.142,0" style="fill:none;fill-rule:nonzero;stroke:#231f20;stroke-width:0.55px;"/><path d="M65.969,263.918l11.637,0m-49.585,0l11.637,0" style="fill:none;fill-rule:nonzero;stroke:#231f20;stroke-width:1px;"/><path d="M33.368,192.324l11.097,-0" style="fill:none;fill-rule:nonzero;stroke:#231f20;stroke-width:0.56px;"/><path d="M88.736,186.757l0,11.385m0,5.566l0,11.383m-16.442,-6.325l-0,16.951m-38.455,-33.393l-0,33.141m-0,15.937l-0,22.264m38.455,-22.264l-0,22.264" style="fill:none;fill-rule:nonzero;stroke:#231f20;stroke-width:1px;"/><path d="M33.839,225.465l37.695,16.442" style="fill:none;fill-rule:nonzero;stroke:#231f20;stroke-width:1px;stroke-dasharray:4,4,4,4,4,4;"/><path d="M34.168,241.294l38.282,-15.027" style="fill:none;fill-rule:nonzero;stroke:#231f20;stroke-width:1px;stroke-dasharray:4,4,4,4,4,4;"/><path d="M228.889,148.304l222.624,-0m-134.587,11.13l234.514,-0l-0,93.882" style="fill:none;fill-rule:nonzero;stroke:#231f20;stroke-width:1px;"/><clipPath id="_clip2"><rect x="0" y="4.844" width="585.12" height="342.067" clip-rule="nonzero"/></clipPath><g clip-path="url(#_clip2)"><path d="M405.681,154.108l150.832,-0l0,99.196m-63.211,-104.815l68.831,0l0,104.827m-16.846,-0.511l-0,5.852l21.994,0l-0,-5.353m-10.819,5.709l-0,43.099m-5.498,-15.963l11.528,-5.677m-11.528,11.264l11.528,-5.676m-11.528,11.262l11.528,-5.675m15.963,32.634c0,12.244 -9.927,22.171 -22.17,22.171c-12.244,-0 -22.169,-9.927 -22.169,-22.171c-0,-12.243 9.925,-22.169 22.169,-22.169c12.243,0 22.17,9.926 22.17,22.169Zm-175.944,-60.126l-0,-17.061m-88.326,16.884l0,-16.672" style="fill:none;fill-rule:nonzero;stroke:#231f20;stroke-width:1px;"/></g><rect x="22.679" y="88.034" width="66.148" height="24.903" style="fill:#fff;"/><path d="M22.679,88.034l66.148,-0l0,24.902l-66.148,0l0,-24.902Zm104.021,-11.886c-0,5.963 -4.835,10.796 -10.797,10.796c-5.962,0 -10.797,-4.833 -10.797,-10.796c0,-5.962 4.835,-10.797 10.797,-10.797c5.962,-0 10.797,4.835 10.797,10.797Zm-0,12.487c-0,5.964 -4.835,10.797 -10.797,10.797c-5.962,-0 -10.797,-4.833 -10.797,-10.797c0,-5.964 4.835,-10.797 10.797,-10.797c5.962,0 10.797,4.833 10.797,10.797Z" style="fill:none;fill-rule:nonzero;stroke:#231f20;stroke-width:1px;"/><path d="M218.644,50.659l-0,2.155l2.39,-0l-0,0.55l-2.39,-0l-0,2.173l-0.677,0l-0,-2.173l-2.392,-0l0,-0.55l2.392,-0l-0,-2.155l0.677,0" style="fill:#231f20;fill-rule:nonzero;"/><path d="M558.72,330.118c-0,0 2.178,-6.675 5.447,0c3.266,6.669 5.853,0 5.853,0" style="fill:none;fill-rule:nonzero;stroke:#231f20;stroke-width:0.53px;"/><path d="M51.243,200.332c0,0 2.266,-8.003 15.206,-8.003m-15.206,-8.003c0,0 2.266,8.003 15.206,8.003" style="fill:none;fill-rule:nonzero;stroke:#231f20;stroke-width:1px;"/><rect x="216.999" y="258.279" width="2.613" height="0.588" style="fill:#231f20;"/><g transform="matrix(1,0,0,0.866751,5.68434e-14,-42.6429)"><text x="33.752px" y="162.601px" style="font-family:'Helvetica';font-size:8.867px;fill:#231f20;">C<tspan x="39.058px 44.858px 50.164px 54.483px 59.789px 65.588px 69.097px 72.001px " y="162.601px 162.601px 162.601px 162.601px 162.601px 162.601px 162.601px 162.601px ">ONTROL &amp;</tspan></text></g><g transform="matrix(1,0,0,0.866751,5.68434e-14,-42.6429)"><text x="32.804px" y="173.242px" style="font-family:'Helvetica';font-size:8.867px;fill:#231f20;">A<tspan x="37.829px 43.344px 48.369px 49.944px 53.987px 55.561px 60.587px 66.102px 67.676px 72.702px " y="173.242px 173.242px 173.242px 173.242px 173.242px 173.242px 173.242px 173.242px 173.242px 173.242px ">UXILIARIES</tspan></text></g><g transform="matrix(1,0,0,0.866751,0,-42.6429)"><text x="35.289px" y="340.983px" style="font-family:'Helvetica';font-size:8.867px;fill:#231f20;">C<tspan x="40.787px 46.779px 52.771px 56.798px 58.356px 63.855px " y="340.983px 340.983px 340.983px 340.983px 340.983px 340.983px ">OOLING</tspan></text></g><g transform="matrix(1,0,0,0.866751,5.68434e-14,-42.6429)"><text x="39.669px" y="351.623px" style="font-family:'Helvetica';font-size:8.867px;fill:#231f20;">W<tspan x="46.519px 50.585px 54.807px 59.527px " y="351.623px 351.623px 351.623px 351.623px ">ATER</tspan></text></g><g transform="matrix(1,0,0,0.866757,0,-42.641)"><text x="128.392px" y="399.407px" style="font-family:'Helvetica';font-size:10.828px;fill:#231f20;">I<tspan x="130.423px 137.264px 143.508px 150.349px " y="399.407px 399.407px 399.407px 399.407px ">NPUT</tspan></text></g><g transform="matrix(1,0,0,0.866757,0,-42.641)"><text x="128.392px" y="412.4px" style="font-family:'Helvetica';font-size:10.828px;fill:#231f20;">T<tspan x="133.522px 139.858px 145.595px 151.931px 157.669px 162.798px 169.736px 176.072px 183.607px 189.345px " y="412.4px 412.4px 412.4px 412.4px 412.4px 412.4px 412.4px 412.4px 412.4px 412.4px ">RANSFORMER</tspan></text></g><g transform="matrix(1,0,0,0.910133,0,-31.2631)"><text x="257.372px" y="362.695px" style="font-family:'Helvetica';font-size:13.115px;fill:#231f20;">M<tspan x="267.067px 274.584px 280.647px 286.711px 292.774px 298.837px 301.25px 308.767px 314.831px 317.967px 319.65px 325.714px 331.041px 337.996px 344.546px 353.517px 361.034px 370.004px 376.068px 385.038px 394.009px " y="362.695px 362.695px 362.695px 362.695px 362.695px 362.695px 362.695px 362.695px 362.695px 362.695px 362.695px 362.695px 362.695px 362.695px 362.695px 362.695px 362.695px 362.695px 362.695px 362.695px 362.695px ">V7000 Series TOPOLOGY</tspan></text></g><g transform="matrix(1,0,0,0.866751,5.68434e-14,-41.8443)"><g transform="matrix(11.8936,0,0,11.8936,573.866,79.2584)"></g><text x="533.729px" y="79.258px" style="font-family:'Helvetica';font-size:11.894px;fill:#231f20;">A<tspan x="540.703px 548.333px 550.678px 558.97px 566.6px " y="79.258px 79.258px 79.258px 79.258px 79.258px ">C OUT</tspan></text></g><g transform="matrix(1,0,0,0.86675,-5.68434e-14,-42.643)"><text x="550.435px" y="418.586px" style="font-family:'Helvetica';font-size:13.011px;fill:#231f20;">M</text></g><g transform="matrix(1,0,0,0.86675,-5.68434e-14,-42.6086)"><g transform="matrix(13.0114,0,0,13.0114,554.845,434.457)"></g><text x="547.609px" y="434.457px" style="font-family:'Helvetica';font-size:13.011px;fill:#231f20;">3</text></g><g transform="matrix(1,0,0,0.866748,-5.68434e-14,-42.8921)"><text x="202.234px" y="224.664px" style="font-family:'Helvetica';font-size:10.579px;fill:#231f20;">N<tspan x="209.091px " y="224.664px ">P</tspan></text></g><g transform="matrix(10.3088,0,0,10.3088,439.637,27.0694)"></g><text x="345.322px" y="27.069px" style="font-family:'HelveticaNeue', 'Helvetica Neue';font-size:10.309px;">INVER<tspan x="374.908px 380.825px " y="27.069px 27.069px ">TE</tspan>R 12 Pulse</text><g transform="matrix(10.3088,0,0,10.3088,233.453,26.6134)"></g><text x="211.31px" y="26.613px" style="font-family:'HelveticaNeue', 'Helvetica Neue';font-size:10.309px;">DCC</text><g transform="matrix(10.3088,0,0,10.3088,151.116,26.6134)"></g><text x="131.642px" y="26.613px" style="font-family:'HelveticaNeue', 'Helvetica Neue';font-size:10.309px;">DFE</text><g transform="matrix(10.3088,0,0,10.3088,82.1764,55.8716)"></g><text x="62.136px" y="55.872px" style="font-family:'HelveticaNeue', 'Helvetica Neue';font-size:10.309px;">PRE</text><g transform="matrix(10.3088,0,0,10.3088,67.1281,27.0746)"></g><text x="44.799px" y="27.075px" style="font-family:'HelveticaNeue', 'Helvetica Neue';font-size:10.309px;">CCU</text><g><g><path d="M314.238,60.458l-10.518,11.049" style="fill:none;stroke:#000;stroke-width:1px;stroke-linecap:round;stroke-linejoin:round;stroke-miterlimit:1.5;"/><path d="M303.221,63.991l-0,15.671" style="fill:none;stroke:#000;stroke-width:1px;stroke-linecap:round;stroke-linejoin:round;stroke-miterlimit:1.5;"/><path d="M300.091,63.991l0,15.671" style="fill:none;stroke:#000;stroke-width:1px;stroke-linecap:round;stroke-linejoin:round;stroke-miterlimit:1.5;"/><path d="M288.618,71.827l11.473,-0" style="fill:none;stroke:#000;stroke-width:1px;stroke-linecap:round;stroke-linejoin:round;stroke-miterlimit:1.5;"/><path d="M313.431,75.429l0.807,6.686l-6.644,-1.097l5.837,-5.589Z"/><path d="M304.08,71.506c0,0 4.18,4.366 7.178,7.496" style="fill:none;stroke:#000;stroke-width:1px;stroke-linecap:round;stroke-linejoin:round;stroke-miterlimit:1.5;"/><g><path d="M314.238,55.01l16.678,-0l-0.211,33.677l-16.36,-0" style="fill:none;stroke:#000;stroke-width:1px;stroke-linecap:round;stroke-linejoin:round;stroke-miterlimit:1.5;"/><g><path d="M330.917,67.795l5.738,8.106l-11.478,0l5.74,-8.106Z" style="fill-rule:nonzero;stroke:#231f20;stroke-width:1px;"/><path d="M325.177,67.795l11.478,-0" style="fill:none;stroke:#000;stroke-width:1px;stroke-linecap:round;stroke-linejoin:round;stroke-miterlimit:1.5;"/></g></g></g><g><path d="M314.238,104.125l-10.518,11.049" style="fill:none;stroke:#000;stroke-width:1px;stroke-linecap:round;stroke-linejoin:round;stroke-miterlimit:1.5;"/><path d="M303.221,107.658l-0,15.671" style="fill:none;stroke:#000;stroke-width:1px;stroke-linecap:round;stroke-linejoin:round;stroke-miterlimit:1.5;"/><path d="M300.091,107.658l0,15.671" style="fill:none;stroke:#000;stroke-width:1px;stroke-linecap:round;stroke-linejoin:round;stroke-miterlimit:1.5;"/><path d="M288.618,115.494l11.473,-0" style="fill:none;stroke:#000;stroke-width:1px;stroke-linecap:round;stroke-linejoin:round;stroke-miterlimit:1.5;"/><path d="M313.431,119.097l0.807,6.685l-6.644,-1.097l5.837,-5.588Z"/><path d="M304.08,115.173c0,0 4.18,4.366 7.178,7.496" style="fill:none;stroke:#000;stroke-width:1px;stroke-linecap:round;stroke-linejoin:round;stroke-miterlimit:1.5;"/><g><path d="M314.238,98.677l16.678,-0l-0.211,33.677l-16.36,-0" style="fill:none;stroke:#000;stroke-width:1px;stroke-linecap:round;stroke-linejoin:round;stroke-miterlimit:1.5;"/><g><path d="M330.917,111.462l5.738,8.107l-11.478,-0l5.74,-8.107Z" style="fill-rule:nonzero;stroke:#231f20;stroke-width:1px;"/><path d="M325.177,111.462l11.478,0" style="fill:none;stroke:#000;stroke-width:1px;stroke-linecap:round;stroke-linejoin:round;stroke-miterlimit:1.5;"/></g></g></g><g><path d="M314.238,181.218l-10.518,11.049" style="fill:none;stroke:#000;stroke-width:1px;stroke-linecap:round;stroke-linejoin:round;stroke-miterlimit:1.5;"/><path d="M303.221,184.751l-0,15.671" style="fill:none;stroke:#000;stroke-width:1px;stroke-linecap:round;stroke-linejoin:round;stroke-miterlimit:1.5;"/><path d="M300.091,184.751l0,15.671" style="fill:none;stroke:#000;stroke-width:1px;stroke-linecap:round;stroke-linejoin:round;stroke-miterlimit:1.5;"/><path d="M288.618,192.586l11.473,0" style="fill:none;stroke:#000;stroke-width:1px;stroke-linecap:round;stroke-linejoin:round;stroke-miterlimit:1.5;"/><path d="M313.431,196.189l0.807,6.686l-6.644,-1.097l5.837,-5.589Z"/><path d="M304.08,192.266c0,0 4.18,4.366 7.178,7.496" style="fill:none;stroke:#000;stroke-width:1px;stroke-linecap:round;stroke-linejoin:round;stroke-miterlimit:1.5;"/><g><path d="M314.238,175.769l16.678,0l-0.211,33.677l-16.36,0" style="fill:none;stroke:#000;stroke-width:1px;stroke-linecap:round;stroke-linejoin:round;stroke-miterlimit:1.5;"/><g><path d="M330.917,188.555l5.738,8.106l-11.478,0l5.74,-8.106Z" style="fill-rule:nonzero;stroke:#231f20;stroke-width:1px;"/><path d="M325.177,188.555l11.478,-0" style="fill:none;stroke:#000;stroke-width:1px;stroke-linecap:round;stroke-linejoin:round;stroke-miterlimit:1.5;"/></g></g></g><g><path d="M314.238,225.786l-10.518,11.05" style="fill:none;stroke:#000;stroke-width:1px;stroke-linecap:round;stroke-linejoin:round;stroke-miterlimit:1.5;"/><path d="M303.221,229.32l-0,15.671" style="fill:none;stroke:#000;stroke-width:1px;stroke-linecap:round;stroke-linejoin:round;stroke-miterlimit:1.5;"/><path d="M300.091,229.32l0,15.671" style="fill:none;stroke:#000;stroke-width:1px;stroke-linecap:round;stroke-linejoin:round;stroke-miterlimit:1.5;"/><path d="M288.618,237.155l11.473,0" style="fill:none;stroke:#000;stroke-width:1px;stroke-linecap:round;stroke-linejoin:round;stroke-miterlimit:1.5;"/><path d="M313.431,240.758l0.807,6.685l-6.644,-1.096l5.837,-5.589Z"/><path d="M304.08,236.835c0,-0 4.18,4.365 7.178,7.496" style="fill:none;stroke:#000;stroke-width:1px;stroke-linecap:round;stroke-linejoin:round;stroke-miterlimit:1.5;"/><g><path d="M314.238,220.338l16.678,0l-0.211,33.677l-16.36,0" style="fill:none;stroke:#000;stroke-width:1px;stroke-linecap:round;stroke-linejoin:round;stroke-miterlimit:1.5;"/><g><path d="M330.917,233.124l5.738,8.106l-11.478,0l5.74,-8.106Z" style="fill-rule:nonzero;stroke:#231f20;stroke-width:1px;"/><path d="M325.177,233.124l11.478,-0" style="fill:none;stroke:#000;stroke-width:1px;stroke-linecap:round;stroke-linejoin:round;stroke-miterlimit:1.5;"/></g></g></g><path d="M314.008,60.458l0.23,-16.389" style="fill:none;stroke:#000;stroke-width:1px;stroke-linecap:round;stroke-linejoin:round;stroke-miterlimit:1.5;"/><path d="M314.433,104.125l-0.195,-22.01" style="fill:none;stroke:#000;stroke-width:1px;stroke-linecap:round;stroke-linejoin:round;stroke-miterlimit:1.5;"/><path d="M314.238,125.782l0.195,55.436" style="fill:none;stroke:#000;stroke-width:1px;stroke-linecap:round;stroke-linejoin:round;stroke-miterlimit:1.5;"/><path d="M314.336,202.875l-0.098,22.459" style="fill:none;stroke:#000;stroke-width:1px;stroke-linecap:round;stroke-linejoin:round;stroke-miterlimit:1.5;"/><path d="M314.336,246.991l-0,16.769" style="fill:none;stroke:#000;stroke-width:1px;stroke-linecap:round;stroke-linejoin:round;stroke-miterlimit:1.5;"/><path d="M314.433,93.12l-38.673,-0l0.24,120.984l38.238,0" style="fill:none;stroke:#000;stroke-width:1px;stroke-linecap:round;stroke-linejoin:round;stroke-miterlimit:1.5;"/><g><path d="M275.972,188.214l5.739,8.106l-11.479,0l5.74,-8.106Z" style="fill-rule:nonzero;stroke:#231f20;stroke-width:1px;"/><path d="M270.232,188.214l11.479,-0" style="fill:none;stroke:#000;stroke-width:1px;stroke-linecap:round;stroke-linejoin:round;stroke-miterlimit:1.5;"/></g><g><path d="M275.972,112.357l5.739,8.107l-11.479,-0l5.74,-8.107Z" style="fill-rule:nonzero;stroke:#231f20;stroke-width:1px;"/><path d="M270.232,112.357l11.479,0" style="fill:none;stroke:#000;stroke-width:1px;stroke-linecap:round;stroke-linejoin:round;stroke-miterlimit:1.5;"/></g><rect x="264.562" y="49.209" width="77.317" height="209.295" style="fill:#4191d9;fill-opacity:0.15;stroke:#231f20;stroke-width:1px;stroke-dasharray:4,4,4,4,4,4;"/></g><g><g><path d="M402.128,60.191l-10.518,11.05" style="fill:none;stroke:#000;stroke-width:1px;stroke-linecap:round;stroke-linejoin:round;stroke-miterlimit:1.5;"/><path d="M391.111,63.724l-0,15.672" style="fill:none;stroke:#000;stroke-width:1px;stroke-linecap:round;stroke-linejoin:round;stroke-miterlimit:1.5;"/><path d="M387.981,63.724l0,15.672" style="fill:none;stroke:#000;stroke-width:1px;stroke-linecap:round;stroke-linejoin:round;stroke-miterlimit:1.5;"/><path d="M376.508,71.56l11.473,0" style="fill:none;stroke:#000;stroke-width:1px;stroke-linecap:round;stroke-linejoin:round;stroke-miterlimit:1.5;"/><path d="M401.321,75.163l0.807,6.685l-6.644,-1.096l5.837,-5.589Z"/><path d="M391.97,71.24c-0,-0 4.18,4.365 7.178,7.495" style="fill:none;stroke:#000;stroke-width:1px;stroke-linecap:round;stroke-linejoin:round;stroke-miterlimit:1.5;"/><g><path d="M402.128,54.743l16.678,0l-0.211,33.677l-16.36,0" style="fill:none;stroke:#000;stroke-width:1px;stroke-linecap:round;stroke-linejoin:round;stroke-miterlimit:1.5;"/><g><path d="M418.807,67.528l5.738,8.107l-11.478,-0l5.74,-8.107Z" style="fill-rule:nonzero;stroke:#231f20;stroke-width:1px;"/><path d="M413.067,67.528l11.478,0" style="fill:none;stroke:#000;stroke-width:1px;stroke-linecap:round;stroke-linejoin:round;stroke-miterlimit:1.5;"/></g></g></g><g><path d="M402.128,103.858l-10.518,11.05" style="fill:none;stroke:#000;stroke-width:1px;stroke-linecap:round;stroke-linejoin:round;stroke-miterlimit:1.5;"/><path d="M391.111,107.392l-0,15.671" style="fill:none;stroke:#000;stroke-width:1px;stroke-linecap:round;stroke-linejoin:round;stroke-miterlimit:1.5;"/><path d="M387.981,107.392l0,15.671" style="fill:none;stroke:#000;stroke-width:1px;stroke-linecap:round;stroke-linejoin:round;stroke-miterlimit:1.5;"/><path d="M376.508,115.227l11.473,0" style="fill:none;stroke:#000;stroke-width:1px;stroke-linecap:round;stroke-linejoin:round;stroke-miterlimit:1.5;"/><path d="M401.321,118.83l0.807,6.685l-6.644,-1.096l5.837,-5.589Z"/><path d="M391.97,114.907c-0,-0 4.18,4.365 7.178,7.496" style="fill:none;stroke:#000;stroke-width:1px;stroke-linecap:round;stroke-linejoin:round;stroke-miterlimit:1.5;"/><g><path d="M402.128,98.41l16.678,0l-0.211,33.677l-16.36,0" style="fill:none;stroke:#000;stroke-width:1px;stroke-linecap:round;stroke-linejoin:round;stroke-miterlimit:1.5;"/><g><path d="M418.807,111.196l5.738,8.106l-11.478,0l5.74,-8.106Z" style="fill-rule:nonzero;stroke:#231f20;stroke-width:1px;"/><path d="M413.067,111.196l11.478,-0" style="fill:none;stroke:#000;stroke-width:1px;stroke-linecap:round;stroke-linejoin:round;stroke-miterlimit:1.5;"/></g></g></g><g><path d="M402.128,180.951l-10.518,11.049" style="fill:none;stroke:#000;stroke-width:1px;stroke-linecap:round;stroke-linejoin:round;stroke-miterlimit:1.5;"/><path d="M391.111,184.484l-0,15.671" style="fill:none;stroke:#000;stroke-width:1px;stroke-linecap:round;stroke-linejoin:round;stroke-miterlimit:1.5;"/><path d="M387.981,184.484l0,15.671" style="fill:none;stroke:#000;stroke-width:1px;stroke-linecap:round;stroke-linejoin:round;stroke-miterlimit:1.5;"/><path d="M376.508,192.32l11.473,-0" style="fill:none;stroke:#000;stroke-width:1px;stroke-linecap:round;stroke-linejoin:round;stroke-miterlimit:1.5;"/><path d="M401.321,195.923l0.807,6.685l-6.644,-1.097l5.837,-5.588Z"/><path d="M391.97,191.999c-0,0 4.18,4.366 7.178,7.496" style="fill:none;stroke:#000;stroke-width:1px;stroke-linecap:round;stroke-linejoin:round;stroke-miterlimit:1.5;"/><g><path d="M402.128,175.503l16.678,-0l-0.211,33.677l-16.36,-0" style="fill:none;stroke:#000;stroke-width:1px;stroke-linecap:round;stroke-linejoin:round;stroke-miterlimit:1.5;"/><g><path d="M418.807,188.288l5.738,8.107l-11.478,-0l5.74,-8.107Z" style="fill-rule:nonzero;stroke:#231f20;stroke-width:1px;"/><path d="M413.067,188.288l11.478,0" style="fill:none;stroke:#000;stroke-width:1px;stroke-linecap:round;stroke-linejoin:round;stroke-miterlimit:1.5;"/></g></g></g><g><path d="M402.128,225.52l-10.518,11.049" style="fill:none;stroke:#000;stroke-width:1px;stroke-linecap:round;stroke-linejoin:round;stroke-miterlimit:1.5;"/><path d="M391.111,229.053l-0,15.671" style="fill:none;stroke:#000;stroke-width:1px;stroke-linecap:round;stroke-linejoin:round;stroke-miterlimit:1.5;"/><path d="M387.981,229.053l0,15.671" style="fill:none;stroke:#000;stroke-width:1px;stroke-linecap:round;stroke-linejoin:round;stroke-miterlimit:1.5;"/><path d="M376.508,236.889l11.473,-0" style="fill:none;stroke:#000;stroke-width:1px;stroke-linecap:round;stroke-linejoin:round;stroke-miterlimit:1.5;"/><path d="M401.321,240.491l0.807,6.686l-6.644,-1.097l5.837,-5.589Z"/><path d="M391.97,236.568c-0,0 4.18,4.366 7.178,7.496" style="fill:none;stroke:#000;stroke-width:1px;stroke-linecap:round;stroke-linejoin:round;stroke-miterlimit:1.5;"/><g><path d="M402.128,220.072l16.678,-0l-0.211,33.677l-16.36,-0" style="fill:none;stroke:#000;stroke-width:1px;stroke-linecap:round;stroke-linejoin:round;stroke-miterlimit:1.5;"/><g><path d="M418.807,232.857l5.738,8.106l-11.478,0l5.74,-8.106Z" style="fill-rule:nonzero;stroke:#231f20;stroke-width:1px;"/><path d="M413.067,232.857l11.478,0" style="fill:none;stroke:#000;stroke-width:1px;stroke-linecap:round;stroke-linejoin:round;stroke-miterlimit:1.5;"/></g></g></g><path d="M401.898,60.191l0.23,-16.389" style="fill:none;stroke:#000;stroke-width:1px;stroke-linecap:round;stroke-linejoin:round;stroke-miterlimit:1.5;"/><path d="M402.323,103.858l-0.195,-22.01" style="fill:none;stroke:#000;stroke-width:1px;stroke-linecap:round;stroke-linejoin:round;stroke-miterlimit:1.5;"/><path d="M402.128,125.515l0.195,55.436" style="fill:none;stroke:#000;stroke-width:1px;stroke-linecap:round;stroke-linejoin:round;stroke-miterlimit:1.5;"/><path d="M402.226,202.608l-0.098,22.46" style="fill:none;stroke:#000;stroke-width:1px;stroke-linecap:round;stroke-linejoin:round;stroke-miterlimit:1.5;"/><path d="M402.226,246.725l-0,16.768" style="fill:none;stroke:#000;stroke-width:1px;stroke-linecap:round;stroke-linejoin:round;stroke-miterlimit:1.5;"/><path d="M402.323,92.853l-38.673,0l0.24,120.985l38.238,-0" style="fill:none;stroke:#000;stroke-width:1px;stroke-linecap:round;stroke-linejoin:round;stroke-miterlimit:1.5;"/><g><path d="M363.862,187.947l5.738,8.107l-11.478,-0l5.74,-8.107Z" style="fill-rule:nonzero;stroke:#231f20;stroke-width:1px;"/><path d="M358.122,187.947l11.478,0" style="fill:none;stroke:#000;stroke-width:1px;stroke-linecap:round;stroke-linejoin:round;stroke-miterlimit:1.5;"/></g><g><path d="M363.862,112.091l5.738,8.106l-11.478,0l5.74,-8.106Z" style="fill-rule:nonzero;stroke:#231f20;stroke-width:1px;"/><path d="M358.122,112.091l11.478,-0" style="fill:none;stroke:#000;stroke-width:1px;stroke-linecap:round;stroke-linejoin:round;stroke-miterlimit:1.5;"/></g><rect x="352.452" y="48.943" width="77.317" height="209.295" style="fill:#4191d9;fill-opacity:0.15;stroke:#231f20;stroke-width:1px;stroke-dasharray:4,4,4,4,4,4;"/></g><g><g><path d="M490.572,60.785l-10.519,11.05" style="fill:none;stroke:#000;stroke-width:1px;stroke-linecap:round;stroke-linejoin:round;stroke-miterlimit:1.5;"/><path d="M479.554,64.319l0,15.671" style="fill:none;stroke:#000;stroke-width:1px;stroke-linecap:round;stroke-linejoin:round;stroke-miterlimit:1.5;"/><path d="M476.425,64.319l-0,15.671" style="fill:none;stroke:#000;stroke-width:1px;stroke-linecap:round;stroke-linejoin:round;stroke-miterlimit:1.5;"/><path d="M464.951,72.154l11.474,0" style="fill:none;stroke:#000;stroke-width:1px;stroke-linecap:round;stroke-linejoin:round;stroke-miterlimit:1.5;"/><path d="M489.764,75.757l0.808,6.685l-6.645,-1.096l5.837,-5.589Z"/><path d="M480.413,71.834c0,-0 4.18,4.365 7.178,7.495" style="fill:none;stroke:#000;stroke-width:1px;stroke-linecap:round;stroke-linejoin:round;stroke-miterlimit:1.5;"/><g><path d="M490.572,55.337l16.677,0l-0.211,33.677l-16.36,0" style="fill:none;stroke:#000;stroke-width:1px;stroke-linecap:round;stroke-linejoin:round;stroke-miterlimit:1.5;"/><g><path d="M507.25,68.122l5.739,8.107l-11.479,-0l5.74,-8.107Z" style="fill-rule:nonzero;stroke:#231f20;stroke-width:1px;"/><path d="M501.51,68.122l11.479,0" style="fill:none;stroke:#000;stroke-width:1px;stroke-linecap:round;stroke-linejoin:round;stroke-miterlimit:1.5;"/></g></g></g><g><path d="M490.572,104.453l-10.519,11.049" style="fill:none;stroke:#000;stroke-width:1px;stroke-linecap:round;stroke-linejoin:round;stroke-miterlimit:1.5;"/><path d="M479.554,107.986l0,15.671" style="fill:none;stroke:#000;stroke-width:1px;stroke-linecap:round;stroke-linejoin:round;stroke-miterlimit:1.5;"/><path d="M476.425,107.986l-0,15.671" style="fill:none;stroke:#000;stroke-width:1px;stroke-linecap:round;stroke-linejoin:round;stroke-miterlimit:1.5;"/><path d="M464.951,115.821l11.474,0" style="fill:none;stroke:#000;stroke-width:1px;stroke-linecap:round;stroke-linejoin:round;stroke-miterlimit:1.5;"/><path d="M489.764,119.424l0.808,6.686l-6.645,-1.097l5.837,-5.589Z"/><path d="M480.413,115.501c0,-0 4.18,4.366 7.178,7.496" style="fill:none;stroke:#000;stroke-width:1px;stroke-linecap:round;stroke-linejoin:round;stroke-miterlimit:1.5;"/><g><path d="M490.572,99.004l16.677,0l-0.211,33.677l-16.36,0" style="fill:none;stroke:#000;stroke-width:1px;stroke-linecap:round;stroke-linejoin:round;stroke-miterlimit:1.5;"/><g><path d="M507.25,111.79l5.739,8.106l-11.479,0l5.74,-8.106Z" style="fill-rule:nonzero;stroke:#231f20;stroke-width:1px;"/><path d="M501.51,111.79l11.479,-0" style="fill:none;stroke:#000;stroke-width:1px;stroke-linecap:round;stroke-linejoin:round;stroke-miterlimit:1.5;"/></g></g></g><g><path d="M490.572,181.545l-10.519,11.049" style="fill:none;stroke:#000;stroke-width:1px;stroke-linecap:round;stroke-linejoin:round;stroke-miterlimit:1.5;"/><path d="M479.554,185.078l0,15.672" style="fill:none;stroke:#000;stroke-width:1px;stroke-linecap:round;stroke-linejoin:round;stroke-miterlimit:1.5;"/><path d="M476.425,185.078l-0,15.672" style="fill:none;stroke:#000;stroke-width:1px;stroke-linecap:round;stroke-linejoin:round;stroke-miterlimit:1.5;"/><path d="M464.951,192.914l11.474,-0" style="fill:none;stroke:#000;stroke-width:1px;stroke-linecap:round;stroke-linejoin:round;stroke-miterlimit:1.5;"/><path d="M489.764,196.517l0.808,6.685l-6.645,-1.096l5.837,-5.589Z"/><path d="M480.413,192.594c0,-0 4.18,4.365 7.178,7.495" style="fill:none;stroke:#000;stroke-width:1px;stroke-linecap:round;stroke-linejoin:round;stroke-miterlimit:1.5;"/><g><path d="M490.572,176.097l16.677,-0l-0.211,33.677l-16.36,-0" style="fill:none;stroke:#000;stroke-width:1px;stroke-linecap:round;stroke-linejoin:round;stroke-miterlimit:1.5;"/><g><path d="M507.25,188.882l5.739,8.107l-11.479,-0l5.74,-8.107Z" style="fill-rule:nonzero;stroke:#231f20;stroke-width:1px;"/><path d="M501.51,188.882l11.479,0" style="fill:none;stroke:#000;stroke-width:1px;stroke-linecap:round;stroke-linejoin:round;stroke-miterlimit:1.5;"/></g></g></g><g><path d="M490.572,226.114l-10.519,11.049" style="fill:none;stroke:#000;stroke-width:1px;stroke-linecap:round;stroke-linejoin:round;stroke-miterlimit:1.5;"/><path d="M479.554,229.647l0,15.671" style="fill:none;stroke:#000;stroke-width:1px;stroke-linecap:round;stroke-linejoin:round;stroke-miterlimit:1.5;"/><path d="M476.425,229.647l-0,15.671" style="fill:none;stroke:#000;stroke-width:1px;stroke-linecap:round;stroke-linejoin:round;stroke-miterlimit:1.5;"/><path d="M464.951,237.483l11.474,-0" style="fill:none;stroke:#000;stroke-width:1px;stroke-linecap:round;stroke-linejoin:round;stroke-miterlimit:1.5;"/><path d="M489.764,241.086l0.808,6.685l-6.645,-1.097l5.837,-5.588Z"/><path d="M480.413,237.162c0,0 4.18,4.366 7.178,7.496" style="fill:none;stroke:#000;stroke-width:1px;stroke-linecap:round;stroke-linejoin:round;stroke-miterlimit:1.5;"/><g><path d="M490.572,220.666l16.677,-0l-0.211,33.677l-16.36,-0" style="fill:none;stroke:#000;stroke-width:1px;stroke-linecap:round;stroke-linejoin:round;stroke-miterlimit:1.5;"/><g><path d="M507.25,233.451l5.739,8.107l-11.479,-0l5.74,-8.107Z" style="fill-rule:nonzero;stroke:#231f20;stroke-width:1px;"/><path d="M501.51,233.451l11.479,0" style="fill:none;stroke:#000;stroke-width:1px;stroke-linecap:round;stroke-linejoin:round;stroke-miterlimit:1.5;"/></g></g></g><path d="M490.341,60.785l0.231,-16.389" style="fill:none;stroke:#000;stroke-width:1px;stroke-linecap:round;stroke-linejoin:round;stroke-miterlimit:1.5;"/><path d="M490.766,104.453l-0.194,-22.011" style="fill:none;stroke:#000;stroke-width:1px;stroke-linecap:round;stroke-linejoin:round;stroke-miterlimit:1.5;"/><path d="M490.572,126.11l0.194,55.435" style="fill:none;stroke:#000;stroke-width:1px;stroke-linecap:round;stroke-linejoin:round;stroke-miterlimit:1.5;"/><path d="M490.669,203.202l-0.097,22.46" style="fill:none;stroke:#000;stroke-width:1px;stroke-linecap:round;stroke-linejoin:round;stroke-miterlimit:1.5;"/><path d="M490.669,247.319l-0,16.769" style="fill:none;stroke:#000;stroke-width:1px;stroke-linecap:round;stroke-linejoin:round;stroke-miterlimit:1.5;"/><path d="M490.766,93.447l-38.673,0l0.24,120.985l38.239,-0" style="fill:none;stroke:#000;stroke-width:1px;stroke-linecap:round;stroke-linejoin:round;stroke-miterlimit:1.5;"/><g><path d="M452.305,188.541l5.739,8.107l-11.479,-0l5.74,-8.107Z" style="fill-rule:nonzero;stroke:#231f20;stroke-width:1px;"/><path d="M446.565,188.541l11.479,0" style="fill:none;stroke:#000;stroke-width:1px;stroke-linecap:round;stroke-linejoin:round;stroke-miterlimit:1.5;"/></g><g><path d="M452.305,112.685l5.739,8.106l-11.479,0l5.74,-8.106Z" style="fill-rule:nonzero;stroke:#231f20;stroke-width:1px;"/><path d="M446.565,112.685l11.479,-0" style="fill:none;stroke:#000;stroke-width:1px;stroke-linecap:round;stroke-linejoin:round;stroke-miterlimit:1.5;"/></g><rect x="440.895" y="49.537" width="77.317" height="209.295" style="fill:#4191d9;fill-opacity:0.15;stroke:#231f20;stroke-width:1px;stroke-dasharray:4,4,4,4,4,4;"/></g></g></svg>