<?xml version="1.0" encoding="UTF-8" standalone="no"?><!DOCTYPE svg PUBLIC "-//W3C//DTD SVG 1.1//EN" "http://www.w3.org/Graphics/SVG/1.1/DTD/svg11.dtd"><svg width="100%" height="100%" viewBox="0 0 877 418" version="1.1" xmlns="http://www.w3.org/2000/svg" xmlns:xlink="http://www.w3.org/1999/xlink" xml:space="preserve" xmlns:serif="http://www.serif.com/" style="fill-rule:evenodd;clip-rule:evenodd;"><rect id="propulsion_converter_schematic" x="0" y="0" width="876.96" height="417.84" style="fill:none;"/><g id="propulsion_converter_schematic1" serif:id="propulsion_converter_schematic"><g><path d="M151.56,358.544l645.382,-0l-0,-269.946l-283.124,-0l-0,-42.518l-354.295,-0l-0,63.779l-65.549,-0l-0,92.689l57.586,-0l-0,155.996Z" style="fill:#fff;fill-rule:nonzero;stroke:#231f20;stroke-width:0.5px;stroke-dasharray:12,2,1,2;"/><path d="M241.995,88.598l-0,269.582" style="fill:none;fill-rule:nonzero;stroke:#231f20;stroke-width:0.5px;stroke-dasharray:12,2,1,2;"/><path d="M320.684,88.598l0,269.582" style="fill:none;fill-rule:nonzero;stroke:#231f20;stroke-width:0.5px;stroke-dasharray:12,2,1,2;"/><path d="M482.944,88.598l0,269.582" style="fill:none;fill-rule:nonzero;stroke:#231f20;stroke-width:0.5px;stroke-dasharray:12,2,1,2;"/><path d="M521.674,88.598l-362.534,0" style="fill:none;fill-rule:nonzero;stroke:#231f20;stroke-width:0.5px;stroke-dasharray:12,2,1,2;"/><path d="M713.974,88.598l0,269.582" style="fill:none;fill-rule:nonzero;stroke:#231f20;stroke-width:0.5px;stroke-dasharray:12,2,1,2;"/><path d="M522.212,106.358l-0,164.467" style="fill:none;fill-rule:nonzero;stroke:#231f20;stroke-width:1px;"/><path d="M613.981,213.089l0,-96.143" style="fill:none;fill-rule:nonzero;stroke:#231f20;stroke-width:1px;"/><rect x="711.217" y="213.888" width="5.669" height="5.67" style="fill:#fff;"/><rect x="795.051" y="298.172" width="5.669" height="5.67" style="fill:#fff;"/><rect x="736.089" y="85.927" width="17.157" height="5.67" style="fill:#fff;"/><rect x="711.217" y="199.752" width="5.669" height="5.67" style="fill:#fff;"/><rect x="711.217" y="227.846" width="5.669" height="5.67" style="fill:#fff;"/><path d="M854.896,220.492c0,10.293 -8.344,18.635 -18.633,18.635c-10.294,-0 -18.635,-8.342 -18.635,-18.635c0,-10.289 8.341,-18.634 18.635,-18.634c10.289,-0 18.633,8.345 18.633,18.634" style="fill:#a7a9ac;fill-rule:nonzero;"/><path d="M649.323,337.73l97.762,0l0,-93.957" style="fill:none;fill-rule:nonzero;stroke:#231f20;stroke-width:1px;stroke-dasharray:6,2;"/><path d="M522.304,140.559l17.917,0l-0,20.342l59.588,0l-0,154.498" style="fill:none;fill-rule:nonzero;stroke:#231f20;stroke-width:1px;stroke-dasharray:6,2;"/><rect x="568.627" y="158.066" width="5.669" height="5.67" style="fill:#fff;"/><path d="M570.86,140.301l36.035,0l0,179.468" style="fill:none;fill-rule:nonzero;stroke:#231f20;stroke-width:1px;stroke-dasharray:6,2;"/><rect x="604.062" y="267.99" width="5.669" height="5.67" style="fill:#fff;"/><rect x="596.975" y="267.99" width="5.669" height="5.67" style="fill:#fff;"/><path d="M668.796,216.593l-0,-99.647l-97.334,0l-0,99.774" style="fill:none;fill-rule:nonzero;stroke:#231f20;stroke-width:1px;"/><path d="M522.304,241.858l70.418,0l-0,74.322" style="fill:none;fill-rule:nonzero;stroke:#231f20;stroke-width:1px;stroke-dasharray:6,2;"/><rect x="494.282" y="85.772" width="5.669" height="5.669" style="fill:#fff;"/><rect x="589.888" y="267.99" width="5.669" height="5.67" style="fill:#fff;"/><rect x="603.932" y="298.478" width="5.669" height="5.67" style="fill:#fff;"/><rect x="744.251" y="298.479" width="5.669" height="5.67" style="fill:#fff;"/><rect x="793.057" y="298.479" width="5.669" height="5.67" style="fill:#fff;"/><rect x="518.841" y="362.434" width="5.669" height="5.67" style="fill:#fff;"/><rect x="596.845" y="298.478" width="5.669" height="5.67" style="fill:#fff;"/><rect x="589.758" y="298.478" width="5.669" height="5.67" style="fill:#fff;"/><path d="M238.583,74.426l-0,-21.26l258.534,0.2l-0,260.899l62.344,-0.198l-0,16.573l16.32,0" style="fill:none;fill-rule:nonzero;stroke:#231f20;stroke-width:1px;stroke-dasharray:6,2;"/><rect x="316.564" y="298.476" width="5.669" height="5.67" style="fill:#fff;"/><rect x="494.282" y="71.6" width="5.669" height="5.669" style="fill:#fff;"/><rect x="518.84" y="71.6" width="5.669" height="5.669" style="fill:#fff;"/><rect x="316.31" y="312.65" width="5.669" height="5.67" style="fill:#fff;"/><rect x="479.98" y="298.477" width="5.67" height="5.67" style="fill:#fff;"/><rect x="480.105" y="267.989" width="5.67" height="5.67" style="fill:#fff;"/><rect x="479.98" y="213.881" width="5.67" height="5.67" style="fill:#fff;"/><rect x="239.158" y="114.11" width="5.669" height="5.669" style="fill:#fff;"/><rect x="316.564" y="114.109" width="5.669" height="5.669" style="fill:#fff;"/><rect x="317.464" y="136.561" width="5.669" height="5.669" style="fill:#fff;"/><rect x="317.464" y="186.15" width="5.669" height="5.669" style="fill:#fff;"/><rect x="333.099" y="103.521" width="5.669" height="5.669" style="fill:#fff;"/><rect x="316.563" y="199.711" width="5.669" height="5.67" style="fill:#fff;"/><rect x="316.563" y="213.884" width="5.669" height="5.67" style="fill:#fff;"/><rect x="239.16" y="328.743" width="5.669" height="5.669" style="fill:#fff;"/><rect x="239.16" y="335.83" width="5.669" height="5.669" style="fill:#fff;"/><rect x="316.312" y="327.813" width="5.67" height="5.669" style="fill:#fff;"/><rect x="316.312" y="334.9" width="5.67" height="5.669" style="fill:#fff;"/><rect x="480.108" y="334.901" width="5.67" height="5.669" style="fill:#fff;"/><rect x="480.108" y="327.814" width="5.67" height="5.669" style="fill:#fff;"/><rect x="494.282" y="267.999" width="5.669" height="5.669" style="fill:#fff;"/><rect x="494.157" y="213.894" width="5.669" height="5.669" style="fill:#fff;"/><rect x="494.282" y="103.532" width="5.669" height="5.669" style="fill:#fff;"/><rect x="479.948" y="103.532" width="5.67" height="5.669" style="fill:#fff;"/><rect x="316.079" y="103.532" width="5.669" height="5.669" style="fill:#fff;"/><rect x="494.355" y="298.486" width="5.669" height="5.669" style="fill:#fff;"/><path d="M262.274,338.658l-93.106,-0l0,-143.196l-30.126,-0l0,-12.274" style="fill:none;fill-rule:nonzero;stroke:#231f20;stroke-width:1px;stroke-dasharray:6,2;"/><path d="M262.274,331.571l-86.02,0l0,-179.193l-37.212,0l0,-11.333" style="fill:none;fill-rule:nonzero;stroke:#231f20;stroke-width:1px;stroke-dasharray:6,2;"/><rect x="195.817" y="85.763" width="5.669" height="5.67" style="fill:#fff;"/><rect x="118.77" y="178.454" width="5.669" height="5.669" style="fill:#fff;"/><rect x="239.16" y="213.439" width="5.669" height="5.669" style="fill:#fff;"/><rect x="239.16" y="199.712" width="5.669" height="5.669" style="fill:#fff;"/><rect x="118.91" y="135.37" width="5.669" height="5.669" style="fill:#fff;"/><rect x="173.421" y="178.454" width="5.669" height="5.669" style="fill:#fff;"/><path d="M272.673,74.425l145.225,0l17.173,-7.509" style="fill:none;fill-rule:nonzero;stroke:#56a578;stroke-width:2px;"/><path d="M198.652,180.738l-0,-106.312l74.022,-0" style="fill:none;fill-rule:nonzero;stroke:#231f20;stroke-width:1px;"/><path d="M639.002,229.348l-14.173,0l-0,41.477" style="fill:none;fill-rule:nonzero;stroke:#ed1c24;stroke-width:2px;"/><rect x="265.628" y="124.031" width="37.25" height="170.194" style="fill:#b3ddc0;stroke:#231f20;stroke-width:0.75px;"/><path d="M216.78,192.593l0,-75.647l133.329,0l0,28.25l34.446,0" style="fill:none;fill-rule:nonzero;stroke:#ed1c24;stroke-width:2px;"/><rect x="239.103" y="298.477" width="5.669" height="5.669" style="fill:#fff;"/><path d="M216.78,195.461l0,105.852l147.501,-0l0,-127.769l20.274,-0" style="fill:none;fill-rule:nonzero;stroke:#ed1c24;stroke-width:2px;"/><rect x="361.445" y="213.884" width="5.669" height="5.67" style="fill:#fff;"/><rect x="195.817" y="135.37" width="5.67" height="5.669" style="fill:#fff;"/><rect x="89.982" y="139.174" width="5.67" height="5.669" style="fill:#fff;"/><rect x="89.982" y="172.215" width="5.67" height="5.669" style="fill:#fff;"/><path d="M284.25,290.98l-0,-163.761" style="fill:none;fill-rule:nonzero;stroke:#ed1c24;stroke-width:2px;"/><rect x="276.853" y="160.363" width="14.794" height="3.972" style="fill:#b3ddc0;"/><path d="M291.647,164.335l-14.794,0" style="fill:none;fill-rule:nonzero;stroke:#231f20;stroke-width:2px;"/><path d="M291.647,160.364l-14.794,-0" style="fill:none;fill-rule:nonzero;stroke:#231f20;stroke-width:2px;"/><rect x="276.853" y="250.658" width="14.794" height="3.972" style="fill:#b3ddc0;"/><path d="M291.647,254.63l-14.794,-0" style="fill:none;fill-rule:nonzero;stroke:#231f20;stroke-width:2px;"/><path d="M291.647,250.658l-14.794,-0" style="fill:none;fill-rule:nonzero;stroke:#231f20;stroke-width:2px;"/><path d="M72.928,158.233c-0,8.831 -7.159,15.99 -15.99,15.99c-8.832,-0 -15.991,-7.159 -15.991,-15.99c-0,-8.832 7.159,-15.99 15.991,-15.99c8.831,-0 15.99,7.158 15.99,15.99" style="fill:#b3ddc0;fill-rule:nonzero;"/><path d="M56.937,153.453l-5.041,8.142l10.082,0l-5.041,-8.142Z" style="fill:none;fill-rule:nonzero;stroke:#231f20;stroke-width:0.5px;"/><path d="M86.2,166.982c0,5.075 -4.113,9.188 -9.186,9.188c-5.074,-0 -9.187,-4.113 -9.187,-9.188c0,-5.072 4.113,-9.185 9.187,-9.185c5.073,-0 9.186,4.113 9.186,9.185" style="fill:#b3ddc0;fill-rule:nonzero;"/><path d="M77.014,162.204l-5.041,8.141l10.082,0l-5.041,-8.141Z" style="fill:none;fill-rule:nonzero;stroke:#231f20;stroke-width:0.5px;"/><path d="M86.2,148.262c0,5.073 -4.113,9.188 -9.186,9.188c-5.074,0 -9.187,-4.115 -9.187,-9.188c0,-5.074 4.113,-9.186 9.187,-9.186c5.073,0 9.186,4.112 9.186,9.186" style="fill:#b3ddc0;fill-rule:nonzero;"/><path d="M72.928,158.233c-0,-8.825 -7.166,-15.99 -15.991,-15.99c-8.825,-0 -15.99,7.165 -15.99,15.99c-0,8.825 7.165,15.99 15.99,15.99c8.825,-0 15.991,-7.165 15.991,-15.99Z" style="fill:none;stroke:#ed1c24;stroke-width:1px;"/><path d="M86.2,166.983c0,-5.07 -4.116,-9.186 -9.186,-9.186c-5.071,-0 -9.187,4.116 -9.187,9.186c0,5.07 4.116,9.187 9.187,9.187c5.07,-0 9.186,-4.117 9.186,-9.187Z" style="fill:none;stroke:#ed1c24;stroke-width:1px;"/><path d="M86.2,148.263c0,-5.07 -4.116,-9.187 -9.186,-9.187c-5.071,0 -9.187,4.117 -9.187,9.187c0,5.07 4.116,9.187 9.187,9.187c5.07,0 9.186,-4.117 9.186,-9.187Z" style="fill:none;stroke:#ed1c24;stroke-width:1px;"/><path d="M72.884,152.332l4.154,-4.778l4.269,4.778" style="fill:none;fill-rule:nonzero;stroke:#231f20;stroke-width:0.5px;"/><path d="M77.038,147.554l-0,-5.319" style="fill:none;fill-rule:nonzero;stroke:#231f20;stroke-width:0.5px;"/><path d="M85.336,144.368l20.324,-6.164l100.078,-0" style="fill:none;fill-rule:nonzero;stroke:#ed1c24;stroke-width:2px;"/><g transform="matrix(1,0,0,1,-131.387,-344.35)"><text x="260.033px" y="509.204px" style="font-family:'ArialMT', 'Arial', sans-serif;font-size:8px;fill:#231f20;">Sensors</text><text x="256.929px" y="518.804px" style="font-family:'ArialMT', 'Arial', sans-serif;font-size:8px;fill:#231f20;">x2 U1-W1</text></g><g transform="matrix(1,0,0,1,-131.387,-344.35)"><text x="259.241px" y="466.684px" style="font-family:'ArialMT', 'Arial', sans-serif;font-size:8px;fill:#231f20;">Sensors</text><text x="256.137px" y="476.284px" style="font-family:'ArialMT', 'Arial', sans-serif;font-size:8px;fill:#231f20;">x2 U2-W2</text></g><text x="218.734px" y="159.966px" style="font-family:'ArialMT', 'Arial', sans-serif;font-size:8px;fill:#231f20;">NB2</text><text x="219.302px" y="202.838px" style="font-family:'ArialMT', 'Arial', sans-serif;font-size:8px;fill:#231f20;">NB1</text><path d="M85.336,171.23l20.324,8.998l100.078,-0" style="fill:none;fill-rule:nonzero;stroke:#ed1c24;stroke-width:2px;"/><path d="M107.541,141.953l3.896,-7.357" style="fill:none;fill-rule:nonzero;stroke:#231f20;stroke-width:0.5px;"/><path d="M109.666,141.953l3.896,-7.357" style="fill:none;fill-rule:nonzero;stroke:#231f20;stroke-width:0.5px;"/><path d="M111.792,141.953l3.895,-7.357" style="fill:none;fill-rule:nonzero;stroke:#231f20;stroke-width:0.5px;"/><path d="M107.541,184.965l3.896,-7.358" style="fill:none;fill-rule:nonzero;stroke:#231f20;stroke-width:0.5px;"/><path d="M109.666,184.965l3.896,-7.358" style="fill:none;fill-rule:nonzero;stroke:#231f20;stroke-width:0.5px;"/><path d="M111.792,184.964l3.895,-7.358" style="fill:none;fill-rule:nonzero;stroke:#231f20;stroke-width:0.5px;"/><rect x="48.943" y="116.773" width="28" height="12.078" style="fill:#fff799;stroke:#231f20;stroke-width:0.5px;"/><rect x="161.975" y="91.433" width="28" height="12.079" style="fill:#fff799;stroke:#231f20;stroke-width:0.5px;"/><rect x="244.829" y="91.433" width="28" height="12.079" style="fill:#fff799;stroke:#231f20;stroke-width:0.5px;"/><rect x="323.818" y="91.433" width="28" height="12.079" style="fill:#fff799;stroke:#231f20;stroke-width:0.5px;"/><rect x="503.173" y="91.433" width="28" height="12.079" style="fill:#fff799;stroke:#231f20;stroke-width:0.5px;"/><rect x="755.876" y="92.601" width="36.508" height="12.078" style="fill:#fff799;stroke:#231f20;stroke-width:0.5px;"/><rect x="776.992" y="52.343" width="28.338" height="12.078" style="fill:#fff799;stroke:#231f20;stroke-width:0.5px;"/><rect x="161.975" y="48.914" width="28" height="12.078" style="fill:#fff799;stroke:#231f20;stroke-width:0.5px;"/><path d="M142.201,138.204c-0,-1.743 -1.415,-3.158 -3.159,-3.158c-1.743,-0 -3.158,1.415 -3.158,3.158c-0,1.744 1.415,3.159 3.158,3.159c1.744,-0 3.159,-1.415 3.159,-3.159Z" style="fill:none;stroke:#231f20;stroke-width:1px;"/><path d="M142.201,180.139c0,-1.744 -1.415,-3.159 -3.158,-3.159c-1.744,-0 -3.159,1.415 -3.159,3.159c0,1.743 1.415,3.159 3.159,3.159c1.743,-0 3.158,-1.416 3.158,-3.159Z" style="fill:none;stroke:#231f20;stroke-width:1px;"/><path d="M284.25,127.418l-0,-10.472l14.794,-10.588l397.124,-0l-0,96.19l24.25,-0" style="fill:none;fill-rule:nonzero;stroke:#ed1c24;stroke-width:2px;"/><path d="M284.25,290.839l-0,10.646l14.795,14l79.285,-0l-0,-44.66l326.999,-0l-0,-39.931l15.089,-0" style="fill:none;fill-rule:nonzero;stroke:#ed1c24;stroke-width:2px;"/><rect x="465.936" y="267.997" width="5.669" height="5.67" style="fill:#fff;"/><path d="M373.981,159.371l94.789,-0l0,141.941l364.992,-0l0,-64.881" style="fill:none;fill-rule:nonzero;stroke:#ed1c24;stroke-width:2px;"/><rect x="465.806" y="213.888" width="5.669" height="5.67" style="fill:#fff;"/><rect x="519.403" y="213.888" width="5.669" height="5.67" style="fill:#fff;"/><rect x="510.895" y="71.568" width="5.669" height="5.67" style="fill:#fff;"/><rect x="597.288" y="213.888" width="5.669" height="5.67" style="fill:#fff;"/><rect x="603.708" y="213.888" width="5.669" height="5.67" style="fill:#fff;"/><rect x="720.418" y="189.792" width="50.205" height="53.981" style="fill:#b3ddc0;stroke:#231f20;stroke-width:1px;"/><rect x="720.418" y="52.078" width="50.205" height="30.276" style="fill:#b3ddc0;stroke:#231f20;stroke-width:1px;"/><path d="M758.108,214.017l-7.219,11.018l14.438,0l-7.219,-11.018Z" style="fill:none;fill-rule:nonzero;stroke:#231f20;stroke-width:1px;"/><path d="M765.505,214.017l-14.793,0" style="fill:none;fill-rule:nonzero;stroke:#231f20;stroke-width:1px;"/><path d="M750.029,203.394l8.079,0l0,30.687l-8.079,0" style="fill:none;fill-rule:nonzero;stroke:#231f20;stroke-width:1px;"/><path d="M750.029,199.76l0,7.268l-21.938,7.404" style="fill:none;fill-rule:nonzero;stroke:#231f20;stroke-width:1px;"/><path d="M750.029,236.872l0,-7.268l-21.938,-7.403" style="fill:none;fill-rule:nonzero;stroke:#231f20;stroke-width:1px;"/><path d="M727.821,207.431l0,21.671" style="fill:none;fill-rule:nonzero;stroke:#231f20;stroke-width:2px;stroke-linecap:round;"/><path d="M748.28,226.14l1.749,3.464l-3.229,1.786" style="fill:none;fill-rule:nonzero;stroke:#231f20;stroke-width:1px;"/><path d="M852.396,217.992c0,10.293 -8.344,18.635 -18.633,18.635c-10.294,-0 -18.635,-8.342 -18.635,-18.635c0,-10.289 8.341,-18.634 18.635,-18.634c10.289,-0 18.633,8.345 18.633,18.634" style="fill:#b3ddc0;fill-rule:nonzero;"/><path d="M852.396,217.992c0,-10.284 -8.349,-18.634 -18.634,-18.634c-10.284,-0 -18.634,8.35 -18.634,18.634c0,10.285 8.35,18.635 18.634,18.635c10.285,-0 18.634,-8.35 18.634,-18.635Z" style="fill:none;stroke:#ed1c24;stroke-width:1px;"/><path d="M830.202,224.154c0,-1.499 1.215,-2.714 2.714,-2.714c0.803,0 1.523,0.348 2.02,0.902l-0.001,0l2.419,3.648l0,0.001c0.495,0.538 1.207,0.877 1.998,0.877c1.499,0 2.714,-1.215 2.714,-2.714" style="fill:none;fill-rule:nonzero;stroke:#231f20;stroke-width:0.5px;"/><rect x="511.29" y="232.413" width="21.844" height="18.365" style="fill:#b3ddc0;stroke:#231f20;stroke-width:1px;"/><rect x="262.274" y="321.153" width="49.371" height="26.967" style="fill:#b3ddc0;stroke:#231f20;stroke-width:1px;"/><rect x="503.004" y="321.153" width="49.37" height="26.967" style="fill:#b3ddc0;stroke:#231f20;stroke-width:1px;"/><path d="M262.274,338.485l-8.504,1.417l0,-2.835l8.504,1.418Z" style="fill:#231f20;fill-rule:nonzero;"/><path d="M262.274,331.595l-8.504,1.417l0,-2.835l8.504,1.418Z" style="fill:#231f20;fill-rule:nonzero;"/><path d="M576.071,323.553l-9.523,0l0,-18.661" style="fill:none;fill-rule:nonzero;stroke:#231f20;stroke-width:1px;stroke-dasharray:6,2;"/><path d="M552.378,337.727l23.016,0" style="fill:none;fill-rule:nonzero;stroke:#231f20;stroke-width:1px;stroke-dasharray:6,2;"/><path d="M552.378,344.814l23.693,0" style="fill:none;fill-rule:nonzero;stroke:#231f20;stroke-width:1px;stroke-dasharray:6,2;"/><rect x="582.139" y="321.153" width="62.933" height="27.676" style="fill:#b3ddc0;stroke:#231f20;stroke-width:1px;"/><path d="M582.139,323.554l-8.505,1.417l0,-2.835l8.505,1.418Z" style="fill:#231f20;fill-rule:nonzero;"/><path d="M599.808,321.153l-1.417,-8.504l2.835,-0l-1.418,8.504Z" style="fill:#231f20;fill-rule:nonzero;"/><path d="M606.894,321.153l-1.417,-8.504l2.835,-0l-1.418,8.504Z" style="fill:#231f20;fill-rule:nonzero;"/><path d="M592.724,321.153l1.416,-8.504l-2.835,-0l1.418,8.504Z" style="fill:#231f20;fill-rule:nonzero;"/><path d="M582.139,330.643l-8.505,1.417l0,-2.835l8.505,1.418Z" style="fill:#231f20;fill-rule:nonzero;"/><path d="M582.139,337.731l-8.505,1.417l0,-2.835l8.505,1.418Z" style="fill:#231f20;fill-rule:nonzero;"/><path d="M645.071,337.731l8.504,1.417l0,-2.835l-8.504,1.418Z" style="fill:#231f20;fill-rule:nonzero;"/><path d="M582.139,344.814l-8.505,1.417l0,-2.835l8.505,1.418Z" style="fill:#231f20;fill-rule:nonzero;"/><path d="M311.645,330.64l191.359,0" style="fill:none;fill-rule:nonzero;stroke:#231f20;stroke-width:1px;stroke-dasharray:6,2;"/><path d="M311.645,337.727l191.359,0" style="fill:none;fill-rule:nonzero;stroke:#231f20;stroke-width:1px;stroke-dasharray:6,2;"/><path d="M503.004,330.64l-8.504,1.417l-0,-2.835l8.504,1.418Z" style="fill:#231f20;fill-rule:nonzero;"/><path d="M503.004,337.727l-8.504,1.417l-0,-2.835l8.504,1.418Z" style="fill:#231f20;fill-rule:nonzero;"/><path d="M372.087,64.803l20.166,-0l0,9.623" style="fill:none;fill-rule:nonzero;stroke:#56a578;stroke-width:2px;"/><path d="M375.974,56.787l-17.629,8.016l-14.091,-0l0,9.623" style="fill:none;fill-rule:nonzero;stroke:#56a578;stroke-width:2px;"/><path d="M431.616,74.425l42.688,0l14.765,-6.064" style="fill:none;fill-rule:nonzero;stroke:#56a578;stroke-width:2px;"/><path d="M548.504,74.425l8.758,2.465l-0,-4.93l-8.758,2.465l-59.349,0l-0,-2.685l-0,5.089" style="fill:none;fill-rule:nonzero;stroke:#56a578;stroke-width:2px;"/><rect x="621.995" y="114.111" width="5.669" height="5.67" style="fill:#fff;"/><rect x="621.995" y="247.493" width="5.669" height="5.67" style="fill:#fff;"/><path d="M304.341,74.284c-0,5.074 -4.113,9.188 -9.186,9.188c-5.074,-0 -9.187,-4.114 -9.187,-9.188c-0,-5.073 4.113,-9.186 9.187,-9.186c5.073,-0 9.186,4.113 9.186,9.186" style="fill:#b3ddc0;fill-rule:nonzero;"/><path d="M295.155,69.506l-5.042,8.141l10.083,-0l-5.041,-8.141Z" style="fill:none;fill-rule:nonzero;stroke:#231f20;stroke-width:0.5px;"/><path d="M288.799,74.284c0,5.073 -4.113,9.187 -9.186,9.187c-5.074,-0 -9.187,-4.114 -9.187,-9.187c0,-5.074 4.113,-9.186 9.187,-9.186c5.073,-0 9.186,4.112 9.186,9.186" style="fill:#b3ddc0;fill-rule:nonzero;"/><path d="M304.341,74.285c-0,-5.071 -4.117,-9.187 -9.187,-9.187c-5.07,-0 -9.186,4.116 -9.186,9.187c-0,5.07 4.116,9.187 9.186,9.187c5.07,-0 9.187,-4.117 9.187,-9.187Z" style="fill:none;stroke:#231f20;stroke-width:1px;"/><path d="M288.799,74.284c0,-5.07 -4.116,-9.186 -9.186,-9.186c-5.07,-0 -9.187,4.116 -9.187,9.186c0,5.071 4.117,9.187 9.187,9.187c5.07,-0 9.186,-4.116 9.186,-9.187Z" style="fill:none;stroke:#231f20;stroke-width:1px;"/><path d="M275.483,78.354l4.154,-4.778l4.269,4.778" style="fill:none;fill-rule:nonzero;stroke:#231f20;stroke-width:0.5px;"/><path d="M279.637,73.576l0,-5.319" style="fill:none;fill-rule:nonzero;stroke:#231f20;stroke-width:0.5px;"/><path d="M432.036,73.208c0,-1.105 0.896,-2.003 2.003,-2.003c1.106,-0 2.002,0.898 2.002,2.003l-4.005,-0Z" style="fill:none;fill-rule:nonzero;stroke:#231f20;stroke-width:1px;"/><path d="M372.549,63.53c-0,-1.105 0.898,-2.003 2.006,-2.003c1.109,0 2.007,0.898 2.007,2.003l-4.013,0Z" style="fill:none;fill-rule:nonzero;stroke:#231f20;stroke-width:1px;"/><rect x="360.814" y="68.674" width="14.882" height="11.627" style="fill:#b3ddc0;stroke:#231f20;stroke-width:1px;"/><rect x="639.002" y="193.812" width="22.274" height="44.594" style="fill:#b3ddc0;stroke:#231f20;stroke-width:1px;"/><path d="M653.971,214.837l3.831,-0" style="fill:none;fill-rule:nonzero;stroke:#231f20;stroke-width:1px;"/><path d="M646.397,218.758l7.573,-3.921" style="fill:none;fill-rule:nonzero;stroke:#231f20;stroke-width:1px;"/><path d="M642.744,214.837l3.653,-0" style="fill:none;fill-rule:nonzero;stroke:#231f20;stroke-width:1px;"/><path d="M646.397,212.877l0,3.92" style="fill:none;fill-rule:nonzero;stroke:#231f20;stroke-width:1px;"/><path d="M638.802,202.198l-13.973,-0l-0,-95.84" style="fill:none;fill-rule:nonzero;stroke:#ed1c24;stroke-width:2px;"/><path d="M661.276,216.593l14.872,0" style="fill:none;fill-rule:nonzero;stroke:#231f20;stroke-width:2px;"/><path d="M676.148,209.157l0,14.872" style="fill:none;fill-rule:nonzero;stroke:#231f20;stroke-width:2px;"/><path d="M679.693,211.016l0,11.153" style="fill:none;fill-rule:nonzero;stroke:#231f20;stroke-width:2px;"/><path d="M683.238,213.457l0,6.273" style="fill:none;fill-rule:nonzero;stroke:#231f20;stroke-width:2px;"/><rect x="561.015" y="131.119" width="21.844" height="18.366" style="fill:#b3ddc0;stroke:#231f20;stroke-width:1px;"/><rect x="511.29" y="131.119" width="21.844" height="18.366" style="fill:#b3ddc0;stroke:#231f20;stroke-width:1px;"/><path d="M720.418,216.72l-25.683,0l-0,33.604l-80.753,0l-0,-30.344" style="fill:none;fill-rule:nonzero;stroke:#231f20;stroke-width:1px;"/><rect x="384.555" y="116.945" width="66.581" height="86.602" style="fill:#fff;stroke:#231f20;stroke-width:1px;"/><rect x="392.627" y="124.031" width="50.205" height="71.43" style="fill:#b3ddc0;stroke:#231f20;stroke-width:0.75px;"/><path d="M430.318,155.069l-7.219,13.069l14.438,-0l-7.219,-13.069Z" style="fill:none;fill-rule:nonzero;stroke:#231f20;stroke-width:1px;"/><path d="M437.714,155.069l-14.793,-0" style="fill:none;fill-rule:nonzero;stroke:#231f20;stroke-width:1px;"/><path d="M422.239,142.469l8.079,0l-0,36.399l-8.079,0" style="fill:none;fill-rule:nonzero;stroke:#231f20;stroke-width:1px;"/><path d="M422.239,138.16l-0,8.62l-21.94,8.779" style="fill:none;fill-rule:nonzero;stroke:#231f20;stroke-width:1px;"/><path d="M422.239,182.177l-0,-8.618l-21.94,-8.784" style="fill:none;fill-rule:nonzero;stroke:#231f20;stroke-width:1px;"/><path d="M400.03,147.259l0,25.705" style="fill:none;fill-rule:nonzero;stroke:#231f20;stroke-width:2px;stroke-linecap:round;"/><path d="M420.489,169.451l1.749,4.108l-3.229,2.119" style="fill:none;fill-rule:nonzero;stroke:#231f20;stroke-width:1px;"/><rect x="559.992" y="294.717" width="13.516" height="13.345" style="fill:#b3ddc0;stroke:#231f20;stroke-width:1px;"/><path d="M562.09,301.257l8.504,3.013l0,-6.192l-8.504,3.179Z" style="fill:#231f20;fill-rule:nonzero;"/><path d="M241.742,74.425c-0,1.745 -1.414,3.159 -3.159,3.159c-1.744,0 -3.158,-1.414 -3.158,-3.159c-0,-1.744 1.414,-3.158 3.158,-3.158c1.745,0 3.159,1.414 3.159,3.158" style="fill:#b3ddc0;fill-rule:nonzero;"/><path d="M241.742,74.425c-0,-1.743 -1.416,-3.158 -3.159,-3.158c-1.743,-0 -3.158,1.415 -3.158,3.158c-0,1.744 1.415,3.159 3.158,3.159c1.743,-0 3.159,-1.415 3.159,-3.159Z" style="fill:none;stroke:#231f20;stroke-width:1px;"/><rect x="205.739" y="124.031" width="22.083" height="28.347" style="fill:#b3ddc0;stroke:#231f20;stroke-width:0.75px;"/><path d="M216.78,132.177l-7.219,12.051l14.438,0l-7.219,-12.051Z" style="fill:none;fill-rule:nonzero;stroke:#231f20;stroke-width:1px;"/><path d="M224.177,132.177l-14.794,0" style="fill:none;fill-rule:nonzero;stroke:#231f20;stroke-width:1px;"/><path d="M216.78,148.431l0,-20.411" style="fill:none;fill-rule:nonzero;stroke:#231f20;stroke-width:1px;"/><rect x="205.739" y="167.115" width="22.083" height="28.346" style="fill:#b3ddc0;stroke:#231f20;stroke-width:0.75px;"/><path d="M216.78,175.26l-7.219,12.051l14.438,0l-7.219,-12.051Z" style="fill:none;fill-rule:nonzero;stroke:#231f20;stroke-width:1px;"/><path d="M224.177,175.26l-14.794,0" style="fill:none;fill-rule:nonzero;stroke:#231f20;stroke-width:1px;"/><path d="M216.78,191.514l0,-20.41" style="fill:none;fill-rule:nonzero;stroke:#231f20;stroke-width:1px;"/><path d="M637.926,304.919l3.896,-7.358" style="fill:none;fill-rule:nonzero;stroke:#231f20;stroke-width:0.5px;"/><path d="M640.052,304.919l3.896,-7.358" style="fill:none;fill-rule:nonzero;stroke:#231f20;stroke-width:0.5px;"/><path d="M642.178,304.919l3.894,-7.358" style="fill:none;fill-rule:nonzero;stroke:#231f20;stroke-width:0.5px;"/><path d="M562.773,311.164l7.358,3.896" style="fill:none;fill-rule:nonzero;stroke:#231f20;stroke-width:0.5px;"/><path d="M562.773,313.29l7.358,3.895" style="fill:none;fill-rule:nonzero;stroke:#231f20;stroke-width:0.5px;"/><text x="56.225px" y="125.469px" style="font-family:'ArialMT', 'Arial', sans-serif;font-size:8px;fill:#231f20;">PT2</text><text x="168.407px" y="100.413px" style="font-family:'ArialMT', 'Arial', sans-serif;font-size:8px;fill:#231f20;">DFE</text><text x="249.928px" y="100.412px" style="font-family:'ArialMT', 'Arial', sans-serif;font-size:8px;fill:#231f20;">DCC</text><text x="331.602px" y="100.678px" style="font-family:'ArialMT', 'Arial', sans-serif;font-size:8px;fill:#231f20;">INV</text><text x="511.157px" y="100.478px" style="font-family:'ArialMT', 'Arial', sans-serif;font-size:8px;fill:#231f20;">ILC</text><text x="759.312px" y="101.246px" style="font-family:'ArialMT', 'Arial', sans-serif;font-size:8px;fill:#231f20;">AC OUT</text><text x="783.441px" y="60.988px" style="font-family:'ArialMT', 'Arial', sans-serif;font-size:8px;fill:#231f20;">BR2</text><text x="168.923px" y="57.561px" style="font-family:'ArialMT', 'Arial', sans-serif;font-size:8px;fill:#231f20;">PRE</text><g transform="matrix(1,0,0,1,-131.387,-344.35)"><text x="957.752px" y="562.372px" style="font-family:'Arial-BoldMT', 'Arial', sans-serif;font-weight:700;font-size:18px;fill:#ed1c24;">M</text><text x="955.24px" y="571.212px" style="font-family:'ArialMT', 'Arial', sans-serif;font-size:8px;fill:#231f20;">3</text></g><text x="729.881px" y="197.536px" style="font-family:'ArialMT', 'Arial', sans-serif;font-size:8px;fill:#231f20;">Chopper</text><g transform="matrix(1,0,0,1,-131.387,-344.35)"><text x="410.828px" y="673.768px" style="font-family:'Arial-BoldMT', 'Arial', sans-serif;font-weight:700;font-size:8px;fill:#231f20;">DFE</text><text x="399.052px" y="681.768px" style="font-family:'Arial-BoldMT', 'Arial', sans-serif;font-weight:700;font-size:8px;fill:#231f20;">Protection</text><text x="413.268px" y="689.768px" style="font-family:'Arial-BoldMT', 'Arial', sans-serif;font-weight:700;font-size:8px;fill:#231f20;">1/2</text></g><g transform="matrix(1,0,0,1,-131.387,-344.35)"><text x="651.556px" y="673.768px" style="font-family:'Arial-BoldMT', 'Arial', sans-serif;font-weight:700;font-size:8px;fill:#231f20;">DFE</text><text x="639.78px" y="681.768px" style="font-family:'Arial-BoldMT', 'Arial', sans-serif;font-weight:700;font-size:8px;fill:#231f20;">Protection</text><text x="653.996px" y="689.768px" style="font-family:'Arial-BoldMT', 'Arial', sans-serif;font-weight:700;font-size:8px;fill:#231f20;">2.2</text></g><g transform="matrix(1,0,0,1,-131.387,-344.35)"><text x="736.068px" y="678.171px" style="font-family:'Arial-BoldMT', 'Arial', sans-serif;font-weight:700;font-size:8px;fill:#231f20;">PIBe</text><text x="734.956px" y="686.171px" style="font-family:'Arial-BoldMT', 'Arial', sans-serif;font-weight:700;font-size:8px;fill:#231f20;">Drive</text></g><text x="278.202px" y="61.39px" style="font-family:'ArialMT', 'Arial', sans-serif;font-size:8px;fill:#231f20;">Yd1<tspan x="291.842px " y="61.39px ">1</tspan></text><text x="248.538px" y="294.126px" style="font-family:'ArialMT', 'Arial', sans-serif;font-size:8px;fill:#231f20;">DC-</text><text x="247.538px" y="129.926px" style="font-family:'ArialMT', 'Arial', sans-serif;font-size:8px;fill:#231f20;">DC+</text><g transform="matrix(1,0,0,1,-131.387,-344.35)"><text x="693.658px" y="483.511px" style="font-family:'ArialMT', 'Arial', sans-serif;font-size:7px;fill:#231f20;">0 Seq.</text><text x="694.246px" y="490.511px" style="font-family:'ArialMT', 'Arial', sans-serif;font-size:7px;fill:#231f20;">Meas.</text></g><g transform="matrix(1,0,0,1,-131.387,-344.35)"><text x="644.218px" y="483.511px" style="font-family:'ArialMT', 'Arial', sans-serif;font-size:7px;fill:#231f20;">VDC+</text><text x="644.12px" y="490.511px" style="font-family:'ArialMT', 'Arial', sans-serif;font-size:7px;fill:#231f20;">Meas.</text></g><g transform="matrix(1,0,0,1,-131.387,-344.35)"><text x="645.093px" y="585.347px" style="font-family:'ArialMT', 'Arial', sans-serif;font-size:7px;fill:#231f20;">VDC-</text><text x="644.12px" y="592.347px" style="font-family:'ArialMT', 'Arial', sans-serif;font-size:7px;fill:#231f20;">Meas.</text></g><g transform="matrix(1,0,0,1,-131.387,-344.35)"><text x="685.991px" y="628.615px" style="font-family:'ArialMT', 'Arial', sans-serif;font-size:8px;fill:#231f20;">Sensor</text><text x="684.655px" y="636.615px" style="font-family:'ArialMT', 'Arial', sans-serif;font-size:8px;fill:#231f20;">x3 I Out</text></g><g transform="matrix(1,0,0,1,-131.387,-344.35)"><text x="339.071px" y="407.143px" style="font-family:'ArialMT', 'Arial', sans-serif;font-size:8px;fill:#231f20;">Sensor</text><text x="342.927px" y="415.143px" style="font-family:'ArialMT', 'Arial', sans-serif;font-size:8px;fill:#231f20;">x2 <tspan x="353.454px 358.341px " y="415.143px 415.143px ">TI</tspan></text></g><g transform="matrix(1,0,0,1,-131.387,-344.35)"><text x="692.999px" y="417.327px" style="font-family:'ArialMT', 'Arial', sans-serif;font-size:8px;fill:#231f20;">440V Pre-magnetisation Supply</text><text x="692.999px" y="425.327px" style="font-family:'ArialMT', 'Arial', sans-serif;font-size:8px;fill:#231f20;">from PM2 Group Starter LGSP8</text></g><text x="58.927px" y="300.958px" style="font-family:'Arial-BoldMT', 'Arial', sans-serif;font-weight:700;font-size:8px;fill:#231f20;">FC2 Shown</text><g transform="matrix(1,0,0,1,-131.387,-344.35)"><text x="152.082px" y="608.988px" style="font-family:'Arial-BoldMT', 'Arial', sans-serif;font-weight:700;font-size:8px;fill:#231f20;">Propulsion Converter</text><g transform="matrix(8,0,0,8,181.847,617.988)"></g><g transform="matrix(8,0,0,8,184.511,617.988)"></g><text x="157.842px" y="617.988px" style="font-family:'Arial-BoldMT', 'Arial', sans-serif;font-weight:700;font-size:8px;fill:#231f20;">Simpliﬁed Electrical</text><text x="184.082px" y="626.988px" style="font-family:'Arial-BoldMT', 'Arial', sans-serif;font-weight:700;font-size:8px;fill:#231f20;">Arrangement</text></g><g transform="matrix(1,0,0,1,-131.387,-344.35)"><text x="175.362px" y="532.052px" style="font-family:'Arial-BoldMT', 'Arial', sans-serif;font-weight:700;font-size:8px;fill:#231f20;">Propulsion</text><text x="172.906px" y="541.052px" style="font-family:'Arial-BoldMT', 'Arial', sans-serif;font-weight:700;font-size:8px;fill:#231f20;">T<tspan x="177.351px 180.464px " y="541.052px 541.052px ">ra</tspan>nsformer</text></g><g transform="matrix(1,0,0,1,-131.387,-344.35)"><text x="943.906px" y="523.988px" style="font-family:'Arial-BoldMT', 'Arial', sans-serif;font-weight:700;font-size:8px;fill:#231f20;">Propulsion</text><text x="944.354px" y="532.988px" style="font-family:'Arial-BoldMT', 'Arial', sans-serif;font-weight:700;font-size:8px;fill:#231f20;">Motor PM2</text></g><g transform="matrix(1,0,0,1,-131.387,-344.35)"><text x="912.834px" y="417.572px" style="font-family:'Arial-BoldMT', 'Arial', sans-serif;font-weight:700;font-size:8px;fill:#231f20;">Brake</text><text x="907.946px" y="426.572px" style="font-family:'Arial-BoldMT', 'Arial', sans-serif;font-weight:700;font-size:8px;fill:#231f20;">Resistor</text></g><path d="M41.917,157.167l-29.72,0" style="fill:none;fill-rule:nonzero;stroke:#ed1c24;stroke-width:2px;"/><path d="M17.556,157.285l-12.756,3.619l0,-7.24l12.756,3.621Z" style="fill:#ed1c24;fill-rule:nonzero;"/><rect x="297.657" y="136.731" width="5.669" height="5.669" style="fill:#b3ddc0;"/><rect x="297.657" y="185.828" width="5.669" height="5.669" style="fill:#b3ddc0;"/><rect x="297.657" y="199.892" width="5.669" height="5.669" style="fill:#b3ddc0;"/><rect x="297.657" y="213.569" width="5.669" height="5.669" style="fill:#b3ddc0;"/><path d="M285.329,146.851l7.29,-7.484l42.581,0l0,49.355l-43.355,0l-6.516,-6.516" style="fill:none;fill-rule:nonzero;stroke:#231f20;stroke-width:0.75px;stroke-linecap:round;"/><rect x="317.464" y="226.96" width="5.669" height="5.669" style="fill:#fff;"/><rect x="317.464" y="276.55" width="5.669" height="5.669" style="fill:#fff;"/><rect x="297.657" y="227.13" width="5.669" height="5.669" style="fill:#b3ddc0;"/><rect x="297.657" y="276.227" width="5.669" height="5.669" style="fill:#b3ddc0;"/><path d="M285.329,237.251l7.29,-7.484l42.581,-0l0,49.355l-43.355,-0l-6.516,-6.516" style="fill:none;fill-rule:nonzero;stroke:#231f20;stroke-width:0.75px;stroke-linecap:round;"/><path d="M638.605,216.72l-338.457,0l-14.497,-14.173l64.458,0l0,-43.177l23.872,0" style="fill:none;fill-rule:nonzero;stroke:#ed1c24;stroke-width:2px;"/><path d="M739.136,82.077l-0,107.159" style="fill:none;fill-rule:nonzero;stroke:#231f20;stroke-width:1px;"/><path d="M744.942,82.077l0,107.159" style="fill:none;fill-rule:nonzero;stroke:#231f20;stroke-width:1px;"/><path d="M750.749,82.077l-0,107.159" style="fill:none;fill-rule:nonzero;stroke:#231f20;stroke-width:1px;"/><path d="M731.2,66.981l27.484,-0" style="fill:none;fill-rule:nonzero;stroke:#231f20;stroke-width:1px;"/></g></g></svg>