<?xml version="1.0" encoding="UTF-8" standalone="no"?><!DOCTYPE svg PUBLIC "-//W3C//DTD SVG 1.1//EN" "http://www.w3.org/Graphics/SVG/1.1/DTD/svg11.dtd"><svg width="100%" height="100%" viewBox="0 0 615 411" version="1.1" xmlns="http://www.w3.org/2000/svg" xmlns:xlink="http://www.w3.org/1999/xlink" xml:space="preserve" xmlns:serif="http://www.serif.com/" style="fill-rule:evenodd;clip-rule:evenodd;stroke-linecap:round;stroke-linejoin:round;stroke-miterlimit:1.5;"><rect id="pulse_width_mod" x="0" y="0" width="615" height="410.334" style="fill:none;"/><clipPath id="_clip1"><rect id="pulse_width_mod1" serif:id="pulse_width_mod" x="0" y="0" width="615" height="410.334"/></clipPath><g clip-path="url(#_clip1)"><g><g><path d="M92,119.99l531,0" style="fill:none;stroke:#000;stroke-width:1.5px;"/><path d="M92,247.99l531,0" style="fill:none;stroke:#000;stroke-width:1.5px;"/><path d="M92,375.99l541,0" style="fill:none;stroke:#000;stroke-width:1.5px;"/></g><g><path d="M101,7.99l-0,416" style="fill:none;stroke:#000;stroke-opacity:0.5;stroke-width:1.5px;"/><path d="M229,7.99l-0,416" style="fill:none;stroke:#000;stroke-opacity:0.5;stroke-width:1.5px;"/><path d="M357,7.99l-0,416" style="fill:none;stroke:#000;stroke-opacity:0.5;stroke-width:1.5px;"/><path d="M485,7.99l-0,416" style="fill:none;stroke:#000;stroke-opacity:0.5;stroke-width:1.5px;"/><path d="M613,7.99l-0,416" style="fill:none;stroke:#000;stroke-opacity:0.5;stroke-width:1.5px;"/></g></g><g><g><path d="M101,55.99l-9,0" style="fill:none;stroke:#000;stroke-width:1.5px;"/><path d="M101,183.99l-9,0" style="fill:none;stroke:#000;stroke-width:1.5px;"/><path d="M101,311.892l-9,0" style="fill:none;stroke:#000;stroke-width:1.5px;"/></g><path d="M101,247.99l-0,-64l64,0l-0,64l64,0l-0,-64l64,0l-0,64l64,0l-0,-64l64,0l-0,64l64,0l-0,-64l64,0l-0,64l64,0" style="fill:#c4d1e0;stroke:#407cbf;stroke-width:3.5px;"/><path d="M613,247.99l-0,-64" style="fill:none;stroke:#407cbf;stroke-width:3.5px;"/><path d="M613,119.99l-0,-64" style="fill:none;stroke:#407cbf;stroke-width:3.5px;"/><path d="M613,375.99l-0,-64" style="fill:none;stroke:#407cbf;stroke-width:3.5px;"/><path d="M101,119.99l-0,-64l32,0l-0,64l96,0l-0,-64l32,0l-0,64l96,0l-0,-64l32,0l-0,64l96,0l-0,-64l32,0l-0,64l96,0" style="fill:#c4d1e0;stroke:#407cbf;stroke-width:3.5px;"/><path d="M101,375.99l-0,-64l96,0l-0,64l32,0l-0,-64l96,0l-0,64l32,0l-0,-64l96,0l-0,64l32,0l-0,-64l96,0l-0,64l32,0" style="fill:#c4d1e0;stroke:#407cbf;stroke-width:3.5px;"/></g><g><path d="M239.8,20.39l-10.8,3.6l10.8,3.6l0,-7.2Z"/><path d="M346.2,20.39l10.8,3.6l-10.8,3.6l-0,-7.2Z"/><path d="M237.64,23.99l110.72,0" style="fill:none;stroke:#000;stroke-width:0.8px;"/><g><g transform="matrix(12,0,0,12,308.131,21.332)"></g><text x="276.801px" y="21.332px" style="font-family:'TimesNewRomanPSMT', 'Times New Roman', serif;font-size:12px;">Period</text></g></g><g transform="matrix(12,0,0,12,314.067,48.1171)"></g><text x="234.081px" y="48.117px" style="font-family:'TimesNewRomanPSMT', 'Times New Roman', serif;font-size:12px;">25% Duty Cycle</text><g transform="matrix(12,0,0,12,313.751,171.89)"></g><text x="233.765px" y="171.89px" style="font-family:'TimesNewRomanPSMT', 'Times New Roman', serif;font-size:12px;">50% Duty Cycle</text><g transform="matrix(12,0,0,12,313.88,299.89)"></g><text x="233.894px" y="299.89px" style="font-family:'TimesNewRomanPSMT', 'Times New Roman', serif;font-size:12px;">75% Duty Cycle</text><g><g transform="matrix(12,0,0,12,82.5029,60.127)"></g><text x="54.507px" y="60.127px" style="font-family:'TimesNewRomanPSMT', 'Times New Roman', serif;font-size:12px;">100%</text><g transform="matrix(12,0,0,12,82.5029,188.127)"></g><text x="54.507px" y="188.127px" style="font-family:'TimesNewRomanPSMT', 'Times New Roman', serif;font-size:12px;">100%</text><g transform="matrix(12,0,0,12,82.5029,316.029)"></g><text x="54.507px" y="316.029px" style="font-family:'TimesNewRomanPSMT', 'Times New Roman', serif;font-size:12px;">100%</text><g transform="matrix(12,0,0,12,82.5029,332.127)"></g><text x="60.507px" y="332.127px" style="font-family:'TimesNewRomanPSMT', 'Times New Roman', serif;font-size:12px;">75%</text><g transform="matrix(12,0,0,12,82.5029,220.084)"></g><text x="60.507px" y="220.084px" style="font-family:'TimesNewRomanPSMT', 'Times New Roman', serif;font-size:12px;">50%</text><g transform="matrix(12,0,0,12,82.5029,107.425)"></g><text x="60.507px" y="107.425px" style="font-family:'TimesNewRomanPSMT', 'Times New Roman', serif;font-size:12px;">25%</text></g><g transform="matrix(1,0,0,1,-974.41,-358.475)"><text x="985px" y="458.99px" style="font-family:'TimesNewRomanPSMT', 'Times New Roman', serif;font-size:12px;">A<tspan x="992.775px 998.775px " y="458.99px 458.99px ">ve</tspan>rage</text><g transform="matrix(12,0,0,12,1018.33,471.5)"></g><text x="985px" y="471.5px" style="font-family:'TimesNewRomanPSMT', 'Times New Roman', serif;font-size:12px;">Output</text></g><path d="M93,103.99l520,0" style="fill:none;stroke:#000;stroke-width:0.95px;stroke-dasharray:7.6,5.7,0,0,0,0;"/><path d="M93,215.99l520,0" style="fill:none;stroke:#000;stroke-width:0.95px;stroke-dasharray:7.6,5.7,0,0,0,0;"/><path d="M93,327.99l520,0" style="fill:none;stroke:#000;stroke-width:0.95px;stroke-dasharray:7.6,5.7,0,0,0,0;"/></g></svg>