<?xml version="1.0" encoding="UTF-8" standalone="no"?><!DOCTYPE svg PUBLIC "-//W3C//DTD SVG 1.1//EN" "http://www.w3.org/Graphics/SVG/1.1/DTD/svg11.dtd"><svg width="100%" height="100%" viewBox="0 0 342 149" version="1.1" xmlns="http://www.w3.org/2000/svg" xmlns:xlink="http://www.w3.org/1999/xlink" xml:space="preserve" xmlns:serif="http://www.serif.com/" style="fill-rule:evenodd;clip-rule:evenodd;stroke-linecap:round;stroke-linejoin:round;stroke-miterlimit:10;"><rect id="rectifier_out" x="0" y="0.128" width="341.04" height="148.08" style="fill:none;"/><clipPath id="_clip1"><rect id="rectifier_out1" serif:id="rectifier_out" x="0" y="0.128" width="341.04" height="148.08"/></clipPath><g clip-path="url(#_clip1)"><g><g id="layer2"><g><clipPath id="_clip2"><rect x="17.913" y="-144.44" width="297.148" height="353"/></clipPath><g clip-path="url(#_clip2)"><path d="M17.913,230.043l-0,-547.738" style="fill:none;fill-rule:nonzero;stroke:#a0a0a0;stroke-width:0.44px;"/><path d="M32.764,230.043l-0,-547.738" style="fill:none;fill-rule:nonzero;stroke:#a0a0a0;stroke-width:0.44px;"/><path d="M47.623,230.043l0,-547.738" style="fill:none;fill-rule:nonzero;stroke:#a0a0a0;stroke-width:0.44px;"/><path d="M62.483,230.043l-0,-547.738" style="fill:none;fill-rule:nonzero;stroke:#a0a0a0;stroke-width:0.44px;"/><path d="M77.343,230.043l-0,-547.738" style="fill:none;fill-rule:nonzero;stroke:#a0a0a0;stroke-width:0.44px;"/><path d="M92.193,230.043l0,-547.738" style="fill:none;fill-rule:nonzero;stroke:#a0a0a0;stroke-width:0.44px;"/><path d="M107.053,230.043l-0,-547.738" style="fill:none;fill-rule:nonzero;stroke:#a0a0a0;stroke-width:0.44px;"/><path d="M121.913,230.043l-0,-547.738" style="fill:none;fill-rule:nonzero;stroke:#a0a0a0;stroke-width:0.44px;"/><path d="M136.772,230.043l0,-547.738" style="fill:none;fill-rule:nonzero;stroke:#a0a0a0;stroke-width:0.44px;"/><path d="M151.632,230.043l-0,-547.738" style="fill:none;fill-rule:nonzero;stroke:#a0a0a0;stroke-width:0.44px;"/><path d="M166.483,230.043l-0,-547.738" style="fill:none;fill-rule:nonzero;stroke:#a0a0a0;stroke-width:0.44px;"/><path d="M181.342,230.043l0,-547.738" style="fill:none;fill-rule:nonzero;stroke:#a0a0a0;stroke-width:0.44px;"/><path d="M196.202,230.043l-0,-547.738" style="fill:none;fill-rule:nonzero;stroke:#a0a0a0;stroke-width:0.44px;"/><path d="M211.061,230.043l0,-547.738" style="fill:none;fill-rule:nonzero;stroke:#a0a0a0;stroke-width:0.44px;"/><path d="M225.912,230.043l0,-547.738" style="fill:none;fill-rule:nonzero;stroke:#a0a0a0;stroke-width:0.44px;"/><path d="M240.772,230.043l-0,-547.738" style="fill:none;fill-rule:nonzero;stroke:#a0a0a0;stroke-width:0.44px;"/><path d="M255.631,230.043l0,-547.738" style="fill:none;fill-rule:nonzero;stroke:#a0a0a0;stroke-width:0.44px;"/><path d="M270.491,230.043l-0,-547.738" style="fill:none;fill-rule:nonzero;stroke:#a0a0a0;stroke-width:0.44px;"/><path d="M285.351,230.043l-0,-547.738" style="fill:none;fill-rule:nonzero;stroke:#a0a0a0;stroke-width:0.44px;"/><path d="M300.201,230.043l0,-547.738" style="fill:none;fill-rule:nonzero;stroke:#a0a0a0;stroke-width:0.44px;"/><path d="M315.061,230.043l-0,-547.738" style="fill:none;fill-rule:nonzero;stroke:#a0a0a0;stroke-width:0.44px;"/></g></g><g><path d="M17.913,78.072l2.624,6.555m-0,0l3.33,8.676m0,-0l1.661,4.47l1.661,4.541l1.661,4.594l1.661,4.629l1.661,4.656l0.415,1.157l1.246,-2.482l1.661,-4.647l1.66,-4.629l1.661,-4.577l1.661,-4.523l3.331,-8.808l3.322,-8.402l3.321,-7.862m0,-0l3.322,-7.236l3.322,-6.493l3.33,-5.672l3.322,-4.77l3.322,-3.808l3.322,-2.783l1.661,-0.998l1.661,-0.725l1.66,-0.459l1.661,-0.186l1.661,0.089l1.67,0.353l1.661,0.636l1.661,0.901l3.321,2.589l3.322,3.622l3.322,4.594l3.322,5.513l3.33,6.352l3.322,7.111l3.322,7.757l3.322,8.305l3.321,8.746l1.661,4.496l1.661,4.568l1.67,4.603l1.661,4.638l1.661,4.664l0.203,-0.521l0.212,-0.583l0.415,-1.166l2.491,-6.971l1.661,-4.602l1.661,-4.568l1.661,-4.497l3.322,-8.746l3.322,-8.313l3.33,-7.757l3.322,-7.111l3.322,-6.361l3.322,-5.522l3.321,-4.603l3.322,-3.622l3.331,-2.606l1.661,-0.901l1.66,-0.636l1.661,-0.362l1.661,-0.089l1.661,0.186l1.661,0.451l1.661,0.724l1.661,0.998l3.33,2.774l3.322,3.79l3.322,4.771l3.322,5.663l3.321,6.493l3.322,7.227l3.331,7.862l3.322,8.393l3.321,8.808l1.661,4.523l1.661,4.577l1.661,4.62l1.661,4.647l0.83,2.332l0.212,0.583l0.619,-1.457l1.661,-4.656l1.669,-4.629l1.661,-4.594l1.661,-4.541l1.661,-4.47l3.322,-8.685l3.322,-8.225l3.321,-7.65l3.322,-6.988l3.331,-6.22l3.321,-5.362l3.322,-4.435l3.322,-3.455l1.661,-1.334l1.661,-1.077l1.661,-0.813l1.661,-0.539l1.669,-0.265l1.661,0.009l1.661,0.274l1.661,0.547l1.661,0.822l1.661,1.087m-0,-0l3.321,2.959l3.322,3.967l3.331,4.93l3.322,5.813l3.321,6.634l3.322,7.342l3.322,7.968l3.322,8.473m-0,-0l1.661,4.39l1.669,4.48l1.661,4.54l1.661,4.594l1.661,4.639l1.661,4.646l0.415,1.167l0.415,-0.654l2.492,-6.971m-0,0l1.66,-4.62l1.661,-4.576l1.661,-4.523l1.661,-4.444m0,-0l3.331,-8.605m-0,-0l2.067,-5.133" style="fill:none;fill-rule:nonzero;stroke:#f00;stroke-opacity:0.7;stroke-width:0.88px;stroke-linecap:butt;stroke-dasharray:9,8;"/><path d="M17.913,38.29l2.624,0.336m-0,0l3.33,1.405m0,-0l3.322,2.473l3.322,3.499l3.322,4.488l3.321,5.407l3.322,6.263l3.331,7.024l3.322,7.686l3.321,8.251m0,0l3.322,8.693l1.661,4.479l1.661,4.55l1.661,4.603l1.669,4.629l1.661,4.656l0.416,1.078l0.203,-0.575l0.212,-0.583l0.83,-2.332l1.661,-4.647l1.661,-4.62l1.661,-4.568l1.661,-4.514l3.322,-8.791l3.321,-8.375l3.331,-7.827l3.322,-7.191l3.321,-6.449l3.322,-5.628l3.322,-4.709l3.322,-3.746l3.33,-2.721l1.661,-0.971l1.661,-0.698l1.661,-0.424l1.661,-0.151l1.661,0.115l1.661,0.389l1.661,0.663l1.66,0.936l3.322,2.65l3.331,3.676l3.322,4.655l3.321,5.566l3.322,6.396l3.322,7.147l3.322,7.792l3.33,8.34l3.322,8.764l1.661,4.505l1.661,4.568l1.661,4.612l1.661,4.646l1.66,3.631l0.212,-0.583l0.204,-0.583l0.415,-1.157l0.83,-2.332l1.661,-4.638l1.661,-4.603l1.67,-4.559l1.661,-4.488l3.321,-8.719l3.322,-8.287l3.322,-7.73l3.322,-7.068l3.33,-6.308l3.322,-5.468l3.322,-4.55l3.322,-3.569l3.321,-2.536l1.661,-0.874l1.661,-0.601l1.661,-0.336l1.67,-0.053l1.661,0.212l1.661,0.486l1.66,0.76l1.661,1.025l3.322,2.836l3.322,3.851l3.322,4.815l3.33,5.716l3.322,6.538l3.322,7.27l3.322,7.899l3.321,8.419l3.322,8.825l1.67,4.533l1.661,4.585l1.661,4.629l1.66,4.647l0.831,2.332l0.415,-0.804l0.415,-1.166l1.661,-4.647l1.661,-4.629l1.661,-4.594l1.661,-4.532l1.661,-4.462l3.322,-8.657l3.33,-8.19l3.322,-7.624l3.322,-6.944m-0,-0l3.321,-6.167l3.322,-5.309l3.331,-4.382l3.322,-3.392l1.66,-1.308l1.661,-1.042l1.661,-0.778l1.661,-0.512l1.661,-0.23l1.661,0.035l1.661,0.31l1.661,0.583m-0,-0l3.33,1.961l1.661,1.387l1.661,1.634l3.322,4.029l3.322,4.983m-0,-0l3.321,5.866l3.322,6.67m0,-0l3.331,7.385m-0,0l2.067,4.921" style="fill:none;fill-rule:nonzero;stroke:#00f;stroke-opacity:0.7;stroke-width:0.88px;stroke-linecap:butt;stroke-dasharray:9,8;"/><path d="M17.913,78.072l2.624,-6.211m-0,0l3.33,-7.27m0,-0l3.322,-6.547l3.322,-5.716l3.322,-4.832l3.321,-3.861l3.322,-2.844l1.67,-1.025l1.661,-0.76l1.661,-0.486l1.661,-0.221l1.66,0.053l1.661,0.327m0,0l3.322,1.467l0.831,0.539l0.83,0.6l1.661,1.396l3.33,3.56l3.322,4.541l3.322,5.46l3.322,6.308l3.322,7.059l3.321,7.73l3.331,8.278l3.322,8.719l1.661,4.488l1.66,4.559l1.661,4.603l1.661,4.638l1.661,4.656l0.212,0.574l0.203,-0.583l1.246,-3.499l1.661,-4.638l1.661,-4.611l1.661,-4.577l1.669,-4.505l3.322,-8.764l3.322,-8.34l3.322,-7.801l3.321,-7.147l3.322,-6.405l3.331,-5.574l3.322,-4.656l3.321,-3.693l3.322,-2.659l1.661,-0.937l1.661,-0.662l1.661,-0.398l1.661,-0.115l1.669,0.151l1.661,0.415l1.661,0.698l1.661,0.963l3.322,2.712l3.322,3.737l3.321,4.709l3.322,5.618l3.331,6.441l3.321,7.191l3.322,7.827l3.322,8.367l3.322,8.79l1.661,4.506l1.669,4.576l1.661,4.62l2.492,6.971l0.415,1.166l0.415,-0.945l1.661,-4.656l1.661,-4.638l1.661,-4.603l1.661,-4.541l1.66,-4.488l3.322,-8.702l3.331,-8.251l3.322,-7.695l3.321,-7.024l3.322,-6.263l3.322,-5.416l3.322,-4.497l3.33,-3.507l3.322,-2.474l1.661,-0.839l1.661,-0.574l1.661,-0.3l1.661,-0.027l1.66,0.247l1.661,0.522l1.661,0.786l1.661,1.051l3.331,2.898l3.321,3.914l3.322,4.876l3.322,5.76l3.322,6.582l3.322,7.306l3.33,7.934l3.322,8.445l1.661,4.382l1.661,4.471m-0,-0l1.661,4.532l1.66,4.594l1.661,4.629l1.661,4.656l0.831,1.599l0.212,-0.583l0.203,-0.584l0.415,-1.157l1.67,-4.656l1.661,-4.62l1.661,-4.585l1.66,-4.523l1.661,-4.462l3.322,-8.631l3.322,-8.163l3.322,-7.58m-0,-0l3.33,-6.9l3.322,-6.122l3.322,-5.257l3.322,-4.329m-0,0l3.321,-3.33l1.661,-1.272l1.661,-1.016m0,-0l3.331,-1.22m-0,0l2.067,-0.212" style="fill:none;fill-rule:nonzero;stroke:#006400;stroke-opacity:0.7;stroke-width:0.88px;stroke-linecap:butt;stroke-dasharray:9,8;"/></g><path d="M17.913,38.29l2.624,0.336m-0,0l3.33,1.405m0,-0l3.322,2.473l3.322,3.499l1.661,2.129l0.415,0.565l1.246,-1.201l3.321,-3.861l3.322,-2.844l1.67,-1.025l1.661,-0.76l1.661,-0.486l1.661,-0.221l1.66,0.053l1.661,0.327m0,0l3.322,1.467l0.831,0.539l0.83,0.6l1.661,1.396l3.33,3.56l1.661,2.147l0.416,0.539l0.415,-0.574l0.83,-1.104l3.322,-3.808l3.322,-2.783l1.661,-0.998l1.661,-0.725l1.66,-0.459l1.661,-0.186l1.661,0.089l1.67,0.353l1.661,0.636l1.661,0.901l3.321,2.589l3.322,3.622l1.661,2.182l0.831,-0.574l0.83,-1.087l3.322,-3.746l3.33,-2.721l1.661,-0.971l1.661,-0.698l1.661,-0.424l1.661,-0.151l1.661,0.115l1.661,0.389l1.661,0.663l1.66,0.936l3.322,2.65l3.331,3.676l1.661,2.208l0.415,-0.539l0.415,-0.565l0.831,-1.069l3.321,-3.693l3.322,-2.659l1.661,-0.937l1.661,-0.662l1.661,-0.398l1.661,-0.115l1.669,0.151l1.661,0.415l1.661,0.698l1.661,0.963l3.322,2.712l3.322,3.737l1.66,1.723l0.416,-0.566l0.415,-0.556l0.83,-1.061l3.322,-3.622l3.331,-2.606l1.661,-0.901l1.66,-0.636l1.661,-0.362l1.661,-0.089l1.661,0.186l1.661,0.451l1.661,0.724l1.661,0.998l3.33,2.774l3.322,3.79l0.831,1.105l0.415,0.574l0.415,-0.468l1.661,-2.156l3.322,-3.569l3.321,-2.536l1.661,-0.874l1.661,-0.601l1.661,-0.336l1.67,-0.053l1.661,0.212l1.661,0.486l1.66,0.76l1.661,1.025l3.322,2.836l3.322,3.851l0.83,1.114l0.831,-0.424l1.661,-2.13l3.33,-3.507l3.322,-2.474l1.661,-0.839l1.661,-0.574l1.661,-0.3l1.661,-0.027l1.66,0.247l1.661,0.522l1.661,0.786l1.661,1.051l3.331,2.898l3.321,3.914l0.831,1.13l0.83,-0.962l1.661,-2.094l3.322,-3.455l1.661,-1.334l1.661,-1.077l1.661,-0.813l1.661,-0.539l1.669,-0.265l1.661,0.009l1.661,0.274l1.661,0.547l1.661,0.822l1.661,1.087m-0,-0l3.321,2.959l3.322,3.967l0.831,0.786l0.415,-0.574l0.415,-0.557l1.67,-2.067l3.322,-3.392l1.66,-1.308l1.661,-1.042l1.661,-0.778l1.661,-0.512l1.661,-0.23l1.661,0.035l1.661,0.31l1.661,0.583m-0,-0l3.33,1.961l1.661,1.387l1.661,1.634l3.322,4.029l0.415,0.574l1.246,-1.44l1.661,-2.041m-0,0l3.321,-3.33l1.661,-1.272l1.661,-1.016m0,-0l3.331,-1.22m-0,0l2.067,-0.212" style="fill:none;fill-rule:nonzero;stroke:#000;stroke-opacity:0.7;stroke-width:2.21px;"/><g id="axes"><path d="M17.913,117.854l2.624,-0m-0,-0l3.33,-0m0,-0l26.583,-0m0,-0l212.691,-0m-0,-0l26.583,-0m-0,-0l13.296,-0m-0,-0l6.643,-0m0,-0l3.331,-0m-0,-0l2.067,-0" style="fill:none;fill-rule:nonzero;stroke:#202020;stroke-opacity:0.7;stroke-width:2.21px;"/></g></g></g></g></svg>