<?xml version="1.0" encoding="UTF-8" standalone="no"?><!DOCTYPE svg PUBLIC "-//W3C//DTD SVG 1.1//EN" "http://www.w3.org/Graphics/SVG/1.1/DTD/svg11.dtd"><svg width="100%" height="100%" viewBox="0 0 342 149" version="1.1" xmlns="http://www.w3.org/2000/svg" xmlns:xlink="http://www.w3.org/1999/xlink" xml:space="preserve" xmlns:serif="http://www.serif.com/" style="fill-rule:evenodd;clip-rule:evenodd;stroke-linecap:round;stroke-linejoin:round;stroke-miterlimit:10;"><rect id="rectifier_in" x="0" y="0" width="341.04" height="148.08" style="fill:none;"/><clipPath id="_clip1"><rect id="rectifier_in1" serif:id="rectifier_in" x="0" y="0" width="341.04" height="148.08"/></clipPath><g clip-path="url(#_clip1)"><g><g id="layer2"><g><clipPath id="_clip2"><rect x="17.913" y="2.44" width="297.148" height="353"/></clipPath><g clip-path="url(#_clip2)"><path d="M17.913,376.923l-0,-547.738" style="fill:none;fill-rule:nonzero;stroke:#a0a0a0;stroke-width:0.44px;"/><path d="M32.764,376.923l-0,-547.738" style="fill:none;fill-rule:nonzero;stroke:#a0a0a0;stroke-width:0.44px;"/><path d="M47.623,376.923l0,-547.738" style="fill:none;fill-rule:nonzero;stroke:#a0a0a0;stroke-width:0.44px;"/><path d="M62.483,376.923l-0,-547.738" style="fill:none;fill-rule:nonzero;stroke:#a0a0a0;stroke-width:0.44px;"/><path d="M77.343,376.923l-0,-547.738" style="fill:none;fill-rule:nonzero;stroke:#a0a0a0;stroke-width:0.44px;"/><path d="M92.193,376.923l0,-547.738" style="fill:none;fill-rule:nonzero;stroke:#a0a0a0;stroke-width:0.44px;"/><path d="M107.053,376.923l-0,-547.738" style="fill:none;fill-rule:nonzero;stroke:#a0a0a0;stroke-width:0.44px;"/><path d="M121.913,376.923l-0,-547.738" style="fill:none;fill-rule:nonzero;stroke:#a0a0a0;stroke-width:0.44px;"/><path d="M136.772,376.923l0,-547.738" style="fill:none;fill-rule:nonzero;stroke:#a0a0a0;stroke-width:0.44px;"/><path d="M151.632,376.923l-0,-547.738" style="fill:none;fill-rule:nonzero;stroke:#a0a0a0;stroke-width:0.44px;"/><path d="M166.483,376.923l-0,-547.738" style="fill:none;fill-rule:nonzero;stroke:#a0a0a0;stroke-width:0.44px;"/><path d="M181.342,376.923l0,-547.738" style="fill:none;fill-rule:nonzero;stroke:#a0a0a0;stroke-width:0.44px;"/><path d="M196.202,376.923l-0,-547.738" style="fill:none;fill-rule:nonzero;stroke:#a0a0a0;stroke-width:0.44px;"/><path d="M211.061,376.923l0,-547.738" style="fill:none;fill-rule:nonzero;stroke:#a0a0a0;stroke-width:0.44px;"/><path d="M225.912,376.923l0,-547.738" style="fill:none;fill-rule:nonzero;stroke:#a0a0a0;stroke-width:0.44px;"/><path d="M240.772,376.923l-0,-547.738" style="fill:none;fill-rule:nonzero;stroke:#a0a0a0;stroke-width:0.44px;"/><path d="M255.631,376.923l0,-547.738" style="fill:none;fill-rule:nonzero;stroke:#a0a0a0;stroke-width:0.44px;"/><path d="M270.491,376.923l-0,-547.738" style="fill:none;fill-rule:nonzero;stroke:#a0a0a0;stroke-width:0.44px;"/><path d="M285.351,376.923l-0,-547.738" style="fill:none;fill-rule:nonzero;stroke:#a0a0a0;stroke-width:0.44px;"/><path d="M300.201,376.923l0,-547.738" style="fill:none;fill-rule:nonzero;stroke:#a0a0a0;stroke-width:0.44px;"/><path d="M315.061,376.923l-0,-547.738" style="fill:none;fill-rule:nonzero;stroke:#a0a0a0;stroke-width:0.44px;"/></g></g><g><path d="M17.913,80.976l2.624,-4.249m-0,0l3.33,-5.318m0,-0l3.322,-5.186l3.322,-4.983l3.322,-4.709l3.321,-4.381l3.322,-3.985l3.331,-3.534l3.322,-3.03l3.321,-2.491m0,-0l3.322,-1.926l3.322,-1.325l3.33,-0.698l1.661,-0.115l1.661,0.035l3.322,0.557l1.661,0.503l1.661,0.672l3.322,1.776l3.321,2.358l3.331,2.907l3.322,3.419l3.321,3.878l3.322,4.285l3.322,4.638l3.322,4.93l3.33,5.141l3.322,5.292l3.322,5.363l3.322,5.371l3.321,5.301l3.322,5.15l3.331,4.939l3.322,4.656l3.321,4.32l3.322,3.905l3.322,3.445l3.322,2.942l3.33,2.403l3.322,1.811l3.322,1.219l3.322,0.592l1.66,0.062l1.661,-0.097l3.322,-0.663l3.331,-1.281l3.321,-1.882l3.322,-2.456l3.322,-3.003l3.322,-3.499l3.33,-3.958l3.322,-4.355l3.322,-4.691l3.322,-4.965l3.321,-5.177l3.322,-5.31l3.331,-5.371l3.322,-5.363l3.321,-5.274l3.322,-5.124l3.322,-4.894l3.322,-4.603l3.33,-4.241l3.322,-3.834l3.322,-3.366l3.322,-2.844l3.321,-2.297l3.322,-1.714l3.331,-1.113l1.661,-0.318l1.66,-0.159l3.322,0.141l1.661,0.309l1.661,0.46l3.322,1.395l3.322,1.979l3.33,2.562l3.322,3.092l3.322,3.587m-0,0l3.321,4.029l3.322,4.417l3.331,4.744l3.322,5.009l3.321,5.195l3.322,5.327l3.322,5.38l3.322,5.354m-0,0l3.33,5.257l3.322,5.079l3.322,4.851l3.322,4.549m-0,0l3.321,4.17l3.322,3.755m0,-0l3.331,3.277m-0,0l2.067,1.776" style="fill:none;fill-rule:nonzero;stroke:#f00;stroke-opacity:0.7;stroke-width:2.21px;"/><path d="M17.913,41.195l2.624,2.297m-0,-0l3.33,3.357m0,-0l3.322,3.825l3.322,4.25l3.322,4.593l3.321,4.895l3.322,5.124l3.331,5.274l3.322,5.363l3.321,5.371m0,-0l3.322,5.309l3.322,5.177l3.33,4.965l3.322,4.7l3.322,4.356l3.322,3.958l3.322,3.498l3.321,3.004l3.331,2.465l3.322,1.89l3.321,1.281l3.322,0.672l1.661,0.097l1.661,-0.062l3.322,-0.583l3.33,-1.21l3.322,-1.82l3.322,-2.394l3.322,-2.934l3.321,-3.445l3.322,-3.905l3.331,-4.311l3.322,-4.656l3.321,-4.938l3.322,-5.151l3.322,-5.301l3.322,-5.371l3.33,-5.362l3.322,-5.292l3.322,-5.142l3.322,-4.93l3.321,-4.638l3.322,-4.293l3.331,-3.879l3.321,-3.419l3.322,-2.915l3.322,-2.359l3.322,-1.784l3.33,-1.184l1.661,-0.354l1.661,-0.203l3.322,0.071l1.661,0.274l1.661,0.433l3.321,1.316l3.322,1.917l3.331,2.491l3.322,3.031l3.321,3.525l3.322,3.984l3.322,4.373l3.322,4.709l3.33,4.983l3.322,5.185l3.322,5.31l3.322,5.38l3.321,5.354l3.322,5.274l3.331,5.106l3.321,4.886l3.322,4.576l3.322,4.223l3.322,3.808l3.322,3.33l3.33,2.818l3.322,2.271l3.322,1.678m-0,0l3.321,1.069l1.661,0.301l1.661,0.15l3.331,-0.186l1.661,-0.326l1.661,-0.486l3.321,-1.423l3.322,-2.023l3.322,-2.588l3.322,-3.119m-0,0l3.33,-3.613l3.322,-4.055l3.322,-4.435l3.322,-4.762m-0,0l3.321,-5.018l3.322,-5.212m0,-0l3.331,-5.336m-0,-0l2.067,-3.349" style="fill:none;fill-rule:nonzero;stroke:#00f;stroke-opacity:0.7;stroke-width:2.21px;"/><path d="M17.913,120.758l2.624,1.961m-0,0l3.33,1.953m0,-0l3.322,1.36l3.322,0.742l1.661,0.133l1.661,-0.027l3.321,-0.512l1.661,-0.495l1.661,-0.645l3.331,-1.74l3.322,-2.332l3.321,-2.871m0,-0l3.322,-3.393l3.322,-3.852l3.33,-4.267l3.322,-4.62l3.322,-4.903l3.322,-5.133l3.322,-5.283l3.321,-5.363l3.331,-5.371l3.322,-5.31l3.321,-5.159l3.322,-4.956l3.322,-4.674l3.322,-4.337l3.33,-3.932l3.322,-3.481l3.322,-2.968l3.322,-2.429l3.321,-1.856l3.322,-1.254l3.331,-0.627l1.661,-0.08l1.661,0.08l3.321,0.627l3.322,1.246l3.322,1.846l3.322,2.429l3.33,2.969l3.322,3.472l3.322,3.931l3.322,4.329l3.321,4.673l3.322,4.957l3.331,5.159l3.321,5.301l6.644,10.742l3.322,5.283l3.33,5.133l3.322,4.912l3.322,4.621l3.322,4.267l3.321,3.852l3.322,3.392l3.331,2.88l3.322,2.332l3.321,1.75l3.322,1.139l1.661,0.345l1.661,0.176l3.322,-0.106l1.669,-0.291l1.661,-0.442l3.322,-1.351l3.322,-1.953l3.322,-2.527l3.321,-3.065l3.322,-3.552l3.331,-4.002l3.321,-4.399l3.322,-4.727l3.322,-5l3.322,-5.186l3.322,-5.327l3.33,-5.371l3.322,-5.354l3.322,-5.265m-0,-0l3.321,-5.098l3.322,-4.868l3.331,-4.558l3.322,-4.206l3.321,-3.772l3.322,-3.313l3.322,-2.783l3.322,-2.235m-0,0l3.33,-1.643l3.322,-1.034l1.661,-0.282l1.661,-0.124l3.322,0.221m-0,-0l3.321,0.839l3.322,1.458m0,-0l3.331,2.058m-0,0l2.067,1.573" style="fill:none;fill-rule:nonzero;stroke:#006400;stroke-opacity:0.7;stroke-width:2.21px;"/></g><g id="axes"><path d="M17.913,80.976l2.624,0m-0,0l3.33,0m0,0l26.583,0m0,0l212.691,0m-0,0l26.583,0m-0,0l13.296,0m-0,0l6.643,0m0,0l3.331,0m-0,0l2.067,0" style="fill:none;fill-rule:nonzero;stroke:#000;stroke-opacity:0.7;stroke-width:1.33px;"/></g></g></g></g></svg>