<?xml version="1.0" encoding="UTF-8" standalone="no"?><!DOCTYPE svg PUBLIC "-//W3C//DTD SVG 1.1//EN" "http://www.w3.org/Graphics/SVG/1.1/DTD/svg11.dtd"><svg width="100%" height="100%" viewBox="0 0 434 138" version="1.1" xmlns="http://www.w3.org/2000/svg" xmlns:xlink="http://www.w3.org/1999/xlink" xml:space="preserve" xmlns:serif="http://www.serif.com/" style="fill-rule:evenodd;clip-rule:evenodd;stroke-linejoin:round;"><rect id="rotor" x="0" y="0" width="433.174" height="137.518" style="fill:none;"/><g id="rotor1" serif:id="rotor"><g id="rotor2" serif:id="rotor"><path d="M300.745,85.354l-23.878,-1.479l-0.283,2.429l23.913,1.732l0.248,-2.682Z" style="fill:#7e8082;fill-rule:nonzero;"/><path d="M300.745,87.219l21.636,1.679l17.533,0.56l85.503,5.483c0.022,-0.033 0.045,-0.071 0.069,-0.106l-124.741,-9.039l0,1.423Z" style="fill:#7e8082;fill-rule:nonzero;"/><path d="M302.114,56.879l22.382,1.244l0.248,0.992l17.66,1.494l-0.252,-0.994l84.058,5.471l0.598,-0.055c-0.727,-1.147 -1.598,-1.615 -2.4,-1.499l-82.442,-4.663l-0.56,-1.119l-17.16,-0.933l-0.373,-1.119l-21.636,-1.119c0,-0.746 0.187,-2.611 -0.559,-2.611l-20.703,-0.933l-2.477,2.848l23.616,1.502l0,1.494Z" style="fill:#66676a;fill-rule:nonzero;"/><path d="M426.21,65.086l-84.058,-5.471l0.252,0.994l-17.66,-1.494l-0.248,-0.992l-22.382,-1.244l0,-1.494l-23.616,-1.502l-0.01,0.012l-0.248,2.984l-10.195,-0l-0.009,0.031l33.83,1.461l0,1.244l22.505,0.869l0.125,0.748l17.908,1.492l0.248,1.117l5.968,0l0,-2.734l78.582,4.633c-0.125,-0.263 -0.259,-0.492 -0.394,-0.709l-0.598,0.055Z" style="fill:#d6d7d9;fill-rule:nonzero;"/><path d="M302.045,68.558l22.451,1.252l0,1.244l18.527,1.431l-0.291,1.792l86.298,5.859c0.046,-1.036 0.059,-2.073 0.045,-3.121l-86.177,-5.836l0.373,-1.865l-18.651,-1.492l-0,-1.119l-22.383,-1.119l0,-1.493l-34.692,-2.208l0,0.468l-3.978,0.248l-0.073,2.128l38.596,2.226l-0.045,1.605Z" style="fill:#d9dbdc;fill-rule:nonzero;"/><path d="M342.732,74.277l0.291,-1.792l-18.527,-1.431l0,-1.244l-22.451,-1.252l0.045,-1.605l-38.596,-2.226l-0.102,3.095l38.551,1.988l-0.092,1.725l22.52,1.384l0,1.367l18.404,1.369l-0.205,1.72l86.221,5.87c0.112,-1.019 0.19,-2.054 0.239,-3.109l-86.298,-5.859Z" style="fill:#fff;fill-rule:nonzero;"/><path d="M342.775,75.655l-18.404,-1.369l0,-1.367l-22.52,-1.384l0.092,-1.725l-38.551,-1.988l-0.101,3.096l38.503,1.753l-0.14,1.841l22.592,1.516l0,1.493l18.279,1.305l-0.121,1.649l85.947,5.864c0.179,-0.998 0.324,-2.029 0.44,-3.094l-86.221,-5.87l0.205,-1.72Z" style="fill:#d9dbdc;fill-rule:nonzero;"/><path d="M342.525,78.826l-18.279,-1.305l0,-1.493l-22.592,-1.516l0.14,-1.841l-38.503,-1.753l-0.077,2.236l38.464,1.778l-0.187,1.843l22.601,1.492l-0,1.492l18.247,1.305l-0.217,1.493l85.794,5.979c0.166,-0.697 0.301,-1.447 0.435,-2.197l-85.947,-5.864l0.121,-1.649Z" style="fill:#66676a;fill-rule:nonzero;"/><path d="M342.122,82.557l0.217,-1.493l-18.247,-1.305l-0,-1.492l-22.601,-1.492l0.187,-1.843l-38.464,-1.778l-0.074,2.268l38.351,1.748l-0.164,1.912l22.61,1.453l-0.185,1.492l18.279,1.462l-0.252,1.492l85.52,5.816c0.226,-0.709 0.431,-1.466 0.617,-2.261l-85.794,-5.979Z" style="fill:#dbdcdd;fill-rule:nonzero;"/><path d="M427.952,68.008l-79.083,-4.663l-0,1.757l77.777,5.144l1.306,-2.238Z" style="fill-rule:nonzero;"/><path d="M348.869,65.102l-0,0.978l0.324,-0.955l-0.324,-0.023Z" style="fill:#aaacaf;fill-rule:nonzero;"/><path d="M429.071,76.028l-1.679,-0.186l-0.746,-5.596l-77.453,-5.121l-0.324,0.955l0.248,4.974l-0.051,0.543l80.009,5.418c-0.006,-0.33 0.007,-0.656 -0.004,-0.987" style="fill:#66676a;fill-rule:nonzero;"/><path d="M348.869,66.08l-5.971,-0l-0.246,-1.118l-17.908,-1.492l-0.124,-0.748l-22.506,-0.869l0,-1.244l-34.569,-1.494l0,2.768l34.692,2.208l0,1.493l22.383,1.119l-0,1.119l18.651,1.492l-0.373,1.865l6.168,0.418l0.051,-0.543l-0.248,-4.974Z" style="fill:#aaacaf;fill-rule:nonzero;"/><path d="M348.62,63.841l-5.968,0l-0.248,-1.117l-17.908,-1.492l-0.125,-0.748l-22.505,-0.869l0,-1.244l-33.83,-1.461l-0.491,2.205l34.569,1.494l0,1.244l22.506,0.869l0.124,0.748l17.908,1.492l0.246,1.118l5.971,-0l-0,-2.735l-0.249,-0.179l0,0.675Z" style="fill:#66676a;fill-rule:nonzero;"/><path d="M427.202,65.74l-78.582,-4.633l0,2.059l0.249,0.179l79.083,4.663c-0.202,-0.904 -0.459,-1.65 -0.75,-2.268" style="fill:#fff;fill-rule:nonzero;"/><path d="M20.597,44.694l-17.906,-0.5c0.129,0.718 0.153,1.363 0.092,1.947l16.57,0.791c1.203,0.149 2.404,0.306 3.443,1.281c0.38,-1.415 -0.328,-3.103 -2.199,-3.519" style="fill-rule:nonzero;"/><path d="M2.783,46.141c-0.174,1.647 -1.047,2.792 -2.332,3.527l19.398,0.621c1.653,0 2.643,-0.951 2.947,-2.076c-1.039,-0.975 -2.24,-1.132 -3.443,-1.281l-16.57,-0.791Z" style="fill:#66676a;fill-rule:nonzero;"/><path d="M74.56,68.163l-14.328,-0.668l-0.187,-0.792l-21.473,-0.886c-0,-0 -0.36,-1.187 -0.676,-2.449l-37.206,-2.018c0.173,0.658 0.388,1.281 0.643,1.867l36.888,2.062l0.979,2.869l21.403,0.839l0.328,0.933l14.095,0.668c0,-0 0.232,1.024 0.252,0.994l37.083,2.594l0.002,-0.013c-0.097,-1.059 -0.423,-1.962 -0.901,-2.742l-36.775,-2.512c-0.039,0.058 -0.127,-0.746 -0.127,-0.746" style="fill:#fff;fill-rule:nonzero;"/><path d="M75.804,73.044l-13.802,-0.623l-0.619,-1.119l-21.202,-0.893c-0.039,-0.038 -0.084,-0.095 -0.132,-0.161c0.688,1.293 2.137,2.546 4.668,2.546l17.908,0.498c0.498,0.746 1.49,1.244 2.488,1.244l11.439,0.746c0.498,1.243 1.99,2.239 3.482,2.239l25.115,1.492l0.873,-0.746l5.968,-0l0.127,-1.412l-35.847,-2.569l-0.466,-1.242Z" style="fill:#66676a;fill-rule:nonzero;"/><path d="M75.026,70.588l-14.095,-0.668l-0.328,-0.933l-21.403,-0.839l-0.979,-2.869l-36.888,-2.062c0.31,0.71 0.691,1.346 1.142,1.898l36.307,2.101c0.222,0.887 0.56,1.73 0.866,2.34l0.097,0.006c0.074,0.227 0.181,0.457 0.304,0.686c0.048,0.066 0.093,0.123 0.132,0.161l21.202,0.893l0.619,1.119l13.802,0.623l0.466,1.242l35.847,2.569l0.244,-2.679l-37.083,-2.594c-0.02,0.03 -0.252,-0.994 -0.252,-0.994" style="fill:#b3b5b7;fill-rule:nonzero;"/><path d="M2.475,65.115c0.905,1.105 2.095,1.849 3.697,1.961l33.476,2.48c-0.306,-0.61 -0.644,-1.453 -0.866,-2.34l-36.307,-2.101Z" style="fill:#66676a;fill-rule:nonzero;"/><path d="M42.425,41.267c-0.418,0.25 -0.69,0.442 -0.69,0.442l-35.313,-1.492c-0.668,0 -1.407,0.582 -2.101,1.42l36.42,1.316l1.684,-1.686Z" style="fill:#66676a;fill-rule:nonzero;"/><path d="M64.367,41.336l13.429,0.871c0.746,-1.244 1.242,-1.492 1.492,-1.865l35.065,1.929l0,-1.308l-30.588,-1.74c-1.991,-0.248 -3.983,0.248 -5.223,1.74l-9.699,-0.5c-1.246,0 -2.984,0 -4.728,0.748l-19.146,-0.994c-0.865,0.144 -1.805,0.619 -2.449,0.996l20.976,0.994l0.871,-0.871Z" style="fill:#66676a;fill-rule:nonzero;"/><path d="M41.019,43.295l21.38,1.02l0.397,-0.787l14.068,0.886c-0,-0 0.514,-1.365 0.746,-1.711l28.341,1.633c0.233,-0.659 0.669,-1.135 1.438,-1.135l6.964,0l0,-0.93l-35.065,-1.929c-0.25,0.373 -0.746,0.621 -1.492,1.865l-13.429,-0.871l-0.871,0.871l-20.976,-0.994c-0.032,0.019 -0.067,0.038 -0.095,0.054l-1.684,1.686l-36.42,-1.316c-0.401,0.483 -0.785,1.048 -1.134,1.647l37.063,1.385c0.03,0.116 0.722,-1.404 0.769,-1.374" style="fill:#d6d7d9;fill-rule:nonzero;"/><path d="M74.42,54.672l-14.47,-0.792l-0.091,0.139c-0,0 -21.847,-0.816 -21.754,-1.119l-37.883,-1.632c-0.052,0.45 -0.101,0.927 -0.138,1.451l37.734,1.674l0,0.559l22.03,0.977l0.755,0.049l13.677,0.714c-0.007,-0.319 0.164,-0.554 0.125,-0.496l38.359,2.397l0.066,-2.313l-38.283,-2.354l-0.127,0.746Z" style="fill:#d9dbdc;fill-rule:nonzero;"/><path d="M75.2,49.892l-14.418,-0.935l-0.117,0.493l-21.465,-1.144c-0.142,-0.085 -0.192,1.185 -0.28,0.84l-16.227,-0.646c-0.24,0.618 -0.701,1.151 -1.376,1.47l16.533,0.692c0.114,0.461 -0.028,-0.418 0.162,-0.304l22.252,1.082l0.089,-0.33l14.449,0.88l0.25,-0.994l27.349,1.619c-0.061,-0.173 -0.43,-1.252 -0.623,-2.367l-26.239,-1.537l-0.339,1.181Z" style="fill:#d9dbdc;fill-rule:nonzero;"/><path d="M74.802,51.99l-14.449,-0.88l-0.089,0.33l-22.252,-1.082c-0.19,-0.114 -0.048,0.765 -0.162,0.304l-16.533,-0.692c-0.414,0.196 -0.895,0.319 -1.468,0.319l-19.398,-0.621c-0.08,0.431 -0.158,0.985 -0.229,1.6l37.883,1.632c-0.093,0.303 21.754,1.119 21.754,1.119l0.091,-0.139l14.47,0.792l0.127,-0.746l38.283,2.354l0.208,-2.192l-10.622,-1.436c0,0 -0.009,-0.024 -0.015,-0.037l-27.349,-1.619l-0.25,0.994Z" style="fill:#fff;fill-rule:nonzero;"/><path d="M76.086,46.62l-14.271,-0.901l-0.184,0.653l-21.707,-1.026c-0.095,-0.059 -0.409,1.256 -0.466,1.026l-17.186,-0.669c0.645,0.794 0.78,1.876 0.421,2.797l16.227,0.646c0.088,0.345 0.138,-0.925 0.28,-0.84l21.465,1.144l0.117,-0.493l14.418,0.935l0.339,-1.181l26.239,1.537c-0.242,-1.397 -0.195,-2.835 1.134,-2.57l2.983,0.498c-0,-0 -0.11,-0.575 -0.166,-1.328l-29.115,-1.688c-0.211,0.313 -0.528,1.46 -0.528,1.46" style="fill:#aaacaf;fill-rule:nonzero;"/><path d="M105.951,44.336l-28.341,-1.633c-0.232,0.346 -0.746,1.711 -0.746,1.711l-14.068,-0.886l-0.397,0.787l-21.38,-1.02c-0.047,-0.03 -0.739,1.49 -0.769,1.374l-37.063,-1.385c-0.175,0.3 -0.343,0.604 -0.496,0.91l17.906,0.5c0.742,0.166 1.293,0.537 1.675,1.009l17.186,0.669c0.057,0.23 0.371,-1.085 0.466,-1.026l21.707,1.026l0.184,-0.653l14.271,0.901c-0,0 0.317,-1.147 0.528,-1.46l29.115,1.688c-0.054,-0.785 -0.049,-1.765 0.222,-2.512" style="fill:#66676a;fill-rule:nonzero;"/><path d="M59.484,60.128l-0,-0.28l-21.892,-0.957l-0.024,-1.234l-37.561,-1.838c0.012,0.607 0.041,1.22 0.09,1.836l37.471,1.889c0,0 0.071,1.632 0.142,1.656l21.774,0.886l0.095,0.467l14.58,0.792c0,0 0.062,0.187 -0.032,0.187l11.855,0.793c-0.397,-0.864 -0.097,-1.877 1.013,-2.099l2.022,-0.337l-14.983,-0.968l-14.55,-0.793Z" style="fill:#aaacaf;fill-rule:nonzero;"/><path d="M74.28,56.692l-13.677,-0.714l-0.755,-0.049l-22.03,-0.977l0,-0.559l-37.734,-1.674c-0.028,0.407 -0.052,0.83 -0.065,1.269l37.644,1.779c0.023,0.071 -0.024,0.864 -0.024,0.864l21.94,0.979l0.093,0.14l14.487,0.778l0.028,-0.28l38.294,2.46l0.283,-2.115l-38.359,-2.397c0.039,-0.058 -0.132,0.177 -0.125,0.496" style="fill:#aaacaf;fill-rule:nonzero;"/><path d="M74.159,63.345l-14.58,-0.792l-0.095,-0.467l-21.774,-0.886c-0.071,-0.024 -0.142,-1.656 -0.142,-1.656l-37.471,-1.889c0.048,0.615 0.114,1.234 0.207,1.841l37.406,1.96l0.349,2.029l21.636,0.955l0.117,0.537l14.409,0.761l0.125,0.467l33.604,2.281c-0.985,-0.465 -2.029,-0.81 -3.047,-1.037l-17.16,-1.865c-0.908,-0.152 -1.49,-0.672 -1.761,-1.259l-11.855,-0.793c0.094,-0 0.032,-0.187 0.032,-0.187" style="fill-rule:nonzero;"/><path d="M74.221,65.738l-14.409,-0.761l-0.117,-0.537l-21.636,-0.955l-0.349,-2.029l-37.406,-1.96c0.099,0.634 0.227,1.251 0.386,1.854l37.206,2.018c0.316,1.262 0.676,2.449 0.676,2.449l21.473,0.886l0.187,0.792l14.328,0.668c0,0 0.088,0.804 0.127,0.746l36.775,2.512c-0.813,-1.326 -2.09,-2.266 -3.512,-2.935l-33.604,-2.281l-0.125,-0.467Z" style="fill:#7e8082;fill-rule:nonzero;"/><path d="M74.159,58.528l-14.487,-0.778l-0.093,-0.14l-21.94,-0.979c0,-0 0.047,-0.793 0.024,-0.864l-37.644,-1.779c-0.023,0.589 -0.023,1.205 -0.012,1.831l37.561,1.838l0.024,1.234l21.892,0.957l-0,0.28l14.55,0.793l14.983,0.968l4.695,-0.782l18.651,0.498l0.118,-0.897l-38.294,-2.46l-0.028,0.28Z" style="fill:#dbdcdd;fill-rule:nonzero;"/><path d="M301.234,80.132l-38.165,-2.611l-0.668,3.004l38.624,2.24l0.209,-2.633Z" style="fill:#fff;fill-rule:nonzero;"/><path d="M323.252,85.229l0.151,-0.005l0.222,-1.705l-22.6,-0.754l0.093,1.47l22.134,0.994Z" style="fill:#fff;fill-rule:nonzero;"/><path d="M341.098,87.995l0.308,-1.119l-18.092,-0.962l0.089,-0.69l-0.151,0.005l-22.134,-0.994l-0.093,-1.47l-38.624,-2.24l-0.078,0.353l14.548,2.984l-0.004,0.013l23.878,1.479l0,0.442l124.741,9.039c0.369,-0.548 0.722,-1.192 1.046,-1.938l-85.434,-4.902Z" style="fill-rule:nonzero;"/><path d="M342.428,85.024l-0.649,-0.043l0.252,-1.492l-18.279,-1.462l0.185,-1.492l-22.61,-1.453l0.164,-1.912l-38.351,-1.748l-0.071,2.099l38.165,2.611l-0.209,2.633l22.6,0.724l-0.106,0.823l18.385,1.415l0.524,-0.703Z" style="fill:#aaacaf;fill-rule:nonzero;"/><path d="M323.519,84.312l-0.205,1.57l18.092,0.994l-0.481,-1.225l-17.406,-1.339Z" style="fill:#fff;fill-rule:nonzero;"/><path d="M427.299,90.797l-84.871,-5.773l-0.076,0.103l84.386,7.257c0.195,-0.5 0.386,-1.028 0.561,-1.587" style="fill:#aaacaf;fill-rule:nonzero;"/><path d="M341.406,86.876l-0.308,1.119l85.434,4.902c0.054,-0.121 0.103,-0.259 0.153,-0.386l-85.279,-5.635Z" style="fill-rule:nonzero;"/><path d="M433.174,92.938l-6.436,-0.554c-0.017,0.043 -0.036,0.086 -0.053,0.127l6.489,0.427Z" style="fill:#aaacaf;fill-rule:nonzero;"/><path d="M342.352,85.127l-1.692,-0.146l0.265,0.67l0.979,0.076l0.448,-0.6Z" style="fill:#aaacaf;fill-rule:nonzero;"/><path d="M426.738,92.384l-84.386,-7.257l-0.448,0.6l-0.979,-0.076l0.481,1.225l85.279,5.635c0.017,-0.041 0.036,-0.084 0.053,-0.127" style="fill:#aaacaf;fill-rule:nonzero;"/><path d="M278.43,89.359l-0.067,0.099l0.373,2.051l19.585,1.119c0.932,0 1.492,-0.373 1.492,-1.492l0.324,0.012l-0.261,-0.696l-21.446,-1.093Z" style="fill:#66676a;fill-rule:nonzero;"/><path d="M322.941,89.271l-0.56,0.933l-22.009,-0.996l-0.496,1.244l0.261,0.696l20.193,0.734c0.373,0 1.492,-0.186 2.051,-0.746l16.227,0.933c1.119,-0 1.306,-0 1.679,-0.746l0.084,0.005l-0.205,-0.628l-17.225,-1.429Z" style="fill:#66676a;fill-rule:nonzero;"/><path d="M339.914,89.458l-17.16,-1.492l-22.009,-0.747l0,-1.423l-23.915,-1.732l-0.332,1.663l2.611,2.612l-0.679,1.02l21.446,1.093l0.496,-1.244l22.009,0.996l0.56,-0.933l17.225,1.429l0.205,0.628l82.545,5.404c0.899,-0.047 1.74,-0.7 2.501,-1.791l-85.503,-5.483Z" style="fill:#b3b5b7;fill-rule:nonzero;"/><path d="M106.395,23.306l-12.931,0.498c-1.493,-0 -1.743,0.248 -1.245,2.486l0.043,0.145l25.18,-0.499c0.243,-1.028 0.491,-2.032 0.744,-3.011l-2.592,0.133l-9.199,0.248Z" style="fill:#d6d7d9;fill-rule:nonzero;"/><path d="M124.832,5.859c0.89,-1.272 1.792,-2.199 2.699,-2.699l-11.191,0.748c-0.992,0.248 -2.984,0.25 -4.225,1.99l-0.548,1.015c1.568,-0.573 3.268,-0.767 4.773,-0.767l8.492,-0.287Z" style="fill:#b0b2b4;fill-rule:nonzero;"/><path d="M116.838,15.224c-0,-0 -1.49,0.373 -1.677,2.238l4.503,0.25c0.268,-0.86 0.539,-1.69 0.813,-2.488l-3.639,-0Z" style="fill:#d6d7d9;fill-rule:nonzero;"/><path d="M108.819,15.224c0.558,-1.119 3.731,-5.969 3.731,-5.969c0.932,-1.119 2.238,-0.932 3.544,-1.119l7.421,-0.099c0.435,-0.807 0.873,-1.542 1.317,-2.178l-8.492,0.287c-1.505,0 -3.205,0.194 -4.773,0.767l-4.674,8.684c-0.25,0.994 -1.246,1.99 -0.998,3.232l0.5,4.477l1.337,-0.036c-0.216,-2.617 -0.22,-4.316 -0.22,-4.316c-0.185,-0.932 0.748,-2.611 1.307,-3.73" style="fill:#aaacaf;fill-rule:nonzero;"/><path d="M116.838,15.224l3.639,-0c0.97,-2.818 1.99,-5.237 3.038,-7.187l-7.421,0.099c-1.306,0.187 -2.612,0 -3.544,1.119c-0,0 -3.173,4.85 -3.731,5.969c-0.559,1.119 -1.492,2.798 -1.307,3.73c-0,0 0.004,1.699 0.22,4.316l7.862,-0.212l2.592,-0.133c0.474,-1.837 0.968,-3.575 1.478,-5.213l-4.503,-0.25c0.187,-1.865 1.677,-2.238 1.677,-2.238" style="fill:#66676a;fill-rule:nonzero;"/><path d="M116.952,28.148c0.164,-0.741 0.322,-1.492 0.49,-2.212l-25.18,0.499l3.19,10.798l1.757,0.272l-2.378,-9.038l22.121,-0.319Z" style="fill:#aaacaf;fill-rule:nonzero;"/><path d="M116.952,28.148l-22.121,0.319l2.378,9.038l15.898,2.464l1.246,0.994l0,1.58c0.73,-5.094 1.616,-9.924 2.599,-14.395" style="fill:#66676a;fill-rule:nonzero;"/><path d="M108.445,50.476l4.86,0.591c0.149,-1.401 0.308,-2.794 0.48,-4.174l-5.898,-0.148c-0,1.119 -0.375,2.985 0.558,3.731" style="fill:#66676a;fill-rule:nonzero;"/><path d="M105.815,47.659c0.016,0.135 0.033,0.246 0.048,0.33c-0.007,-0.104 -0.028,-0.216 -0.028,-0.311l-0.02,-0.019Z" style="fill:#aaacaf;fill-rule:nonzero;"/><path d="M105.88,48.172l-2.968,-0.494c-2.486,-0.498 -0.496,4.974 -0.496,4.974l10.57,1.442c0.097,-1.018 0.213,-2.018 0.319,-3.027l-4.86,-0.591l-1.491,0.186c-0.625,-0.625 -0.971,-1.63 -1.074,-2.49" style="fill:#66676a;fill-rule:nonzero;"/><path d="M114.26,43.201l-6.871,0c-0.862,0 -1.289,0.607 -1.502,1.384l8.166,0.224c0.067,-0.537 0.131,-1.08 0.207,-1.608" style="fill:#aaacaf;fill-rule:nonzero;"/><path d="M105.815,47.659l0.02,0.019c0,0.095 0.021,0.207 0.028,0.311c0.019,0.114 0.032,0.187 0.032,0.187l-0.015,-0.004c0.103,0.86 0.449,1.865 1.074,2.49l1.491,-0.186c-0.933,-0.746 -0.558,-2.612 -0.558,-3.731l-2.167,-0.08c0.022,0.381 0.057,0.735 0.095,0.994" style="fill:#aaacaf;fill-rule:nonzero;"/><path d="M114.053,44.809l-8.166,-0.224c-0.177,0.651 -0.205,1.412 -0.167,2.08l2.167,0.08l5.898,0.148c0.085,-0.698 0.177,-1.39 0.268,-2.084" style="fill:#d6d7d9;fill-rule:nonzero;"/><path d="M112.363,61.605l-18.651,-0.498l-6.717,1.119c-1.227,0.245 -1.466,1.455 -0.86,2.363l22.25,0c-0,0 1.919,0.401 3.812,1.11c0.066,-1.55 0.138,-3.1 0.239,-4.65l-0.073,0.556Z" style="fill:#aaacaf;fill-rule:nonzero;"/><path d="M86.135,64.589c0.314,0.47 0.843,0.866 1.608,0.995l17.16,1.865c2.874,0.638 6.005,2.109 7.087,5.093c0.026,-2.269 0.105,-4.554 0.207,-6.843c-1.893,-0.709 -3.812,-1.11 -3.812,-1.11l-22.25,0Z" style="fill-rule:nonzero;"/><path d="M112.001,78.147l-0.011,0.12l-5.968,-0l-0.873,0.746c-0.424,0.339 -0.7,1.264 -0.813,2.329l7.759,0.295c-0.039,-1.156 -0.077,-2.318 -0.094,-3.49" style="fill:#aaacaf;fill-rule:nonzero;"/><path d="M104.336,81.342c-0.221,2.052 0.167,4.633 1.311,4.633l6.67,0.248c-0.097,-1.508 -0.166,-3.042 -0.222,-4.586l-7.759,-0.295Z" style="fill-rule:nonzero;"/><path d="M114.518,102.844c-1.323,-0.41 -2.688,-0.703 -3.647,-0.703l-18.154,-1.99c-1.538,-0.192 -2.771,-0.612 -3.702,-1.192c-0.435,1.391 0.017,2.962 2.21,3.182l7.461,1.242l10.939,1.742c2.341,0.233 4.443,1.145 6.135,2.492c-0.452,-1.529 -0.879,-3.104 -1.242,-4.773" style="fill-rule:nonzero;"/><path d="M109.625,105.125c-0.992,1.74 0,4.228 0.748,4.726l5.721,0.247l0.46,0.067c-0.283,-0.815 -0.537,-1.684 -0.794,-2.548c-1.692,-1.347 -3.794,-2.259 -6.135,-2.492" style="fill-rule:nonzero;"/><path d="M103.162,109.851l14.226,2.474c-0.287,-0.705 -0.573,-1.41 -0.834,-2.16l-0.46,-0.067l-5.721,-0.247c-0.748,-0.498 -1.74,-2.986 -0.748,-4.726l-10.939,-1.742l-0.746,2.984c-0.071,0.211 -0.093,0.485 -0.091,0.778c1.227,1.164 3.267,2.233 5.313,2.706" style="fill:#66676a;fill-rule:nonzero;"/><path d="M103.162,109.851c-2.046,-0.473 -4.086,-1.542 -5.313,-2.706c0.009,0.754 0.231,1.671 0.585,2.207l1.744,3.482c0.248,0.996 1.987,2.736 3.481,3.232c1.49,0.498 18.155,3.98 18.155,3.98c-1.735,-2.053 -3.191,-4.681 -4.426,-7.721l-14.226,-2.474Z" style="fill-rule:nonzero;"/><path d="M134.113,4.367c-1.718,0.045 -3.745,0.358 -4.59,1.033c-5.04,2.766 -9.953,18.706 -12.722,38.01l-0,0.636l-0.09,0c-0.481,3.421 -0.895,6.943 -1.229,10.513l-0.019,0.533l-0.511,6.181c-0.239,3.701 -0.386,7.416 -0.433,11.092c0.176,0.483 0.308,0.994 0.362,1.565l-0.086,0.92l14.907,1.923l4.411,-72.406Z" style="fill:#aaacaf;fill-rule:nonzero;"/><path d="M129.702,76.773l-14.907,-1.923l-0.264,2.924c0.042,2.645 0.143,5.251 0.305,7.797l0.045,-0l0.239,0.96l-0.22,-0.002c0.347,4.882 0.826,9.8 1.58,14.302l11.664,1.504l1.558,-25.562Z" style="fill:#66676a;fill-rule:nonzero;"/><path d="M116.48,100.831c1.343,8.039 3.568,14.732 7.522,17.384c1.199,0.722 1.197,0.962 2.639,0.722l0.496,-0.051l1.007,-16.551l-11.664,-1.504Z" style="fill-rule:nonzero;"/><path d="M129.523,5.4c0.845,-0.675 2.872,-0.988 4.59,-1.033l0.132,-2.199c-1.738,-0.248 -5.468,-0 -6.714,0.992c-1.567,0.864 -3.124,2.979 -4.613,6.03l3.262,-0.03c1.093,-1.828 2.214,-3.139 3.343,-3.76" style="fill:#b0b2b4;fill-rule:nonzero;"/><path d="M114.952,61.273l0.511,-6.181l0.019,-0.533c0.334,-3.57 0.748,-7.092 1.229,-10.513l0.09,0l-0,-0.636c2.15,-14.983 5.593,-27.906 9.379,-34.25l-3.262,0.03c-3.465,7.103 -6.558,19.366 -8.565,33.353l0,0.658l-0.093,0c-0.498,3.544 -0.927,7.193 -1.274,10.893l0.052,-0.006l-0.602,6.961c-0.246,3.837 -0.399,7.687 -0.446,11.493c0.108,0.303 0.192,0.623 0.261,0.954l2.571,0.087c-0.068,-0.431 -0.166,-0.835 -0.303,-1.218c0.047,-3.676 0.194,-7.391 0.433,-11.092" style="fill:#d9dbdc;fill-rule:nonzero;"/><path d="M250.013,15.597c-3.358,16.413 -6.715,91.722 -6.715,105.569c0,2.238 -0.746,2.984 -2.238,2.984c-0.714,-0 -3.305,0.086 -5.816,0.173c0.754,2.518 1.25,4.087 1.34,4.303c0.559,1.306 1.305,0.933 1.865,0.933c0.559,-0 2.984,0.373 4.476,0.373c1.492,-0 3.544,-0.933 4.85,-2.238l0.373,-2.425c-0,-0 -1.306,0.186 -1.306,-1.679l-1.492,0.187c-0.746,-0 -1.528,-0.343 -0.373,-1.306c3.357,-2.798 5.222,-9.139 5.222,-14.735l-1.119,-0.186l-0.559,1.492l-1.306,-0.187c-0.746,-0.186 1.865,-11.564 2.611,-11.377l1.679,0.186l-0,-4.103l-1.865,0c-0.933,0 -2.798,-0.746 -3.544,-2.611c-0.746,-1.865 0.932,-3.357 2.425,-4.477c1.492,-1.119 1.865,-2.984 1.865,-3.916c-0,-0.933 -0,-2.425 1.305,-2.612l-0.373,-3.544c0,0 -0.746,0.933 -1.678,0.747c-0.933,-0.187 -1.679,-3.358 -1.492,-6.529c0.186,-3.17 0.746,-6.714 1.678,-6.901c0.933,-0.186 1.865,1.119 1.865,1.119l1.119,-0.559l0.374,-2.611l-0.308,-3.544l-1.246,-0.248l-0.498,-7.711c-2.984,-2.736 -3.232,-4.972 -1.242,-4.972l2.238,-0.25l0.248,-0.994l1.74,-0l0,-3.233l-1.24,-0.498c-0.248,-1.244 -0.748,-9.451 0.494,-11.439l1.492,0.248l0.498,-6.714c0,-1.991 -1.492,-5.471 -2.484,-6.217c-0.461,-0.345 -0.698,-0.845 -0.683,-1.263c-0.692,-0.306 -1.399,-0.585 -2.109,-0.83c0.069,0.465 0.054,0.991 -0.071,1.595" style="fill:#aaacaf;fill-rule:nonzero;"/><path d="M253.37,14.105l3.236,0.246l-1.744,-3.603c-1.119,-1.12 -1.865,-2.239 -4.849,-2.612l-3.731,-0.373l-1.865,-0.746c-0.958,0.591 -2.208,1.795 -3.635,3.453c3.725,0.166 8.8,0.192 9.302,3.532c0.71,0.245 1.417,0.524 2.109,0.83c0.017,-0.487 0.377,-0.861 1.177,-0.727" style="fill:#b0b2b4;fill-rule:nonzero;"/><path d="M230.514,107.818c1.888,6.842 3.604,12.754 4.73,16.505c2.511,-0.087 5.102,-0.173 5.816,-0.173c1.492,-0 2.238,-0.746 2.238,-2.984c0,-2.513 0.112,-7.053 0.312,-12.889c-1.11,0.411 -2.246,0.578 -2.923,0.578l-10.173,-1.037Z" style="fill-rule:nonzero;"/><path d="M229.869,82.37l-5.974,-0.565c1.979,8.667 4.413,17.982 6.619,26.013l10.173,1.037c0.677,0 1.813,-0.167 2.923,-0.578c0.242,-7.005 0.611,-15.885 1.078,-25.405l-14.819,-0.502Z" style="fill:#66676a;fill-rule:nonzero;"/><path d="M240.687,14.105l-2.6,-0.217c-8.015,10.886 -18.812,31.568 -18.103,45.167c0.279,5.387 1.846,13.711 3.911,22.75l5.974,0.565l14.819,0.502c1.223,-24.913 3.098,-54.17 5.011,-65.552c-1.602,-3.501 -6.58,-2.773 -9.012,-3.215" style="fill:#d9dbdc;fill-rule:nonzero;"/><path d="M249.699,17.32c0.103,-0.624 0.209,-1.21 0.314,-1.723c1.013,-4.933 -4.986,-4.937 -9.231,-5.127c-0.845,0.983 -1.75,2.137 -2.695,3.418l2.6,0.217c2.432,0.442 7.41,-0.286 9.012,3.215" style="fill:#66676a;fill-rule:nonzero;"/><path d="M274.788,123.046l-28.879,0.481c-0.895,-0.149 -1.242,-0.479 -1.115,-0.879c-0.845,0.823 -0.14,1.129 0.556,1.129l1.492,-0.187c-0,1.865 1.306,1.679 1.306,1.679l26.362,-0.25l0.17,-0.011c-0.11,-0.315 -0.258,-0.616 -0.42,-0.858c0.198,-0.351 0.371,-0.724 0.528,-1.104" style="fill:#aaacaf;fill-rule:nonzero;"/><path d="M247.775,127.694l0.026,-0l-0.015,-0.068l-0.011,0.068Z" style="fill:#aaacaf;fill-rule:nonzero;"/><path d="M248.148,125.269l-0.362,2.357l0.015,0.068l24.967,-0.187c2.19,0 2.316,-1.367 1.912,-2.499l-0.17,0.011l-26.362,0.25Z" style="fill-rule:nonzero;"/><path d="M249.302,114.576c-0.763,2.906 -2.007,5.51 -3.672,7.233c0.011,-0.007 0.02,-0.015 0.033,-0.022c1.53,-0.556 2.826,-3.839 3.639,-7.211" style="fill:#aaacaf;fill-rule:nonzero;"/><path d="M250.199,107.736c0,1.157 -0.1,2.347 -0.253,3.529c0.207,-1.419 0.3,-2.678 0.253,-3.529" style="fill:#aaacaf;fill-rule:nonzero;"/><path d="M246.655,88.462c-0.746,1.492 0,2.984 0,2.984l31.927,-0.796l-0.137,-0.756l-26.069,-3.173c-1.492,-0.248 -4.974,0.249 -5.721,1.741" style="fill-rule:nonzero;"/><path d="M274.819,92.815l-23.314,0.746l0.047,2.221l23.06,-0.893l0.207,-2.074Z" style="fill-rule:nonzero;"/><path d="M247.2,120.255c-0.477,0.776 -0.99,1.334 -1.537,1.532c-0.013,0.007 -0.022,0.015 -0.033,0.022c-0.215,0.224 -0.424,0.47 -0.653,0.662c-0.077,0.064 -0.125,0.12 -0.183,0.177c-0.127,0.4 0.22,0.73 1.115,0.879l28.879,-0.481c0.382,-0.922 0.641,-1.92 0.809,-2.931l-28.397,0.14Z" style="fill-rule:nonzero;"/><path d="M249.394,103.881l-0.314,3.669l1.119,0.186l4.663,0.87c0.593,0.119 1.295,-1.569 1.763,-3.395l-7.231,-1.33Z" style="fill-rule:nonzero;"/><path d="M252.876,47.43c-1.494,-0.25 -4.23,-0.25 -2.986,1.242l1.242,1.492l3.98,0l25.762,-0.729l-0.065,-1.06l-27.933,-0.945Z" style="fill-rule:nonzero;"/><path d="M268.045,56.879l10.195,-0l0.248,-2.984l2.487,-2.86l-0.101,-1.6l-25.762,0.729l-3.98,0l0.498,7.711l1.246,0.248l15.052,-0.718l0.117,-0.526Z" style="fill:#66676a;fill-rule:nonzero;"/><path d="M256.106,62.599l7.461,0l3.978,-0.248l0,-3.236l0.383,-1.71l-15.052,0.718l0.281,3.232l1.955,0l0.994,1.244Z" style="fill:#66676a;fill-rule:nonzero;"/><path d="M253.868,66.33l1.244,-0l-0.996,-1.244l-1.24,-0.249l-0.334,-0.425l-0.851,0.425c0,0 -0.932,-1.305 -1.865,-1.119c-0.932,0.187 -1.492,3.731 -1.678,6.901c-0.187,3.171 0.559,6.342 1.492,6.529c0.932,0.186 1.678,-0.747 1.678,-0.747l0.092,0.838l0.966,-1.211l1.492,-0.249l0,-1.017l-0.744,-0.476l0.744,-7.956Z" style="fill:#aaacaf;fill-rule:nonzero;"/><path d="M253.502,70.233l-0.378,4.053l0.744,0.476l0,-0.226l4.23,0l0.121,-4.161l-4.717,-0.142Z" style="fill:#66676a;fill-rule:nonzero;"/><path d="M253.868,34.995l0.248,3.978l6.22,0.25l0.249,-2.736l0.468,-0.543l-0.045,-0.44l-7.14,-0.509Z" style="fill:#66676a;fill-rule:nonzero;"/><path d="M252.128,44.942l-2.238,0.25c-1.99,-0 -1.742,2.236 1.242,4.972l-1.242,-1.492c-1.244,-1.492 1.492,-1.492 2.986,-1.242l27.933,0.945l-0.021,-0.324l-28.66,-3.109Z" style="fill:#d6d7d9;fill-rule:nonzero;"/><path d="M255.328,21.926c0.021,-0.485 0.032,-0.883 0.032,-1.107c0,-1.492 1.494,-1.74 1.494,-1.74l25.864,0.746l0.23,-0.016c-0.036,-0.116 -0.103,-0.217 -0.149,-0.329l-29.617,-3.075c0.899,1.044 2.003,3.709 2.146,5.521" style="fill:#aaacaf;fill-rule:nonzero;"/><path d="M279.855,15.597l-24.993,-4.849l1.744,3.603l25.488,4.23c-0,-1.865 -0.746,-2.611 -2.239,-2.984" style="fill:#66676a;fill-rule:nonzero;"/><path d="M282.094,18.581l-25.488,-4.23l-3.236,-0.246c-1.492,-0.248 -1.488,1.244 -0.494,1.99c0.095,0.073 0.199,0.187 0.306,0.31l29.617,3.075c-0.157,-0.363 -0.371,-0.699 -0.705,-0.899" style="fill:#b0b2b4;fill-rule:nonzero;"/><path d="M260.585,31.264l-5.723,-0.498c0,0 0.22,-3.777 0.369,-6.727l-0.369,4.987l-1.492,-0.248c-0.459,0.733 -0.679,2.315 -0.765,4.077l8.2,0.638l-0.22,-2.229Z" style="fill:#aaacaf;fill-rule:nonzero;"/><path d="M260.805,33.493l-8.2,-0.638c-0.141,3.018 0.112,6.579 0.271,7.362l1.24,0.498l0,-1.742l-0.248,-3.978l7.14,0.509l-0.203,-2.011Z" style="fill:#d6d7d9;fill-rule:nonzero;"/><path d="M253.698,68.128l-0.196,2.105l4.717,0.142l0.062,-2.152l-4.583,-0.095Z" style="fill:#d6d7d9;fill-rule:nonzero;"/><path d="M258.344,66.08l-3.232,0.25l-1.244,-0l-0.17,1.798l4.583,0.095l0.063,-2.143Z" style="fill:#aaacaf;fill-rule:nonzero;"/><path d="M255.3,23.121l-0.069,0.918c-0.054,1.108 -0.121,2.331 -0.182,3.432l25.528,1.121c1.082,-1.41 1.604,-3.236 2.041,-4.768l-27.318,-0.703Z" style="fill-rule:nonzero;"/><path d="M246.655,88.462c0.747,-1.492 4.229,-1.989 5.721,-1.741l26.069,3.173l-0.082,-0.436l0.746,-1.119l-2.611,-2.612l0.373,-1.865l-14.548,-2.984l0.746,-3.357l0.498,-14.922l-7.461,0l-0.994,-1.244l-1.955,0l0.027,0.312l-0.374,2.611l-0.268,0.134l0.334,0.425l1.24,0.249l0.996,1.244l3.232,-0.25l-0.246,8.456l-4.23,0l0,1.243l-1.492,0.249l-0.966,1.211l0.281,2.706c-1.305,0.187 -1.305,1.679 -1.305,2.612c-0,0.932 -0.373,2.797 -1.865,3.916c-1.493,1.12 -3.171,2.612 -2.425,4.477c0.035,0.087 0.084,0.16 0.125,0.242c0.089,-0.063 0.186,-0.127 0.274,-0.186c-0.17,-0.549 -0.341,-1.541 0.16,-2.544" style="fill:#66676a;fill-rule:nonzero;"/><path d="M246.655,91.446c0,-0 -0.078,-0.172 -0.16,-0.44c-0.088,0.059 -0.185,0.123 -0.274,0.186c0.804,1.679 2.531,2.369 3.419,2.369l1.865,0l23.314,-0.746c0.933,-0 2.985,-0.373 3.917,-1.306l-0.154,-0.859l-31.927,0.796Z" style="fill:#7e8082;fill-rule:nonzero;"/><path d="M251.63,99.653l-0.125,-6.092l-0,4.103l-1.679,-0.186c-0.746,-0.187 -3.357,11.191 -2.611,11.377l1.306,0.187l0.559,-1.492l0.314,-3.669l0.619,-2.673l1.617,-1.555Z" style="fill:#aaacaf;fill-rule:nonzero;"/><path d="M249.85,101.913l-0.456,1.968l7.231,1.33c0.171,-0.673 0.309,-1.358 0.399,-1.987l-7.174,-1.311Z" style="fill:#7e8082;fill-rule:nonzero;"/><path d="M256.854,100.897l-5.224,-1.244l-1.617,1.555l-0.163,0.705l7.174,1.311c0.185,-1.244 0.175,-2.24 -0.17,-2.327" style="fill:#aaacaf;fill-rule:nonzero;"/><path d="M89.974,96.346l-0.739,2.064c-0.087,0.178 -0.16,0.362 -0.22,0.549c0.931,0.58 2.164,1 3.702,1.192l18.154,1.99c0.959,-0 2.324,0.293 3.647,0.703c-0.277,-1.265 -0.525,-2.572 -0.754,-3.906l-23.79,-2.592Z" style="fill:#7e8082;fill-rule:nonzero;"/><path d="M112.384,87.216l-17.18,-0.246c-1.246,-0 -1.992,-0 -2.487,1.742l-2.743,7.634l23.79,2.592c-0.632,-3.685 -1.089,-7.617 -1.38,-11.722" style="fill:#66676a;fill-rule:nonzero;"/><path d="M271.776,105.685c1.117,-2.425 0.371,-5.782 -0.748,-7.275l0.339,-3.396l-19.815,0.768l0.078,3.871l5.224,1.244c0.992,0.248 -0.748,7.957 -1.992,7.709l-4.663,-0.87c0.047,0.851 -0.046,2.11 -0.253,3.529c-0.15,1.121 -0.362,2.231 -0.644,3.311c-0.239,0.988 -0.526,1.956 -0.839,2.859l24.139,0c0.046,-2.732 -0.491,-5.226 -1.201,-6.341l0.375,-5.409Z" style="fill:#66676a;fill-rule:nonzero;"/><path d="M274.633,111.094l0.373,-5.409c1.119,-2.425 0.373,-5.782 -0.746,-7.275l0.352,-3.521l-3.245,0.125l-0.339,3.396c1.119,1.493 1.865,4.85 0.748,7.275l-0.375,5.409c0.71,1.115 1.247,3.609 1.201,6.341l3.234,0c0.045,-2.732 -0.491,-5.226 -1.203,-6.341" style="fill:#b3b5b7;fill-rule:nonzero;"/><path d="M248.463,117.435c-0.377,1.08 -0.797,2.061 -1.263,2.82l28.397,-0.14c0.151,-0.893 0.224,-1.798 0.239,-2.68l-27.373,0Z" style="fill:#7e8082;fill-rule:nonzero;"/><path d="M256.854,19.079c0,0 -1.494,0.248 -1.494,1.74c0,0.224 -0.011,0.622 -0.032,1.107c0.01,0.128 0.032,0.268 0.032,0.386l-0.06,0.809l24.96,0.644l0.129,-4.007l-23.535,-0.679Z" style="fill:#66676a;fill-rule:nonzero;"/><path d="M282.948,19.809l-0.23,0.016l-2.329,-0.067l-0.129,4.007l2.358,0.059c0.076,-0.266 0.149,-0.522 0.222,-0.766l0.186,-1.679c0.099,-0.397 0.088,-1.003 -0.078,-1.57" style="fill:#b3b5b7;fill-rule:nonzero;"/><path d="M255.049,27.471c-0.099,1.824 -0.187,3.295 -0.187,3.295l5.723,0.498l0.496,4.975l15.417,-0.424l0.636,-7.374l-22.085,-0.97Z" style="fill:#66676a;fill-rule:nonzero;"/><path d="M277.134,28.441l-0.636,7.374l2.798,-0.074l0.746,-6.528c0.196,-0.194 0.369,-0.405 0.535,-0.621l-3.443,-0.151Z" style="fill:#b3b5b7;fill-rule:nonzero;"/><path d="M276.895,40.585l-22.779,-0.724l0,4.087l-1.74,-0l-0.248,0.994l22.449,2.436c0.134,-1.125 0.429,-3.658 0.429,-4.425c0,-0.915 1.462,-1.005 1.889,-2.368" style="fill:#66676a;fill-rule:nonzero;"/><path d="M280.042,46.745l-2.611,-0.186l-0,-1.119c-0,-0.746 0.373,-1.679 1.305,-2.425c0.724,-0.578 1.215,-1.386 1.491,-2.324l-3.332,-0.106c-0.427,1.363 -1.889,1.453 -1.889,2.368c0,0.767 -0.295,3.3 -0.429,4.425l6.211,0.673c0,-0.56 0,-1.119 -0.746,-1.306" style="fill:#b3b5b7;fill-rule:nonzero;"/><path d="M275.636,35.84l-14.555,0.399l-0.028,-0.295l-0.468,0.543l-0.249,2.736l-6.22,-0.25l0,0.888l22.779,0.724c0.038,-0.118 0.082,-0.23 0.101,-0.368c0.161,-1.138 -0.119,-2.671 -1.36,-4.377" style="fill:#aaacaf;fill-rule:nonzero;"/><path d="M279.296,36.86l-0.933,-0.933l0.933,-0.186l-3.66,0.099c1.241,1.706 1.521,3.239 1.36,4.377c-0.019,0.138 -0.063,0.25 -0.101,0.368l3.332,0.106c0.08,-0.272 0.147,-0.552 0.188,-0.847c0.187,-1.305 -0.187,-2.611 -1.119,-2.984" style="fill:#dbdcdd;fill-rule:nonzero;"/><path d="M114.9,86.529l0.22,0.002l-0.239,-0.96l-0.045,-0c-0.162,-2.546 -0.263,-5.152 -0.305,-7.797l0.35,-3.844c-0.013,-0.121 -0.041,-0.231 -0.059,-0.347l-2.571,-0.087c0.047,0.216 0.092,0.434 0.112,0.667l-0.362,3.984c0.043,2.738 0.148,5.439 0.316,8.076l0.046,0l0.246,0.996l-0.225,-0.003c0.321,4.495 0.832,8.792 1.559,12.776l2.499,0.603c-0.731,-4.438 -1.203,-9.27 -1.542,-14.066" style="fill:#b3b5b7;fill-rule:nonzero;"/><path d="M126.641,118.937c-1.442,0.24 -1.44,-0 -2.639,-0.722c-3.992,-2.679 -6.222,-9.475 -7.56,-17.62l-2.499,-0.603c1.552,8.509 4.094,15.584 7.871,20.054c1.242,0.747 1.24,0.996 2.733,0.747l2.49,-0.25l0.1,-1.657l-0.496,0.051Z" style="fill:#7e8082;fill-rule:nonzero;"/><path d="M244.548,7.146l-107.02,-6.418c-1.55,-0.11 -3.109,0.953 -4.627,2.956l110.673,6.519c0.369,-1.968 0.7,-3.057 0.974,-3.057" style="fill:#b0b2b4;fill-rule:nonzero;"/><path d="M132.901,3.684c-0.676,0.892 -1.345,1.951 -1.998,3.206l112.136,6.601c0.186,-1.285 0.365,-2.374 0.535,-3.288l-110.673,-6.519Z" style="fill:#66676a;fill-rule:nonzero;"/><path d="M119.637,77.571c0.043,10.881 0.827,20.59 2.207,28.168l114.626,6.75c0.102,-7.496 0.419,-17.128 0.938,-27.981l-117.771,-6.937Z" style="fill:#66676a;fill-rule:nonzero;"/><path d="M242.356,18.779l-113.708,-6.694c-0.836,2.227 -1.636,4.732 -2.391,7.496l115.275,6.787c0.28,-2.794 0.558,-5.328 0.824,-7.589" style="fill:#d9dbdc;fill-rule:nonzero;"/><path d="M241.532,26.368l-115.275,-6.787c-0.894,3.262 -1.72,6.877 -2.47,10.769l116.747,6.875c0.334,-3.918 0.67,-7.561 0.998,-10.857" style="fill:#fff;fill-rule:nonzero;"/><path d="M243.039,13.491l-112.136,-6.601c-0.776,1.485 -1.526,3.244 -2.255,5.195l113.708,6.694c0.233,-1.983 0.465,-3.771 0.683,-5.288" style="fill:#aaacaf;fill-rule:nonzero;"/><path d="M120.124,60.891c-0.352,5.769 -0.505,11.362 -0.487,16.68l117.771,6.937c0.255,-5.333 0.561,-10.955 0.91,-16.772c0.224,-3.656 0.457,-7.222 0.7,-10.702l-118.038,-6.948c-0.348,3.504 -0.645,7.106 -0.856,10.805" style="fill:#aaacaf;fill-rule:nonzero;"/><path d="M239.928,44.591l-117.401,-6.912c-0.323,2.094 -0.612,4.265 -0.886,6.476l117.796,6.936c0.164,-2.214 0.325,-4.394 0.491,-6.5" style="fill:#aaacaf;fill-rule:nonzero;"/><path d="M121.641,44.155c-0.241,1.937 -0.459,3.916 -0.661,5.931l118.038,6.948c0.136,-2.017 0.276,-3.999 0.419,-5.943l-117.796,-6.936Z" style="fill:#dbdcdd;fill-rule:nonzero;"/><path d="M240.534,37.225l-116.747,-6.875c-0.451,2.345 -0.872,4.79 -1.26,7.329l117.401,6.912c0.199,-2.546 0.403,-5.006 0.606,-7.366" style="fill:#d9dbdc;fill-rule:nonzero;"/><path d="M236.47,112.489l-114.626,-6.75c0.871,4.797 1.983,8.727 3.292,11.579l111.392,6.558c-0.105,-2.806 -0.125,-6.668 -0.058,-11.387" style="fill-rule:nonzero;"/><path d="M236.528,123.876l-111.392,-6.558c1.464,3.189 3.176,5.024 5.086,5.131l107.02,6.526c-0.356,-0.028 -0.591,-1.854 -0.714,-5.099" style="fill:#7e8082;fill-rule:nonzero;"/><path d="M237.242,128.975c-1.395,-0.108 -0.964,-27.504 1.076,-61.239c2.041,-33.303 4.835,-60.59 6.23,-60.59l-107.02,-6.418c-7.628,-0.537 -15.471,26.534 -17.404,60.163c-2.042,33.412 2.47,61.129 10.098,61.558l107.02,6.526Zm-97.028,-128.139c-7.414,-0.433 -15.041,26.534 -17.083,60.269c-2.041,33.411 2.363,61.129 9.777,61.56m10.098,-121.614c-7.306,-0.431 -14.824,26.535 -16.867,60.269c-1.932,33.412 2.257,61.022 9.561,61.451m9.992,-121.614c-7.091,-0.429 -14.504,26.644 -16.438,60.271c-2.04,33.411 2.151,61.131 9.242,61.56m9.99,-121.617c-6.983,-0.429 -14.181,26.536 -16.223,60.271c-2.041,33.411 2.042,61.129 8.917,61.452m10.098,-121.614c-6.875,-0.323 -13.966,26.642 -16.007,60.377c-1.934,33.411 1.933,61.021 8.703,61.453m9.99,-121.614c-6.552,-0.433 -13.644,26.642 -15.576,60.269c-2.042,33.411 1.718,61.129 8.378,61.452m9.992,-121.615c-6.444,-0.322 -13.321,26.644 -15.363,60.378c-2.041,33.41 1.611,61.022 8.059,61.451m10.098,-121.614c-6.34,-0.429 -13.108,26.644 -15.149,60.377c-1.934,33.413 1.503,61.023 7.841,61.344m9.992,-121.615c-6.123,-0.321 -12.782,26.752 -14.718,60.486c-2.041,33.304 1.289,61.022 7.522,61.345m9.99,-121.615c-6.015,-0.322 -12.461,26.642 -14.504,60.378c-2.04,33.411 1.183,61.021 7.198,61.453m10.098,-121.616c-5.907,-0.431 -12.246,26.644 -14.287,60.377c-1.934,33.413 1.183,61.023 6.983,61.346m9.992,-121.615c-5.696,-0.323 -11.926,26.75 -13.858,60.486c-2.045,33.304 0.966,60.912 6.658,61.343m9.992,-121.614c-5.48,-0.323 -11.603,26.643 -13.644,60.377c-2.04,33.413 0.86,61.023 6.34,61.343m10.098,-121.614c-5.372,-0.321 -11.389,26.75 -13.429,60.485c-1.934,33.411 0.752,61.023 6.123,61.344m9.994,-121.613c-5.159,-0.322 -10.962,26.75 -13,60.484c-2.043,33.413 0.537,60.914 5.8,61.239m9.992,-121.615c-5.049,-0.324 -10.743,26.859 -12.786,60.484c-1.932,33.411 0.431,61.021 5.48,61.345m9.992,-121.614c-4.837,-0.323 -10.421,26.75 -12.357,60.484c-2.04,33.412 0.216,61.022 5.159,61.237m9.992,-121.617c-4.73,-0.212 -10.1,26.861 -12.141,60.594c-2.044,33.413 0.211,60.916 4.835,61.237m10.1,-121.614c-4.62,-0.321 -9.886,26.858 -11.926,60.485c-1.936,33.411 0.108,61.023 4.618,61.237m9.992,-121.614c-4.298,-0.215 -9.563,26.858 -11.495,60.592c-2.041,33.411 -0.108,60.914 4.295,61.237m9.994,-121.615c-4.191,-0.322 -9.238,26.859 -11.283,60.486c-2.04,33.519 -0.214,61.023 3.977,61.237m10.098,-121.614c-4.083,-0.215 -9.024,26.964 -11.064,60.377c-1.934,33.627 -0.321,61.237 3.76,61.452m9.992,-121.617c-3.869,-0.212 -8.703,26.86 -10.637,60.273c-2.041,33.734 -0.538,61.235 3.437,61.452m9.992,-121.617c-3.76,-0.214 -8.378,26.967 -10.419,60.38c-2.044,33.733 -0.647,61.237 3.115,61.451m10.098,-121.614c-3.654,-0.217 -8.166,26.964 -10.206,60.375c-1.934,33.629 -0.646,61.131 2.9,61.348m9.99,-121.617c-3.436,-0.106 -7.843,26.967 -9.775,60.377c-2.043,33.736 -0.86,61.24 2.579,61.454m9.99,-121.616c-3.221,-0.215 -7.52,26.966 -9.561,60.379c-2.039,33.735 -0.968,61.237 2.255,61.343m9.779,-121.614c-2.796,-0.108 -6.985,27.073 -9.025,60.485c-1.933,33.627 -1.075,61.129 2.04,61.346m9.669,-121.617c-2.9,-0.214 -6.659,26.967 -8.595,60.378c-2.04,33.735 -1.288,61.239 1.718,61.453m9.671,-121.614c-2.794,-0.217 -6.554,26.964 -8.382,60.375c-2.04,33.735 -1.395,61.239 1.399,61.345m9.667,-121.614c-2.576,-0.106 -6.338,27.073 -8.378,60.485c-1.612,33.734 -1.181,61.129 1.182,61.344m9.992,-121.615c-2.473,-0.214 -6.015,27.075 -8.059,60.38c-2.041,33.733 -1.612,61.235 0.753,61.345m10.098,-121.616c-2.361,-0.109 -5.801,27.072 -7.841,60.483c-1.936,33.736 -1.722,61.133 0.537,61.346m9.99,-121.615c-2.041,-0.214 -5.478,27.073 -7.412,60.486c-2.041,33.733 -1.934,61.129 0.214,61.237m9.99,-121.615c-1.932,-0.108 -5.157,27.179 -7.196,60.484c-2.042,33.735 -2.042,61.237 -0.108,61.345m10.098,-121.614c-1.826,-0.108 -4.941,27.073 -6.981,60.485c-1.936,33.734 -2.149,61.129 -0.325,61.236m9.992,-121.615c-1.61,-0.106 -4.618,27.183 -6.552,60.594c-2.045,33.735 -2.365,61.131 -0.646,61.237m9.992,-121.615c-1.503,-0.108 -4.295,27.18 -6.34,60.484c-2.04,33.735 -2.471,61.131 -0.966,61.237m-106.883,-7.514l-3.221,-0.357c-8.487,-0.537 -13.751,-27.61 -11.818,-60.269c1.934,-32.875 10.422,-59.09 18.907,-58.551l3.031,-0.008m-104.448,39.113c-3.866,-0.215 -7.412,5.802 -7.949,13.645c-0.431,7.735 2.363,13.857 6.338,14.073m7.628,-27.502c-4.083,-0.324 -7.735,5.907 -8.165,13.752c-0.538,7.841 2.365,14.181 6.446,14.394m30.081,-28.47l-19.232,-0.966c-3.652,-0.215 -7.089,6.983 -7.624,16.006c-0.539,8.811 2.04,16.332 5.692,16.546l19.232,0.86m51.782,-32.553l-32.769,-1.824c-3.435,-0.11 -6.767,8.27 -7.41,18.907c-0.645,10.205 1.718,19.016 5.155,19.228l26.107,1.937m175.335,-28.364l20.948,1.181c0.752,0.108 0.86,9.24 0.108,20.306c-0.645,11.28 -1.826,20.412 -2.579,20.412l-20.521,-1.074m23.313,-37.065l21.917,1.183c0.86,0.106 1.073,8.272 0.538,18.049c-0.644,10.098 -1.828,18.154 -2.684,18.154l-21.92,-0.858m24.387,-34.273l17.083,1.184c1.397,0.107 2.041,7.519 1.506,17.08c-0.54,9.454 -2.151,17.083 -3.546,17.083l-16.865,-1.074m105.069,-15.149c-0.108,-2.147 -0.321,-4.081 -0.752,-5.801l1.291,-1.934c-0.754,-2.794 -1.934,-4.298 -3.331,-4.298l-82.406,-5.049m86.809,17.192c0,1.395 0,2.898 -0.108,4.401c-0.535,9.134 -3.329,16.332 -6.232,16.226l-82.08,-5.266m8.168,-20.52c0.214,-1.397 -0,-6.338 -0.109,-7.519l79.289,4.833m-79.18,-3.113l77.889,5.047m-77.889,0.752l80.144,5.159m-174.043,-65c4.083,0.538 24.602,4.512 25.355,4.729c0.752,0.214 1.396,0.537 1.612,1.288l0.106,1.612m-21.27,17.727l18.584,-0.538l0.431,-6.446c0.537,-0.751 1.504,-1.936 2.255,-3.545c0.86,-1.506 0.86,-3.652 0.86,-4.835c0,-1.181 0.321,-1.934 -1.611,-2.578c-1.935,-0.537 -22.882,-3.866 -28.901,-4.299l-0,0.968l2.365,3.975c1.181,2.471 0.321,10.314 0.214,11.711m1.72,-11.603l24.602,0.645m-26.751,9.239l-1.076,-0.107c-0.214,0 -0.535,2.576 -0.75,5.693c-0.216,3.223 -0.11,5.802 0,5.802l1.071,0m0.97,-9.562l5.909,0.322c0.216,0 0.216,1.826 0.108,4.083c-0.108,2.149 -0.431,3.975 -0.539,3.975l-6.017,-0.429m0.433,-7.843c-0,-1.185 -0,-1.934 -0.109,-1.934c-0.216,-0 -0.539,2.469 -0.755,5.694c-0.211,3.115 -0.211,5.694 -0,5.694c0.112,0 0.216,-0.645 0.431,-1.611m-2.578,25.89l-0.968,0c-0.212,0 -0.427,2.255 -0.535,5.372c-0,3.223 0.108,5.801 0.323,5.801l1.076,-0m0.427,-9.561c-0.106,-1.181 -0.217,-1.612 -0.323,-1.612c-0.104,0 -0.321,2.255 -0.429,5.48c0,3.115 0.108,5.693 0.325,5.693c0.104,-0 0.21,-0.644 0.21,-1.716m1.83,-9.349l-1.076,0c-0.108,0 -0.321,2.255 -0.429,5.478c0,3.117 0.108,5.697 0.321,5.697l1.074,-0m-2.469,21.701l-1.077,-0.325c-0.104,0 -0.859,2.474 -1.501,5.588c-0.754,3.115 -1.074,5.588 -0.966,5.695l1.072,0.214m2.472,-9.348l5.8,1.291c0.215,-0 -0.106,1.826 -0.539,3.974c-0.535,2.149 -1.072,3.869 -1.287,3.869l-5.8,-1.291m1.716,-7.843c0.218,-1.072 0.218,-1.824 0.11,-1.824c-0.213,-0.108 -0.86,2.363 -1.612,5.478c-0.645,3.115 -1.076,5.586 -0.86,5.694c0.107,0 0.323,-0.645 0.646,-1.613m29.542,-71.442c0,1.181 1.076,0.538 1.397,1.933c0.431,1.397 -0.213,3.331 -0.537,4.299c-0.86,1.932 -2.147,0.966 -2.147,4.297m-25.034,-2.471l26.966,2.9c0.968,0 1.504,0 1.399,0.966c-0.216,0.968 0.105,2.686 -0.216,3.546c-0.431,0.752 -1.934,1.503 -2.149,2.471c-0.214,0.968 0,3.007 0,3.007l-26.752,1.184l-0.216,-7.63c-1.824,-1.179 -2.899,-2.578 -2.899,-4.187c0,-1.505 2.259,-0.754 3.115,-0.968c0.752,-0.215 0.539,-0.323 0.752,-1.289Zm1.184,6.552l26.75,-1.503m-28.686,-3.76l29.117,2.577m-17.193,14.504c0,1.936 -0.643,16.223 -0.86,18.803m-12.032,-17.083l-0.856,-0c-0.755,-0 -1.291,2.685 -1.291,6.446c0,3.652 0.646,6.66 1.291,6.66l0.644,0m1.611,-10.851l0.215,-0m1.074,-0l4.618,0.108c0.216,-0 0.325,1.826 0.325,3.974c-0.109,2.257 -0.217,4.083 -0.433,4.083l-4.618,-0.106m-1.181,-0l-0.214,-0m1.93,-8.059c-0,-1.073 -0.104,-1.396 -0.211,-1.396c-0.11,0 -0.324,2.255 -0.433,5.478c0,3.117 0.109,5.697 0.323,5.697c0.11,-0 0.217,-0.646 0.217,-1.72m2.04,-7.951l0,-0.429c0,-2.257 -0.216,-4.298 -0.645,-4.298c-0.321,0 -0.642,2.041 -0.642,4.298l0,0.321m-1.613,-1.396c0.108,-1.934 0.32,-3.331 0.643,-3.331l1.612,0.108m-1.935,-3.652l-0.212,4.19m2.576,0.214c2.904,0.215 10.637,0 12.034,-0.214l0.322,-4.835m-15.471,22.345l22.024,3.331c1.399,0 2.577,0.216 2.363,1.183c-0.213,0.966 -0,1.717 0.862,2.471c0.751,0.858 1.288,1.181 0.751,1.826c-0.645,0.645 -0.321,1.074 0.321,1.503c0.645,0.537 0.108,1.828 -1.072,2.149c-1.183,0.214 -3.546,0.537 -4.514,0.645l-23.742,0.752c-1.72,0.106 -3.652,-1.934 -3.331,-3.652c0.214,-1.72 2.578,-2.794 3.117,-3.76c0.429,-0.86 1.395,-2.901 1.395,-4.083c-0,-1.076 0.645,-2.257 1.826,-2.365Zm-0.213,6.877l24.173,3.331m-1.505,2.469l-0.536,6.126c1.504,1.18 1.72,5.478 0.75,7.626l-0.429,5.372c2.58,3.546 0.645,10.421 -0.216,12.14c-0.321,0.644 -0.537,0.754 -0,1.395c0.645,0.54 0.645,1.506 -0.105,1.937c-0.86,0.429 -2.579,0.429 -2.579,0.429l-24.279,0.214m25.674,-4.297l-27.181,0.322c-1.181,0 -2.468,-0.322 -0.752,-1.505c3.438,-2.578 4.622,-8.593 5.051,-14.287m1.179,-8.595c-0,0 0.216,-4.728 0.216,-5.694m0,-13.86c0,-0.752 -0.216,-2.578 -0.216,-3.76c-0.213,0.753 -0.427,1.182 -0.752,1.182c-0.645,0.106 -1.287,-2.898 -1.287,-6.66c0,-3.654 0.535,-6.446 1.287,-6.446c0.215,-0 0.433,0.216 0.539,0.643m21.701,60.377l-24.603,0.217c-0.964,4.62 -3.329,5.049 -10.527,4.297l-0.539,-0.537c-1.395,-0.108 -0.964,-27.504 1.076,-61.239c2.041,-33.303 4.835,-60.59 6.23,-60.59c0.751,0.535 0.751,0.75 0.751,0.75l4.945,0.216c1.718,0.323 4.833,1.932 6.23,6.232m-144.284,64.352l-6.017,-0.215c-0.86,-0.106 -1.718,1.505 -1.826,3.652c-0.107,2.043 0.537,3.76 1.397,3.869l6.875,0.322m1.611,-42.975l-6.66,-0.213c-0.86,-0.108 -1.718,1.504 -1.826,3.652c-0.108,2.041 0.537,3.76 1.397,3.869l6.229,0.32m7.521,-35.774l-4.081,-0.108c-0.86,-0.108 -1.828,2.149 -1.934,4.191c-0.109,2.147 0.431,3.867 1.397,3.867l1.932,0.106m-5.586,63.817l-17.941,-0.217c-0.966,0 -1.397,0.217 -1.826,1.398l-3.869,10.959c-0.643,1.397 0,2.58 1.935,2.901l22.238,3.545c0.86,0.539 2.363,0.966 2.794,2.149m-6.34,-2.9c-0.106,0.322 -0.106,0.751 -0.214,1.18c-0.108,2.041 0.537,3.76 1.397,3.869l5.692,0.214m-17.512,-6.875l-0.858,3.329c-0.322,1.397 0,1.936 0.644,2.903l1.934,4.081c0.752,1.182 1.72,1.827 2.902,2.148c4.297,1.399 16.438,3.76 18.587,3.975m-9.78,-58.658l-17.403,0.107c-1.179,-0.107 -2.684,0.214 -3.436,0.43l-4.191,0.752c-2.147,0.644 -1.72,3.223 -0.108,3.223c5.371,0.968 18.48,1.934 21.272,2.9c2.688,0.967 3.547,3.117 3.547,4.514m-23.743,-9.456l20.196,-0.213c1.397,0 2.471,0 3.115,0.86m-5.907,-16.44l-2.472,-0.214c-2.04,1.72 -1.827,4.943 -0.859,5.696l10.637,0.858m5.155,-30.835l-25.353,0.431c-0.86,0.108 -0.968,1.611 -0.646,3.115l3.117,9.991c0.215,0.646 0.429,0.54 1.073,0.646l18.371,2.792m-8.38,-16.76l-0.429,-5.264c-0.106,-0.752 0.752,-2.686 1.397,-3.866l5.264,-8.811c-0,-0 0.431,-1.181 2.363,-1.718l12.894,-0.646m-49.205,37.496l-12.034,-0.539c-3.33,-0.106 -6.446,7.414 -7.09,16.977c-0.537,9.13 1.718,17.083 5.049,17.189l12.032,0.645m-73.914,-30.728l18.049,0.753c3.223,0.215 3.117,5.801 -0.644,5.478l-19.338,-1.18m41.254,-7.735l-34.272,-1.183c-1.826,-0.216 -3.76,1.289 -5.156,3.76c0.323,1.397 -0.322,4.191 -1.182,5.051m-0.752,0.107c-0.322,1.288 -0.537,2.792 -0.537,4.295c-0.537,7.522 2.255,13.429 6.017,13.646l33.625,2.471m-28.792,-29.222c-1.933,-0.108 -3.759,1.396 -5.156,3.867m-2.042,5.157c-0.214,1.397 -0.429,2.794 -0.537,4.189c-0.429,7.629 2.257,13.538 6.125,13.752" style="fill:none;fill-rule:nonzero;stroke:#000;stroke-width:0.09px;"/></g></g></svg>