<?xml version="1.0" encoding="UTF-8" standalone="no"?><!DOCTYPE svg PUBLIC "-//W3C//DTD SVG 1.1//EN" "http://www.w3.org/Graphics/SVG/1.1/DTD/svg11.dtd"><svg width="100%" height="100%" viewBox="0 0 326 163" version="1.1" xmlns="http://www.w3.org/2000/svg" xmlns:xlink="http://www.w3.org/1999/xlink" xml:space="preserve" xmlns:serif="http://www.serif.com/" style="fill-rule:evenodd;clip-rule:evenodd;stroke-linejoin:round;"><rect id="rotor_cutaway" x="0" y="0" width="325.438" height="162.643" style="fill:none;"/><clipPath id="_clip1"><rect id="rotor_cutaway1" serif:id="rotor_cutaway" x="0" y="0" width="325.438" height="162.643"/></clipPath><g clip-path="url(#_clip1)"><text x="61.501px" y="154.125px" style="font-family:'ArialMT', 'Arial', sans-serif;font-size:8px;fill:#010101;">Conductor Bar</text><text x="184.373px" y="18.346px" style="font-family:'ArialMT', 'Arial', sans-serif;font-size:8px;fill:#010101;">End Ring</text><path d="M320.157,117.754c0.507,0.146 1.014,-0.798 1.233,-2.103c0.145,-1.308 0,-2.396 -0.435,-2.468c-0.435,-0.072 -0.943,0.944 -1.234,2.25c-0.146,1.234 0,2.321 0.436,2.321Z" style="fill:none;fill-rule:nonzero;stroke:#000;stroke-width:0.36px;"/><path d="M322.349,101.318l0.013,-0.077l-310.395,-51.047c-1.593,-0.262 -3.208,0.183 -4.705,1.154l313.17,51.53c0.705,-1.008 1.38,-1.405 1.917,-1.56" style="fill:#66676a;fill-rule:nonzero;"/><path d="M317.989,108.338l-315.105,-51.933c-0.301,0.567 -0.573,1.168 -0.825,1.792l315.358,52c0.181,-0.647 0.374,-1.263 0.572,-1.859" style="fill:#d9dbdc;fill-rule:nonzero;"/><path d="M316.937,112.071l-315.522,-52.055c-0.179,0.601 -0.324,1.222 -0.452,1.854l315.576,52.088c0.122,-0.643 0.256,-1.274 0.398,-1.887" style="fill:#d9dbdc;fill-rule:nonzero;"/><path d="M317.417,110.197l-315.358,-52c-0.237,0.587 -0.457,1.189 -0.644,1.819l315.522,52.055c0.151,-0.643 0.31,-1.27 0.48,-1.874" style="fill:#fff;fill-rule:nonzero;"/><path d="M319.575,104.402c0.286,-0.629 0.573,-1.12 0.857,-1.524l-313.17,-51.53c-0.67,0.434 -1.311,0.977 -1.92,1.612l314.107,51.712c0.042,-0.088 0.084,-0.185 0.126,-0.27" style="fill:#aaacaf;fill-rule:nonzero;"/><path d="M319.449,104.672l-314.107,-51.712c-0.489,0.506 -0.951,1.074 -1.385,1.695l314.693,51.837c0.262,-0.661 0.531,-1.265 0.799,-1.82" style="fill:#66676a;fill-rule:nonzero;"/><path d="M316.384,114.779c0.048,-0.278 0.103,-0.546 0.155,-0.821l-315.576,-52.088c-0.059,0.293 -0.124,0.581 -0.17,0.88c-0.057,0.335 -0.093,0.666 -0.135,0.996l315.552,52.112c0.054,-0.359 0.111,-0.717 0.174,-1.079" style="fill:#aaacaf;fill-rule:nonzero;"/><path d="M318.65,106.492l-314.693,-51.837c-0.381,0.548 -0.743,1.128 -1.073,1.75l315.105,51.933c0.214,-0.645 0.435,-1.27 0.661,-1.846" style="fill:#aaacaf;fill-rule:nonzero;"/><path d="M315.933,125.571l-314.024,-51.974c0.367,0.796 0.796,1.517 1.288,2.142l313.169,51.855c-0.182,-0.581 -0.325,-1.265 -0.433,-2.023" style="fill:#aaacaf;fill-rule:nonzero;"/><path d="M316.21,115.858l-315.552,-52.112c-0.078,0.642 -0.139,1.279 -0.163,1.901l315.467,52.121c0.068,-0.627 0.151,-1.263 0.248,-1.91" style="fill:#d9dbdc;fill-rule:nonzero;"/><path d="M316.366,127.594l-313.169,-51.855c1.106,1.408 2.503,2.349 4.125,2.612l310.149,51.377l0.029,-0.171c-0.465,-0.369 -0.844,-1.046 -1.134,-1.963" style="fill:#66676a;fill-rule:nonzero;"/><path d="M315.748,123.588l-314.59,-52.045c0.207,0.729 0.457,1.416 0.751,2.054l314.024,51.974c-0.087,-0.611 -0.149,-1.274 -0.185,-1.983" style="fill:#fff;fill-rule:nonzero;"/><path d="M315.962,117.768l-315.467,-52.121c-0.023,0.661 -0.008,1.302 0.026,1.933l315.27,52.111c0.04,-0.625 0.098,-1.266 0.171,-1.923" style="fill:#aaacaf;fill-rule:nonzero;"/><path d="M315.715,121.631l-314.999,-52.089c0.11,0.696 0.261,1.361 0.442,2.001l314.59,52.045c-0.032,-0.62 -0.041,-1.274 -0.033,-1.957" style="fill:#66676a;fill-rule:nonzero;"/><path d="M315.791,119.691l-315.27,-52.111c0.035,0.671 0.097,1.329 0.195,1.962l314.999,52.089c0.009,-0.624 0.033,-1.271 0.076,-1.94" style="fill:#d9dbdc;fill-rule:nonzero;"/><path d="M322.987,97.753l-0.291,5.707l-3.048,2.104l0.217,-5.709l3.122,-2.102Z" style="fill:#aaacaf;fill-rule:nonzero;"/><path d="M322.987,97.753l-49.345,-8.154l-2.685,1.959l48.908,8.297l3.122,-2.102Z" style="fill:#d9dbdc;fill-rule:nonzero;stroke:#000;stroke-width:0.36px;stroke-linecap:round;"/><path d="M265.455,95.029l-4.73,-0.786l2.11,-2.088l2.534,2.814l0.086,0.06Z" style="fill:#fff;fill-rule:nonzero;"/><path d="M270.594,95.767l0.363,-4.209l48.908,8.297l-0.217,4.184l-49.054,-8.272Z" style="fill:#66676a;fill-rule:nonzero;"/><path d="M265.455,95.029l5.139,0.738l0.218,-2.322l-7.977,-1.29l2.62,2.874Z" style="fill-rule:nonzero;"/><path d="M150.398,67.31l-0.049,-0.026l0.042,0.047c0.001,-0.008 0.005,-0.014 0.007,-0.021Z" style="fill:#fff;fill-rule:nonzero;stroke:#000;stroke-width:0.36px;stroke-linecap:round;"/><path d="M151.076,68.119l-23.874,-27.429l-36.79,-5.66l1.015,4.063" style="fill:#fff;fill-rule:nonzero;stroke:#000;stroke-width:0.36px;stroke-linecap:round;"/><path d="M73.213,113.618l30.116,7.258l1.233,-0l40.044,-5.345" style="fill:#fff;fill-rule:nonzero;stroke:#000;stroke-width:0.36px;stroke-linecap:round;"/><path d="M78.438,106.942l-5.152,6.531" style="fill:none;fill-rule:nonzero;stroke:#000;stroke-width:0.36px;stroke-linecap:round;"/><path d="M171.541,88.075c0.437,-1.669 0.944,-3.193 1.597,-4.427" style="fill:#fff;fill-rule:nonzero;stroke:#000;stroke-width:0.36px;stroke-linecap:round;"/><path d="M90.266,79.367c0.073,-1.016 0.362,-2.685 0.509,-3.628l0.144,-0.508c0.241,-0.815 0.579,-1.517 0.799,-2.25l0.363,-1.016c1.378,-3.337 3.41,-5.877 5.659,-6.82l-7.328,-30.115l-0.002,-0l-0.162,-0.024c-9.26,6.643 -17.337,21.625 -20.373,39.935c-2.5,15.046 -1.021,29.055 3.285,38.673l18.527,-23.915c-0.252,-0.395 -0.441,-0.804 -0.55,-1.116c-0.871,-2.467 -1.306,-5.66 -0.871,-9.216" style="fill:#aaacaf;fill-rule:nonzero;"/><path d="M150.518,67.376l20.879,20.699l0.132,0.033c0.033,-0.133 0.073,-0.28 0.114,-0.428l-17.882,-19.125l-3.243,-1.179Z" style="fill:#66676a;fill-rule:nonzero;"/><path d="M150.398,67.31c-0.002,0.007 -0.006,0.013 -0.007,0.021l-0.042,-0.047l-0.018,-0.01l0.018,0.01l-23.147,-26.594l-36.79,-5.66l7.328,30.115l36.865,6.313l36.792,16.617l-20.879,-20.699l-0.12,-0.066Z" style="fill:#66676a;fill-rule:nonzero;"/><path d="M179.523,82.196l-10.957,-25.759l-7.983,-1.308l12.409,28.664l18.288,3.048l-0.654,-2.756l-11.103,-1.889Z" style="fill:#66676a;fill-rule:nonzero;"/><path d="M153.762,68.555l-0.001,0l17.882,19.125c0.38,-1.383 1.064,-3.262 1.374,-3.826l-0.025,-0.061l-12.409,-28.664l-0.034,-0.034c-2.521,3.805 -4.823,8.348 -6.787,13.46" style="fill:#aaacaf;fill-rule:nonzero;"/><path d="M196.722,79.222c-2.032,-0.363 -4.355,1.523 -6.096,4.863l0.654,2.685c1.814,-3.629 4.136,-5.877 6.168,-5.516l2.158,0.359l-0.054,-0.141c-0.726,-1.306 -1.668,-2.105 -2.83,-2.25" style="fill:#d9dbdc;fill-rule:nonzero;"/><path d="M196.722,79.222c-2.032,-0.363 -4.355,1.523 -6.096,4.863l0.654,2.685c1.814,-3.629 4.136,-5.877 6.168,-5.516l2.158,0.359l-0.054,-0.141c-0.726,-1.306 -1.668,-2.105 -2.83,-2.25Z" style="fill:none;fill-rule:nonzero;stroke:#000;stroke-width:0.36px;stroke-linecap:round;"/><path d="M203.326,74.289c-0.362,-6.296 -2.663,-15.882 -4.862,-20.537c-2.686,-5.444 -6.459,-8.926 -10.959,-9.724c-6.527,-1.088 -13.345,3.697 -19.004,12.397l0.065,0.012l7.666,18.022l3.291,7.666c1.888,-3.266 3.992,-5.153 6.169,-4.791l11.03,1.888c1.162,0.145 2.104,0.944 2.83,2.25l0.054,0.141l3.869,0.638c0.066,-2.769 0.063,-5.402 -0.149,-7.962" style="fill:#66676a;fill-rule:nonzero;"/><path d="M171.034,99.396c-0.217,-1.307 -0.654,-2.903 -0.654,-4.499l-23.295,12.117c0.17,5.301 0.821,10.226 1.886,14.586l0.001,-0l22.062,-22.204Z" style="fill:#aaacaf;fill-rule:nonzero;"/><path d="M176.33,102.806l10.958,1.668l1.598,-2.176l-11.242,-1.828l-6.61,-1.074l-22.062,22.204l8.055,1.235l19.303,-20.029Z" style="fill:#66676a;fill-rule:nonzero;"/><path d="M191.497,110.861c1.162,0.218 2.395,-0.291 3.556,-1.379l0.073,-0.11l-2.395,-0.398c-1.913,-0.283 -3.239,-3.035 -3.845,-6.676l-1.598,2.176c0.653,3.556 2.177,6.096 4.209,6.387" style="fill:#d9dbdc;fill-rule:nonzero;"/><path d="M191.497,110.861c1.162,0.218 2.395,-0.291 3.556,-1.379l0.073,-0.11l-2.395,-0.398c-1.913,-0.283 -3.239,-3.035 -3.845,-6.676l-1.598,2.176c0.653,3.556 2.177,6.096 4.209,6.387Z" style="fill:none;fill-rule:nonzero;stroke:#000;stroke-width:0.36px;stroke-linecap:round;"/><path d="M195.126,109.372l-0.073,0.11c-1.161,1.088 -2.394,1.597 -3.556,1.379l-11.174,-1.887c-1.96,-0.291 -3.34,-2.613 -4.064,-5.951l-0.068,-0.071l-19.164,19.883c2.467,10.738 7.402,17.995 14.224,19.155c5.008,0.872 10.233,-1.886 15.022,-7.255c4.171,-4.639 8.258,-12.748 10.376,-17.852c0.87,-2.104 1.669,-4.427 2.322,-6.747l0.006,-0.123l-3.851,-0.641Z" style="fill:#66676a;fill-rule:nonzero;"/><path d="M147.085,107.014l23.295,-12.117l-3.515,-0l-22.8,11.795l3.02,0.322Z" style="fill:#66676a;fill-rule:nonzero;"/><path d="M143.87,106.793c-0.003,-0.04 -0.005,-0.08 -0.006,-0.122l0.201,0.021l22.8,-11.795l-42.928,-0l-32.25,-5.198l-18.527,23.915l0.053,0.004l30.116,7.258l1.233,-0l40.044,-5.345l0.04,0.002c-0.411,-2.761 -0.673,-5.68 -0.776,-8.726l-0.006,-0.01l0.006,-0.004Z" style="fill:#d9dbdc;fill-rule:nonzero;"/><path d="M143.864,106.797l0.006,0.01l-0,-0.014l-0.006,0.004Z" style="fill:#fff;fill-rule:nonzero;stroke:#000;stroke-width:0.36px;stroke-linecap:round;"/><path d="M73.224,113.751l-0.001,0c-0.008,-0.015 -0.015,-0.034 -0.022,-0.049c0.008,0.015 0.015,0.032 0.023,0.049m-24.955,1.479l114.195,20.712c-1.87,-2.595 -3.401,-5.931 -4.567,-9.837l-39.594,-7.064l-13.741,1.835l-1.233,-0l-29.722,-7.165l-0.188,-0.122l-0.074,0.06l-0.132,-0.031l-0.048,-0.004c-0.405,-0.901 -0.774,-1.851 -1.127,-2.827l-29.153,-5.202c1.413,3.809 3.225,7.075 5.384,9.645" style="fill-rule:nonzero;"/><path d="M40.533,70.011c-0.708,4.373 -1.07,8.654 -1.128,12.77l29.28,4.996c0.079,-4.136 0.46,-8.439 1.19,-12.836c0.474,-2.855 1.082,-5.617 1.787,-8.291l-29.352,-4.817c-0.704,2.636 -1.306,5.365 -1.777,8.178" style="fill:#aaacaf;fill-rule:nonzero;"/><path d="M157.027,122.835l-8.055,-1.235c-1.082,-4.359 -1.713,-9.195 -1.887,-14.586l-3.221,-0.343c0.099,3.097 0.365,6.061 0.782,8.862l-0.04,-0.002l-26.303,3.51l39.594,7.064c-0.315,-1.053 -0.609,-2.138 -0.87,-3.27" style="fill:#66676a;fill-rule:nonzero;"/><path d="M146.097,62.398l9.618,1.513c1.16,-2.538 2.403,-4.902 3.717,-7.056l-20.964,-3.221l7.629,8.764Z" style="fill:#fff;fill-rule:nonzero;"/><path d="M162.986,140.48c-0.325,-0.065 -0.646,-0.155 -0.965,-0.248c0.319,0.093 0.64,0.183 0.965,0.248m-104.82,-19.163l3.141,0.574l24.618,4.5l3.112,0.568l70.142,12.824l3.807,0.698l8.265,1.509c-3.432,-0.583 -6.384,-2.712 -8.787,-6.048l-114.195,-20.712c2.768,3.29 6.1,5.44 9.897,6.087" style="fill-rule:nonzero;"/><path d="M150.391,67.331c0.001,-0.008 0.006,-0.014 0.007,-0.021l0.12,0.066l3.244,1.179c0.617,-1.609 1.272,-3.153 1.953,-4.644l-9.618,-1.513l4.294,4.933Z" style="fill:#d9dbdc;fill-rule:nonzero;"/><path d="M42.31,61.833l29.352,4.817c0.429,-1.634 0.888,-3.243 1.396,-4.8l-29.33,-4.763c-0.512,1.542 -0.984,3.126 -1.418,4.746" style="fill:#aaacaf;fill-rule:nonzero;"/><path d="M42.885,105.585l29.153,5.202c-2.314,-6.394 -3.521,-14.317 -3.353,-23.01l-29.28,-4.996c-0.118,8.595 1.121,16.447 3.48,22.804" style="fill:#66676a;fill-rule:nonzero;"/><path d="M174.936,48.707l-46.872,-7.026l4.372,5.022l38.844,5.896c1.185,-1.466 2.409,-2.774 3.656,-3.892" style="fill:#aaacaf;fill-rule:nonzero;"/><path d="M90.255,35.001c0.027,-0.019 0.052,-0.035 0.077,-0.054l0.002,0.001c-0.026,0.02 -0.052,0.034 -0.079,0.053m88.588,10.857l-114.478,-17.161c-1.507,0.712 -2.99,1.644 -4.44,2.768l29.242,4.384c0.36,-0.286 0.718,-0.582 1.082,-0.843l0.161,0.024l36.792,5.66l0.862,0.991l46.872,7.026c1.28,-1.147 2.586,-2.099 3.907,-2.849" style="fill:#66676a;fill-rule:nonzero;"/><path d="M160.583,55.129l7.918,1.296c0.899,-1.38 1.828,-2.651 2.779,-3.826l-38.844,-5.896l6.032,6.931l20.964,3.221c0.38,-0.624 0.761,-1.231 1.151,-1.818c0.02,-0.029 0.041,-0.053 0.063,-0.082c-0.033,0.047 -0.066,0.092 -0.097,0.14l0.034,0.034Z" style="fill:#d9dbdc;fill-rule:nonzero;"/><path d="M186.924,43.963l0.007,-0.044l-8.87,-1.256l-0.573,-0.082l-3.317,-0.492l-71.623,-10.631l-4.453,-0.66l-0.001,0l-22.033,-3.272l-2.221,-0.328c-3.161,-0.537 -6.362,0.023 -9.475,1.499l114.478,17.161c2.668,-1.517 5.394,-2.2 8.081,-1.895" style="fill:#d9dbdc;fill-rule:nonzero;"/><path d="M47.918,46.963l29.33,4.611c1.21,-2.43 2.516,-4.687 3.899,-6.745l-29.316,-4.504c-1.39,2.027 -2.7,4.248 -3.913,6.638" style="fill:#fff;fill-rule:nonzero;"/><path d="M55.977,35.099l29.259,4.44c1.273,-1.4 2.589,-2.623 3.931,-3.69l-29.242,-4.384c-1.349,1.048 -2.671,2.26 -3.948,3.634" style="fill:#aaacaf;fill-rule:nonzero;"/><path d="M45.462,52.359l29.354,4.666c0.757,-1.898 1.57,-3.718 2.432,-5.451l-29.33,-4.611c-0.871,1.716 -1.693,3.516 -2.456,5.396" style="fill:#d9dbdc;fill-rule:nonzero;"/><path d="M43.728,57.087l29.33,4.763c0.541,-1.661 1.136,-3.263 1.758,-4.825l-29.354,-4.666c-0.617,1.525 -1.195,3.105 -1.734,4.728" style="fill:#aaacaf;fill-rule:nonzero;"/><path d="M51.831,40.325l29.316,4.504c1.303,-1.942 2.668,-3.722 4.089,-5.29l-29.259,-4.44c-1.443,1.551 -2.828,3.303 -4.146,5.226" style="fill:#d9dbdc;fill-rule:nonzero;"/><path d="M196.722,79.222l-11.03,-1.888c-1.197,-0.198 -2.37,0.302 -3.497,1.315l11.052,1.908c1.151,-1.031 2.356,-1.535 3.475,-1.335" style="fill-rule:nonzero;"/><path d="M179.523,82.125l11.103,1.96c0.349,-0.667 0.723,-1.256 1.11,-1.8l-11.055,-1.928c-0.392,0.536 -0.779,1.116 -1.158,1.768" style="fill:#aaacaf;fill-rule:nonzero;"/><path d="M193.247,80.557l-11.052,-1.908c-0.514,0.463 -1.021,1.037 -1.514,1.708l11.055,1.928c0.483,-0.681 0.99,-1.26 1.511,-1.728" style="fill:#66676a;fill-rule:nonzero;"/><path d="M176.747,104.789c0.241,0.723 0.521,1.368 0.837,1.926l11.057,1.753c-0.314,-0.564 -0.592,-1.206 -0.825,-1.923l-11.069,-1.756Z" style="fill:#66676a;fill-rule:nonzero;"/><path d="M180.323,108.974l11.174,1.887c-1.133,-0.162 -2.102,-1.043 -2.856,-2.393l-11.057,-1.753c0.723,1.271 1.634,2.095 2.739,2.259" style="fill-rule:nonzero;"/><path d="M187.288,104.474l-10.958,-1.668l-0.139,0.146l0.068,0.071c0.136,0.633 0.306,1.215 0.488,1.766l11.069,1.756c-0.208,-0.644 -0.392,-1.328 -0.528,-2.071" style="fill:#aaacaf;fill-rule:nonzero;"/><path d="M96.31,75.673l-5.181,-0.853c-0.164,0.611 -0.309,1.234 -0.435,1.865l5.706,0.938c-0.063,-0.659 -0.092,-1.312 -0.09,-1.95" style="fill:#aaacaf;fill-rule:nonzero;"/><path d="M97.353,70.04l-4.045,-0.665c-0.32,0.56 -0.62,1.158 -0.898,1.788l4.347,0.714c0.159,-0.649 0.358,-1.261 0.596,-1.837" style="fill:#66676a;fill-rule:nonzero;"/><path d="M101.499,65.789l-3.765,-0.703c-0.557,0.19 -1.095,0.491 -1.61,0.884l3.794,0.625c0.484,-0.349 1.009,-0.629 1.581,-0.806" style="fill-rule:nonzero;"/><path d="M96.424,73.758l-4.729,-0.78c-0.207,0.599 -0.396,1.214 -0.566,1.842l5.181,0.853c0.004,-0.654 0.043,-1.295 0.114,-1.915" style="fill:#d9dbdc;fill-rule:nonzero;"/><path d="M99.918,66.595l-3.794,-0.625c-0.581,0.443 -1.132,1.007 -1.648,1.664l3.83,0.63c0.461,-0.669 1.003,-1.23 1.612,-1.669" style="fill:#aaacaf;fill-rule:nonzero;"/><path d="M98.306,68.264l-3.83,-0.63c-0.412,0.524 -0.804,1.106 -1.168,1.741l4.045,0.665c0.27,-0.646 0.585,-1.244 0.953,-1.776" style="fill-rule:nonzero;"/><path d="M96.757,71.877l-4.347,-0.714c-0.259,0.581 -0.497,1.189 -0.715,1.815l4.729,0.78c0.074,-0.651 0.187,-1.279 0.333,-1.881" style="fill:#aaacaf;fill-rule:nonzero;"/><path d="M100.358,87.954l-9.8,-1.611c0.146,0.705 0.334,1.384 0.564,2.03l11.25,1.851c-0.744,-0.71 -1.413,-1.47 -2.014,-2.27" style="fill:#aaacaf;fill-rule:nonzero;"/><path d="M91.122,88.373c0.167,0.465 0.352,0.916 0.565,1.342l12.22,1.827c-0.544,-0.413 -1.052,-0.857 -1.535,-1.318l-11.25,-1.851Z" style="fill:#66676a;fill-rule:nonzero;"/><path d="M98.942,85.784l-8.683,-1.427c0.068,0.679 0.165,1.343 0.299,1.986l9.8,1.611c-0.524,-0.698 -0.998,-1.422 -1.416,-2.17" style="fill:#66676a;fill-rule:nonzero;"/><path d="M96.4,77.623l-5.706,-0.938c-0.124,0.622 -0.227,1.251 -0.31,1.884l6.302,1.036c-0.129,-0.664 -0.226,-1.328 -0.286,-1.982" style="fill:#66676a;fill-rule:nonzero;"/><path d="M97.914,83.679l-7.762,-1.277c0.009,0.66 0.044,1.315 0.107,1.955l8.683,1.427c-0.386,-0.686 -0.729,-1.39 -1.028,-2.105" style="fill:#aaacaf;fill-rule:nonzero;"/><path d="M96.686,79.605l-6.302,-1.036c-0.082,0.634 -0.145,1.27 -0.183,1.905l6.98,1.148c-0.201,-0.67 -0.366,-1.346 -0.495,-2.017" style="fill:#66676a;fill-rule:nonzero;"/><path d="M97.181,81.622l-6.98,-1.148c-0.041,0.645 -0.056,1.289 -0.049,1.928l7.762,1.277c-0.282,-0.679 -0.527,-1.365 -0.733,-2.057" style="fill:#66676a;fill-rule:nonzero;"/><path d="M71.545,87.349l15.311,8.685l2.016,-2.688l-17.327,-5.997Z" style="fill:#66676a;fill-rule:nonzero;"/><path d="M72.27,104.184l4.037,5.368l1.48,-2.768l-5.517,-2.6Z" style="fill:#66676a;fill-rule:nonzero;"/><path d="M74.592,68.628l15.289,11.953l0.672,-2.687l-8.063,-6.385l-7.898,-2.881Z" style="fill:#66676a;fill-rule:nonzero;"/><path d="M80.252,54.333l13.632,14.256l1.037,-2.119l-10.415,-11.758l-4.254,-0.379Z" style="fill:#66676a;fill-rule:nonzero;"/><path d="M76.307,109.552l31.379,7.816l-29.899,-10.584l-1.48,2.768Z" style="fill:#66676a;fill-rule:nonzero;"/><path d="M86.856,96.034l56.609,15.286l0.574,-0.822l-55.669,-17.824l-1.514,3.36Z" style="fill:#66676a;fill-rule:nonzero;"/><path d="M187.183,104.265l-10.961,-1.512l-19.025,19.905l-2.267,-0.378l20.158,-20.787l11.717,1.89l1.133,-1.008l1.26,0l-2.015,1.89Z" style="fill:#66676a;fill-rule:nonzero;"/><path d="M160.725,55.385l7.937,1.26l10.962,25.448l10.96,1.89l0.63,2.77l-1.26,-0.126l-0.126,-1.636l-11.464,-1.765l-10.835,-24.945l-5.921,-0.882l-0.883,-2.014Z" style="fill:#66676a;fill-rule:nonzero;"/><path d="M101.079,59.701c-0.871,-0.215 -1.525,0.436 -1.016,1.162c0.943,1.306 2.104,0.435 3.337,1.524c1.307,0.942 1.452,1.523 2.686,1.814c1.306,0.146 0.29,-2.25 -1.089,-2.758c-1.234,-0.507 -3.121,-1.524 -3.918,-1.742" style="fill:#a4a6a8;fill-rule:nonzero;"/><path d="M128.219,83.648c-2.468,-1.087 -2.105,0.074 -0.654,0.872c1.307,0.797 2.54,0.943 3.194,1.015c1.233,0.218 2.613,2.685 3.482,1.959c1.451,-1.16 -0.362,-2.685 -2.394,-3.121c-2.032,-0.361 -3.628,-0.725 -3.628,-0.725" style="fill:#d6d7d9;fill-rule:nonzero;"/><path d="M90.628,38.875c-0.216,-0 -0.362,0.074 -0.507,0.364c-0.363,0.291 -0.435,0.942 -0.29,1.378c0.218,0.29 0.508,0.29 0.797,0.145l0.436,0.581c-0.072,0.436 -0.072,0.872 0.073,1.233l0,0.073l2.976,2.54c0.072,0.072 0.144,0.072 0.29,0.072l45.064,16.908c3.991,1.886 0.652,-5.369 -3.557,-6.604l-45.282,-16.69Z" style="fill:#d6d7d9;fill-rule:nonzero;"/><path d="M79.743,101.791c-0.071,-0 -0.144,-0.072 -0.216,-0.072l-3.92,0.797c-0.507,0 -0.942,0.434 -1.16,0.871l-0.799,0.291c-0.071,-0.291 -0.216,-0.436 -0.435,-0.436c-0.435,0.073 -0.871,0.508 -0.943,0.942c-0.073,0.363 0,0.655 0.29,0.727l34.614,12.48c2.468,0.581 11.031,-2.031 7.329,-3.119l-34.76,-12.481Z" style="fill:#d6d7d9;fill-rule:nonzero;"/><path d="M144.039,110.498l-72.494,-23.149c-0.145,-0.217 -0.145,-0.434 -0.074,-0.652c0.218,-0.508 0.653,-0.871 1.162,-0.871c0.218,0 0.363,0.218 0.363,0.435l0.87,-0.072c0.29,-0.509 0.799,-0.944 1.307,-0.944l4.209,-0.291l0.145,0l67.118,20.403l-2.739,1.366l0.133,3.775Z" style="fill:#d6d7d9;fill-rule:nonzero;"/><path d="M103.4,62.387c-1.233,-1.089 -2.394,-0.218 -3.337,-1.524c-0.466,-0.666 0.047,-1.26 0.805,-1.19l-0.007,-0.044l-19.447,-7.038c-0.291,-0.218 -0.654,-0.073 -1.017,0.362c-0.289,0.435 -0.362,1.016 -0.145,1.38l1.307,0.724c-0,0.22 0.072,0.508 0.145,0.653l24.236,8.491l-0.012,-0.046c-1.081,-0.305 -1.284,-0.87 -2.528,-1.768" style="fill:#d6d7d9;fill-rule:nonzero;"/><path d="M130.759,85.535c-0.654,-0.072 -1.887,-0.218 -3.194,-1.015c-1.019,-0.562 -1.498,-1.301 -0.836,-1.311l-51.122,-15.09c-0.361,0 -0.797,0 -1.015,0.509c-0.218,0.435 -0.145,1.016 0.073,1.304l1.668,0.581c0,0.147 0.146,0.436 0.218,0.581l56.798,16.341c-0.785,-0.485 -1.723,-1.746 -2.59,-1.9" style="fill:#d6d7d9;fill-rule:nonzero;"/><path d="M190.584,83.856c1.134,-1.89 3.654,-4.662 5.669,-4.788c-3.905,-0.252 -6.173,3.655 -6.551,4.788l0.882,-0Z" style="fill:#fff;fill-rule:nonzero;"/><path d="M187.183,104.518c0.755,3.274 2.141,5.669 3.653,6.299c-3.401,-0.127 -4.157,-4.787 -4.661,-6.426l1.008,0.127Z" style="fill:#fff;fill-rule:nonzero;"/><path d="M195.403,109.564c-0.632,2.201 -1.387,4.39 -2.214,6.384c-2.117,5.104 -6.204,13.213 -10.375,17.851c-4.79,5.371 -10.015,8.128 -15.023,7.256c-0.031,-0.006 -0.061,-0.015 -0.094,-0.021c0.993,0.486 2.028,0.845 3.119,1.029c5.005,0.871 10.232,-1.886 15.021,-7.256c4.171,-4.638 8.257,-12.748 10.376,-17.851c0.871,-2.104 1.669,-4.425 2.323,-6.749l0.006,-0.121l-3.139,-0.522Z" style="fill:#aaacaf;fill-rule:nonzero;"/><path d="M172.268,53.824l3.701,16.836l12.987,-2.032c1.961,-0.509 2.976,-1.234 2.25,-4.064l-1.741,-8.854l-17.197,-1.886Z" style="fill:#aaacaf;fill-rule:nonzero;"/><path d="M202.224,61.97l-0.133,0.635c-0.506,2.829 -1.814,4.135 -4.354,4.135l-6.095,0.58c-0.608,0.514 -1.311,0.792 -2.071,0.998l-0.177,0.091l-2.033,3.774l14.805,0.217c2.248,0 3.916,-0.579 4.933,-2.176l3.918,-5.515l-8.793,-2.739Z" style="fill:#d9dbdc;fill-rule:nonzero;"/><path d="M185.909,50.051l-0.798,3.41l0.259,0.406l5.402,0.61l1.954,10.357c0.02,0.17 0.028,0.364 0.011,0.569l0.067,0.105l3.047,-0.291c2.539,-0 3.847,-1.307 4.354,-4.063l1.306,-6.315l-15.602,-4.788Z" style="fill:#d9dbdc;fill-rule:nonzero;"/><path d="M172.268,53.824l1.814,-1.233l16.69,1.886l-1.307,1.233l-17.197,-1.886Z" style="fill:#fff;fill-rule:nonzero;"/><path d="M192.731,64.564l-1.959,-10.087l-1.307,1.233l1.741,8.854c0.52,2.023 0.138,2.963 -0.834,3.525c1.773,-0.824 2.71,-2.006 2.359,-3.525" style="fill:#aaacaf;fill-rule:nonzero;"/><path d="M199.882,74.585c0.182,2.335 0.194,4.737 0.141,7.242l3.014,0.495c0.069,-2.769 0.066,-5.402 -0.147,-7.962l-3.008,0.225Z" style="fill:#aaacaf;fill-rule:nonzero;"/><path d="M194.39,52.655l3.606,1.106c-2.684,-5.405 -6.444,-8.867 -10.927,-9.659c-1.12,-0.188 -2.247,-0.189 -3.377,-0.04c0.118,0.015 0.236,0.02 0.354,0.04c4.167,0.738 7.71,3.783 10.344,8.553" style="fill:#aaacaf;fill-rule:nonzero;"/><path d="M195.851,65.217l-3.047,0.291l-0.067,-0.105c0.011,0.569 -0.389,1.445 -1.095,1.917l6.095,-0.58c0.742,-0 1.367,-0.125 1.91,-0.353l-2.366,-1.358c-0.428,0.117 -0.895,0.188 -1.43,0.188" style="fill-rule:nonzero;"/><path d="M202.091,62.605l1.307,-6.314l-1.887,-1.452l-1.306,6.315c-0.191,1.039 -0.497,1.872 -0.938,2.505l2.065,1.187c0.341,-0.601 0.597,-1.334 0.759,-2.241" style="fill:#aaacaf;fill-rule:nonzero;"/><path d="M201.332,64.846l-2.065,-1.187c-0.484,0.696 -1.143,1.141 -1.986,1.37l2.366,1.358c0.72,-0.302 1.273,-0.814 1.685,-1.541" style="fill:#d9dbdc;fill-rule:nonzero;"/><path d="M202.166,72.4l-14.805,-0.217l0.944,3.266l14.585,-1.089c0.95,0 1.8,-0.098 2.542,-0.318l-0.594,-2.043c-0.773,0.275 -1.661,0.401 -2.672,0.401" style="fill:#66676a;fill-rule:nonzero;"/><path d="M211.017,64.709l-3.918,5.515c-0.559,0.877 -1.321,1.439 -2.261,1.775l0.594,2.043c1.016,-0.3 1.817,-0.833 2.32,-1.712l4.209,-5.227l-0.944,-2.394Z" style="fill:#aaacaf;fill-rule:nonzero;"/><path d="M160.365,126.172l8.783,-14.73l11.683,6.095c1.669,1.089 1.886,1.958 0.724,4.208l-4.862,8.272l-16.328,-3.845Z" style="fill:#d9dbdc;fill-rule:nonzero;"/><path d="M160.365,126.172l1.234,1.742l15.965,3.773l-0.871,-1.67l-16.328,-3.845Z" style="fill-rule:nonzero;"/><path d="M181.482,118.027c1.039,0.897 1.057,1.813 0.073,3.718l-4.862,8.272l0.871,1.67l5.588,-9.143c0.848,-1.5 0.162,-3.058 -1.67,-4.517" style="fill:#66676a;fill-rule:nonzero;"/><path d="M186.273,122.98l-2.831,-1.235c-0.055,0.268 -0.14,0.534 -0.29,0.799l-5.588,9.143l-5.303,-1.253l-0.213,0.164l-0.07,3.556l16.327,0.435l0.726,-6.385c0.434,-2.758 -0.437,-4.426 -2.758,-5.224" style="fill:#aaacaf;fill-rule:nonzero;"/><path d="M181.486,118.03c-0.002,-0.002 -0.002,-0.003 -0.004,-0.003c0.002,0 0.002,0.001 0.004,0.003c0.696,0.555 1.214,1.127 1.557,1.703l0.068,0.068l0.041,-0.014l5.37,2.322c2.395,0.871 3.193,2.467 2.831,5.296l-0.1,0.727l9.17,0.145l-1.959,-6.459c-0.291,-1.813 -1.815,-2.903 -3.919,-3.554l-14.077,-4.646l0.65,4.122c0.132,0.097 0.256,0.194 0.368,0.29" style="fill:#66676a;fill-rule:nonzero;"/><path d="M195.851,116.593l-13.497,-5.732l-1.886,2.757l14.077,4.646c1.138,0.353 2.096,0.839 2.792,1.492l1.228,-1.72c-0.688,-0.605 -1.62,-1.066 -2.714,-1.443" style="fill:#fff;fill-rule:nonzero;"/><path d="M199.769,120.149c-0.138,-0.872 -0.568,-1.555 -1.204,-2.113l-1.228,1.72c0.589,0.555 0.994,1.229 1.127,2.062l1.959,6.459l1.668,-1.96l-2.322,-6.168Z" style="fill:#aaacaf;fill-rule:nonzero;"/><path d="M188.522,122.109l-5.37,-2.322l-0.063,0.022c0.359,0.642 0.489,1.292 0.353,1.936l2.831,1.235c1.511,0.52 2.399,1.416 2.719,2.732l2.309,-0.718c-0.304,-1.383 -1.177,-2.303 -2.779,-2.885" style="fill:#fff;fill-rule:nonzero;"/><path d="M188.992,125.712c0.172,0.707 0.191,1.528 0.039,2.492l-0.726,6.385l2.177,-0.798l0.871,-6.386c0.118,-0.936 0.099,-1.726 -0.052,-2.411l-2.309,0.718Z" style="fill:#aaacaf;fill-rule:nonzero;"/><path d="M89.545,34.974c-14.11,9.575 -28.22,49.639 -16.63,77.606c-14.866,-28.724 3.024,-73.321 16.63,-77.606" style="fill:#fff;fill-rule:nonzero;"/><path d="M147.245,106.784l22.93,-11.842l-0,1.512l-22.93,12.095l-0,-1.765Z" style="fill:#d9dbdc;fill-rule:nonzero;"/><path d="M168.41,56.14c3.529,-6.3 11.088,-12.599 17.387,-12.599c-8.315,-1.512 -15.874,5.797 -19.655,12.096l2.268,0.503Z" style="fill:#fff;fill-rule:nonzero;"/><path d="M319.575,104.402c-1.233,2.468 -2.465,6.168 -3.191,10.377c-1.38,7.908 -0.581,14.66 1.74,15.093c2.25,0.364 5.225,-5.659 6.604,-13.641c1.451,-7.981 0.58,-14.658 -1.67,-15.021m-0.071,-3.049l-0.291,5.299l-3.048,2.104l0.217,-5.297l3.122,-2.106Zm-0,-0l-49.345,-8.562l-2.685,1.959l48.474,8.418m0.217,4.063l-58.923,-9.796l2.25,-2.249l2.394,2.975m5.588,-3.411l-0.363,4.209m49.563,21.987c0.507,0.146 1.014,-0.798 1.233,-2.103c0.145,-1.308 0,-2.396 -0.435,-2.468c-0.435,-0.072 -0.943,0.944 -1.234,2.25c-0.146,1.234 0,2.321 0.436,2.321Zm-275.839,-62.106l-32.351,-5.454c-4.861,-0.796 -9.941,4.863 -11.174,12.556c-1.307,7.837 1.596,14.803 6.529,15.601l32.208,5.38m277.941,45.997l-124.74,-20.754c-1.959,-0.291 -3.41,-3.121 -3.991,-6.894m2.54,-15.31c1.814,-3.629 4.136,-5.877 6.168,-5.516l73.364,12.191m-99.778,5.951c-0.217,-1.307 -0.654,-2.903 -0.654,-4.499m1.161,-6.822c0.437,-1.669 0.944,-3.193 1.597,-4.427m26.414,-2.176c-0.726,-1.306 -1.668,-2.105 -2.83,-2.25c-2.032,-0.363 -4.355,1.523 -6.096,4.863m-3.338,20.389c0.653,3.556 2.177,6.096 4.209,6.387c1.162,0.218 2.395,-0.291 3.556,-1.379m1.669,-30.26l-11.03,-1.888c-2.177,-0.362 -4.281,1.525 -6.169,4.791m-3.264,20.898c0.724,3.338 2.104,5.66 4.064,5.951l11.174,1.887m6.967,-57.109c-2.686,-5.444 -6.459,-8.926 -10.959,-9.724c-6.531,-1.088 -13.352,3.7 -19.012,12.409m-11.466,66.398c2.467,10.738 7.402,17.995 14.224,19.155c5.008,0.872 10.233,-1.886 15.022,-7.255m10.376,-17.852c0.87,-2.104 1.669,-4.427 2.322,-6.747m4.5,-27.72c0.072,-2.831 0.072,-5.516 -0.145,-8.127m-52.721,-6.811l3.157,1.077c6.385,-16.618 16.329,-27.285 25.761,-25.762l7.408,1.126m-39.846,63.095c0.581,18.141 6.75,31.929 16.184,33.526m12.719,-98.299c-9.43,-1.572 -19.351,9.02 -25.751,25.48m-6.373,38.95c0.58,18.068 6.747,31.784 16.253,33.309" style="fill:none;fill-rule:nonzero;stroke:#000;stroke-width:0.36px;"/><path d="M172.268,53.824l3.701,16.836l12.987,-2.032c1.961,-0.509 2.976,-1.234 2.25,-4.064l-1.741,-8.854l-17.197,-1.886Zm29.956,8.146l-0.133,0.635c-0.506,2.829 -1.814,4.135 -4.354,4.135l-6.095,0.58c-0.608,0.514 -1.311,0.792 -2.071,0.998l-0.177,0.091l-2.033,3.774l14.805,0.217c2.248,0 3.916,-0.579 4.933,-2.176l3.918,-5.515l-8.793,-2.739Z" style="fill:none;fill-rule:nonzero;stroke:#000;stroke-width:0.36px;stroke-linecap:round;"/><path d="M211.017,64.709l-3.918,5.515c-1.017,1.597 -2.685,2.176 -4.933,2.176l-14.805,-0.217l0.944,3.266l14.585,-1.089c2.249,0 3.991,-0.507 4.862,-2.03l4.209,-5.227l-0.944,-2.394Zm-27.575,57.036l2.831,1.235c2.321,0.798 3.192,2.466 2.758,5.224l-0.726,6.385l-16.327,-0.435l0.07,-3.556m16.257,3.991l2.177,-0.798l0.871,-6.386c0.362,-2.829 -0.436,-4.425 -2.831,-5.296l-5.37,-2.322m-2.033,-2.033l-0.651,-4.136l14.077,4.646c2.104,0.651 3.628,1.741 3.919,3.554l1.959,6.459l-9.217,-0.146m9.217,0.146l1.668,-1.96l-2.322,-6.168c-0.289,-1.814 -1.812,-2.83 -3.918,-3.556l-13.497,-5.732l-1.886,2.757m-20.103,12.554l8.783,-14.73l11.683,6.095c1.669,1.089 1.886,1.958 0.724,4.208l-4.862,8.272l-16.328,-3.845Zm20.466,-8.635c2.321,1.596 3.265,3.339 2.321,5.007l-5.588,9.143l-0.871,-1.67m0.871,1.67l-15.965,-3.773l-1.234,-1.742m19.158,-43.976l-10.957,-25.759l-7.983,-1.308l12.409,28.664l18.288,3.048l-0.654,-2.756l-11.103,-1.889Zm-3.193,20.61l-19.303,20.029l-8.055,-1.235l22.062,-22.204l17.852,2.902l-1.598,2.176l-10.958,-1.668Zm-25.254,-34.687l-23.874,-27.429l-36.79,-5.66l1.015,4.063m78.953,55.804l-23.149,12.045l-3.367,-0.145l23.001,-11.9l3.515,-0Zm-93.466,-67.27c-14.006,-2.32 -28.882,16.908 -33.162,42.96c-4.354,25.906 3.483,48.837 17.56,51.231m18.215,-93.755c-14.079,-2.394 -28.809,16.908 -33.164,42.886c-4.353,26.052 3.484,48.983 17.489,51.305m18.215,-93.9c-13.933,-2.25 -28.737,16.98 -33.091,43.104c-4.354,25.98 3.41,48.98 17.416,51.229m18.214,-93.898c-13.86,-2.322 -28.663,16.981 -33.017,43.103c-4.354,26.052 3.482,48.911 17.343,51.305m18.286,-93.972c-13.861,-2.323 -28.664,16.98 -33.017,43.105c-4.354,25.977 3.41,48.98 17.27,51.302m18.287,-94.045c-13.859,-2.25 -28.519,16.98 -32.872,43.177c-4.355,26.051 3.338,49.054 17.198,51.377m18.214,-94.191c-13.788,-2.323 -28.446,17.053 -32.8,43.249c-4.354,26.124 3.266,49.127 17.126,51.377m18.36,-94.264c-13.861,-2.249 -28.519,17.126 -32.873,43.321c-4.354,26.054 3.265,49.054 17.053,51.377m18.359,-94.261c-13.788,-2.323 -28.446,17.053 -32.8,43.249c-4.354,26.195 3.193,49.199 16.981,51.52m18.431,-94.407c-13.788,-2.249 -28.519,17.126 -32.871,43.394c-4.356,26.125 3.264,49.2 16.98,51.522m18.431,-94.554c-13.715,-2.248 -28.446,17.198 -32.8,43.468c-4.354,26.197 3.338,49.272 17.053,51.449m10.812,-61.245l36.865,6.313l36.792,16.617m-70.318,-28.374c-0.871,-0.215 -1.525,0.436 -1.016,1.162c0.943,1.306 2.104,0.435 3.337,1.524c1.307,0.942 1.452,1.523 2.686,1.814c1.306,0.146 0.29,-2.25 -1.089,-2.758c-1.234,-0.507 -3.121,-1.524 -3.918,-1.742Z" style="fill:none;fill-rule:nonzero;stroke:#000;stroke-width:0.36px;"/><path d="M128.219,83.648c-2.468,-1.087 -2.105,0.074 -0.654,0.872c1.307,0.797 2.54,0.943 3.194,1.015c1.233,0.218 2.613,2.685 3.482,1.959c1.451,-1.16 -0.362,-2.685 -2.394,-3.121c-2.032,-0.361 -3.628,-0.725 -3.628,-0.725" style="fill:#a4a6a8;fill-rule:nonzero;"/><path d="M128.219,83.648c-2.468,-1.087 -2.105,0.074 -0.654,0.872c1.307,0.797 2.54,0.943 3.194,1.015c1.233,0.218 2.613,2.685 3.482,1.959c1.451,-1.16 -0.362,-2.685 -2.394,-3.121c-2.032,-0.361 -3.628,-0.725 -3.628,-0.725Zm21.986,-16.616l21.192,21.043" style="fill:none;fill-rule:nonzero;stroke:#000;stroke-width:0.36px;"/><path d="M95.927,57.815l-0.436,-1.959m-2.902,-11.973l2.902,11.973m2.249,9.214l-1.233,-4.207m66.762,19.449l8.2,7.691m-18.07,-17.054l1.596,1.597l1.959,1.743m-61.463,-28.664l3.12,13.28m0.58,3.046l1.089,3.557m-7.329,-30.188l1.234,4.79m1.306,-4.354l1.379,5.369m5.95,24.817l-0.944,-3.192m-0.579,-3.049l-3.121,-13.134m-0.072,-10.449l1.45,5.951m5.805,24.309l-0.797,-2.686m-0.581,-2.611l-3.12,-13.425m7.038,19.157l-4.354,-18.142m-2.901,-12.19l1.523,6.603m0.944,-6.168l1.741,7.112m5.587,23.292l-4.208,-17.704m-0.58,-12.264l1.885,7.692m5.443,22.639l-4.063,-17.051m6.676,17.487l-3.991,-16.4m-3.411,-14.076l2.032,8.417m0.508,-7.983l2.104,8.926m5.298,21.552l-3.918,-15.893m-0.944,-14.222l2.322,9.579m5.079,20.971l-3.701,-15.311m-1.233,-14.804l2.468,10.087m5.006,20.464l-3.555,-14.803m-1.38,-15.384l2.613,10.739m4.862,19.884l-3.483,-14.152m6.023,14.587l-3.266,-13.57m-4.209,-17.126l2.758,11.247m4.136,6.821l3.121,13.063m-7.475,-30.696l2.904,11.829m7.112,19.303l-3.049,-12.411m-4.427,-18.285l3.047,12.335m3.775,6.75l3.192,12.408m-4.79,-18.286l-3.192,-12.191m0.799,0.943l3.265,11.538m2.613,6.313l3.845,12.845m-5.659,-18.794l-3.267,-11.03m4.064,11.247l-3.265,-10.304m4.137,10.668l-3.411,-9.798m5.442,15.965l4.499,13.208m-5.804,-19.16l-3.267,-9.069m0.799,0.871l3.192,8.562m7.621,19.956l-5.153,-13.715m-1.741,-6.024l-3.193,-7.908m12.625,28.735l-5.95,-14.15m-5.878,-13.643l3.265,7.402m0.799,0.654l-3.193,-7.184m13.497,28.083l-7.328,-15.748m-5.371,-11.393l3.339,7.185m11.973,21.116l-13.716,-26.413m16.256,27.573l-14.731,-25.76m1.669,1.814l15.602,25.108m-14.079,-23.366l16.619,24.528m-14.95,-22.714l17.489,23.802m-9.36,-13.787l11.828,14.876m-8.854,-11.974l11.394,13.134m-19.304,-22.351l7.91,9.217m4.427,4.136l9.506,10.159" style="fill:none;fill-rule:nonzero;stroke:#000;stroke-width:0.36px;stroke-linejoin:miter;"/><path d="M170.38,94.897l-46.443,-0l-24.89,-3.991m-25.834,22.712l30.116,7.258l1.233,-0l40.044,-5.345m-55.501,-22.45l-7.329,9.507m-3.338,4.354l-5.152,6.531m7.547,-5.589l-4.934,6.243m15.673,-20.319l-7.401,9.507m9.868,-8.709l-7.474,9.653m-3.338,4.497l-4.717,6.023m7.112,-5.152l-4.499,5.733m15.384,-19.884l-7.475,9.579m11.974,-13.569l0.217,-0.146m-13.206,19.23l-4.209,5.444m18.432,-24.093l0.29,-0.435m-3.557,4.79l-7.473,9.577m13.207,-13.205l0.581,-0.654m-3.773,4.935l-7.621,9.795m-3.482,4.645l-3.991,5.298m20.753,-23.295l0.798,-0.943m-3.991,5.297l-7.619,9.87m-3.557,4.717l-3.773,4.933m20.61,-23.003l1.088,-1.451m-15.457,20.391l-3.701,4.717m14.804,-19.448l-7.547,10.013m10.014,-9.142l-7.62,10.014m-3.555,4.79l-3.483,4.425m17.996,-23.583l1.234,-1.742m1.233,2.468l1.452,-2.033m-4.79,6.459l-7.692,10.086m-3.555,4.789l-3.193,4.137m16.908,-18.214l-7.766,10.232m11.103,-14.731l1.742,-2.395m-16.472,21.842l-2.903,3.92m16.762,-18.068l-7.837,10.303m-3.555,4.789l-2.757,3.627m17.488,-23.292l2.032,-2.612m-14.513,23.075l-2.467,3.194m17.27,-22.859l2.25,-3.047m-5.661,7.619l-7.837,10.377m13.207,-14.513l2.831,-3.483m-17.489,22.64l-2.177,2.976m13.424,-17.344l-8.127,10.377m-0.363,3.265l-2.539,3.338m16.472,-21.116l3.338,-4.136m-6.893,8.853l-8.201,10.377m13.716,-14.515l3.991,-4.715m-7.62,9.505l-12.481,15.457m18.069,-19.592l4.572,-5.37m-8.273,10.086l-11.9,14.586m13.787,-14.078l-11.393,13.787m15.093,-18.431l5.225,-5.95m-3.193,6.602l5.734,-6.602m-9.652,11.247l-10.813,12.771m12.699,-12.191l-10.232,11.902m14.151,-16.546l6.387,-7.183m-8.492,12.408l-9.651,10.959m13.642,-15.603l7.04,-7.764m-9.288,12.987l-8.998,10.088m13.134,-14.657l7.764,-8.418m-10.086,13.568l-8.49,9.144m12.699,-13.715l8.417,-8.997m-6.531,9.577l9.071,-9.577m-13.425,14.077l-7.764,8.345m9.578,-7.764l-7.183,7.401m11.537,-11.901l9.798,-10.158m-12.556,15.166l-6.385,6.604m11.524,-11.68l9.955,-10.163m-5.368,7.909l7.908,-7.909m-15.818,15.674l-5.806,5.804m6.002,-3.765l-3.535,3.477m16.395,-15.946l5.375,-5.244m-18.026,19.524l-1.35,1.303m19.169,-18.226l2.603,-2.601" style="fill:none;fill-rule:nonzero;stroke:#000;stroke-width:0.36px;"/><path d="M156.375,107.232l-4.209,2.032c-0.509,0.073 -0.872,0.727 -0.944,1.306l-0.87,0.509c-0.073,-0.291 -0.291,-0.363 -0.654,-0.291c-0.363,0.073 -0.726,0.654 -0.726,1.234c0,0.582 0.363,0.943 0.726,0.725c0.436,-0.073 0.654,-0.434 0.727,-0.872l0.942,-0.506c0.145,0.363 0.508,0.506 0.799,0.436c0.072,-0 0.072,-0.073 0.143,-0.073l4.138,-3.049c0.289,-0.144 0.507,-0.58 0.507,-0.942c0,-0.363 -0.289,-0.653 -0.579,-0.509Z" style="fill:#68696b;fill-rule:nonzero;stroke:#000;stroke-width:0.36px;stroke-linecap:round;"/><path d="M162.761,68.845l-2.104,-3.7c-0.219,-0.509 -0.654,-0.509 -1.163,-0.146l-0.434,-0.652c0.071,-0.364 0.144,-0.727 -0,-1.018c-0.147,-0.363 -0.581,-0.363 -0.944,0c-0.436,0.437 -0.581,1.162 -0.436,1.598c0.146,0.29 0.508,0.363 0.799,0.143l0.509,0.727c-0.146,0.435 -0.219,1.016 -0.075,1.306l0,0.217l2.976,2.759c0.073,0.218 0.364,0.145 0.654,-0.073c0.218,-0.362 0.362,-0.798 0.218,-1.161Z" style="fill:#68696b;fill-rule:nonzero;stroke:#000;stroke-width:0.36px;stroke-linecap:round;"/><path d="M90.628,38.875c-0.216,-0 -0.362,0.074 -0.507,0.364c-0.363,0.291 -0.435,0.942 -0.29,1.378c0.218,0.29 0.508,0.29 0.797,0.145l0.436,0.581c-0.072,0.436 -0.072,0.872 0.073,1.233l0,0.073l2.976,2.54c0.072,0.072 0.144,0.072 0.29,0.072l45.064,16.908c3.991,1.886 0.652,-5.369 -3.557,-6.604l-45.282,-16.69Zm15.312,25.326l-24.236,-8.491c-0.073,-0.145 -0.145,-0.433 -0.145,-0.653l-1.307,-0.724c-0.217,-0.364 -0.144,-0.945 0.145,-1.38c0.363,-0.435 0.726,-0.58 1.017,-0.362l19.447,7.038m27.358,24.019l-52.612,-15.529c-0.361,0 -0.797,0 -1.015,0.509c-0.218,0.435 -0.145,1.016 0.073,1.304l1.668,0.581c0,0.147 0.146,0.436 0.218,0.581l57.255,16.473m-54.063,14.224c-0.071,-0 -0.144,-0.072 -0.216,-0.072l-3.92,0.797c-0.507,0 -0.942,0.434 -1.16,0.871l-0.799,0.291c-0.071,-0.291 -0.216,-0.436 -0.435,-0.436c-0.435,0.073 -0.871,0.508 -0.943,0.942c-0.073,0.363 0,0.655 0.29,0.727l34.614,12.48c2.468,0.581 11.031,-2.031 7.329,-3.119l-34.76,-12.481Zm66.902,3.566l-67.118,-20.403l-0.145,0l-4.209,0.291c-0.508,0 -1.017,0.435 -1.307,0.944l-0.87,0.072c-0,-0.217 -0.145,-0.435 -0.363,-0.435c-0.509,0 -0.944,0.363 -1.162,0.871c-0.071,0.218 -0.071,0.435 0.074,0.652l72.494,23.149" style="fill:none;fill-rule:nonzero;stroke:#000;stroke-width:0.36px;stroke-linejoin:miter;"/><path d="M97.74,65.145c-2.249,0.943 -4.281,3.483 -5.659,6.82l-0.363,1.016m-0.581,15.602c-0.871,-2.467 -1.306,-5.66 -0.871,-9.216c0.073,-1.016 0.362,-2.685 0.509,-3.628l0.144,-0.508m62.843,-6.676l17.707,18.939m-66.254,-55.585c-4.209,-0.725 -8.345,0.581 -12.41,3.411m-17.053,78.879c3.194,7.038 7.838,11.682 13.643,12.699m18.288,-94.699c-4.138,-0.651 -8.274,0.654 -12.337,3.557m-17.054,78.878c3.194,7.111 7.838,11.756 13.644,12.771m18.286,-94.77c-4.136,-0.726 -8.273,0.581 -12.337,3.483m-16.98,79.097c3.121,7.039 7.837,11.683 13.498,12.626m18.359,-94.843c-4.209,-0.653 -8.346,0.654 -12.409,3.555m-16.763,79.531c3.12,6.822 7.765,11.321 13.353,12.193m18.286,-94.916c-4.136,-0.726 -8.273,0.652 -12.264,3.555m-16.691,79.751c2.976,6.675 7.62,11.174 13.135,12.043m18.36,-94.988c-4.136,-0.651 -8.272,0.655 -12.263,3.485m-16.619,80.112c3.049,6.604 7.547,10.958 13.062,11.9m18.36,-95.133c-4.065,-0.652 -8.272,0.726 -12.192,3.557m-16.617,80.402c3.119,6.459 7.547,10.74 12.916,11.683m18.432,-95.279c-4.063,-0.652 -8.345,0.726 -12.336,3.701m-16.399,80.476c3.048,6.384 7.473,10.665 12.843,11.464m18.36,-95.206c-3.991,-0.652 -8.201,0.655 -12.192,3.556m-16.399,80.838c3.12,6.313 7.401,10.45 12.699,11.32m18.432,-95.423c-4.064,-0.654 -8.273,0.725 -12.191,3.7m-16.256,80.984c2.976,6.24 7.257,10.304 12.554,11.248m18.433,-95.498c-4.064,-0.651 -8.273,0.727 -12.264,3.702m-16.111,81.274c3.049,6.095 7.33,10.086 12.409,10.884m18.433,-95.569c-3.991,-0.652 -8.2,0.799 -12.119,3.701m-16.182,81.275c2.974,6.166 7.184,10.231 12.408,11.101m18.433,-95.641c-3.992,-0.654 -8.201,0.726 -12.192,3.774m-16.472,80.619c3.048,6.604 7.401,10.885 12.771,11.756m18.432,-95.786c-4.063,-0.727 -8.2,0.726 -12.191,3.773m-16.763,79.966c3.049,6.967 7.474,11.539 12.99,12.482m18.504,-95.858c-4.209,-0.726 -8.563,0.871 -12.699,4.208m-16.545,78.879c2.976,7.401 7.547,12.263 13.28,13.208m18.432,-95.86c-4.645,-0.798 -9.435,1.161 -13.932,5.225m-15.603,77.065c2.976,7.836 7.619,13.133 13.569,14.004m18.505,-96.003c-5.08,-0.799 -10.303,1.668 -15.093,6.529m-14.659,75.178c2.902,8.346 7.692,13.787 13.787,14.804m18.578,-96.075c-5.515,-1.017 -11.248,2.03 -16.255,7.691m-13.933,73.218c2.975,8.781 7.837,14.585 14.078,15.675m18.504,-96.223c-5.805,-1.015 -11.9,2.54 -17.197,8.998m-12.99,71.26c2.902,9.215 7.837,15.311 14.223,16.327m18.577,-96.221c-6.241,-1.016 -12.772,2.975 -18.36,10.449m-12.047,69.299c2.759,9.507 7.766,15.892 14.297,16.982m18.649,-96.368c-6.603,-1.087 -13.498,3.482 -19.303,11.828m-11.465,67.051c2.83,10.014 7.911,16.835 14.659,17.996m18.649,-96.512c-6.966,-1.089 -14.296,4.064 -20.317,13.352m-10.596,64.946c2.758,10.377 7.911,17.489 14.732,18.649m18.65,-96.585c-7.331,-1.233 -14.949,4.645 -21.118,14.878m-9.869,62.695c2.612,10.886 7.836,18.359 14.876,19.448m18.65,-96.585c-7.693,-1.379 -15.82,5.225 -21.915,16.399m-9.217,60.375c2.468,11.32 7.766,19.084 14.949,20.318m18.649,-96.802c-7.982,-1.306 -16.327,5.952 -22.712,17.995m-8.563,58.126c2.467,11.757 7.836,19.884 15.166,21.117m18.65,-96.802c-8.346,-1.378 -17.127,6.53 -23.512,19.593m-7.837,55.876c2.322,12.118 7.765,20.606 15.167,21.842m18.65,-97.021c-8.564,-1.378 -17.781,7.329 -24.167,21.334m-7.328,53.554c2.322,12.482 7.837,21.26 15.383,22.495m18.651,-96.947c-8.998,-1.452 -18.504,7.982 -24.89,23.075m-6.678,50.868c2.179,13.063 7.693,22.205 15.385,23.512m20.461,-96.798l-103.648,-15.382c-14.077,-2.395 -28.953,16.835 -33.307,42.812c-4.209,25.979 3.556,48.911 17.633,51.306l112.672,20.599" style="fill:none;fill-rule:nonzero;stroke:#000;stroke-width:0.36px;"/><path d="M185.909,50.051l-0.798,3.41l0.259,0.406l5.402,0.61l1.954,10.357c0.02,0.17 0.028,0.364 0.011,0.569l0.067,0.105l3.047,-0.291c2.539,-0 3.847,-1.307 4.354,-4.063l1.306,-6.315l-15.602,-4.788Z" style="fill:none;fill-rule:nonzero;stroke:#000;stroke-width:0.36px;stroke-linecap:round;"/><path d="M192.737,65.403c-0.001,-0.091 -0.004,-0.145 -0.004,-0.185c0.002,0.075 0.004,0.185 0.004,0.185Z" style="fill:none;fill-rule:nonzero;stroke:#000;stroke-width:0.36px;"/><path d="M201.511,54.839l-1.306,6.315c-0.507,2.756 -1.815,4.063 -4.354,4.063l-3.047,0.291l-0.067,-0.105c0.011,0.569 -0.389,1.445 -1.095,1.917l6.095,-0.58c2.54,-0 3.848,-1.306 4.354,-4.135l1.307,-6.314l-1.887,-1.452Z" style="fill:none;fill-rule:nonzero;stroke:#000;stroke-width:0.36px;stroke-linecap:round;"/><path d="M192.733,65.218c-0.002,-0.067 -0.002,-0.1 0,-0Z" style="fill:none;fill-rule:nonzero;stroke:#000;stroke-width:0.36px;"/><path d="M172.268,53.824l1.814,-1.233l16.69,1.886l-1.307,1.233l-17.197,-1.886Z" style="fill:none;fill-rule:nonzero;stroke:#000;stroke-width:0.36px;stroke-linecap:round;"/><path d="M192.731,64.564l-1.959,-10.087l-1.307,1.233l1.741,8.854c0.52,2.023 0.138,2.963 -0.834,3.525c1.773,-0.824 2.71,-2.006 2.359,-3.525Z" style="fill:none;fill-rule:nonzero;stroke:#000;stroke-width:0.36px;"/><text x="233.287px" y="60.386px" style="font-family:'ArialMT', 'Arial', sans-serif;font-size:8px;fill:#010101;">Shaft</text><text x="58.553px" y="7.348px" style="font-family:'ArialMT', 'Arial', sans-serif;font-size:8px;fill:#010101;">Steel Laminations</text><path d="M107.878,97.14c0.468,-1 0.037,-2.192 -0.963,-2.66c-0.999,-0.468 -2.191,-0.037 -2.659,0.963c-0.468,0.999 -0.037,2.191 0.962,2.659c1,0.468 2.192,0.037 2.66,-0.962Zm-0.906,-0.425c0.235,-0.5 0.019,-1.095 -0.481,-1.33c-0.5,-0.234 -1.095,-0.018 -1.33,0.482c-0.234,0.5 -0.018,1.095 0.482,1.33c0.499,0.234 1.095,0.018 1.329,-0.482Z" style="fill:none;stroke:#fff;stroke-width:4px;stroke-linejoin:miter;stroke-miterlimit:10;"/><path d="M105.218,98.102l-22.178,47.338" style="fill:none;stroke:#fff;stroke-width:4px;stroke-miterlimit:2;"/><path d="M107.878,97.14c0.468,-1 0.037,-2.192 -0.963,-2.66c-0.999,-0.468 -2.191,-0.037 -2.659,0.963c-0.468,0.999 -0.037,2.191 0.962,2.659c1,0.468 2.192,0.037 2.66,-0.962Zm-0.906,-0.425c0.235,-0.5 0.019,-1.095 -0.481,-1.33c-0.5,-0.234 -1.095,-0.018 -1.33,0.482c-0.234,0.5 -0.018,1.095 0.482,1.33c0.499,0.234 1.095,0.018 1.329,-0.482Z" style="fill:none;stroke:#4191d9;stroke-width:2px;stroke-linejoin:miter;stroke-miterlimit:10;"/><path d="M105.218,98.102l-22.178,47.338" style="fill:none;stroke:#4191d9;stroke-width:2px;stroke-linecap:square;stroke-miterlimit:1.5;"/><path d="M224.86,93.499c-0.468,1 -0.037,2.191 0.963,2.66c1,0.468 2.191,0.037 2.66,-0.963c0.468,-0.999 0.037,-2.191 -0.963,-2.659c-1,-0.469 -2.191,-0.037 -2.66,0.962Zm0.906,0.424c-0.234,0.5 -0.019,1.096 0.481,1.33c0.5,0.234 1.096,0.019 1.33,-0.481c0.234,-0.5 0.019,-1.096 -0.481,-1.33c-0.5,-0.234 -1.096,-0.018 -1.33,0.481Z" style="fill:none;stroke:#fff;stroke-width:4px;stroke-linejoin:miter;stroke-miterlimit:10;"/><path d="M227.52,92.537l11.533,-24.617" style="fill:none;stroke:#fff;stroke-width:4px;stroke-miterlimit:2;"/><path d="M224.86,93.499c-0.468,1 -0.037,2.191 0.963,2.66c1,0.468 2.191,0.037 2.66,-0.963c0.468,-0.999 0.037,-2.191 -0.963,-2.659c-1,-0.469 -2.191,-0.037 -2.66,0.962Zm0.906,0.424c-0.234,0.5 -0.019,1.096 0.481,1.33c0.5,0.234 1.096,0.019 1.33,-0.481c0.234,-0.5 0.019,-1.096 -0.481,-1.33c-0.5,-0.234 -1.096,-0.018 -1.33,0.481Z" style="fill:none;stroke:#4191d9;stroke-width:2px;stroke-linejoin:miter;stroke-miterlimit:10;"/><path d="M227.52,92.537l11.533,-24.617" style="fill:none;stroke:#4191d9;stroke-width:2px;stroke-linecap:square;stroke-miterlimit:1.5;"/><path d="M72.502,38.195c-0.468,0.999 -0.037,2.191 0.963,2.659c0.999,0.469 2.191,0.037 2.659,-0.962c0.468,-1 0.037,-2.191 -0.962,-2.66c-1,-0.468 -2.192,-0.037 -2.66,0.963Zm0.906,0.424c-0.235,0.5 -0.019,1.096 0.481,1.33c0.5,0.234 1.095,0.018 1.33,-0.481c0.234,-0.5 0.018,-1.096 -0.482,-1.33c-0.499,-0.234 -1.095,-0.019 -1.329,0.481Z" style="fill:none;stroke:#fff;stroke-width:4px;stroke-linejoin:miter;stroke-miterlimit:10;"/><path d="M75.162,37.232l11.533,-24.616" style="fill:none;stroke:#fff;stroke-width:4px;stroke-miterlimit:2;"/><path d="M72.502,38.195c-0.468,0.999 -0.037,2.191 0.963,2.659c0.999,0.469 2.191,0.037 2.659,-0.962c0.468,-1 0.037,-2.191 -0.962,-2.66c-1,-0.468 -2.192,-0.037 -2.66,0.963Zm0.906,0.424c-0.235,0.5 -0.019,1.096 0.481,1.33c0.5,0.234 1.095,0.018 1.33,-0.481c0.234,-0.5 0.018,-1.096 -0.482,-1.33c-0.499,-0.234 -1.095,-0.019 -1.329,0.481Z" style="fill:none;stroke:#4191d9;stroke-width:2px;stroke-linejoin:miter;stroke-miterlimit:10;"/><path d="M75.162,37.232l11.533,-24.616" style="fill:none;stroke:#4191d9;stroke-width:2px;stroke-linecap:square;stroke-miterlimit:1.5;"/><path d="M183.098,47.904c-0.468,1 -0.037,2.191 0.963,2.66c0.999,0.468 2.191,0.037 2.659,-0.963c0.469,-1 0.037,-2.191 -0.962,-2.66c-1,-0.468 -2.191,-0.037 -2.66,0.963Zm0.906,0.424c-0.234,0.5 -0.019,1.096 0.481,1.33c0.5,0.234 1.096,0.019 1.33,-0.481c0.234,-0.5 0.018,-1.096 -0.481,-1.33c-0.5,-0.234 -1.096,-0.019 -1.33,0.481Z" style="fill:none;stroke:#fff;stroke-width:4px;stroke-linejoin:miter;stroke-miterlimit:10;"/><path d="M185.758,46.941l11.533,-24.616" style="fill:none;stroke:#fff;stroke-width:4px;stroke-miterlimit:2;"/><path d="M183.098,47.904c-0.468,1 -0.037,2.191 0.963,2.66c0.999,0.468 2.191,0.037 2.659,-0.963c0.469,-1 0.037,-2.191 -0.962,-2.66c-1,-0.468 -2.191,-0.037 -2.66,0.963Zm0.906,0.424c-0.234,0.5 -0.019,1.096 0.481,1.33c0.5,0.234 1.096,0.019 1.33,-0.481c0.234,-0.5 0.018,-1.096 -0.481,-1.33c-0.5,-0.234 -1.096,-0.019 -1.33,0.481Z" style="fill:none;stroke:#4191d9;stroke-width:2px;stroke-linejoin:miter;stroke-miterlimit:10;"/><path d="M185.758,46.941l11.533,-24.616" style="fill:none;stroke:#4191d9;stroke-width:2px;stroke-linecap:square;stroke-miterlimit:1.5;"/></g></svg>