<?xml version="1.0" encoding="UTF-8" standalone="no"?><!DOCTYPE svg PUBLIC "-//W3C//DTD SVG 1.1//EN" "http://www.w3.org/Graphics/SVG/1.1/DTD/svg11.dtd"><svg width="100%" height="100%" viewBox="0 0 602 292" version="1.1" xmlns="http://www.w3.org/2000/svg" xmlns:xlink="http://www.w3.org/1999/xlink" xml:space="preserve" xmlns:serif="http://www.serif.com/" style="fill-rule:evenodd;clip-rule:evenodd;stroke-linecap:round;stroke-linejoin:round;stroke-miterlimit:1.5;"><rect id="excitation_system" x="0.045" y="0" width="601" height="290.968" style="fill:none;"/><g><g><rect x="134.085" y="64.56" width="103.44" height="204.832" style="fill:#fce5e4;"/><rect x="262.123" y="110.88" width="103.44" height="145.627" style="fill:#fce5e4;"/><rect x="388.642" y="110.88" width="60" height="145.627" style="fill:#fce5e4;"/></g><g id="armature-windings" serif:id="armature windings"><g><path d="M155.677,79.427c-0,-4.215 3.396,-7.636 7.579,-7.636c4.183,-0 7.58,3.421 7.58,7.636" style="fill:none;stroke:#000;stroke-width:1px;"/><path d="M170.836,79.427c-0,-4.215 3.396,-7.636 7.578,-7.636c4.184,-0 7.58,3.421 7.58,7.636" style="fill:none;stroke:#000;stroke-width:1px;"/><path d="M185.994,79.427c0,-4.215 3.396,-7.636 7.579,-7.636c4.183,-0 7.58,3.421 7.58,7.636" style="fill:none;stroke:#000;stroke-width:1px;"/></g><g><path d="M155.677,94.796c-0,-4.214 3.396,-7.636 7.579,-7.636c4.183,-0 7.58,3.422 7.58,7.636" style="fill:none;stroke:#000;stroke-width:1px;"/><path d="M170.836,94.796c-0,-4.214 3.396,-7.636 7.578,-7.636c4.184,-0 7.58,3.422 7.58,7.636" style="fill:none;stroke:#000;stroke-width:1px;"/><path d="M185.994,94.796c0,-4.214 3.396,-7.636 7.579,-7.636c4.183,-0 7.58,3.422 7.58,7.636" style="fill:none;stroke:#000;stroke-width:1px;"/></g><g><path d="M155.677,110.166c-0,-4.215 3.396,-7.636 7.579,-7.636c4.183,0 7.58,3.421 7.58,7.636" style="fill:none;stroke:#000;stroke-width:1px;"/><path d="M170.836,110.166c-0,-4.215 3.396,-7.636 7.578,-7.636c4.184,0 7.58,3.421 7.58,7.636" style="fill:none;stroke:#000;stroke-width:1px;"/><path d="M185.994,110.166c0,-4.215 3.396,-7.636 7.579,-7.636c4.183,0 7.58,3.421 7.58,7.636" style="fill:none;stroke:#000;stroke-width:1px;"/></g><g><g><path d="M79.862,83.724c-1.93,0 -3.497,-1.566 -3.497,-3.496c0,-1.931 1.567,-3.497 3.497,-3.497c1.93,-0 3.497,1.566 3.497,3.497c0,1.93 -1.567,3.496 -3.497,3.496Z" style="fill:none;stroke:#000;stroke-width:1px;stroke-linecap:butt;stroke-linejoin:miter;stroke-miterlimit:10;"/><path d="M155.678,80.228l-72.319,-0" style="fill:none;stroke:#000;stroke-width:1px;stroke-linecap:square;"/></g><g><path d="M79.832,97.641c-1.93,-0.017 -3.483,-1.597 -3.467,-3.527c0.017,-1.93 1.597,-3.483 3.527,-3.467c1.93,0.017 3.483,1.597 3.467,3.527c-0.017,1.93 -1.597,3.484 -3.527,3.467Z" style="fill:none;stroke:#000;stroke-width:1px;stroke-linecap:butt;stroke-linejoin:miter;stroke-miterlimit:10;"/><path d="M155.678,94.796c-0,-0 -51.983,-0.447 -72.319,-0.622" style="fill:none;stroke:#000;stroke-width:1px;stroke-linecap:square;"/></g><g><path d="M79.862,114.659c-1.93,0 -3.497,-1.567 -3.497,-3.497c0,-1.93 1.567,-3.497 3.497,-3.497c1.93,0 3.497,1.567 3.497,3.497c0,1.93 -1.567,3.497 -3.497,3.497Z" style="fill:none;stroke:#000;stroke-width:1px;stroke-linecap:butt;stroke-linejoin:miter;stroke-miterlimit:10;"/><path d="M155.678,111.162l-72.319,0" style="fill:none;stroke:#000;stroke-width:1px;stroke-linecap:square;"/></g></g><g><path d="M210.647,79.417l0,30.562" style="fill:none;stroke:#000;stroke-width:1px;stroke-linecap:square;"/><path d="M201.153,79.417l9.494,0" style="fill:none;stroke:#000;stroke-width:1px;stroke-linecap:square;"/><path d="M201.153,95.49l9.494,-0" style="fill:none;stroke:#000;stroke-width:1px;stroke-linecap:square;"/><path d="M201.153,109.979l9.494,-0" style="fill:none;stroke:#000;stroke-width:1px;stroke-linecap:square;"/></g></g><g id="AVR"><rect x="264.906" y="30.788" width="102.67" height="61.011" style="fill:#e6e6e6;stroke:#000;stroke-width:1px;stroke-linecap:square;"/><g><g><g><path d="M300.56,130.258c-0,3.531 2.845,6.397 6.348,6.397c3.505,-0 6.35,-2.866 6.35,-6.397" style="fill:none;stroke:#000;stroke-width:1px;"/><path d="M287.861,130.505c0,3.53 2.846,6.396 6.35,6.396c3.505,-0 6.349,-2.866 6.349,-6.396" style="fill:none;stroke:#000;stroke-width:1px;"/><path d="M313.258,130.258c0,3.531 2.844,6.397 6.349,6.397c3.504,-0 6.348,-2.866 6.348,-6.397" style="fill:none;stroke:#000;stroke-width:1px;"/><path d="M325.955,130.258c0,3.531 2.846,6.397 6.349,6.397c3.504,-0 6.35,-2.866 6.35,-6.397" style="fill:none;stroke:#000;stroke-width:1px;"/></g><g><path d="M398.821,130.258c-0,3.531 2.845,6.397 6.349,6.397c3.503,-0 6.349,-2.866 6.349,-6.397" style="fill:none;stroke:#000;stroke-width:1px;"/><path d="M411.519,130.258c-0,3.531 2.844,6.397 6.349,6.397c3.504,-0 6.348,-2.866 6.348,-6.397" style="fill:none;stroke:#000;stroke-width:1px;"/><path d="M424.216,130.258c0,3.531 2.846,6.397 6.35,6.397c3.503,-0 6.348,-2.866 6.348,-6.397" style="fill:none;stroke:#000;stroke-width:1px;"/></g><path d="M287.781,130.258l-0,-69.511l7.017,0" style="fill:none;stroke:#000;stroke-width:1px;stroke-linecap:square;"/><path d="M329.965,60.747l106.949,0.656l-0.158,68.855" style="fill:none;stroke:#000;stroke-width:1px;stroke-linecap:square;"/><path d="M338.654,130.258l-0.081,-53.438l60.248,0l-0,53.438" style="fill:none;stroke:#000;stroke-width:1px;stroke-linecap:square;"/><g><path d="M357.887,54.512l-0,12.472l-10.934,-5.809l10.934,-6.663Z" style="stroke:#000;stroke-width:1px;stroke-linecap:butt;stroke-miterlimit:2;"/><path d="M346.953,54.512l-0,12.472" style="fill:none;stroke:#000;stroke-width:1px;stroke-linecap:square;"/></g><g><g><path d="M329.965,60.747l-2.573,-5.084l-5.022,10.169l-5.147,-10.169l-5.084,10.169l-4.536,-10.169l-5.116,10.169l-5.116,-10.169l-2.573,5.084" style="fill:none;stroke:#000;stroke-width:1px;stroke-linecap:square;"/></g><path d="M309.825,53.01l5.966,-7.68l-0.165,9.723l-5.801,-2.043Z" style="stroke:#000;stroke-width:1px;stroke-linecap:butt;stroke-miterlimit:2;"/><path d="M305.622,74.196c0,0 4.707,-13.363 7.717,-21.905" style="fill:none;stroke:#000;stroke-width:1px;stroke-linecap:square;"/></g></g></g><g><path d="M251.793,34.292l13.113,4.348l-13.099,4.39l-0.014,-8.738Z"/><path d="M109.245,80.228l-0,-41.339c-0,0 110.242,-0.176 145.176,-0.232" style="fill:none;stroke:#000;stroke-width:1.38px;stroke-linecap:square;stroke-dasharray:6.88,6.88,6.88,6.88,0,0;"/></g></g><g id="shaft"><path d="M19.005,187.724l567.438,-0" style="fill:none;stroke:#000;stroke-width:2.5px;stroke-linecap:butt;stroke-miterlimit:2;"/><g><path d="M538.125,157.926l-465.961,-0c0,-0 11.313,15.834 0,29.798c-12.148,14.996 0,34.202 0,34.202l465.961,-0l-0,-64Z" style="fill:#939598;stroke:#000;stroke-width:1.21px;"/><path d="M72.221,186.786c-7.186,-9.406 -7.002,-19.032 0,-28.86" style="fill:none;stroke:#000;stroke-width:1.2px;"/></g><g id="tube"><rect x="156.285" y="162.591" width="342.72" height="54.669" style="fill:#fff;stroke:#000;stroke-width:1.01px;"/></g><g><g><path d="M23.325,201.131l5.162,-7.81l5.223,7.768" style="fill:none;stroke:#000;stroke-width:2px;stroke-linecap:butt;stroke-linejoin:miter;stroke-miterlimit:10;"/><path d="M45.626,142.178c4.565,7.903 7.788,27.015 7.788,49.314c0,29.358 -5.586,53.192 -12.467,53.192c-6.738,0 -12.234,-22.849 -12.46,-51.363" style="fill:none;stroke:#000;stroke-width:2px;stroke-linecap:square;"/></g></g></g><g id="rotor-parts" serif:id="rotor parts"><g id="diode-plate" serif:id="diode plate"><rect x="481.965" y="149.926" width="41.002" height="80" style="fill:#f2f2f2;stroke:#000;stroke-width:0.88px;"/></g><g id="Main-Rotor" serif:id="Main Rotor"><rect x="145.805" y="119.627" width="80" height="136.674" style="fill:#f2f2f2;stroke:#000;stroke-width:0.91px;"/></g><g><g><g><g><path d="M167.936,140.567l32.126,-0l0,32.802l270.819,1.366l0.042,-8.2l43.473,0.395" style="fill:none;stroke:#000;stroke-width:2.5px;stroke-linecap:square;"/></g><g><path d="M168.017,238.662l32.045,0l0,-32.658l270.9,-1.51l0.041,8.2l43.474,-0.395" style="fill:none;stroke:#000;stroke-width:2.5px;"/></g></g></g><g><g><path d="M167.936,180.235c-3.54,0 -6.414,-2.866 -6.414,-6.396c0,-3.53 2.874,-6.396 6.414,-6.396" style="fill:none;stroke:#000;stroke-width:2.5px;"/><path d="M167.936,167.443c-3.54,-0 -6.414,-2.866 -6.414,-6.397c0,-3.53 2.874,-6.396 6.414,-6.396" style="fill:none;stroke:#000;stroke-width:2.5px;"/><path d="M167.936,218.307c-3.54,0 -6.414,-2.866 -6.414,-6.396c0,-3.53 2.874,-6.396 6.414,-6.396" style="fill:none;stroke:#000;stroke-width:2.5px;"/><path d="M167.936,205.515c-3.54,-0 -6.414,-2.866 -6.414,-6.397c0,-3.53 2.874,-6.396 6.414,-6.396" style="fill:none;stroke:#000;stroke-width:2.5px;"/><path d="M167.936,192.722c-3.54,0 -6.414,-2.866 -6.414,-6.396c0,-3.531 2.874,-6.397 6.414,-6.397" style="fill:none;stroke:#000;stroke-width:2.5px;"/></g><path d="M167.936,140.567l0,14.083" style="fill:none;stroke:#000;stroke-width:2.5px;stroke-linecap:square;"/><g><path d="M167.936,218.307l0,19.787" style="fill:none;stroke:#000;stroke-width:2.5px;stroke-linecap:square;"/></g></g></g><g id="exciter-core" serif:id="exciter core"><rect x="281.18" y="144.843" width="70" height="90" style="fill:#f2f2f2;stroke:#000;stroke-width:1.48px;"/></g><g><g><g><g><g><g><path d="M494.271,167.385l-0.412,44.688" style="fill:none;stroke:#000;stroke-width:1px;stroke-linecap:square;"/></g><g><g><path d="M498.475,179.748l-8.409,-0l3.916,-7.372l4.493,7.372Z" style="stroke:#000;stroke-width:1px;stroke-linecap:butt;stroke-miterlimit:2;"/><path d="M498.475,172.376l-8.409,-0" style="fill:none;stroke:#000;stroke-width:1px;stroke-linecap:square;"/></g><g><path d="M498.475,207.083l-8.409,-0l3.916,-7.372l4.493,7.372Z" style="stroke:#000;stroke-width:1px;stroke-linecap:butt;stroke-miterlimit:2;"/><path d="M498.475,199.711l-8.409,-0" style="fill:none;stroke:#000;stroke-width:1px;stroke-linecap:square;"/></g></g></g></g><g><g><g><path d="M504.718,167.385l-0.412,44.688" style="fill:none;stroke:#000;stroke-width:1px;stroke-linecap:square;"/></g><g><g><path d="M508.922,179.748l-8.409,-0l3.917,-7.372l4.492,7.372Z" style="stroke:#000;stroke-width:1px;stroke-linecap:butt;stroke-miterlimit:2;"/><path d="M508.922,172.376l-8.409,-0" style="fill:none;stroke:#000;stroke-width:1px;stroke-linecap:square;"/></g><g><path d="M508.922,207.083l-8.409,-0l3.917,-7.372l4.492,7.372Z" style="stroke:#000;stroke-width:1px;stroke-linecap:butt;stroke-miterlimit:2;"/><path d="M508.922,199.711l-8.409,-0" style="fill:none;stroke:#000;stroke-width:1px;stroke-linecap:square;"/></g></g></g></g><g><g><g><path d="M515.165,167.541l-0.411,44.688" style="fill:none;stroke:#000;stroke-width:1px;stroke-linecap:square;"/></g><g><g><path d="M519.369,179.903l-8.408,0l3.916,-7.372l4.492,7.372Z" style="stroke:#000;stroke-width:1px;stroke-linecap:butt;stroke-miterlimit:2;"/><path d="M519.369,172.531l-8.408,0" style="fill:none;stroke:#000;stroke-width:1px;stroke-linecap:square;"/></g><g><path d="M519.369,207.238l-8.408,0l3.916,-7.372l4.492,7.372Z" style="stroke:#000;stroke-width:1px;stroke-linecap:butt;stroke-miterlimit:2;"/><path d="M519.369,199.866l-8.408,0" style="fill:none;stroke:#000;stroke-width:1px;stroke-linecap:square;"/></g></g></g></g></g></g><g><g><g><g><path d="M335.452,170.286c0,-3.53 -2.845,-6.396 -6.35,-6.396c-3.503,0 -6.348,2.866 -6.348,6.396" style="fill:none;stroke:#000;stroke-width:1px;"/><path d="M322.754,170.286c-0,-3.53 -2.844,-6.396 -6.349,-6.396c-3.504,0 -6.348,2.866 -6.348,6.396" style="fill:none;stroke:#000;stroke-width:1px;"/><path d="M310.057,170.286c-0,-3.53 -2.846,-6.396 -6.35,-6.396c-3.504,0 -6.349,2.866 -6.349,6.396" style="fill:none;stroke:#000;stroke-width:1px;"/></g></g><g><g><path d="M335.452,189.421c0,-3.531 -2.845,-6.397 -6.35,-6.397c-3.503,0 -6.348,2.866 -6.348,6.397" style="fill:none;stroke:#000;stroke-width:1px;"/><path d="M322.754,189.421c-0,-3.531 -2.844,-6.397 -6.349,-6.397c-3.504,0 -6.348,2.866 -6.348,6.397" style="fill:none;stroke:#000;stroke-width:1px;"/><path d="M310.057,189.421c-0,-3.531 -2.846,-6.397 -6.35,-6.397c-3.504,0 -6.349,2.866 -6.349,6.397" style="fill:none;stroke:#000;stroke-width:1px;"/></g></g><g><g><path d="M335.452,208.555c0,-3.53 -2.845,-6.396 -6.35,-6.396c-3.503,-0 -6.348,2.866 -6.348,6.396" style="fill:none;stroke:#000;stroke-width:1px;"/><path d="M322.754,208.555c-0,-3.53 -2.844,-6.396 -6.349,-6.396c-3.504,-0 -6.348,2.866 -6.348,6.396" style="fill:none;stroke:#000;stroke-width:1px;"/><path d="M310.057,208.555c-0,-3.53 -2.846,-6.396 -6.35,-6.396c-3.504,-0 -6.349,2.866 -6.349,6.396" style="fill:none;stroke:#000;stroke-width:1px;"/></g></g></g><g><path d="M335.452,170.708l6.725,0l0,11.836l152.093,-0.372" style="fill:none;stroke:#000;stroke-width:1px;stroke-linecap:butt;"/></g><g><path d="M335.452,208.678l7.61,0l-0,-11.033l172.103,0.347" style="fill:none;stroke:#000;stroke-width:1px;stroke-linecap:butt;"/></g><g><path d="M335.452,189.421l169.336,0.376" style="fill:none;stroke:#000;stroke-width:1px;stroke-linecap:butt;"/></g></g><g><path d="M292.67,170.287l0,38.269l0,-38.269Z" style="fill:none;stroke:#000;stroke-width:1px;"/></g><g><path d="M297.358,170.287l-4.688,-0" style="fill:none;stroke:#000;stroke-width:1px;"/></g><g><path d="M297.358,208.556l-4.688,-0" style="fill:none;stroke:#000;stroke-width:1px;"/></g><g><path d="M297.358,189.421l-4.688,0" style="fill:none;stroke:#000;stroke-width:1px;"/></g></g><g id="pilot-rotor" serif:id="pilot rotor"><rect x="402.587" y="144.33" width="32.146" height="90" style="fill:#f2f2f2;stroke:#000;stroke-width:1.06px;"/><g><g transform="matrix(0.911159,0,0,1,36.6078,0)"><text x="412.059px" y="169.394px" style="font-family:'Helvetica-Bold', 'Helvetica';font-weight:700;font-size:20px;stroke:#000;stroke-width:1.05px;stroke-linecap:butt;stroke-miterlimit:2;">N</text></g><g transform="matrix(0.911159,0,0,1,36.648,0)"><text x="412.511px" y="224.48px" style="font-family:'Helvetica-Bold', 'Helvetica';font-weight:700;font-size:20px;stroke:#000;stroke-width:1.05px;stroke-linecap:butt;stroke-miterlimit:2;">S</text></g></g></g></g><g transform="matrix(1.36674,0,0,1.36674,127.937,12.8318)"><text x="0px" y="0px" style="font-family:'HelveticaNeue-Medium', 'Helvetica Neue', sans-serif;font-weight:500;font-size:9px;">Curr<tspan x="17.838px 22.842px " y="0px 0px ">en</tspan>t and V<tspan x="56.682px 62.019px " y="0px 0px ">ol</tspan>tage</text><g transform="matrix(9,0,0,9,60.606,9)"></g><text x="21.924px" y="9px" style="font-family:'HelveticaNeue-Medium', 'Helvetica Neue', sans-serif;font-weight:500;font-size:9px;">feedback</text></g><g transform="matrix(1.36674,0,0,1.36674,264.967,14.1145)"><text x="0px" y="0px" style="font-family:'HelveticaNeue-Medium', 'Helvetica Neue', sans-serif;font-weight:500;font-size:9px;">V<tspan x="5.004px 10.341px " y="0px 0px ">ol</tspan>tage Regulator</text><g transform="matrix(9,0,0,9,48.078,9)"></g><text x="25.794px" y="9px" style="font-family:'HelveticaNeue-Medium', 'Helvetica Neue', sans-serif;font-weight:500;font-size:9px;">(A<tspan x="33.741px 39.24px " y="9px 9px ">VR</tspan>)</text></g><g transform="matrix(12.3007,0,0,12.3007,507.549,283.103)"></g><g transform="matrix(12.3007,0,0,12.3007,511.423,283.103)"></g><g transform="matrix(12.3007,0,0,12.3007,525.557,283.103)"></g><text x="478.15px" y="283.103px" style="font-family:'HelveticaNeue-Medium', 'Helvetica Neue', sans-serif;font-weight:500;font-size:12.301px;">Rectiï¬er</text><g transform="matrix(12.3007,0,0,12.3007,461.061,283.312)"></g><text x="375.153px" y="283.312px" style="font-family:'HelveticaNeue-Medium', 'Helvetica Neue', sans-serif;font-weight:500;font-size:12.301px;">Pilot Generator</text><g transform="matrix(12.3007,0,0,12.3007,364.838,283.312)"></g><text x="265.03px" y="283.312px" style="font-family:'HelveticaNeue-Medium', 'Helvetica Neue', sans-serif;font-weight:500;font-size:12.301px;">Exciter Generator</text><g transform="matrix(12.3007,0,0,12.3007,229.374,283.312)"></g><text x="141.19px" y="283.312px" style="font-family:'HelveticaNeue-Medium', 'Helvetica Neue', sans-serif;font-weight:500;font-size:12.301px;">Main Generator</text><g transform="matrix(1.36674,0,0,1.36674,-12.6318,92.5427)"><text x="20.921px" y="0px" style="font-family:'HelveticaNeue-Medium', 'Helvetica Neue', sans-serif;font-weight:500;font-size:9px;">3-phase</text><g transform="matrix(9,0,0,9,59.679,9)"></g><text x="16.011px" y="9px" style="font-family:'HelveticaNeue-Medium', 'Helvetica Neue', sans-serif;font-weight:500;font-size:9px;">AC Output</text></g><g transform="matrix(12.3007,0,0,12.3007,224.903,97.5302)"></g><text x="218.064px" y="97.53px" style="font-family:'HelveticaNeue-Medium', 'Helvetica Neue', sans-serif;font-weight:500;font-size:12.301px;">3</text><g transform="matrix(12.3007,0,0,12.3007,322.963,224.022)"></g><text x="309.285px" y="224.022px" style="font-family:'HelveticaNeue-Medium', 'Helvetica Neue', sans-serif;font-weight:500;font-size:12.301px;">19</text><g transform="matrix(12.3007,0,0,12.3007,181.549,192.269)"></g><text x="174.71px" y="192.269px" style="font-family:'HelveticaNeue-Medium', 'Helvetica Neue', sans-serif;font-weight:500;font-size:12.301px;">4</text><g transform="matrix(12.3007,0,0,12.3007,320.664,128.409)"></g><text x="306.985px" y="128.409px" style="font-family:'HelveticaNeue-Medium', 'Helvetica Neue', sans-serif;font-weight:500;font-size:12.301px;">20</text><g transform="matrix(12.3007,0,0,12.3007,425.691,128.237)"></g><text x="412.012px" y="128.237px" style="font-family:'HelveticaNeue-Medium', 'Helvetica Neue', sans-serif;font-weight:500;font-size:12.301px;">17</text></g></svg>