<?xml version="1.0" encoding="UTF-8" standalone="no"?><!DOCTYPE svg PUBLIC "-//W3C//DTD SVG 1.1//EN" "http://www.w3.org/Graphics/SVG/1.1/DTD/svg11.dtd"><svg width="100%" height="100%" viewBox="0 0 151 125" version="1.1" xmlns="http://www.w3.org/2000/svg" xmlns:xlink="http://www.w3.org/1999/xlink" xml:space="preserve" xmlns:serif="http://www.serif.com/" style="fill-rule:evenodd;clip-rule:evenodd;stroke-linecap:square;stroke-linejoin:round;stroke-miterlimit:1.5;"><rect id="IGBT_symbol" x="0.045" y="0.114" width="150" height="124.231" style="fill:none;"/><g><g><g><circle cx="93.162" cy="64.313" r="18.672" style="fill:#fff;stroke:#000;stroke-width:1px;"/><g><path d="M83.516,64.313l-34.226,-0" style="fill:none;"/><path d="M48.042,65.561c-0.689,0 -1.248,-0.559 -1.248,-1.248c-0,-0.689 0.559,-1.248 1.248,-1.248c0.689,-0 1.248,0.559 1.248,1.248c0,0.689 -0.559,1.248 -1.248,1.248Zm0,-0.624c-0.344,0 -0.624,-0.28 -0.624,-0.624c0,-0.345 0.28,-0.624 0.624,-0.624c0.345,-0 0.624,0.279 0.624,0.624c0,0.344 -0.279,0.624 -0.624,0.624Z" style="fill:none;stroke:#000;stroke-width:1px;stroke-linecap:butt;stroke-linejoin:miter;stroke-miterlimit:10;"/><path d="M83.516,64.313l-34.226,-0" style="fill:none;stroke:#000;stroke-width:1px;"/></g><path d="M105.286,23.097c-0,-1.078 -0.875,-1.953 -1.953,-1.953c-1.078,0 -1.953,0.875 -1.953,1.953c-0,1.078 0.875,1.954 1.953,1.954c1.078,-0 1.953,-0.876 1.953,-1.954Z"/><path d="M103.333,23.097l-0,25.248l-16.395,10.275" style="fill:none;stroke:#000;stroke-width:1px;"/><path d="M101.38,105.983c-0,1.078 0.875,1.953 1.953,1.953c1.078,-0 1.953,-0.875 1.953,-1.953c-0,-1.078 -0.875,-1.954 -1.953,-1.954c-1.078,0 -1.953,0.876 -1.953,1.954Z"/><path d="M103.333,105.983l-0,-25.248" style="fill:none;stroke:#000;stroke-width:1px;"/><path d="M98.475,77.747l-11.537,-7.287" style="fill:none;stroke:#000;stroke-width:1px;"/></g><path d="M86.938,54.141l-0,20.344" style="fill:none;stroke:#000;stroke-width:1px;"/><path d="M83.516,56.798l-0,15.03" style="fill:none;stroke:#000;stroke-width:1px;"/><path d="M102.782,79.843l-9.165,-1.657l2.97,-5.297l6.195,6.954Z"/><g transform="matrix(12,0,0,12,35.2455,69.3385)"></g><text x="12.593px" y="69.338px" style="font-family:'TimesNewRomanPSMT', 'Times New Roman', serif;font-size:12px;">Gate</text></g><g transform="matrix(12,0,0,12,124.787,9.9341)"></g><text x="80.132px" y="9.934px" style="font-family:'TimesNewRomanPSMT', 'Times New Roman', serif;font-size:12px;">Collector</text><g transform="matrix(12,0,0,12,120.572,123.202)"></g><text x="84.584px" y="123.202px" style="font-family:'TimesNewRomanPSMT', 'Times New Roman', serif;font-size:12px;">Emitter</text></g></svg>