<?xml version="1.0" encoding="UTF-8" standalone="no"?>
<!DOCTYPE svg PUBLIC "-//W3C//DTD SVG 1.1//EN" "http://www.w3.org/Graphics/SVG/1.1/DTD/svg11.dtd">
<svg width="100%" height="100%" viewBox="0 0 101 101" version="1.1" xmlns="http://www.w3.org/2000/svg" xmlns:xlink="http://www.w3.org/1999/xlink" xml:space="preserve" xmlns:serif="http://www.serif.com/" style="fill-rule:evenodd;clip-rule:evenodd;stroke-linecap:round;stroke-linejoin:round;stroke-miterlimit:10;">
    <g transform="matrix(1,0,0,1,-645,-134)">
        <g transform="matrix(1.0101,0,0,1.11111,93.8339,-1118.73)">
            <rect id="crossing_jump" x="546" y="1128" width="99" height="90" style="fill:none;"/>
            <g id="crossing_jump1" serif:id="crossing_jump">
                <g id="jump" transform="matrix(0.99,0,0,0.9,9.56944,-158.55)">
                    <g transform="matrix(1,0,0,1,0,435)">
                        <path d="M554,1041L635,1041" style="fill:none;stroke:black;stroke-width:3px;"/>
                    </g>
                    <g>
                        <g transform="matrix(1,0,0,0.730769,0,654.346)">
                            <path d="M594.5,1110L594.5,1071" style="fill:none;stroke:black;stroke-width:3.43px;"/>
                        </g>
                        <g transform="matrix(1,0,0,0.730769,0,706.846)">
                            <path d="M594.5,1110L594.5,1071" style="fill:none;stroke:black;stroke-width:3.43px;"/>
                        </g>
                        <g transform="matrix(1,0,0,1,28.5,-60.5)">
                            <path d="M566,1526C572.071,1526 577,1530.93 577,1537C577,1543.07 572.071,1548 566,1548" style="fill:none;stroke:black;stroke-width:3px;"/>
                        </g>
                    </g>
                </g>
            </g>
        </g>
    </g>
</svg>
