<?xml version="1.0" encoding="UTF-8" standalone="no"?>
<!DOCTYPE svg PUBLIC "-//W3C//DTD SVG 1.1//EN" "http://www.w3.org/Graphics/SVG/1.1/DTD/svg11.dtd">
<svg width="100%" height="100%" viewBox="0 0 101 100" version="1.1" xmlns="http://www.w3.org/2000/svg" xmlns:xlink="http://www.w3.org/1999/xlink" xml:space="preserve" xmlns:serif="http://www.serif.com/" style="fill-rule:evenodd;clip-rule:evenodd;stroke-linecap:round;stroke-linejoin:round;stroke-miterlimit:10;">
    <g transform="matrix(1,0,0,1,-4,-854)">
        <g transform="matrix(1.0101,0,0,1.11111,-547.213,-399.333)">
            <rect id="rectifier_diode" x="546" y="1128" width="99" height="90" style="fill:none;"/>
            <clipPath id="_clip1">
                <rect id="rectifier_diode1" serif:id="rectifier_diode" x="546" y="1128" width="99" height="90"/>
            </clipPath>
            <g clip-path="url(#_clip1)">
                <g id="diode" transform="matrix(0.99,0,0,0.9,-701.895,225.74)">
                    <g transform="matrix(1,0,0,1,0,-0.00819305)">
                        <path d="M1251,1051.82L1370,1051.82" style="fill:none;stroke:black;stroke-width:3px;"/>
                    </g>
                    <g transform="matrix(8.9572e-17,1.46282,-1.46282,8.9572e-17,2833.89,-860.825)">
                        <path d="M1307.5,1032L1319,1052L1296,1052L1307.5,1032Z" style="fill:white;stroke:black;stroke-width:2.05px;"/>
                    </g>
                    <g transform="matrix(1,0,0,1,-2.25643,0)">
                        <path d="M1324.26,1037.63L1324.26,1066" style="fill:none;stroke:black;stroke-width:3px;"/>
                    </g>
                </g>
            </g>
        </g>
    </g>
</svg>
