<?xml version="1.0" encoding="UTF-8" standalone="no"?>
<!DOCTYPE svg PUBLIC "-//W3C//DTD SVG 1.1//EN" "http://www.w3.org/Graphics/SVG/1.1/DTD/svg11.dtd">
<svg width="100%" height="100%" viewBox="0 0 101 100" version="1.1" xmlns="http://www.w3.org/2000/svg" xmlns:xlink="http://www.w3.org/1999/xlink" xml:space="preserve" xmlns:serif="http://www.serif.com/" style="fill-rule:evenodd;clip-rule:evenodd;stroke-linejoin:round;stroke-miterlimit:10;">
    <g transform="matrix(1,0,0,1,-1010,-998)">
        <g transform="matrix(1.0101,0,0,1.11111,458.72,-255.333)">
            <rect id="three_phase_motor" x="546" y="1128" width="99" height="90" style="fill:none;"/>
            <g id="three_phase_motor1" serif:id="three_phase_motor">
                <g id="motor" transform="matrix(1.2375,0,0,1.125,-563.102,-1287.38)">
                    <g>
                        <g transform="matrix(0.8,0,0,0.8,102.812,1348.6)">
                            <path d="M1060.24,1048L1011,1048" style="fill:none;stroke:black;stroke-width:2.5px;"/>
                        </g>
                        <g transform="matrix(0.8,0,0,0.8,102.812,1348.6)">
                            <path d="M1060.24,1048L1037.74,1018L1011,1018" style="fill:none;stroke:black;stroke-width:2.5px;"/>
                        </g>
                        <g transform="matrix(0.8,0,0,0.8,102.812,1348.6)">
                            <path d="M1060.24,1048L1037.74,1081L1011,1081" style="fill:none;stroke:black;stroke-width:2.5px;"/>
                        </g>
                        <g transform="matrix(1.33333,0,0,1.33333,148.945,-553)">
                            <circle cx="569" cy="2037" r="3" style="fill:white;stroke:black;stroke-width:1.25px;stroke-linecap:square;stroke-linejoin:miter;stroke-miterlimit:1.5;"/>
                        </g>
                        <g transform="matrix(1.33333,0,0,1.33333,148.945,-528.968)">
                            <circle cx="569" cy="2037" r="3" style="fill:white;stroke:black;stroke-width:1.25px;stroke-linecap:square;stroke-linejoin:miter;stroke-miterlimit:1.5;"/>
                        </g>
                        <g transform="matrix(1.33333,0,0,1.33333,148.945,-502.6)">
                            <circle cx="569" cy="2037" r="3" style="fill:white;stroke:black;stroke-width:1.25px;stroke-linecap:square;stroke-linejoin:miter;stroke-miterlimit:1.5;"/>
                        </g>
                    </g>
                    <circle cx="951" cy="2187" r="18" style="fill:white;stroke:black;stroke-width:2.17px;stroke-linecap:square;stroke-linejoin:miter;stroke-miterlimit:1.5;"/>
                    <g transform="matrix(0.491834,0,0,0.491834,510.484,1634.68)">
                        <g transform="matrix(41.8814,0,0,41.8814,912.888,1138)">
                        </g>
                        <text x="878px" y="1138px" style="font-family:'Helvetica-Bold', 'Helvetica';font-weight:700;font-size:41.881px;">M</text>
                    </g>
                </g>
            </g>
        </g>
    </g>
</svg>
